<svg width="90" height="46" viewBox="0 0 90 46" fill="none" xmlns="http://www.w3.org/2000/svg">
<path d="M28.9414 39.8861V21.6367H31.6267V39.8861H28.9414Z" fill="white"/>
<path d="M39.6006 40.2511C38.6794 40.2511 37.8539 40.0947 37.1239 39.7818C36.4113 39.469 35.8377 39.0084 35.4032 38.4001C34.9861 37.7918 34.7775 37.0531 34.7775 36.1841C34.7775 35.2977 34.9861 34.5677 35.4032 33.9942C35.8377 33.4032 36.42 32.96 37.15 32.6646C37.8973 32.3691 38.7403 32.2214 39.6788 32.2214H43.5894V31.3871C43.5894 30.6397 43.3634 30.0401 42.9115 29.5882C42.4597 29.1363 41.7644 28.9104 40.8259 28.9104C39.9047 28.9104 39.2008 29.1277 38.7142 29.5622C38.2275 29.9967 37.906 30.5615 37.7496 31.2567L35.2468 30.4486C35.4554 29.7533 35.7856 29.1277 36.2375 28.5715C36.7068 27.9979 37.3238 27.5374 38.0885 27.1897C38.8532 26.8421 39.7744 26.6683 40.852 26.6683C42.5205 26.6683 43.8327 27.0942 44.7886 27.9458C45.7445 28.7974 46.2225 30.0054 46.2225 31.5696V36.8619C46.2225 37.3833 46.4658 37.644 46.9525 37.644H48.0474V39.8861H46.04C45.4317 39.8861 44.9364 39.7297 44.554 39.4168C44.1716 39.104 43.9804 38.6782 43.9804 38.1394V38.0612H43.5894C43.4503 38.3219 43.2418 38.626 42.9637 38.9736C42.6856 39.3212 42.2772 39.6254 41.7384 39.8861C41.1996 40.1294 40.487 40.2511 39.6006 40.2511ZM39.9916 38.0351C41.0692 38.0351 41.9382 37.7309 42.5987 37.1226C43.2592 36.4969 43.5894 35.6453 43.5894 34.5677V34.307H39.8352C39.1226 34.307 38.5491 34.4634 38.1146 34.7763C37.6801 35.0717 37.4628 35.5149 37.4628 36.1059C37.4628 36.6968 37.6887 37.1661 38.1406 37.5137C38.5925 37.8613 39.2095 38.0351 39.9916 38.0351Z" fill="white"/>
<path d="M51.8134 45.1002V42.7539H58.9828C59.4695 42.7539 59.7128 42.4931 59.7128 41.9717V38.009H59.2956C59.1392 38.3566 58.8959 38.6955 58.5657 39.0258C58.2528 39.3386 57.827 39.5993 57.2882 39.8079C56.7494 40.0164 56.0716 40.1207 55.2547 40.1207C54.2814 40.1207 53.4124 39.9035 52.6477 39.469C51.8829 39.0345 51.2833 38.4175 50.8488 37.618C50.4143 36.8185 50.197 35.8712 50.197 34.7763V27.0333H52.8823V34.5677C52.8823 35.68 53.1604 36.5056 53.7166 37.0444C54.2727 37.5658 55.0461 37.8265 56.0368 37.8265C57.1318 37.8265 58.0095 37.4615 58.67 36.7316C59.3478 36.0016 59.6867 34.9414 59.6867 33.551V27.0333H62.372V42.5192C62.372 43.3013 62.1373 43.927 61.6681 44.3963C61.2162 44.8656 60.5905 45.1002 59.791 45.1002H51.8134Z" fill="white"/>
<path d="M30.148 18.7149C28.8618 18.7149 27.7147 18.4542 26.7067 17.9328C25.716 17.394 24.9339 16.6293 24.3603 15.6386C23.7868 14.6479 23.5 13.4748 23.5 12.1191V11.728C23.5 10.3724 23.7868 9.20789 24.3603 8.23459C24.9339 7.24391 25.716 6.47918 26.7067 5.94039C27.7147 5.40159 28.8618 5.1322 30.148 5.1322C31.4341 5.1322 32.5812 5.40159 33.5893 5.94039C34.5974 6.47918 35.3882 7.24391 35.9617 8.23459C36.5353 9.20789 36.822 10.3724 36.822 11.728V12.1191C36.822 13.4748 36.5353 14.6479 35.9617 15.6386C35.3882 16.6293 34.5974 17.394 33.5893 17.9328C32.5812 18.4542 31.4341 18.7149 30.148 18.7149ZM30.148 16.3165C31.3299 16.3165 32.2858 15.9428 33.0157 15.1954C33.7631 14.4307 34.1368 13.3792 34.1368 12.0409V11.8063C34.1368 10.468 33.7718 9.42515 33.0418 8.67779C32.3118 7.91306 31.3472 7.53069 30.148 7.53069C28.9835 7.53069 28.0276 7.91306 27.2802 8.67779C26.5503 9.42515 26.1853 10.468 26.1853 11.8063V12.0409C26.1853 13.3792 26.5503 14.4307 27.2802 15.1954C28.0276 15.9428 28.9835 16.3165 30.148 16.3165Z" fill="white"/>
<path d="M40.1652 18.35V5.49719H42.7983V7.00928H43.2154C43.424 6.47049 43.7542 6.07943 44.2061 5.8361C44.6754 5.5754 45.2489 5.44504 45.9268 5.44504H47.4649V7.8696H45.8225C44.9535 7.8696 44.2409 8.11293 43.6847 8.59958C43.1285 9.06885 42.8504 9.79882 42.8504 10.7895V18.35H40.1652Z" fill="white"/>
<path d="M55.1073 18.7149C54.0471 18.7149 53.0651 18.4542 52.1613 17.9328C51.2575 17.4114 50.5275 16.6641 49.9714 15.6908C49.4326 14.7001 49.1632 13.5095 49.1632 12.1191V11.728C49.1632 10.355 49.4326 9.17313 49.9714 8.18245C50.5102 7.19177 51.2314 6.43573 52.1352 5.91431C53.039 5.3929 54.0297 5.1322 55.1073 5.1322C55.9415 5.1322 56.6367 5.23648 57.1929 5.44504C57.7665 5.65361 58.2357 5.92301 58.6007 6.25323C58.9657 6.56608 59.2438 6.89631 59.435 7.24391H59.8521V0.100586H62.5374V18.35H59.9042V16.525H59.4871C59.1569 17.0812 58.6529 17.5852 57.975 18.0371C57.3146 18.489 56.3586 18.7149 55.1073 18.7149ZM55.8633 16.3686C57.0278 16.3686 57.9837 15.9949 58.7311 15.2476C59.4958 14.5002 59.8782 13.4313 59.8782 12.0409V11.8063C59.8782 10.4332 59.5045 9.37301 58.7571 8.62565C58.0098 7.8783 57.0452 7.50462 55.8633 7.50462C54.7162 7.50462 53.7603 7.8783 52.9955 8.62565C52.2482 9.37301 51.8745 10.4332 51.8745 11.8063V12.0409C51.8745 13.4313 52.2482 14.5002 52.9955 15.2476C53.7603 15.9949 54.7162 16.3686 55.8633 16.3686Z" fill="white"/>
<path d="M72.3822 18.7149C71.0787 18.7149 69.9403 18.4455 68.967 17.9068C67.9937 17.3506 67.229 16.5772 66.6728 15.5865C66.134 14.5784 65.8646 13.4139 65.8646 12.093V11.7802C65.8646 10.4419 66.134 9.27741 66.6728 8.28673C67.2116 7.27867 67.959 6.50525 68.9149 5.96646C69.8882 5.41029 71.0092 5.1322 72.278 5.1322C73.512 5.1322 74.5896 5.41029 75.5107 5.96646C76.4493 6.50525 77.1792 7.26129 77.7006 8.23459C78.222 9.20789 78.4828 10.3463 78.4828 11.6498V12.6666H68.602C68.6368 13.7963 69.0105 14.7001 69.7231 15.3779C70.453 16.0384 71.3568 16.3686 72.4344 16.3686C73.4425 16.3686 74.1985 16.1427 74.7025 15.6908C75.2239 15.2389 75.6237 14.7175 75.9018 14.1265L78.1178 15.2736C77.8744 15.7603 77.5181 16.273 77.0489 16.8118C76.597 17.3506 75.9974 17.8025 75.25 18.1675C74.5027 18.5325 73.5467 18.7149 72.3822 18.7149ZM68.6281 10.607H75.7454C75.6758 9.63371 75.3282 8.87767 74.7025 8.33888C74.0768 7.7827 73.26 7.50462 72.2519 7.50462C71.2438 7.50462 70.4183 7.7827 69.7752 8.33888C69.1495 8.87767 68.7671 9.63371 68.6281 10.607Z" fill="white"/>
<path d="M81.7151 18.35V5.49719H84.3482V7.00928H84.7653C84.9739 6.47049 85.3041 6.07943 85.756 5.8361C86.2253 5.5754 86.7988 5.44504 87.4767 5.44504H89.0148V7.8696H87.3724C86.5034 7.8696 85.7908 8.11293 85.2346 8.59958C84.6784 9.06885 84.4004 9.79882 84.4004 10.7895V18.35H81.7151Z" fill="white"/>
<path fill-rule="evenodd" clip-rule="evenodd" d="M9.53183 2.58616C10.3755 1.90914 11.6127 2.03876 12.2952 2.87567C13.4803 4.3288 14.5476 6.82645 14.2128 9.81454C13.8711 12.865 12.1018 16.1597 8.08253 19.2244C4.69265 21.8093 3.94145 23.949 3.92993 25.3207C3.91781 26.7632 4.71368 27.9283 5.46233 28.5378C6.30117 29.2207 6.42308 30.4489 5.73463 31.281C5.04617 32.1131 3.80806 32.234 2.96922 31.5511C1.53393 30.3826 -0.0239974 28.1775 0.000280164 25.2882C0.0251538 22.3279 1.70056 19.174 5.68755 16.1338C9.04513 13.5736 10.1069 11.1705 10.3071 9.38394C10.5143 7.53501 9.83446 6.05635 9.23997 5.32737C8.55747 4.49046 8.68814 3.26317 9.53183 2.58616ZM10.2219 23.4708C10.9121 22.6401 12.1504 22.5216 12.9879 23.2063C14.6407 24.5574 16.5277 27.0958 17.0811 30.4778C17.648 33.9429 16.7779 38.0637 13.2733 42.4142C12.5958 43.2552 11.3594 43.3922 10.5116 42.7202C9.66388 42.0482 9.5258 40.8217 10.2032 39.9808C13.1049 36.3787 13.5693 33.347 13.202 31.1023C12.8212 28.7744 11.5051 27.0455 10.4886 26.2145C9.65118 25.5299 9.53177 24.3015 10.2219 23.4708Z" fill="#FEF2F2"/>
</svg>
