<svg width="580" height="226" viewBox="0 0 580 226" fill="none" xmlns="http://www.w3.org/2000/svg">
<g clipPath="url(#clip0_1328_3020)">
<rect width="580" height="225" transform="translate(0 0.486816)" fill="#F9F9F9"/>
<rect y="0.486816" width="580" height="225" rx="8" fill="#F9F9F9"/>
<rect x="135" y="20" width="309.713" height="495.657" rx="9.02077" fill="white"/>
<mask id="path-3-inside-1_1328_3020" fill="white">
<path d="M144.02 29.0208H435.691V109.842H144.02V29.0208Z"/>
</mask>
<path d="M435.691 109.09H144.02V110.593H435.691V109.09Z" fill="#E2E8F0" mask="url(#path-3-inside-1_1328_3020)"/>
<path d="M148.909 64.0483L144.218 50.6074H146.888L150.569 61.739H150.045L153.726 50.6074H156.396L151.723 64.0483H148.909ZM161.456 64.2648C160.446 64.2648 159.562 64.0363 158.804 63.5793C158.046 63.1222 157.457 62.5028 157.036 61.721C156.615 60.9392 156.404 60.0732 156.404 59.123C156.404 58.1367 156.615 57.2647 157.036 56.507C157.469 55.7372 158.052 55.1298 158.786 54.6848C159.532 54.2398 160.361 54.0172 161.276 54.0172C162.045 54.0172 162.719 54.1435 163.296 54.3961C163.886 54.6487 164.385 54.9975 164.794 55.4425C165.203 55.8876 165.515 56.3987 165.732 56.9761C165.948 57.5414 166.057 58.1548 166.057 58.8163C166.057 58.9847 166.045 59.1591 166.02 59.3395C166.008 59.5199 165.978 59.6763 165.93 59.8086H158.353V58.0044H164.595L163.477 58.8524C163.585 58.2991 163.555 57.806 163.386 57.373C163.23 56.94 162.965 56.5972 162.593 56.3446C162.232 56.092 161.793 55.9657 161.276 55.9657C160.782 55.9657 160.343 56.092 159.959 56.3446C159.574 56.5852 159.279 56.946 159.074 57.4271C158.882 57.8962 158.81 58.4675 158.858 59.141C158.81 59.7424 158.888 60.2777 159.093 60.7467C159.309 61.2038 159.622 61.5586 160.031 61.8112C160.452 62.0638 160.933 62.1901 161.474 62.1901C162.015 62.1901 162.472 62.0758 162.845 61.8473C163.23 61.6187 163.531 61.312 163.747 60.9272L165.66 61.8653C165.467 62.3344 165.167 62.7493 164.758 63.1102C164.349 63.471 163.862 63.7537 163.296 63.9581C162.743 64.1626 162.13 64.2648 161.456 64.2648ZM172.611 68.0175C171.877 68.0175 171.198 67.8972 170.572 67.6566C169.947 67.4161 169.406 67.0793 168.949 66.6463C168.504 66.2254 168.179 65.7262 167.974 65.1489L170.176 64.319C170.32 64.776 170.603 65.1429 171.023 65.4195C171.456 65.7082 171.986 65.8525 172.611 65.8525C173.092 65.8525 173.513 65.7623 173.874 65.5819C174.247 65.4015 174.536 65.1368 174.74 64.788C174.945 64.4513 175.047 64.0423 175.047 63.5612V61.3241L175.498 61.8653C175.161 62.4547 174.71 62.8997 174.145 63.2004C173.579 63.5011 172.936 63.6514 172.214 63.6514C171.3 63.6514 170.482 63.4409 169.761 63.02C169.039 62.599 168.474 62.0217 168.065 61.288C167.656 60.5543 167.451 59.7304 167.451 58.8163C167.451 57.8902 167.656 57.0663 168.065 56.3446C168.474 55.6229 169.033 55.0576 169.743 54.6487C170.452 54.2277 171.258 54.0172 172.16 54.0172C172.894 54.0172 173.537 54.1736 174.091 54.4863C174.656 54.787 175.125 55.226 175.498 55.8034L175.173 56.3987V54.2337H177.41V63.5612C177.41 64.4152 177.2 65.1789 176.779 65.8525C176.37 66.526 175.804 67.0553 175.083 67.4401C174.373 67.825 173.549 68.0175 172.611 68.0175ZM172.503 61.4684C173.008 61.4684 173.447 61.3602 173.82 61.1437C174.205 60.9151 174.505 60.6024 174.722 60.2055C174.938 59.8086 175.047 59.3515 175.047 58.8343C175.047 58.3292 174.932 57.8781 174.704 57.4812C174.487 57.0723 174.187 56.7535 173.802 56.525C173.429 56.2965 172.996 56.1822 172.503 56.1822C172.01 56.1822 171.565 56.2965 171.168 56.525C170.771 56.7535 170.458 57.0723 170.23 57.4812C170.013 57.8781 169.905 58.3292 169.905 58.8343C169.905 59.3395 170.013 59.7905 170.23 60.1875C170.458 60.5844 170.765 60.8971 171.15 61.1256C171.547 61.3541 171.998 61.4684 172.503 61.4684ZM183.023 64.0483V50.6074H188.038C188.952 50.6074 189.758 50.7758 190.456 51.1126C191.165 51.4373 191.719 51.9184 192.115 52.5559C192.512 53.1813 192.711 53.9451 192.711 54.8472C192.711 55.7372 192.506 56.501 192.097 57.1384C191.7 57.7639 191.153 58.245 190.456 58.5818C189.758 58.9185 188.952 59.0869 188.038 59.0869H185.476V64.0483H183.023ZM185.476 56.9219H188.074C188.519 56.9219 188.904 56.8377 189.229 56.6694C189.554 56.4889 189.806 56.2424 189.987 55.9296C190.167 55.6169 190.257 55.2561 190.257 54.8472C190.257 54.4262 190.167 54.0654 189.987 53.7647C189.806 53.4519 189.554 53.2114 189.229 53.043C188.904 52.8626 188.519 52.7724 188.074 52.7724H185.476V56.9219ZM196.918 64.2648C196.233 64.2648 195.637 64.1506 195.132 63.922C194.627 63.6935 194.236 63.3688 193.959 62.9478C193.683 62.5148 193.545 62.0157 193.545 61.4504C193.545 60.9091 193.665 60.428 193.905 60.007C194.146 59.574 194.519 59.2132 195.024 58.9245C195.529 58.6359 196.167 58.4314 196.936 58.3111L200.148 57.7879V59.5921L197.387 60.0612C196.918 60.1454 196.57 60.2957 196.341 60.5122C196.112 60.7287 195.998 61.0113 195.998 61.3602C195.998 61.6969 196.124 61.9675 196.377 62.172C196.642 62.3645 196.966 62.4607 197.351 62.4607C197.844 62.4607 198.277 62.3584 198.65 62.154C199.035 61.9375 199.33 61.6428 199.534 61.2699C199.751 60.8971 199.859 60.4881 199.859 60.0431V57.5173C199.859 57.0963 199.691 56.7475 199.354 56.4709C199.029 56.1822 198.596 56.0379 198.055 56.0379C197.55 56.0379 197.099 56.1762 196.702 56.4529C196.317 56.7175 196.034 57.0723 195.854 57.5173L193.923 56.5791C194.116 56.062 194.417 55.6169 194.825 55.2441C195.246 54.8592 195.74 54.5585 196.305 54.342C196.87 54.1255 197.484 54.0172 198.145 54.0172C198.951 54.0172 199.661 54.1676 200.274 54.4683C200.887 54.7569 201.363 55.1659 201.699 55.6951C202.048 56.2123 202.223 56.8197 202.223 57.5173V64.0483H199.985V62.3705L200.491 62.3344C200.238 62.7554 199.937 63.1102 199.588 63.3988C199.24 63.6755 198.843 63.892 198.398 64.0483C197.953 64.1927 197.46 64.2648 196.918 64.2648ZM208.142 64.2648C207.095 64.2648 206.181 64.0183 205.399 63.5251C204.629 63.02 204.1 62.3404 203.812 61.4864L205.58 60.6385C205.832 61.1918 206.181 61.6248 206.626 61.9375C207.083 62.2502 207.588 62.4066 208.142 62.4066C208.575 62.4066 208.917 62.3103 209.17 62.1179C209.422 61.9255 209.549 61.6729 209.549 61.3602C209.549 61.1677 209.495 61.0113 209.386 60.8911C209.29 60.7588 209.152 60.6505 208.971 60.5663C208.803 60.4701 208.617 60.3919 208.412 60.3318L206.806 59.8807C205.977 59.6402 205.345 59.2733 204.912 58.7802C204.491 58.2871 204.281 57.7037 204.281 57.0302C204.281 56.4288 204.431 55.9056 204.732 55.4606C205.044 55.0035 205.471 54.6487 206.013 54.3961C206.566 54.1435 207.197 54.0172 207.907 54.0172C208.833 54.0172 209.651 54.2398 210.361 54.6848C211.07 55.1298 211.575 55.7552 211.876 56.5611L210.072 57.4091C209.904 56.964 209.621 56.6092 209.224 56.3446C208.827 56.08 208.382 55.9477 207.889 55.9477C207.492 55.9477 207.179 56.0379 206.951 56.2183C206.722 56.3987 206.608 56.6333 206.608 56.9219C206.608 57.1023 206.656 57.2587 206.752 57.391C206.849 57.5233 206.981 57.6316 207.149 57.7158C207.33 57.8 207.534 57.8781 207.763 57.9503L209.332 58.4194C210.138 58.6599 210.758 59.0208 211.191 59.5019C211.636 59.983 211.858 60.5723 211.858 61.2699C211.858 61.8593 211.702 62.3825 211.389 62.8396C211.076 63.2846 210.643 63.6334 210.09 63.886C209.537 64.1385 208.887 64.2648 208.142 64.2648ZM218.149 64.1566C217.042 64.1566 216.182 63.8559 215.569 63.2545C214.967 62.6411 214.667 61.7811 214.667 60.6746V56.3446H212.971V54.2337H213.151C213.632 54.2337 214.005 54.1075 214.27 53.8549C214.534 53.6023 214.667 53.2354 214.667 52.7543V51.9966H217.03V54.2337H219.285V56.3446H217.03V60.5483C217.03 60.873 217.084 61.1497 217.192 61.3782C217.313 61.6067 217.493 61.7811 217.734 61.9014C217.986 62.0217 218.305 62.0818 218.69 62.0818C218.774 62.0818 218.87 62.0758 218.979 62.0638C219.099 62.0517 219.213 62.0397 219.321 62.0277V64.0483C219.153 64.0724 218.961 64.0965 218.744 64.1205C218.528 64.1446 218.329 64.1566 218.149 64.1566ZM224.069 64.2648C223.383 64.2648 222.788 64.1506 222.283 63.922C221.777 63.6935 221.387 63.3688 221.11 62.9478C220.833 62.5148 220.695 62.0157 220.695 61.4504C220.695 60.9091 220.815 60.428 221.056 60.007C221.296 59.574 221.669 59.2132 222.174 58.9245C222.679 58.6359 223.317 58.4314 224.087 58.3111L227.298 57.7879V59.5921L224.538 60.0612C224.069 60.1454 223.72 60.2957 223.491 60.5122C223.263 60.7287 223.149 61.0113 223.149 61.3602C223.149 61.6969 223.275 61.9675 223.527 62.172C223.792 62.3645 224.117 62.4607 224.502 62.4607C224.995 62.4607 225.428 62.3584 225.801 62.154C226.186 61.9375 226.48 61.6428 226.685 61.2699C226.901 60.8971 227.009 60.4881 227.009 60.0431V57.5173C227.009 57.0963 226.841 56.7475 226.504 56.4709C226.18 56.1822 225.747 56.0379 225.205 56.0379C224.7 56.0379 224.249 56.1762 223.852 56.4529C223.467 56.7175 223.185 57.0723 223.004 57.5173L221.074 56.5791C221.266 56.062 221.567 55.6169 221.976 55.2441C222.397 54.8592 222.89 54.5585 223.455 54.342C224.021 54.1255 224.634 54.0172 225.296 54.0172C226.101 54.0172 226.811 54.1676 227.424 54.4683C228.038 54.7569 228.513 55.1659 228.85 55.6951C229.199 56.2123 229.373 56.8197 229.373 57.5173V64.0483H227.136V62.3705L227.641 62.3344C227.388 62.7554 227.088 63.1102 226.739 63.3988C226.39 63.6755 225.993 63.892 225.548 64.0483C225.103 64.1927 224.61 64.2648 224.069 64.2648Z" fill="#0F172A"/>
<rect x="363.133" y="46.1689" width="72.5588" height="21.7587" rx="3.75865" fill="#F97316"/>
<path d="M378.433 54.5271L375.801 51.8961C375.767 51.8612 375.725 51.8335 375.679 51.8146C375.634 51.7958 375.585 51.7861 375.536 51.7861H371.025C370.826 51.7861 370.635 51.8653 370.494 52.0063C370.353 52.1473 370.273 52.3385 370.273 52.5379V60.8069C370.273 61.0063 370.353 61.1975 370.494 61.3385C370.635 61.4794 370.826 61.5586 371.025 61.5586H377.791C377.99 61.5586 378.181 61.4794 378.322 61.3385C378.463 61.1975 378.542 61.0063 378.542 60.8069V54.7931C378.543 54.7437 378.533 54.6948 378.514 54.6492C378.495 54.6035 378.467 54.5621 378.433 54.5271ZM375.911 53.0692L377.259 54.4172H375.911V53.0692ZM377.791 60.8069H371.025V52.5379H375.16V54.7931C375.16 54.8927 375.199 54.9883 375.27 55.0588C375.34 55.1293 375.436 55.1689 375.536 55.1689H377.791V60.8069ZM375.911 57.8C375.911 57.8997 375.872 57.9953 375.801 58.0658C375.731 58.1362 375.635 58.1758 375.536 58.1758H374.784V58.9276C374.784 59.0273 374.744 59.1229 374.674 59.1934C374.603 59.2638 374.508 59.3034 374.408 59.3034C374.308 59.3034 374.213 59.2638 374.142 59.1934C374.072 59.1229 374.032 59.0273 374.032 58.9276V58.1758H373.28C373.181 58.1758 373.085 58.1362 373.015 58.0658C372.944 57.9953 372.904 57.8997 372.904 57.8C372.904 57.7003 372.944 57.6047 373.015 57.5342C373.085 57.4637 373.181 57.4241 373.28 57.4241H374.032V56.6724C374.032 56.5727 374.072 56.4771 374.142 56.4066C374.213 56.3361 374.308 56.2965 374.408 56.2965C374.508 56.2965 374.603 56.3361 374.674 56.4066C374.744 56.4771 374.784 56.5727 374.784 56.6724V57.4241H375.536C375.635 57.4241 375.731 57.4637 375.801 57.5342C375.872 57.6047 375.911 57.7003 375.911 57.8Z" fill="#FEFEFE"/>
<path d="M385.769 60.6724V53.779H383.643V52.8318H388.906V53.779H386.811V60.6724H385.769ZM391.654 60.7987C391.107 60.7987 390.619 60.6689 390.191 60.4093C389.763 60.1497 389.426 59.7953 389.181 59.3463C388.935 58.8903 388.812 58.3816 388.812 57.8203C388.812 57.252 388.932 56.7468 389.17 56.3048C389.416 55.8628 389.746 55.5155 390.159 55.2629C390.58 55.0033 391.051 54.8735 391.57 54.8735C391.991 54.8735 392.363 54.9507 392.685 55.105C393.015 55.2524 393.292 55.4559 393.517 55.7155C393.748 55.968 393.924 56.2592 394.043 56.589C394.169 56.9117 394.232 57.2485 394.232 57.5993C394.232 57.6765 394.225 57.7642 394.211 57.8624C394.204 57.9536 394.194 58.0413 394.18 58.1255H389.528V57.2836H393.611L393.148 57.6624C393.212 57.2976 393.176 56.9713 393.043 56.6837C392.91 56.396 392.713 56.168 392.454 55.9996C392.194 55.8312 391.899 55.747 391.57 55.747C391.24 55.747 390.938 55.8312 390.665 55.9996C390.391 56.168 390.177 56.4101 390.023 56.7258C389.875 57.0345 389.816 57.4028 389.844 57.8308C389.816 58.2448 389.879 58.6096 390.033 58.9253C390.195 59.2341 390.419 59.4761 390.707 59.6515C391.001 59.8199 391.321 59.9041 391.664 59.9041C392.043 59.9041 392.363 59.8164 392.622 59.641C392.882 59.4656 393.092 59.2411 393.254 58.9674L394.075 59.3884C393.962 59.648 393.787 59.8866 393.548 60.1041C393.317 60.3145 393.04 60.4829 392.717 60.6092C392.401 60.7355 392.047 60.7987 391.654 60.7987ZM395.509 60.6724V54.9998H396.466V56.1575L396.329 55.9786C396.47 55.6207 396.694 55.3471 397.003 55.1577C397.312 54.9682 397.659 54.8735 398.045 54.8735C398.487 54.8735 398.883 54.9963 399.234 55.2419C399.592 55.4874 399.837 55.8102 399.971 56.2101L399.697 56.2206C399.844 55.7786 400.094 55.4453 400.444 55.2208C400.795 54.9893 401.185 54.8735 401.613 54.8735C402.005 54.8735 402.36 54.9647 402.676 55.1471C402.998 55.3296 403.254 55.5821 403.444 55.9049C403.633 56.2276 403.728 56.5925 403.728 56.9994V60.6724H402.739V57.3151C402.739 56.9994 402.683 56.7328 402.57 56.5153C402.458 56.2978 402.304 56.1294 402.107 56.0101C401.918 55.8838 401.693 55.8207 401.434 55.8207C401.181 55.8207 400.953 55.8838 400.75 56.0101C400.553 56.1294 400.395 56.3013 400.276 56.5258C400.164 56.7433 400.108 57.0064 400.108 57.3151V60.6724H399.118V57.3151C399.118 56.9994 399.062 56.7328 398.95 56.5153C398.838 56.2978 398.683 56.1294 398.487 56.0101C398.297 55.8838 398.073 55.8207 397.813 55.8207C397.561 55.8207 397.333 55.8838 397.129 56.0101C396.933 56.1294 396.775 56.3013 396.656 56.5258C396.543 56.7433 396.487 57.0064 396.487 57.3151V60.6724H395.509ZM405.118 62.7772V54.9998H406.076V56.2206L405.949 55.9786C406.16 55.6418 406.448 55.3752 406.812 55.1787C407.177 54.9752 407.595 54.8735 408.065 54.8735C408.598 54.8735 409.075 55.0033 409.496 55.2629C409.924 55.5225 410.261 55.8768 410.506 56.3259C410.752 56.7679 410.875 57.273 410.875 57.8413C410.875 58.3956 410.752 58.8973 410.506 59.3463C410.261 59.7953 409.924 60.1497 409.496 60.4093C409.075 60.6689 408.595 60.7987 408.054 60.7987C407.598 60.7987 407.181 60.6969 406.802 60.4935C406.43 60.29 406.142 60.0023 405.939 59.6305L406.097 59.4621V62.7772H405.118ZM407.981 59.8515C408.338 59.8515 408.658 59.7638 408.938 59.5884C409.219 59.413 409.436 59.1744 409.591 58.8727C409.752 58.564 409.833 58.2202 409.833 57.8413C409.833 57.4484 409.752 57.1046 409.591 56.81C409.436 56.5083 409.219 56.2697 408.938 56.0943C408.658 55.9119 408.338 55.8207 407.981 55.8207C407.623 55.8207 407.3 55.9084 407.012 56.0838C406.732 56.2592 406.507 56.5013 406.339 56.81C406.177 57.1117 406.097 57.4555 406.097 57.8413C406.097 58.2202 406.177 58.564 406.339 58.8727C406.507 59.1744 406.732 59.413 407.012 59.5884C407.3 59.7638 407.623 59.8515 407.981 59.8515ZM412.158 60.6724V52.7055H413.137V60.6724H412.158ZM416.318 60.7987C415.947 60.7987 415.617 60.732 415.329 60.5987C415.049 60.4584 414.828 60.2689 414.666 60.0304C414.505 59.7848 414.424 59.5042 414.424 59.1884C414.424 58.8868 414.487 58.6166 414.614 58.3781C414.747 58.1325 414.95 57.9255 415.224 57.7572C415.505 57.5888 415.855 57.4695 416.276 57.3993L418.381 57.052V57.8729L416.497 58.1886C416.133 58.2518 415.866 58.3676 415.698 58.5359C415.536 58.7043 415.455 58.9113 415.455 59.1569C415.455 59.3884 415.547 59.5814 415.729 59.7357C415.919 59.8901 416.154 59.9672 416.434 59.9672C416.792 59.9672 417.101 59.8936 417.36 59.7462C417.627 59.5919 417.834 59.3849 417.981 59.1253C418.136 58.8657 418.213 58.578 418.213 58.2623V56.8205C418.213 56.5118 418.097 56.2627 417.866 56.0733C417.641 55.8768 417.343 55.7786 416.971 55.7786C416.648 55.7786 416.361 55.8628 416.108 56.0312C415.862 56.1925 415.68 56.4101 415.561 56.6837L414.708 56.2417C414.813 55.9821 414.982 55.7505 415.213 55.5471C415.445 55.3366 415.715 55.1717 416.024 55.0524C416.332 54.9332 416.655 54.8735 416.992 54.8735C417.427 54.8735 417.809 54.9577 418.139 55.1261C418.469 55.2875 418.725 55.5155 418.907 55.8102C419.097 56.0978 419.192 56.4346 419.192 56.8205V60.6724H418.234V59.5989L418.413 59.662C418.293 59.8866 418.132 60.083 417.929 60.2514C417.725 60.4198 417.487 60.5531 417.213 60.6513C416.939 60.7495 416.641 60.7987 416.318 60.7987ZM422.911 60.7355C422.357 60.7355 421.929 60.5776 421.627 60.2619C421.333 59.9462 421.185 59.5007 421.185 58.9253V55.9365H420.154V54.9998H420.364C420.617 54.9998 420.817 54.9226 420.964 54.7683C421.111 54.6139 421.185 54.4104 421.185 54.1579V53.6948H422.164V54.9998H423.437V55.9365H422.164V58.8938C422.164 59.0832 422.192 59.2481 422.248 59.3884C422.311 59.5287 422.413 59.641 422.553 59.7252C422.694 59.8024 422.88 59.8409 423.111 59.8409C423.16 59.8409 423.22 59.8374 423.29 59.8304C423.367 59.8234 423.437 59.8164 423.5 59.8094V60.6724C423.409 60.6934 423.308 60.7074 423.195 60.7145C423.083 60.7285 422.988 60.7355 422.911 60.7355ZM427.235 60.7987C426.688 60.7987 426.2 60.6689 425.772 60.4093C425.344 60.1497 425.007 59.7953 424.762 59.3463C424.516 58.8903 424.393 58.3816 424.393 57.8203C424.393 57.252 424.513 56.7468 424.751 56.3048C424.997 55.8628 425.326 55.5155 425.74 55.2629C426.161 55.0033 426.631 54.8735 427.151 54.8735C427.572 54.8735 427.944 54.9507 428.266 55.105C428.596 55.2524 428.873 55.4559 429.098 55.7155C429.329 55.968 429.505 56.2592 429.624 56.589C429.75 56.9117 429.813 57.2485 429.813 57.5993C429.813 57.6765 429.806 57.7642 429.792 57.8624C429.785 57.9536 429.775 58.0413 429.761 58.1255H425.109V57.2836H429.192L428.729 57.6624C428.792 57.2976 428.757 56.9713 428.624 56.6837C428.491 56.396 428.294 56.168 428.035 55.9996C427.775 55.8312 427.48 55.747 427.151 55.747C426.821 55.747 426.519 55.8312 426.246 55.9996C425.972 56.168 425.758 56.4101 425.604 56.7258C425.456 57.0345 425.397 57.4028 425.425 57.8308C425.397 58.2448 425.46 58.6096 425.614 58.9253C425.776 59.2341 426 59.4761 426.288 59.6515C426.582 59.8199 426.902 59.9041 427.245 59.9041C427.624 59.9041 427.944 59.8164 428.203 59.641C428.463 59.4656 428.673 59.2411 428.835 58.9674L429.655 59.3884C429.543 59.648 429.368 59.8866 429.129 60.1041C428.898 60.3145 428.621 60.4829 428.298 60.6092C427.982 60.7355 427.628 60.7987 427.235 60.7987Z" fill="#FEFEFE"/>
<rect x="144.02" y="76.0554" width="85.5519" height="21.7587" rx="10.8793" fill="#FEF3C7"/>
<g clipPath="url(#clip1_1328_3020)">
<path d="M158.089 90.0372H149.641C149.585 90.0372 149.531 90.0128 149.492 89.9693C149.452 89.9258 149.43 89.8668 149.43 89.8053V89.1096C149.43 89.0481 149.452 88.9891 149.492 88.9456C149.531 88.9021 149.585 88.8777 149.641 88.8777H158.089C158.145 88.8777 158.199 88.9021 158.238 88.9456C158.278 88.9891 158.3 89.0481 158.3 89.1096V89.8053C158.3 89.8668 158.278 89.9258 158.238 89.9693C158.199 90.0128 158.145 90.0372 158.089 90.0372ZM149.852 89.5734H157.878V89.3415H149.852V89.5734Z" fill="#B45309"/>
<path d="M158.089 88.6459H149.641C149.585 88.6459 149.531 88.6215 149.492 88.578C149.452 88.5345 149.43 88.4755 149.43 88.414C149.431 87.2458 149.854 86.1258 150.606 85.2998C151.359 84.4737 152.379 84.0091 153.442 84.0078H154.287C155.351 84.0091 156.371 84.4737 157.123 85.2998C157.876 86.1258 158.299 87.2458 158.3 88.414C158.3 88.4755 158.278 88.5345 158.238 88.578C158.199 88.6215 158.145 88.6459 158.089 88.6459ZM149.858 88.1821H157.872C157.817 87.1789 157.415 86.2364 156.749 85.5469C156.083 84.8575 155.203 84.4729 154.287 84.4716H153.442C152.527 84.4729 151.647 84.8575 150.981 85.5469C150.315 86.2364 149.913 87.1789 149.858 88.1821Z" fill="#B45309"/>
<path d="M150.61 87.7179C150.589 87.718 150.569 87.7147 150.549 87.7082C150.496 87.6906 150.45 87.6503 150.424 87.5962C150.397 87.5421 150.391 87.4786 150.407 87.4197C150.605 86.7037 151.007 86.0761 151.553 85.629C152.1 85.1819 152.762 84.9387 153.443 84.9351C153.499 84.9351 153.553 84.9595 153.593 85.003C153.632 85.0465 153.655 85.1055 153.655 85.167C153.655 85.2285 153.632 85.2875 153.593 85.3309C153.553 85.3744 153.499 85.3989 153.443 85.3989C152.853 85.402 152.279 85.6128 151.805 86.0004C151.332 86.3879 150.983 86.9318 150.812 87.5524C150.799 87.6002 150.772 87.6421 150.736 87.6719C150.699 87.7017 150.655 87.7179 150.61 87.7179Z" fill="#B45309"/>
<path d="M154.502 84.4713H153.235C153.179 84.4713 153.125 84.4468 153.085 84.4033C153.046 84.3599 153.023 84.3009 153.023 84.2394V84.0075C153.023 83.7614 153.112 83.5255 153.271 83.3515C153.429 83.1776 153.644 83.0798 153.868 83.0798C154.092 83.0798 154.307 83.1776 154.466 83.3515C154.624 83.5255 154.713 83.7614 154.713 84.0075V84.2394C154.713 84.3009 154.691 84.3599 154.651 84.4033C154.612 84.4468 154.558 84.4713 154.502 84.4713ZM153.446 84.0075H154.291C154.291 83.8844 154.246 83.7665 154.167 83.6795C154.088 83.5925 153.98 83.5436 153.868 83.5436C153.756 83.5436 153.649 83.5925 153.57 83.6795C153.49 83.7665 153.446 83.8844 153.446 84.0075Z" fill="#B45309"/>
</g>
<path d="M162.639 90.5588V82.7183H163.586L166.522 86.8964H166.038L168.953 82.7183H169.9V90.5588H168.859V84.0233L169.227 84.1391L166.312 88.2435H166.227L163.344 84.1391L163.67 84.0233V90.5588H162.639ZM173.189 90.6851C172.817 90.6851 172.487 90.6185 172.2 90.4852C171.919 90.3448 171.698 90.1554 171.537 89.9169C171.375 89.6713 171.295 89.3906 171.295 89.0749C171.295 88.7732 171.358 88.5031 171.484 88.2646C171.617 88.019 171.821 87.812 172.094 87.6436C172.375 87.4752 172.726 87.356 173.147 87.2858L175.252 86.9385V87.7594L173.368 88.0751C173.003 88.1383 172.736 88.254 172.568 88.4224C172.407 88.5908 172.326 88.7978 172.326 89.0433C172.326 89.2749 172.417 89.4678 172.6 89.6222C172.789 89.7765 173.024 89.8537 173.305 89.8537C173.663 89.8537 173.971 89.78 174.231 89.6327C174.497 89.4784 174.704 89.2714 174.852 89.0118C175.006 88.7522 175.083 88.4645 175.083 88.1488V86.707C175.083 86.3983 174.968 86.1492 174.736 85.9597C174.511 85.7633 174.213 85.6651 173.841 85.6651C173.519 85.6651 173.231 85.7493 172.978 85.9177C172.733 86.079 172.55 86.2965 172.431 86.5702L171.579 86.1281C171.684 85.8685 171.852 85.637 172.084 85.4335C172.315 85.2231 172.586 85.0582 172.894 84.9389C173.203 84.8196 173.526 84.76 173.862 84.76C174.297 84.76 174.68 84.8442 175.01 85.0126C175.339 85.1739 175.595 85.402 175.778 85.6966C175.967 85.9843 176.062 86.3211 176.062 86.707V90.5588H175.104V89.4854L175.283 89.5485C175.164 89.773 175.003 89.9695 174.799 90.1379C174.596 90.3063 174.357 90.4396 174.083 90.5378C173.81 90.636 173.512 90.6851 173.189 90.6851ZM177.58 90.5588V84.8863H178.558V90.5588H177.58ZM177.58 83.9812V82.7183H178.558V83.9812H177.58ZM180.077 90.5588V84.8863H181.035V85.9913L180.877 85.8966C181.017 85.5388 181.242 85.2616 181.55 85.0652C181.866 84.8617 182.234 84.76 182.655 84.76C183.062 84.76 183.424 84.8512 183.739 85.0336C184.062 85.216 184.315 85.4686 184.497 85.7914C184.687 86.1141 184.781 86.4789 184.781 86.8859V90.5588H183.792V87.2016C183.792 86.8859 183.736 86.6193 183.624 86.4018C183.511 86.1843 183.35 86.0159 183.14 85.8966C182.936 85.7703 182.701 85.7072 182.434 85.7072C182.168 85.7072 181.929 85.7703 181.719 85.8966C181.515 86.0159 181.354 86.1878 181.235 86.4123C181.115 86.6298 181.056 86.8929 181.056 87.2016V90.5588H180.077ZM191.727 90.6851C191.172 90.6851 190.66 90.5869 190.19 90.3905C189.727 90.187 189.32 89.9028 188.969 89.538C188.625 89.1731 188.359 88.7452 188.169 88.254C187.98 87.7629 187.885 87.2262 187.885 86.6438C187.885 86.0545 187.98 85.5142 188.169 85.0231C188.359 84.532 188.625 84.104 188.969 83.7391C189.313 83.3743 189.72 83.0937 190.19 82.8972C190.66 82.6937 191.172 82.592 191.727 82.592C192.267 82.592 192.751 82.6867 193.179 82.8762C193.614 83.0656 193.979 83.3112 194.273 83.6128C194.575 83.9145 194.789 84.2373 194.915 84.5811L193.968 85.0126C193.786 84.5776 193.502 84.2268 193.116 83.9601C192.73 83.6865 192.267 83.5497 191.727 83.5497C191.179 83.5497 190.692 83.6795 190.264 83.9391C189.843 84.1987 189.513 84.56 189.274 85.0231C189.036 85.4862 188.917 86.0264 188.917 86.6438C188.917 87.2542 189.036 87.791 189.274 88.254C189.513 88.7171 189.843 89.0784 190.264 89.338C190.692 89.5976 191.179 89.7274 191.727 89.7274C192.267 89.7274 192.73 89.5941 193.116 89.3275C193.502 89.0539 193.786 88.6996 193.968 88.2646L194.915 88.696C194.789 89.0398 194.575 89.3626 194.273 89.6643C193.979 89.966 193.614 90.2115 193.179 90.401C192.751 90.5904 192.267 90.6851 191.727 90.6851ZM198.794 90.6851C198.247 90.6851 197.752 90.5588 197.31 90.3063C196.868 90.0467 196.517 89.6923 196.258 89.2433C195.998 88.7943 195.868 88.2856 195.868 87.7173C195.868 87.149 195.995 86.6438 196.247 86.2018C196.507 85.7598 196.858 85.409 197.3 85.1494C197.742 84.8898 198.24 84.76 198.794 84.76C199.341 84.76 199.836 84.8898 200.278 85.1494C200.72 85.402 201.067 85.7493 201.32 86.1913C201.579 86.6333 201.709 87.142 201.709 87.7173C201.709 88.2926 201.576 88.8048 201.309 89.2538C201.043 89.6959 200.688 90.0467 200.246 90.3063C199.811 90.5588 199.327 90.6851 198.794 90.6851ZM198.794 89.7379C199.145 89.7379 199.46 89.6502 199.741 89.4748C200.029 89.2994 200.253 89.0574 200.415 88.7487C200.583 88.44 200.667 88.0962 200.667 87.7173C200.667 87.3314 200.583 86.9911 200.415 86.6964C200.253 86.3948 200.029 86.1562 199.741 85.9808C199.46 85.7984 199.145 85.7072 198.794 85.7072C198.436 85.7072 198.113 85.7984 197.826 85.9808C197.545 86.1562 197.321 86.3948 197.152 86.6964C196.984 86.9911 196.9 87.3314 196.9 87.7173C196.9 88.0962 196.984 88.44 197.152 88.7487C197.321 89.0574 197.545 89.2994 197.826 89.4748C198.113 89.6502 198.436 89.7379 198.794 89.7379ZM204.996 90.6851C204.589 90.6851 204.221 90.5904 203.891 90.401C203.568 90.2115 203.315 89.9484 203.133 89.6117C202.958 89.2679 202.87 88.875 202.87 88.4329V84.8863H203.849V88.3277C203.849 88.6083 203.905 88.8539 204.017 89.0644C204.136 89.2749 204.298 89.4398 204.501 89.559C204.712 89.6783 204.95 89.7379 205.217 89.7379C205.483 89.7379 205.719 89.6783 205.922 89.559C206.132 89.4398 206.294 89.2679 206.406 89.0433C206.525 88.8188 206.585 88.5522 206.585 88.2435V84.8863H207.574V90.5588H206.617V89.4538L206.774 89.5485C206.641 89.9063 206.413 90.187 206.09 90.3905C205.775 90.5869 205.41 90.6851 204.996 90.6851ZM209.091 90.5588V84.8863H210.048V85.9282L209.943 85.7808C210.076 85.4581 210.28 85.2195 210.553 85.0652C210.827 84.9038 211.16 84.8231 211.553 84.8231H211.901V85.7493H211.406C211.006 85.7493 210.683 85.8756 210.438 86.1281C210.192 86.3737 210.069 86.7245 210.069 87.1806V90.5588H209.091ZM214.801 90.6851C214.233 90.6851 213.738 90.5448 213.317 90.2642C212.896 89.9835 212.598 89.6046 212.423 89.1275L213.201 88.7487C213.363 89.0854 213.584 89.3521 213.864 89.5485C214.145 89.745 214.457 89.8432 214.801 89.8432C215.11 89.8432 215.366 89.7695 215.569 89.6222C215.773 89.4748 215.875 89.2819 215.875 89.0433C215.875 88.875 215.826 88.7417 215.727 88.6434C215.636 88.5382 215.524 88.4575 215.391 88.4014C215.257 88.3382 215.134 88.2926 215.022 88.2646L214.17 88.0225C213.658 87.8752 213.282 87.6647 213.044 87.391C212.812 87.1174 212.696 86.7982 212.696 86.4333C212.696 86.0966 212.78 85.8054 212.949 85.5598C213.124 85.3072 213.359 85.1108 213.654 84.9705C213.956 84.8301 214.292 84.76 214.664 84.76C215.162 84.76 215.608 84.8863 216.001 85.1389C216.401 85.3914 216.685 85.7458 216.853 86.2018L216.054 86.5702C215.927 86.2755 215.738 86.0439 215.485 85.8756C215.233 85.7002 214.948 85.6124 214.633 85.6124C214.345 85.6124 214.117 85.6861 213.949 85.8335C213.78 85.9738 213.696 86.1527 213.696 86.3702C213.696 86.5316 213.738 86.6649 213.822 86.7701C213.907 86.8683 214.008 86.9455 214.128 87.0016C214.247 87.0508 214.363 87.0929 214.475 87.1279L215.401 87.4016C215.864 87.5349 216.222 87.7419 216.475 88.0225C216.734 88.3031 216.864 88.6399 216.864 89.0328C216.864 89.3486 216.776 89.6327 216.601 89.8853C216.425 90.1379 216.183 90.3343 215.875 90.4746C215.566 90.615 215.208 90.6851 214.801 90.6851ZM220.755 90.6851C220.208 90.6851 219.72 90.5553 219.292 90.2957C218.864 90.0361 218.528 89.6818 218.282 89.2328C218.036 88.7767 217.914 88.2681 217.914 87.7068C217.914 87.1385 218.033 86.6333 218.271 86.1913C218.517 85.7493 218.847 85.402 219.261 85.1494C219.682 84.8898 220.152 84.76 220.671 84.76C221.092 84.76 221.464 84.8372 221.787 84.9915C222.116 85.1389 222.393 85.3423 222.618 85.6019C222.849 85.8545 223.025 86.1457 223.144 86.4754C223.27 86.7982 223.334 87.135 223.334 87.4858C223.334 87.5629 223.327 87.6506 223.313 87.7489C223.306 87.8401 223.295 87.9278 223.281 88.012H218.629V87.17H222.713L222.25 87.5489C222.313 87.1841 222.278 86.8578 222.144 86.5702C222.011 86.2825 221.815 86.0545 221.555 85.8861C221.295 85.7177 221.001 85.6335 220.671 85.6335C220.341 85.6335 220.04 85.7177 219.766 85.8861C219.492 86.0545 219.278 86.2965 219.124 86.6123C218.977 86.921 218.917 87.2893 218.945 87.7173C218.917 88.1312 218.98 88.4961 219.134 88.8118C219.296 89.1205 219.52 89.3626 219.808 89.538C220.103 89.7064 220.422 89.7906 220.766 89.7906C221.145 89.7906 221.464 89.7029 221.723 89.5275C221.983 89.3521 222.193 89.1275 222.355 88.8539L223.176 89.2749C223.063 89.5345 222.888 89.773 222.65 89.9905C222.418 90.201 222.141 90.3694 221.818 90.4957C221.502 90.622 221.148 90.6851 220.755 90.6851Z" fill="#B45309"/>
<rect x="235.586" y="76.0554" width="60.5588" height="21.7587" rx="10.8793" fill="#E0F2FE"/>
<path d="M246.862 84.5541V86.5587L248.365 88.0622M251.372 86.5587C251.372 89.0497 249.353 91.0691 246.862 91.0691C244.371 91.0691 242.352 89.0497 242.352 86.5587C242.352 84.0677 244.371 82.0483 246.862 82.0483C249.353 82.0483 251.372 84.0677 251.372 86.5587Z" stroke="#075985" stroke-width="0.751731" stroke-linecap="round" stroke-linejoin="round"/>
<path d="M259.442 90.6851C259.028 90.6851 258.642 90.6115 258.284 90.4641C257.926 90.3168 257.618 90.1098 257.358 89.8432C257.098 89.5696 256.906 89.2468 256.779 88.875L257.653 88.5171C257.8 88.91 258.032 89.2152 258.347 89.4327C258.663 89.6502 259.028 89.759 259.442 89.759C259.765 89.759 260.052 89.6959 260.305 89.5696C260.557 89.4433 260.754 89.2608 260.894 89.0223C261.042 88.7838 261.115 88.4961 261.115 88.1593C261.115 87.8155 261.042 87.5279 260.894 87.2963C260.754 87.0578 260.557 86.8754 260.305 86.7491C260.052 86.6228 259.761 86.5596 259.431 86.5596C259.326 86.5596 259.21 86.5666 259.084 86.5807C258.965 86.5947 258.863 86.6158 258.779 86.6438L258.558 86.1702L260.652 83.6128H257.179V82.7183H261.82V83.5813L259.821 86.0439L259.758 85.7703C260.228 85.7843 260.642 85.8931 260.999 86.0966C261.357 86.3 261.638 86.5772 261.841 86.928C262.045 87.2718 262.147 87.6752 262.147 88.1383C262.147 88.6154 262.031 89.0469 261.799 89.4327C261.568 89.8186 261.249 90.1238 260.842 90.3484C260.435 90.5729 259.968 90.6851 259.442 90.6851ZM266.592 90.6851C265.967 90.6851 265.42 90.5167 264.95 90.18C264.487 89.8362 264.125 89.3626 263.866 88.7592C263.606 88.1488 263.476 87.4402 263.476 86.6333C263.476 85.8264 263.606 85.1213 263.866 84.5179C264.125 83.9075 264.487 83.4339 264.95 83.0972C265.413 82.7604 265.957 82.592 266.581 82.592C267.205 82.592 267.749 82.7604 268.212 83.0972C268.675 83.4339 269.037 83.9075 269.296 84.5179C269.563 85.1213 269.696 85.8264 269.696 86.6333C269.696 87.4402 269.566 88.1488 269.307 88.7592C269.047 89.3696 268.682 89.8432 268.212 90.18C267.749 90.5167 267.209 90.6851 266.592 90.6851ZM266.592 89.7274C267.012 89.7274 267.377 89.6011 267.686 89.3486C267.995 89.089 268.233 88.7276 268.402 88.2646C268.577 87.8015 268.665 87.2577 268.665 86.6333C268.665 86.0089 268.577 85.4651 268.402 85.002C268.233 84.539 267.991 84.1812 267.676 83.9286C267.367 83.676 267.002 83.5497 266.581 83.5497C266.16 83.5497 265.795 83.676 265.486 83.9286C265.178 84.1812 264.936 84.539 264.76 85.002C264.592 85.4651 264.508 86.0089 264.508 86.6333C264.508 87.2507 264.592 87.791 264.76 88.254C264.936 88.7171 265.178 89.0784 265.486 89.338C265.802 89.5976 266.171 89.7274 266.592 89.7274ZM272.964 90.5588V84.8863H273.921V86.0439L273.785 85.865C273.925 85.5072 274.15 85.2336 274.458 85.0441C274.767 84.8547 275.114 84.76 275.5 84.76C275.942 84.76 276.339 84.8828 276.689 85.1283C277.047 85.3739 277.293 85.6966 277.426 86.0966L277.152 86.1071C277.3 85.6651 277.549 85.3318 277.9 85.1073C278.25 84.8758 278.64 84.76 279.068 84.76C279.461 84.76 279.815 84.8512 280.131 85.0336C280.454 85.216 280.71 85.4686 280.899 85.7914C281.088 86.1141 281.183 86.4789 281.183 86.8859V90.5588H280.194V87.2016C280.194 86.8859 280.138 86.6193 280.026 86.4018C279.913 86.1843 279.759 86.0159 279.562 85.8966C279.373 85.7703 279.149 85.7072 278.889 85.7072C278.636 85.7072 278.408 85.7703 278.205 85.8966C278.008 86.0159 277.851 86.1878 277.731 86.4123C277.619 86.6298 277.563 86.8929 277.563 87.2016V90.5588H276.574V87.2016C276.574 86.8859 276.517 86.6193 276.405 86.4018C276.293 86.1843 276.139 86.0159 275.942 85.8966C275.753 85.7703 275.528 85.7072 275.269 85.7072C275.016 85.7072 274.788 85.7703 274.585 85.8966C274.388 86.0159 274.23 86.1878 274.111 86.4123C273.999 86.6298 273.943 86.8929 273.943 87.2016V90.5588H272.964ZM282.573 90.5588V84.8863H283.552V90.5588H282.573ZM282.573 83.9812V82.7183H283.552V83.9812H282.573ZM285.071 90.5588V84.8863H286.028V85.9913L285.871 85.8966C286.011 85.5388 286.235 85.2616 286.544 85.0652C286.86 84.8617 287.228 84.76 287.649 84.76C288.056 84.76 288.417 84.8512 288.733 85.0336C289.056 85.216 289.309 85.4686 289.491 85.7914C289.68 86.1141 289.775 86.4789 289.775 86.8859V90.5588H288.786V87.2016C288.786 86.8859 288.73 86.6193 288.617 86.4018C288.505 86.1843 288.344 86.0159 288.133 85.8966C287.93 85.7703 287.695 85.7072 287.428 85.7072C287.162 85.7072 286.923 85.7703 286.713 85.8966C286.509 86.0159 286.348 86.1878 286.228 86.4123C286.109 86.6298 286.05 86.8929 286.05 87.2016V90.5588H285.071Z" fill="#075985"/>
<mask id="path-18-inside-2_1328_3020" fill="white">
<path d="M144.02 121.869H435.691V193.435H144.02V121.869Z"/>
</mask>
<path d="M435.691 192.683H144.02V194.187H435.691V192.683Z" fill="#E2E8F0" mask="url(#path-18-inside-2_1328_3020)"/>
<path d="M145.061 139.869V129.789H148.363C149.409 129.789 150.316 130.001 151.083 130.425C151.859 130.84 152.458 131.426 152.882 132.184C153.306 132.941 153.518 133.821 153.518 134.822C153.518 135.815 153.306 136.694 152.882 137.461C152.458 138.219 151.859 138.809 151.083 139.233C150.316 139.657 149.409 139.869 148.363 139.869H145.061ZM146.658 138.449H148.39C149.103 138.449 149.721 138.3 150.244 138.002C150.776 137.704 151.187 137.285 151.475 136.744C151.764 136.202 151.908 135.562 151.908 134.822C151.908 134.083 151.759 133.447 151.462 132.914C151.173 132.373 150.767 131.954 150.244 131.656C149.721 131.358 149.103 131.209 148.39 131.209H146.658V138.449ZM154.942 139.869V132.549H156.471V139.869H154.942ZM154.942 131.548V129.789H156.471V131.548H154.942ZM161.696 140.032C160.965 140.032 160.315 139.865 159.747 139.531C159.188 139.188 158.75 138.728 158.435 138.151C158.119 137.565 157.961 136.911 157.961 136.189C157.961 135.449 158.119 134.795 158.435 134.227C158.759 133.659 159.192 133.212 159.734 132.887C160.275 132.554 160.888 132.387 161.574 132.387C162.124 132.387 162.616 132.481 163.049 132.671C163.482 132.86 163.847 133.122 164.145 133.456C164.442 133.78 164.668 134.155 164.821 134.579C164.984 135.003 165.065 135.454 165.065 135.932C165.065 136.049 165.06 136.171 165.051 136.297C165.042 136.423 165.024 136.541 164.997 136.649H159.165V135.431H164.131L163.401 135.986C163.491 135.544 163.459 135.152 163.306 134.809C163.162 134.457 162.936 134.182 162.629 133.983C162.332 133.776 161.98 133.672 161.574 133.672C161.168 133.672 160.807 133.776 160.491 133.983C160.176 134.182 159.932 134.47 159.761 134.849C159.589 135.219 159.522 135.67 159.558 136.202C159.513 136.699 159.58 137.132 159.761 137.501C159.95 137.871 160.212 138.16 160.546 138.367C160.888 138.575 161.276 138.679 161.709 138.679C162.151 138.679 162.526 138.579 162.832 138.381C163.148 138.183 163.396 137.925 163.576 137.61L164.821 138.219C164.677 138.561 164.452 138.873 164.145 139.152C163.847 139.423 163.486 139.639 163.062 139.802C162.647 139.955 162.192 140.032 161.696 140.032ZM169.723 139.951C168.957 139.951 168.361 139.734 167.937 139.301C167.513 138.868 167.301 138.259 167.301 137.474V133.929H166.016V132.549H166.219C166.562 132.549 166.828 132.45 167.017 132.251C167.207 132.053 167.301 131.782 167.301 131.439V130.871H168.83V132.549H170.495V133.929H168.83V137.407C168.83 137.659 168.871 137.876 168.952 138.056C169.033 138.228 169.164 138.363 169.345 138.462C169.525 138.552 169.76 138.597 170.048 138.597C170.12 138.597 170.202 138.593 170.292 138.584C170.382 138.575 170.468 138.566 170.549 138.557V139.869C170.423 139.887 170.283 139.905 170.129 139.924C169.976 139.942 169.841 139.951 169.723 139.951ZM175.346 140.032C174.615 140.032 173.966 139.865 173.397 139.531C172.838 139.188 172.4 138.728 172.085 138.151C171.769 137.565 171.611 136.911 171.611 136.189C171.611 135.449 171.769 134.795 172.085 134.227C172.409 133.659 172.842 133.212 173.384 132.887C173.925 132.554 174.538 132.387 175.224 132.387C175.774 132.387 176.266 132.481 176.699 132.671C177.132 132.86 177.497 133.122 177.795 133.456C178.093 133.78 178.318 134.155 178.471 134.579C178.634 135.003 178.715 135.454 178.715 135.932C178.715 136.049 178.71 136.171 178.701 136.297C178.692 136.423 178.674 136.541 178.647 136.649H172.815V135.431H177.781L177.051 135.986C177.141 135.544 177.109 135.152 176.956 134.809C176.812 134.457 176.586 134.182 176.279 133.983C175.982 133.776 175.63 133.672 175.224 133.672C174.818 133.672 174.457 133.776 174.141 133.983C173.826 134.182 173.582 134.47 173.411 134.849C173.239 135.219 173.172 135.67 173.208 136.202C173.163 136.699 173.23 137.132 173.411 137.501C173.6 137.871 173.862 138.16 174.196 138.367C174.538 138.575 174.926 138.679 175.359 138.679C175.801 138.679 176.176 138.579 176.482 138.381C176.798 138.183 177.046 137.925 177.227 137.61L178.471 138.219C178.327 138.561 178.102 138.873 177.795 139.152C177.497 139.423 177.136 139.639 176.712 139.802C176.297 139.955 175.842 140.032 175.346 140.032ZM180.207 139.869V132.549H181.669V134.024L181.533 133.807C181.696 133.329 181.957 132.987 182.318 132.779C182.679 132.563 183.112 132.454 183.617 132.454H184.064V133.848H183.428C182.922 133.848 182.512 134.006 182.196 134.322C181.89 134.628 181.736 135.07 181.736 135.648V139.869H180.207ZM185.759 142.846C185.579 142.846 185.398 142.828 185.218 142.792C185.046 142.765 184.889 142.72 184.744 142.657V141.344C184.853 141.371 184.983 141.394 185.137 141.412C185.29 141.439 185.439 141.453 185.583 141.453C186.007 141.453 186.318 141.358 186.517 141.168C186.724 140.988 186.909 140.708 187.072 140.329L187.559 139.22L187.532 140.505L184.365 132.549H186.003L188.344 138.652H187.789L190.116 132.549H191.767L188.533 140.668C188.362 141.101 188.145 141.48 187.884 141.804C187.631 142.138 187.329 142.395 186.977 142.576C186.634 142.756 186.228 142.846 185.759 142.846ZM195.328 139.869V129.789H196.924V139.869H195.328ZM198.865 139.869V132.549H200.327V133.983L200.151 133.794C200.331 133.334 200.62 132.987 201.017 132.752C201.414 132.508 201.874 132.387 202.397 132.387C202.938 132.387 203.416 132.504 203.831 132.738C204.246 132.973 204.571 133.298 204.806 133.713C205.04 134.128 205.157 134.606 205.157 135.147V139.869H203.642V135.553C203.642 135.183 203.574 134.872 203.439 134.619C203.304 134.358 203.11 134.159 202.857 134.024C202.614 133.88 202.334 133.807 202.018 133.807C201.702 133.807 201.418 133.88 201.166 134.024C200.922 134.159 200.733 134.358 200.597 134.619C200.462 134.881 200.394 135.192 200.394 135.553V139.869H198.865ZM207.619 139.869V133.929H206.266V132.549H207.619V132.17C207.619 131.62 207.732 131.16 207.957 130.79C208.183 130.411 208.494 130.122 208.891 129.924C209.297 129.726 209.762 129.626 210.285 129.626C210.384 129.626 210.497 129.635 210.623 129.653C210.749 129.662 210.853 129.676 210.934 129.694V131.02C210.862 131.002 210.781 130.993 210.691 130.993C210.601 130.984 210.528 130.979 210.474 130.979C210.068 130.979 209.744 131.074 209.5 131.264C209.256 131.444 209.135 131.746 209.135 132.17V132.549H210.813V133.929H209.135V139.869H207.619ZM215.492 140.032C214.789 140.032 214.144 139.865 213.557 139.531C212.98 139.197 212.52 138.742 212.177 138.164C211.834 137.587 211.663 136.933 211.663 136.202C211.663 135.463 211.834 134.809 212.177 134.24C212.52 133.663 212.98 133.212 213.557 132.887C214.135 132.554 214.779 132.387 215.492 132.387C216.214 132.387 216.859 132.554 217.427 132.887C218.004 133.212 218.46 133.663 218.794 134.24C219.137 134.809 219.308 135.463 219.308 136.202C219.308 136.942 219.137 137.601 218.794 138.178C218.451 138.755 217.991 139.211 217.414 139.545C216.836 139.869 216.196 140.032 215.492 140.032ZM215.492 138.611C215.925 138.611 216.309 138.507 216.642 138.3C216.976 138.092 217.238 137.808 217.427 137.447C217.626 137.077 217.725 136.663 217.725 136.202C217.725 135.742 217.626 135.332 217.427 134.971C217.238 134.61 216.976 134.326 216.642 134.119C216.309 133.911 215.925 133.807 215.492 133.807C215.068 133.807 214.685 133.911 214.342 134.119C214.008 134.326 213.742 134.61 213.544 134.971C213.354 135.332 213.259 135.742 213.259 136.202C213.259 136.663 213.354 137.077 213.544 137.447C213.742 137.808 214.008 138.092 214.342 138.3C214.685 138.507 215.068 138.611 215.492 138.611ZM220.801 139.869V132.549H222.262V134.024L222.127 133.807C222.289 133.329 222.551 132.987 222.912 132.779C223.272 132.563 223.705 132.454 224.211 132.454H224.657V133.848H224.021C223.516 133.848 223.105 134.006 222.79 134.322C222.483 134.628 222.33 135.07 222.33 135.648V139.869H220.801ZM225.703 139.869V132.549H227.164V134.132L226.975 133.889C227.128 133.392 227.408 133.018 227.814 132.766C228.22 132.513 228.684 132.387 229.208 132.387C229.794 132.387 230.313 132.545 230.764 132.86C231.224 133.167 231.53 133.577 231.684 134.092L231.251 134.132C231.467 133.546 231.797 133.108 232.239 132.82C232.69 132.531 233.204 132.387 233.781 132.387C234.286 132.387 234.742 132.504 235.148 132.738C235.563 132.973 235.892 133.298 236.136 133.713C236.379 134.128 236.501 134.601 236.501 135.133V139.869H234.972V135.553C234.972 135.183 234.904 134.872 234.769 134.619C234.643 134.358 234.462 134.159 234.228 134.024C234.002 133.88 233.736 133.807 233.429 133.807C233.123 133.807 232.852 133.88 232.617 134.024C232.383 134.159 232.198 134.358 232.063 134.619C231.927 134.881 231.86 135.192 231.86 135.553V139.869H230.344V135.553C230.344 135.183 230.277 134.872 230.141 134.619C230.015 134.358 229.835 134.159 229.6 134.024C229.375 133.88 229.104 133.807 228.788 133.807C228.481 133.807 228.211 133.88 227.976 134.024C227.742 134.159 227.557 134.358 227.422 134.619C227.295 134.881 227.232 135.192 227.232 135.553V139.869H225.703ZM240.33 140.032C239.833 140.032 239.396 139.946 239.017 139.775C238.647 139.594 238.358 139.351 238.151 139.044C237.944 138.728 237.84 138.358 237.84 137.934C237.84 137.538 237.925 137.181 238.097 136.865C238.277 136.55 238.552 136.284 238.922 136.067C239.292 135.851 239.757 135.697 240.316 135.607L242.86 135.188V136.392L240.614 136.784C240.208 136.856 239.91 136.987 239.721 137.177C239.531 137.357 239.436 137.592 239.436 137.88C239.436 138.16 239.54 138.39 239.748 138.57C239.964 138.742 240.239 138.827 240.573 138.827C240.988 138.827 241.349 138.737 241.656 138.557C241.971 138.376 242.215 138.137 242.386 137.84C242.558 137.533 242.643 137.195 242.643 136.825V134.944C242.643 134.583 242.508 134.29 242.237 134.065C241.976 133.83 241.624 133.713 241.182 133.713C240.776 133.713 240.42 133.821 240.113 134.037C239.815 134.245 239.594 134.516 239.45 134.849L238.178 134.213C238.313 133.853 238.534 133.537 238.841 133.266C239.148 132.987 239.504 132.77 239.91 132.617C240.325 132.463 240.763 132.387 241.223 132.387C241.8 132.387 242.31 132.495 242.752 132.711C243.203 132.928 243.55 133.23 243.793 133.618C244.046 133.997 244.172 134.439 244.172 134.944V139.869H242.711V138.543L243.022 138.584C242.851 138.882 242.63 139.139 242.359 139.355C242.098 139.572 241.795 139.739 241.453 139.856C241.119 139.973 240.744 140.032 240.33 140.032ZM248.994 139.951C248.228 139.951 247.632 139.734 247.208 139.301C246.784 138.868 246.572 138.259 246.572 137.474V133.929H245.287V132.549H245.49C245.833 132.549 246.099 132.45 246.288 132.251C246.478 132.053 246.572 131.782 246.572 131.439V130.871H248.101V132.549H249.766V133.929H248.101V137.407C248.101 137.659 248.142 137.876 248.223 138.056C248.304 138.228 248.435 138.363 248.615 138.462C248.796 138.552 249.03 138.597 249.319 138.597C249.391 138.597 249.472 138.593 249.563 138.584C249.653 138.575 249.739 138.566 249.82 138.557V139.869C249.693 139.887 249.554 139.905 249.4 139.924C249.247 139.942 249.112 139.951 248.994 139.951ZM251.312 139.869V132.549H252.841V139.869H251.312ZM251.312 131.548V129.789H252.841V131.548H251.312ZM258.16 140.032C257.457 140.032 256.812 139.865 256.225 139.531C255.648 139.197 255.188 138.742 254.845 138.164C254.502 137.587 254.331 136.933 254.331 136.202C254.331 135.463 254.502 134.809 254.845 134.24C255.188 133.663 255.648 133.212 256.225 132.887C256.803 132.554 257.448 132.387 258.16 132.387C258.882 132.387 259.527 132.554 260.095 132.887C260.672 133.212 261.128 133.663 261.462 134.24C261.805 134.809 261.976 135.463 261.976 136.202C261.976 136.942 261.805 137.601 261.462 138.178C261.119 138.755 260.659 139.211 260.082 139.545C259.504 139.869 258.864 140.032 258.16 140.032ZM258.16 138.611C258.593 138.611 258.977 138.507 259.31 138.3C259.644 138.092 259.906 137.808 260.095 137.447C260.294 137.077 260.393 136.663 260.393 136.202C260.393 135.742 260.294 135.332 260.095 134.971C259.906 134.61 259.644 134.326 259.31 134.119C258.977 133.911 258.593 133.807 258.16 133.807C257.736 133.807 257.353 133.911 257.01 134.119C256.676 134.326 256.41 134.61 256.212 134.971C256.022 135.332 255.928 135.742 255.928 136.202C255.928 136.663 256.022 137.077 256.212 137.447C256.41 137.808 256.676 138.092 257.01 138.3C257.353 138.507 257.736 138.611 258.16 138.611ZM263.469 139.869V132.549H264.93V133.983L264.754 133.794C264.935 133.334 265.223 132.987 265.62 132.752C266.017 132.508 266.477 132.387 267 132.387C267.542 132.387 268.02 132.504 268.435 132.738C268.85 132.973 269.174 133.298 269.409 133.713C269.643 134.128 269.761 134.606 269.761 135.147V139.869H268.245V135.553C268.245 135.183 268.178 134.872 268.042 134.619C267.907 134.358 267.713 134.159 267.46 134.024C267.217 133.88 266.937 133.807 266.621 133.807C266.306 133.807 266.022 133.88 265.769 134.024C265.525 134.159 265.336 134.358 265.201 134.619C265.065 134.881 264.998 135.192 264.998 135.553V139.869H263.469Z" fill="#0F172A"/>
<rect x="144.02" y="153.387" width="73.0415" height="25.0138" rx="12.5069" fill="#F1F5F9"/>
<path d="M156.06 170.394L153.229 162.553H154.334L156.734 169.446H156.513L158.912 162.553H160.017L157.197 170.394H156.06ZM162.977 170.52C162.429 170.52 161.942 170.39 161.514 170.13C161.086 169.871 160.749 169.517 160.503 169.068C160.258 168.611 160.135 168.103 160.135 167.541C160.135 166.973 160.254 166.468 160.493 166.026C160.738 165.584 161.068 165.237 161.482 164.984C161.903 164.725 162.373 164.595 162.892 164.595C163.313 164.595 163.685 164.672 164.008 164.826C164.338 164.974 164.615 165.177 164.839 165.437C165.071 165.689 165.246 165.98 165.366 166.31C165.492 166.633 165.555 166.97 165.555 167.32C165.555 167.398 165.548 167.485 165.534 167.584C165.527 167.675 165.516 167.762 165.502 167.847H160.851V167.005H164.934L164.471 167.384C164.534 167.019 164.499 166.693 164.366 166.405C164.232 166.117 164.036 165.889 163.776 165.721C163.517 165.552 163.222 165.468 162.892 165.468C162.563 165.468 162.261 165.552 161.987 165.721C161.714 165.889 161.5 166.131 161.345 166.447C161.198 166.756 161.138 167.124 161.166 167.552C161.138 167.966 161.201 168.331 161.356 168.647C161.517 168.955 161.742 169.197 162.029 169.373C162.324 169.541 162.643 169.625 162.987 169.625C163.366 169.625 163.685 169.538 163.945 169.362C164.204 169.187 164.415 168.962 164.576 168.689L165.397 169.11C165.285 169.369 165.109 169.608 164.871 169.825C164.639 170.036 164.362 170.204 164.039 170.33C163.724 170.457 163.369 170.52 162.977 170.52ZM169.536 172.709C169.136 172.709 168.764 172.646 168.42 172.519C168.084 172.393 167.792 172.218 167.547 171.993C167.308 171.776 167.126 171.52 167 171.225L167.915 170.804C168.013 171.071 168.199 171.295 168.473 171.478C168.754 171.667 169.104 171.762 169.525 171.762C169.848 171.762 170.139 171.699 170.399 171.572C170.665 171.453 170.876 171.271 171.03 171.025C171.185 170.786 171.262 170.495 171.262 170.151V168.878L171.441 169.068C171.244 169.453 170.96 169.748 170.588 169.952C170.223 170.155 169.82 170.257 169.378 170.257C168.845 170.257 168.368 170.134 167.947 169.888C167.526 169.636 167.196 169.296 166.957 168.868C166.719 168.433 166.6 167.952 166.6 167.426C166.6 166.892 166.719 166.412 166.957 165.984C167.196 165.556 167.522 165.219 167.936 164.974C168.357 164.721 168.834 164.595 169.367 164.595C169.809 164.595 170.209 164.696 170.567 164.9C170.932 165.096 171.223 165.37 171.441 165.721L171.293 165.984V164.721H172.251V170.151C172.251 170.643 172.135 171.081 171.904 171.467C171.672 171.853 171.35 172.155 170.936 172.372C170.529 172.597 170.062 172.709 169.536 172.709ZM169.462 169.31C169.799 169.31 170.101 169.225 170.367 169.057C170.641 168.889 170.858 168.664 171.02 168.383C171.181 168.096 171.262 167.777 171.262 167.426C171.262 167.082 171.181 166.766 171.02 166.479C170.858 166.191 170.641 165.963 170.367 165.794C170.101 165.626 169.799 165.542 169.462 165.542C169.118 165.542 168.806 165.626 168.526 165.794C168.245 165.963 168.024 166.191 167.863 166.479C167.708 166.759 167.631 167.075 167.631 167.426C167.631 167.777 167.708 168.096 167.863 168.383C168.024 168.664 168.241 168.889 168.515 169.057C168.796 169.225 169.111 169.31 169.462 169.31ZM176.378 170.52C175.831 170.52 175.344 170.39 174.916 170.13C174.488 169.871 174.151 169.517 173.905 169.068C173.66 168.611 173.537 168.103 173.537 167.541C173.537 166.973 173.656 166.468 173.895 166.026C174.14 165.584 174.47 165.237 174.884 164.984C175.305 164.725 175.775 164.595 176.294 164.595C176.715 164.595 177.087 164.672 177.41 164.826C177.74 164.974 178.017 165.177 178.241 165.437C178.473 165.689 178.648 165.98 178.767 166.31C178.894 166.633 178.957 166.97 178.957 167.32C178.957 167.398 178.95 167.485 178.936 167.584C178.929 167.675 178.918 167.762 178.904 167.847H174.253V167.005H178.336L177.873 167.384C177.936 167.019 177.901 166.693 177.768 166.405C177.634 166.117 177.438 165.889 177.178 165.721C176.919 165.552 176.624 165.468 176.294 165.468C175.965 165.468 175.663 165.552 175.389 165.721C175.116 165.889 174.902 166.131 174.747 166.447C174.6 166.756 174.54 167.124 174.568 167.552C174.54 167.966 174.603 168.331 174.758 168.647C174.919 168.955 175.144 169.197 175.431 169.373C175.726 169.541 176.045 169.625 176.389 169.625C176.768 169.625 177.087 169.538 177.347 169.362C177.606 169.187 177.817 168.962 177.978 168.689L178.799 169.11C178.687 169.369 178.511 169.608 178.273 169.825C178.041 170.036 177.764 170.204 177.441 170.33C177.126 170.457 176.771 170.52 176.378 170.52ZM182.538 170.457C181.984 170.457 181.556 170.299 181.254 169.983C180.959 169.667 180.812 169.222 180.812 168.647V165.658H179.781V164.721H179.991C180.244 164.721 180.444 164.644 180.591 164.489C180.738 164.335 180.812 164.132 180.812 163.879V163.416H181.791V164.721H183.064V165.658H181.791V168.615C181.791 168.804 181.819 168.969 181.875 169.11C181.938 169.25 182.04 169.362 182.18 169.446C182.32 169.524 182.506 169.562 182.738 169.562C182.787 169.562 182.847 169.559 182.917 169.552C182.994 169.545 183.064 169.538 183.127 169.531V170.394C183.036 170.415 182.934 170.429 182.822 170.436C182.71 170.45 182.615 170.457 182.538 170.457ZM185.997 170.52C185.625 170.52 185.295 170.453 185.007 170.32C184.727 170.18 184.506 169.99 184.344 169.752C184.183 169.506 184.102 169.225 184.102 168.91C184.102 168.608 184.165 168.338 184.292 168.099C184.425 167.854 184.629 167.647 184.902 167.478C185.183 167.31 185.534 167.191 185.955 167.121L188.059 166.773V167.594L186.176 167.91C185.811 167.973 185.544 168.089 185.376 168.257C185.214 168.426 185.134 168.633 185.134 168.878C185.134 169.11 185.225 169.303 185.407 169.457C185.597 169.611 185.832 169.688 186.112 169.688C186.47 169.688 186.779 169.615 187.039 169.467C187.305 169.313 187.512 169.106 187.659 168.846C187.814 168.587 187.891 168.299 187.891 167.984V166.542C187.891 166.233 187.775 165.984 187.544 165.794C187.319 165.598 187.021 165.5 186.649 165.5C186.326 165.5 186.039 165.584 185.786 165.752C185.541 165.914 185.358 166.131 185.239 166.405L184.386 165.963C184.492 165.703 184.66 165.472 184.892 165.268C185.123 165.058 185.393 164.893 185.702 164.774C186.011 164.654 186.333 164.595 186.67 164.595C187.105 164.595 187.488 164.679 187.817 164.847C188.147 165.009 188.403 165.237 188.586 165.531C188.775 165.819 188.87 166.156 188.87 166.542V170.394H187.912V169.32L188.091 169.383C187.972 169.608 187.81 169.804 187.607 169.973C187.403 170.141 187.165 170.274 186.891 170.373C186.618 170.471 186.319 170.52 185.997 170.52ZM190.387 170.394V164.721H191.345V165.763L191.24 165.616C191.373 165.293 191.577 165.054 191.85 164.9C192.124 164.739 192.457 164.658 192.85 164.658H193.197V165.584H192.703C192.303 165.584 191.98 165.71 191.734 165.963C191.489 166.208 191.366 166.559 191.366 167.015V170.394H190.387ZM194.067 170.394V164.721H195.045V170.394H194.067ZM194.067 163.816V162.553H195.045V163.816H194.067ZM198.227 170.52C197.855 170.52 197.525 170.453 197.238 170.32C196.957 170.18 196.736 169.99 196.575 169.752C196.413 169.506 196.333 169.225 196.333 168.91C196.333 168.608 196.396 168.338 196.522 168.099C196.655 167.854 196.859 167.647 197.132 167.478C197.413 167.31 197.764 167.191 198.185 167.121L200.29 166.773V167.594L198.406 167.91C198.041 167.973 197.774 168.089 197.606 168.257C197.445 168.426 197.364 168.633 197.364 168.878C197.364 169.11 197.455 169.303 197.638 169.457C197.827 169.611 198.062 169.688 198.343 169.688C198.701 169.688 199.009 169.615 199.269 169.467C199.535 169.313 199.742 169.106 199.89 168.846C200.044 168.587 200.121 168.299 200.121 167.984V166.542C200.121 166.233 200.006 165.984 199.774 165.794C199.55 165.598 199.251 165.5 198.879 165.5C198.557 165.5 198.269 165.584 198.016 165.752C197.771 165.914 197.588 166.131 197.469 166.405L196.617 165.963C196.722 165.703 196.89 165.472 197.122 165.268C197.353 165.058 197.624 164.893 197.932 164.774C198.241 164.654 198.564 164.595 198.901 164.595C199.336 164.595 199.718 164.679 200.048 164.847C200.377 165.009 200.634 165.237 200.816 165.531C201.005 165.819 201.1 166.156 201.1 166.542V170.394H200.142V169.32L200.321 169.383C200.202 169.608 200.041 169.804 199.837 169.973C199.634 170.141 199.395 170.274 199.122 170.373C198.848 170.471 198.55 170.52 198.227 170.52ZM202.618 170.394V164.721H203.575V165.826L203.417 165.731C203.558 165.373 203.782 165.096 204.091 164.9C204.407 164.696 204.775 164.595 205.196 164.595C205.603 164.595 205.964 164.686 206.28 164.868C206.603 165.051 206.855 165.303 207.038 165.626C207.227 165.949 207.322 166.314 207.322 166.721V170.394H206.333V167.036C206.333 166.721 206.277 166.454 206.164 166.236C206.052 166.019 205.891 165.851 205.68 165.731C205.477 165.605 205.242 165.542 204.975 165.542C204.708 165.542 204.47 165.605 204.259 165.731C204.056 165.851 203.895 166.022 203.775 166.247C203.656 166.465 203.596 166.728 203.596 167.036V170.394H202.618Z" fill="#0F172A"/>
<mask id="path-23-inside-3_1328_3020" fill="white">
<path d="M144.02 205.463H435.691V332.498H144.02V205.463Z"/>
</mask>
<path d="M435.691 331.746H144.02V333.249H435.691V331.746Z" fill="#E2E8F0" mask="url(#path-23-inside-3_1328_3020)"/>
<path d="M145.061 223.463V213.382H148.363C149.409 213.382 150.316 213.594 151.083 214.018C151.859 214.433 152.458 215.019 152.882 215.777C153.306 216.535 153.518 217.414 153.518 218.416C153.518 219.408 153.306 220.288 152.882 221.054C152.458 221.812 151.859 222.403 151.083 222.827C150.316 223.251 149.409 223.463 148.363 223.463H145.061ZM146.658 222.042H148.39C149.103 222.042 149.721 221.893 150.244 221.596C150.776 221.298 151.187 220.878 151.475 220.337C151.764 219.796 151.908 219.155 151.908 218.416C151.908 217.676 151.759 217.04 151.462 216.508C151.173 215.967 150.767 215.547 150.244 215.249C149.721 214.952 149.103 214.803 148.39 214.803H146.658V222.042ZM158.379 223.625C157.648 223.625 156.999 223.458 156.43 223.125C155.871 222.782 155.434 222.322 155.118 221.744C154.802 221.158 154.644 220.504 154.644 219.782C154.644 219.043 154.802 218.389 155.118 217.82C155.443 217.252 155.876 216.806 156.417 216.481C156.958 216.147 157.572 215.98 158.257 215.98C158.807 215.98 159.299 216.075 159.732 216.264C160.165 216.454 160.53 216.715 160.828 217.049C161.126 217.374 161.351 217.748 161.505 218.172C161.667 218.596 161.748 219.047 161.748 219.525C161.748 219.643 161.744 219.764 161.735 219.891C161.726 220.017 161.708 220.134 161.681 220.242H155.849V219.025H160.815L160.084 219.579C160.174 219.137 160.142 218.745 159.989 218.402C159.845 218.05 159.619 217.775 159.313 217.577C159.015 217.369 158.663 217.266 158.257 217.266C157.851 217.266 157.49 217.369 157.175 217.577C156.859 217.775 156.615 218.064 156.444 218.443C156.273 218.813 156.205 219.264 156.241 219.796C156.196 220.292 156.264 220.725 156.444 221.095C156.633 221.465 156.895 221.753 157.229 221.961C157.572 222.168 157.959 222.272 158.392 222.272C158.834 222.272 159.209 222.173 159.516 221.974C159.831 221.776 160.079 221.519 160.26 221.203L161.505 221.812C161.36 222.155 161.135 222.466 160.828 222.746C160.53 223.016 160.17 223.233 159.746 223.395C159.331 223.549 158.875 223.625 158.379 223.625ZM165.947 223.625C165.198 223.625 164.539 223.44 163.971 223.07C163.412 222.701 163.019 222.204 162.794 221.582L163.971 221.027C164.17 221.442 164.44 221.771 164.783 222.015C165.135 222.259 165.523 222.38 165.947 222.38C166.307 222.38 166.601 222.299 166.826 222.137C167.052 221.974 167.164 221.753 167.164 221.474C167.164 221.293 167.115 221.149 167.016 221.041C166.916 220.924 166.79 220.829 166.637 220.757C166.492 220.684 166.344 220.63 166.19 220.594L165.04 220.27C164.409 220.089 163.935 219.819 163.619 219.458C163.313 219.088 163.159 218.659 163.159 218.172C163.159 217.73 163.272 217.347 163.498 217.022C163.723 216.688 164.034 216.431 164.431 216.251C164.828 216.07 165.275 215.98 165.771 215.98C166.438 215.98 167.034 216.147 167.557 216.481C168.08 216.806 168.45 217.261 168.666 217.847L167.489 218.402C167.345 218.05 167.115 217.771 166.799 217.563C166.492 217.356 166.145 217.252 165.757 217.252C165.423 217.252 165.157 217.333 164.959 217.496C164.76 217.649 164.661 217.852 164.661 218.105C164.661 218.276 164.706 218.42 164.797 218.538C164.887 218.646 165.004 218.736 165.148 218.808C165.293 218.871 165.441 218.925 165.595 218.971L166.786 219.322C167.39 219.494 167.855 219.764 168.179 220.134C168.504 220.495 168.666 220.928 168.666 221.433C168.666 221.866 168.549 222.25 168.315 222.583C168.089 222.908 167.773 223.165 167.367 223.355C166.961 223.535 166.488 223.625 165.947 223.625ZM173.642 223.625C172.911 223.625 172.262 223.458 171.694 223.125C171.134 222.782 170.688 222.322 170.354 221.744C170.029 221.167 169.867 220.513 169.867 219.782C169.867 219.061 170.029 218.411 170.354 217.834C170.679 217.257 171.125 216.806 171.694 216.481C172.262 216.147 172.911 215.98 173.642 215.98C174.138 215.98 174.603 216.07 175.036 216.251C175.469 216.422 175.843 216.661 176.159 216.968C176.484 217.275 176.723 217.631 176.876 218.037L175.536 218.659C175.383 218.28 175.135 217.978 174.792 217.753C174.458 217.518 174.075 217.401 173.642 217.401C173.227 217.401 172.853 217.505 172.519 217.712C172.194 217.911 171.937 218.195 171.748 218.565C171.558 218.925 171.464 219.336 171.464 219.796C171.464 220.256 171.558 220.671 171.748 221.041C171.937 221.402 172.194 221.686 172.519 221.893C172.853 222.101 173.227 222.204 173.642 222.204C174.084 222.204 174.467 222.092 174.792 221.866C175.126 221.632 175.374 221.32 175.536 220.933L176.876 221.569C176.732 221.956 176.497 222.308 176.172 222.624C175.857 222.931 175.482 223.174 175.049 223.355C174.616 223.535 174.147 223.625 173.642 223.625ZM178.37 223.463V216.143H179.832V217.617L179.697 217.401C179.859 216.923 180.121 216.58 180.481 216.373C180.842 216.156 181.275 216.048 181.78 216.048H182.227V217.442H181.591C181.086 217.442 180.675 217.599 180.36 217.915C180.053 218.222 179.899 218.664 179.899 219.241V223.463H178.37ZM183.273 223.463V216.143H184.802V223.463H183.273ZM183.273 215.141V213.382H184.802V215.141H183.273ZM186.59 226.169V216.143H188.051V217.658L187.875 217.306C188.146 216.891 188.507 216.567 188.958 216.332C189.409 216.097 189.923 215.98 190.5 215.98C191.195 215.98 191.817 216.147 192.367 216.481C192.927 216.815 193.364 217.27 193.68 217.847C194.005 218.425 194.167 219.074 194.167 219.796C194.167 220.518 194.005 221.167 193.68 221.744C193.364 222.322 192.931 222.782 192.381 223.125C191.831 223.458 191.204 223.625 190.5 223.625C189.932 223.625 189.413 223.508 188.944 223.273C188.484 223.039 188.128 222.701 187.875 222.259L188.119 221.974V226.169H186.59ZM190.351 222.204C190.784 222.204 191.168 222.101 191.501 221.893C191.835 221.686 192.097 221.402 192.286 221.041C192.485 220.671 192.584 220.256 192.584 219.796C192.584 219.336 192.485 218.925 192.286 218.565C192.097 218.204 191.835 217.92 191.501 217.712C191.168 217.505 190.784 217.401 190.351 217.401C189.927 217.401 189.544 217.505 189.201 217.712C188.867 217.92 188.601 218.204 188.403 218.565C188.213 218.925 188.119 219.336 188.119 219.796C188.119 220.256 188.213 220.671 188.403 221.041C188.601 221.402 188.867 221.686 189.201 221.893C189.544 222.101 189.927 222.204 190.351 222.204ZM198.689 223.544C197.922 223.544 197.326 223.328 196.902 222.895C196.478 222.462 196.266 221.853 196.266 221.068V217.523H194.981V216.143H195.184C195.527 216.143 195.793 216.043 195.982 215.845C196.172 215.646 196.266 215.376 196.266 215.033V214.465H197.796V216.143H199.46V217.523H197.796V221C197.796 221.253 197.836 221.469 197.917 221.65C197.998 221.821 198.129 221.956 198.31 222.056C198.49 222.146 198.725 222.191 199.013 222.191C199.085 222.191 199.167 222.186 199.257 222.177C199.347 222.168 199.433 222.159 199.514 222.15V223.463C199.388 223.481 199.248 223.499 199.094 223.517C198.941 223.535 198.806 223.544 198.689 223.544ZM201.006 223.463V216.143H202.535V223.463H201.006ZM201.006 215.141V213.382H202.535V215.141H201.006ZM207.854 223.625C207.151 223.625 206.506 223.458 205.919 223.125C205.342 222.791 204.882 222.335 204.539 221.758C204.197 221.181 204.025 220.527 204.025 219.796C204.025 219.056 204.197 218.402 204.539 217.834C204.882 217.257 205.342 216.806 205.919 216.481C206.497 216.147 207.142 215.98 207.854 215.98C208.576 215.98 209.221 216.147 209.789 216.481C210.367 216.806 210.822 217.257 211.156 217.834C211.499 218.402 211.67 219.056 211.67 219.796C211.67 220.536 211.499 221.194 211.156 221.771C210.813 222.349 210.353 222.804 209.776 223.138C209.199 223.463 208.558 223.625 207.854 223.625ZM207.854 222.204C208.287 222.204 208.671 222.101 209.005 221.893C209.338 221.686 209.6 221.402 209.789 221.041C209.988 220.671 210.087 220.256 210.087 219.796C210.087 219.336 209.988 218.925 209.789 218.565C209.6 218.204 209.338 217.92 209.005 217.712C208.671 217.505 208.287 217.401 207.854 217.401C207.43 217.401 207.047 217.505 206.704 217.712C206.371 217.92 206.104 218.204 205.906 218.565C205.717 218.925 205.622 219.336 205.622 219.796C205.622 220.256 205.717 220.671 205.906 221.041C206.104 221.402 206.371 221.686 206.704 221.893C207.047 222.101 207.43 222.204 207.854 222.204ZM213.163 223.463V216.143H214.624V217.577L214.448 217.387C214.629 216.927 214.918 216.58 215.314 216.346C215.711 216.102 216.171 215.98 216.695 215.98C217.236 215.98 217.714 216.097 218.129 216.332C218.544 216.567 218.869 216.891 219.103 217.306C219.338 217.721 219.455 218.199 219.455 218.741V223.463H217.939V219.146C217.939 218.777 217.872 218.465 217.737 218.213C217.601 217.951 217.407 217.753 217.155 217.617C216.911 217.473 216.631 217.401 216.316 217.401C216 217.401 215.716 217.473 215.463 217.617C215.22 217.753 215.03 217.951 214.895 218.213C214.76 218.474 214.692 218.786 214.692 219.146V223.463H213.163Z" fill="#0F172A"/>
</g>
<defs>
<clipPath id="clip0_1328_3020">
<rect width="580" height="225" fill="white" transform="translate(0 0.486816)"/>
</clipPath>
<clipPath id="clip1_1328_3020">
<rect width="9.02077" height="9.02077" fill="white" transform="translate(149.281 82.0486)"/>
</clipPath>
</defs>
</svg>
