<svg width="580" height="226" viewBox="0 0 580 226" fill="none" xmlns="http://www.w3.org/2000/svg">
<g clipPath="url(#clip0_1318_58054)">
<rect y="0.22998" width="580" height="225" rx="8" fill="#F9F9F9"/>
<g filter="url(#filter0_dd_1318_58054)">
<rect x="134" y="21.2432" width="312" height="278.536" rx="6.43299" fill="#FEFEFE" shape-rendering="crispEdges"/>
<rect x="134.402" y="21.6452" width="311.196" height="277.732" rx="6.03093" stroke="#E2E8F0" stroke-width="0.804124" shape-rendering="crispEdges"/>
<path d="M148.923 46.9546V40.6342H146.973V39.7657H151.798V40.6342H149.878V46.9546H148.923ZM151.534 46.9546L154.111 39.7657H155.23L157.806 46.9546H156.793L156.205 45.2659H153.136L152.547 46.9546H151.534ZM153.435 44.3975H155.905L154.535 40.4508H154.805L153.435 44.3975ZM158.712 46.9546V39.7657H161.733C162.164 39.7657 162.533 39.8429 162.842 39.9973C163.157 40.1517 163.399 40.3704 163.566 40.6535C163.74 40.9301 163.826 41.2614 163.826 41.6474C163.826 42.0012 163.733 42.3228 163.547 42.6123C163.366 42.8954 163.1 43.1173 162.746 43.2781L162.736 42.9211C163.045 43.0369 163.299 43.1913 163.498 43.3843C163.704 43.5708 163.859 43.7896 163.962 44.0404C164.064 44.2849 164.116 44.5454 164.116 44.8221C164.116 45.4847 163.904 46.0057 163.479 46.3853C163.054 46.7648 162.476 46.9546 161.742 46.9546H158.712ZM159.658 46.0861H161.781C162.199 46.0861 162.533 45.9736 162.784 45.7484C163.035 45.5232 163.161 45.2177 163.161 44.8317C163.161 44.4457 163.035 44.1402 162.784 43.915C162.533 43.6834 162.199 43.5676 161.781 43.5676H159.658V46.0861ZM159.658 42.7185H161.713C162.061 42.7185 162.34 42.6188 162.553 42.4193C162.765 42.2135 162.871 41.9529 162.871 41.6377C162.871 41.3096 162.765 41.0588 162.553 40.8851C162.34 40.7114 162.061 40.6245 161.713 40.6245H159.658V42.7185ZM165.393 46.9546V39.7657H166.339V46.0861H169.494V46.9546H165.393ZM170.557 46.9546V39.7657H175.237V40.6342H171.503V42.9115H175.044V43.7799H171.503V46.0861H175.237V46.9546H170.557ZM178.077 46.9546V39.7657H178.868L182.998 45.5747L182.641 45.6133V39.7657H183.597V46.9546H182.805L178.695 41.107L179.023 41.0684V46.9546H178.077ZM188.636 47.0704C188.128 47.0704 187.652 46.9803 187.208 46.8002C186.764 46.6136 186.375 46.3531 186.041 46.0186C185.713 45.6841 185.455 45.2917 185.269 44.8414C185.082 44.3846 184.989 43.8893 184.989 43.3553C184.989 42.815 185.082 42.3196 185.269 41.8693C185.455 41.419 185.713 41.0266 186.041 40.6921C186.375 40.3576 186.761 40.1002 187.199 39.9201C187.643 39.74 188.122 39.6499 188.636 39.6499C189.151 39.6499 189.627 39.7432 190.065 39.9298C190.508 40.1099 190.894 40.3672 191.222 40.7017C191.557 41.0298 191.818 41.419 192.004 41.8693C192.197 42.3196 192.294 42.815 192.294 43.3553C192.294 43.8893 192.197 44.3846 192.004 44.8414C191.818 45.2917 191.557 45.6841 191.222 46.0186C190.894 46.3531 190.508 46.6136 190.065 46.8002C189.627 46.9803 189.151 47.0704 188.636 47.0704ZM188.636 46.1923C189.035 46.1923 189.399 46.1215 189.727 45.98C190.055 45.832 190.338 45.6294 190.576 45.3721C190.82 45.1083 191.007 44.806 191.136 44.465C191.271 44.1176 191.338 43.7477 191.338 43.3553C191.338 42.9629 191.271 42.5962 191.136 42.2553C191.007 41.9143 190.82 41.6152 190.576 41.3579C190.338 41.0941 190.055 40.8915 189.727 40.75C189.399 40.602 189.035 40.528 188.636 40.528C188.244 40.528 187.884 40.602 187.556 40.75C187.228 40.8915 186.941 41.0941 186.697 41.3579C186.459 41.6152 186.272 41.9143 186.137 42.2553C186.002 42.5962 185.935 42.9629 185.935 43.3553C185.935 43.7477 186.002 44.1176 186.137 44.465C186.272 44.806 186.459 45.1083 186.697 45.3721C186.941 45.6294 187.228 45.832 187.556 45.98C187.884 46.1215 188.244 46.1923 188.636 46.1923ZM195.302 44.7642V43.944H198.921V44.7642H195.302ZM205.29 46.9546V45.2949H201.758V44.5133L205.271 39.7657H206.178V44.5133H207.114V45.2949H206.178V46.9546H205.29ZM202.472 44.851L202.337 44.5133H205.29V40.557L205.57 40.6342L202.472 44.851Z" fill="#475569"/>
<rect x="375.816" y="34.1094" width="57.3196" height="17.6907" rx="8.84536" fill="#FEF2F2"/>
<path d="M385.864 44.1614H385.462V42.5531H385.06M385.462 40.9449H385.466M389.081 42.5531C389.081 44.5516 387.461 46.1717 385.462 46.1717C383.464 46.1717 381.844 44.5516 381.844 42.5531C381.844 40.5547 383.464 38.9346 385.462 38.9346C387.461 38.9346 389.081 40.5547 389.081 42.5531Z" stroke="#EF4444" stroke-width="0.804124" stroke-linecap="round" stroke-linejoin="round"/>
<path d="M397.334 46.6685C396.813 46.6685 396.349 46.5592 395.944 46.3404C395.545 46.1217 395.233 45.8226 395.008 45.443C394.789 45.0571 394.68 44.6196 394.68 44.1307V39.3639H395.635V44.1114C395.635 44.4395 395.706 44.7322 395.848 44.9895C395.996 45.2404 396.195 45.4366 396.446 45.5781C396.703 45.7197 396.999 45.7904 397.334 45.7904C397.668 45.7904 397.961 45.7197 398.212 45.5781C398.469 45.4366 398.669 45.2404 398.81 44.9895C398.958 44.7322 399.032 44.4395 399.032 44.1114V39.3639H399.987V44.1307C399.987 44.6196 399.875 45.0571 399.65 45.443C399.431 45.8226 399.122 46.1217 398.723 46.3404C398.324 46.5592 397.861 46.6685 397.334 46.6685ZM401.435 46.5527V41.3517H402.313V42.3649L402.169 42.278C402.297 41.9499 402.503 41.6958 402.786 41.5157C403.076 41.3291 403.413 41.2359 403.799 41.2359C404.173 41.2359 404.504 41.3195 404.793 41.4868C405.089 41.654 405.321 41.8856 405.488 42.1815C405.662 42.4774 405.749 42.812 405.749 43.1851V46.5527H404.842V43.4745C404.842 43.1851 404.79 42.9406 404.687 42.7412C404.584 42.5418 404.436 42.3874 404.243 42.278C404.057 42.1622 403.841 42.1043 403.597 42.1043C403.352 42.1043 403.134 42.1622 402.941 42.278C402.754 42.3874 402.606 42.545 402.497 42.7508C402.387 42.9503 402.333 43.1915 402.333 43.4745V46.5527H401.435ZM407.033 48.4826V41.3517H407.911V42.471L407.795 42.2491C407.988 41.9403 408.252 41.6958 408.586 41.5157C408.921 41.3291 409.304 41.2359 409.735 41.2359C410.224 41.2359 410.661 41.3549 411.047 41.5929C411.439 41.8309 411.748 42.1558 411.973 42.5675C412.198 42.9728 412.311 43.436 412.311 43.957C412.311 44.4652 412.198 44.9252 411.973 45.3369C411.748 45.7486 411.439 46.0735 411.047 46.3115C410.661 46.5495 410.22 46.6685 409.725 46.6685C409.307 46.6685 408.924 46.5752 408.577 46.3887C408.236 46.2021 407.972 45.9384 407.785 45.5974L407.93 45.443V48.4826H407.033ZM409.657 45.8001C409.985 45.8001 410.278 45.7197 410.536 45.5588C410.793 45.398 410.992 45.1793 411.134 44.9027C411.282 44.6196 411.356 44.3044 411.356 43.957C411.356 43.5968 411.282 43.2816 411.134 43.0114C410.992 42.7348 410.793 42.516 410.536 42.3552C410.278 42.188 409.985 42.1043 409.657 42.1043C409.329 42.1043 409.033 42.1847 408.77 42.3456C408.512 42.5064 408.306 42.7283 408.152 43.0114C408.004 43.288 407.93 43.6032 407.93 43.957C407.93 44.3044 408.004 44.6196 408.152 44.9027C408.306 45.1793 408.512 45.398 408.77 45.5588C409.033 45.7197 409.329 45.8001 409.657 45.8001ZM415.012 46.6685C414.671 46.6685 414.369 46.6074 414.105 46.4852C413.848 46.3565 413.645 46.1828 413.497 45.9641C413.349 45.739 413.275 45.4816 413.275 45.1922C413.275 44.9155 413.333 44.6679 413.449 44.4491C413.571 44.224 413.758 44.0342 414.009 43.8798C414.266 43.7254 414.588 43.6161 414.974 43.5517L416.904 43.2333V43.986L415.176 44.2755C414.842 44.3334 414.597 44.4395 414.443 44.5939C414.295 44.7483 414.221 44.9381 414.221 45.1632C414.221 45.3755 414.305 45.5524 414.472 45.6939C414.646 45.8355 414.861 45.9062 415.118 45.9062C415.447 45.9062 415.73 45.8387 415.968 45.7036C416.212 45.5621 416.402 45.3723 416.537 45.1343C416.678 44.8962 416.749 44.6325 416.749 44.343V43.021C416.749 42.738 416.643 42.5096 416.431 42.3359C416.225 42.1558 415.952 42.0657 415.611 42.0657C415.315 42.0657 415.051 42.1429 414.819 42.2973C414.594 42.4453 414.427 42.6447 414.318 42.8956L413.536 42.4903C413.632 42.2523 413.787 42.04 413.999 41.8534C414.211 41.6604 414.459 41.5093 414.742 41.3999C415.025 41.2905 415.321 41.2359 415.63 41.2359C416.029 41.2359 416.379 41.3131 416.682 41.4675C416.984 41.6154 417.219 41.8245 417.386 42.0947C417.56 42.3584 417.647 42.6672 417.647 43.021V46.5527H416.769V45.5685L416.933 45.6264C416.823 45.8322 416.675 46.0124 416.489 46.1668C416.302 46.3211 416.083 46.4434 415.833 46.5334C415.582 46.6235 415.308 46.6685 415.012 46.6685ZM419.038 46.5527V41.3517H419.935V46.5527H419.038ZM419.038 40.5218V39.3639H419.935V40.5218H419.038ZM423.692 46.6685C423.203 46.6685 422.762 46.5495 422.37 46.3115C421.984 46.0735 421.679 45.7486 421.453 45.3369C421.228 44.9252 421.116 44.4652 421.116 43.957C421.116 43.436 421.228 42.9728 421.453 42.5675C421.679 42.1558 421.984 41.8309 422.37 41.5929C422.762 41.3549 423.203 41.2359 423.692 41.2359C424.123 41.2359 424.506 41.3291 424.84 41.5157C425.175 41.6958 425.439 41.9403 425.632 42.2491L425.487 42.471V39.2481H426.394V46.5527H425.516V45.443L425.632 45.5974C425.451 45.9384 425.188 46.2021 424.84 46.3887C424.499 46.5752 424.117 46.6685 423.692 46.6685ZM423.769 45.8001C424.097 45.8001 424.39 45.7197 424.647 45.5588C424.905 45.398 425.107 45.1793 425.255 44.9027C425.41 44.6196 425.487 44.3044 425.487 43.957C425.487 43.6032 425.41 43.288 425.255 43.0114C425.107 42.7283 424.905 42.5064 424.647 42.3456C424.39 42.1847 424.097 42.1043 423.769 42.1043C423.448 42.1043 423.155 42.188 422.891 42.3552C422.634 42.516 422.431 42.7348 422.283 43.0114C422.135 43.2816 422.061 43.5968 422.061 43.957C422.061 44.3044 422.135 44.6196 422.283 44.9027C422.431 45.1793 422.634 45.398 422.891 45.5588C423.148 45.7197 423.441 45.8001 423.769 45.8001Z" fill="#EF4444"/>
<path d="M153.221 75.6234C152.44 75.6234 151.711 75.4835 151.036 75.2036C150.37 74.9238 149.781 74.533 149.27 74.0312C148.768 73.5295 148.373 72.9408 148.083 72.2654C147.803 71.5899 147.663 70.8517 147.663 70.0508C147.663 69.2499 147.803 68.5117 148.083 67.8363C148.373 67.1512 148.768 66.5625 149.27 66.0704C149.772 65.5686 150.36 65.1827 151.036 64.9125C151.711 64.6326 152.44 64.4927 153.221 64.4927C154.013 64.4927 154.741 64.6326 155.407 64.9125C156.082 65.1827 156.671 65.5686 157.173 66.0704C157.684 66.5722 158.08 67.1608 158.36 67.8363C158.64 68.5117 158.779 69.2499 158.779 70.0508C158.779 70.8517 158.635 71.5899 158.345 72.2654C158.065 72.9408 157.675 73.5295 157.173 74.0312C156.671 74.533 156.082 74.9238 155.407 75.2036C154.732 75.4835 154.003 75.6234 153.221 75.6234ZM153.221 74.0602C153.781 74.0602 154.292 73.9589 154.756 73.7562C155.228 73.5536 155.639 73.2737 155.986 72.9167C156.333 72.55 156.604 72.1255 156.797 71.643C156.989 71.1509 157.086 70.6201 157.086 70.0508C157.086 69.4815 156.989 68.9556 156.797 68.4731C156.604 67.9907 156.333 67.5661 155.986 67.1994C155.639 66.8327 155.228 66.5481 154.756 66.3454C154.292 66.1428 153.781 66.0415 153.221 66.0415C152.662 66.0415 152.145 66.1428 151.673 66.3454C151.209 66.5481 150.804 66.8327 150.457 67.1994C150.109 67.5661 149.839 67.9907 149.646 68.4731C149.463 68.9556 149.371 69.4815 149.371 70.0508C149.371 70.6201 149.463 71.1509 149.646 71.643C149.839 72.1255 150.109 72.55 150.457 72.9167C150.804 73.2737 151.214 73.5536 151.687 73.7562C152.16 73.9589 152.671 74.0602 153.221 74.0602ZM160.53 75.4497V67.6192H162.093V69.1968L161.948 68.9653C162.122 68.4538 162.402 68.0871 162.788 67.8652C163.174 67.6336 163.637 67.5178 164.177 67.5178H164.655V69.0087H163.975C163.434 69.0087 162.995 69.1775 162.658 69.5153C162.329 69.8434 162.165 70.3162 162.165 70.9337V75.4497H160.53ZM169.392 75.6234C168.64 75.6234 167.964 75.4449 167.366 75.0879C166.777 74.7212 166.309 74.229 165.962 73.6115C165.624 72.9939 165.455 72.2992 165.455 71.5272C165.455 70.7552 165.629 70.0605 165.977 69.4429C166.324 68.8253 166.792 68.338 167.381 67.981C167.969 67.624 168.635 67.4455 169.378 67.4455C170.005 67.4455 170.56 67.5709 171.043 67.8218C171.525 68.0727 171.906 68.4201 172.186 68.8639L171.94 69.2403V64.4927H173.561V75.4497H172.012V73.8575L172.2 74.1615C171.93 74.6343 171.544 74.9962 171.043 75.2471C170.541 75.498 169.991 75.6234 169.392 75.6234ZM169.552 74.1036C170.005 74.1036 170.41 73.9926 170.768 73.7707C171.134 73.5488 171.419 73.2448 171.622 72.8588C171.834 72.4632 171.94 72.0193 171.94 71.5272C171.94 71.0351 171.834 70.596 171.622 70.21C171.419 69.8241 171.134 69.5201 170.768 69.2982C170.41 69.0762 170.005 68.9653 169.552 68.9653C169.098 68.9653 168.688 69.0762 168.321 69.2982C167.955 69.5201 167.67 69.8241 167.467 70.21C167.265 70.596 167.163 71.0351 167.163 71.5272C167.163 72.0193 167.265 72.4632 167.467 72.8588C167.67 73.2448 167.95 73.5488 168.307 73.7707C168.674 73.9926 169.089 74.1036 169.552 74.1036ZM179.147 75.6234C178.365 75.6234 177.671 75.4449 177.063 75.0879C176.464 74.7212 175.996 74.229 175.659 73.6115C175.321 72.9843 175.152 72.2847 175.152 71.5127C175.152 70.7215 175.321 70.0219 175.659 69.414C176.006 68.806 176.469 68.3284 177.048 67.981C177.627 67.624 178.283 67.4455 179.017 67.4455C179.605 67.4455 180.131 67.5468 180.594 67.7494C181.058 67.9521 181.448 68.2319 181.767 68.5889C182.085 68.9363 182.326 69.3368 182.491 69.7903C182.664 70.2438 182.751 70.7263 182.751 71.2377C182.751 71.3631 182.746 71.4934 182.737 71.6285C182.727 71.7636 182.708 71.889 182.679 72.0048H176.44V70.7022H181.752L180.971 71.2956C181.067 70.8228 181.033 70.403 180.869 70.0363C180.715 69.66 180.474 69.3657 180.146 69.1534C179.827 68.9315 179.451 68.8205 179.017 68.8205C178.582 68.8205 178.197 68.9315 177.859 69.1534C177.521 69.3657 177.261 69.6745 177.077 70.0798C176.894 70.4754 176.821 70.9579 176.86 71.5272C176.812 72.0579 176.884 72.5211 177.077 72.9167C177.28 73.3123 177.56 73.6211 177.917 73.8431C178.283 74.065 178.698 74.176 179.161 74.176C179.634 74.176 180.035 74.0698 180.363 73.8575C180.701 73.6453 180.966 73.3702 181.159 73.0325L182.491 73.6839C182.336 74.0505 182.095 74.3834 181.767 74.6826C181.448 74.9721 181.062 75.2036 180.609 75.3773C180.165 75.5414 179.678 75.6234 179.147 75.6234ZM184.347 75.4497V67.6192H185.911V69.1968L185.766 68.9653C185.939 68.4538 186.219 68.0871 186.605 67.8652C186.991 67.6336 187.454 67.5178 187.995 67.5178H188.472V69.0087H187.792C187.252 69.0087 186.813 69.1775 186.475 69.5153C186.147 69.8434 185.983 70.3162 185.983 70.9337V75.4497H184.347ZM192.976 75.4497L193.699 72.9312H191.962V71.4838H194.105L194.93 68.6179H193.193V67.1704H195.349L196.073 64.6664H197.738L197.014 67.1704H199.619L200.328 64.6664H201.993L201.284 67.1704H203.021V68.6179H200.864L200.039 71.4838H201.776V72.9312H199.619L198.91 75.4497H197.245L197.955 72.9312H195.364L194.64 75.4497H192.976ZM195.769 71.4838H198.374L199.199 68.6179H196.594L195.769 71.4838ZM208.16 75.6234C207.455 75.6234 206.828 75.469 206.278 75.1602C205.728 74.8514 205.294 74.4269 204.975 73.8865C204.667 73.3461 204.512 72.7334 204.512 72.0483C204.512 71.6912 204.551 71.3342 204.628 70.9772C204.705 70.6201 204.84 70.2486 205.033 69.8627C205.236 69.4767 205.506 69.0617 205.844 68.6179L208.854 64.6664H210.895L207.204 69.4429L206.915 69.2547C207.05 69.1003 207.195 68.9797 207.349 68.8929C207.513 68.806 207.682 68.7433 207.856 68.7047C208.039 68.6661 208.232 68.6468 208.435 68.6468C209.081 68.6468 209.66 68.7964 210.172 69.0955C210.683 69.3947 211.083 69.7999 211.373 70.3114C211.672 70.8228 211.822 71.4114 211.822 72.0772C211.822 72.7527 211.662 73.3606 211.344 73.901C211.026 74.4317 210.591 74.8514 210.041 75.1602C209.501 75.469 208.874 75.6234 208.16 75.6234ZM208.16 74.1036C208.536 74.1036 208.869 74.0168 209.158 73.8431C209.448 73.6694 209.679 73.433 209.853 73.1338C210.027 72.825 210.114 72.4777 210.114 72.0917C210.114 71.6961 210.027 71.3487 209.853 71.0495C209.689 70.7504 209.458 70.5188 209.158 70.3548C208.869 70.1811 208.536 70.0942 208.16 70.0942C207.793 70.0942 207.46 70.1811 207.161 70.3548C206.871 70.5188 206.64 70.7504 206.466 71.0495C206.292 71.3487 206.206 71.6961 206.206 72.0917C206.206 72.4777 206.292 72.825 206.466 73.1338C206.64 73.433 206.871 73.6694 207.161 73.8431C207.46 74.0168 207.793 74.1036 208.16 74.1036ZM213.582 75.4497L218.184 66.1138H213.003V64.6664H219.965V66.1138L215.434 75.4497H213.582ZM222.117 75.4497L225.808 70.6732L226.098 70.8614C225.962 71.0061 225.813 71.1219 225.649 71.2088C225.494 71.2956 225.326 71.3583 225.142 71.3969C224.969 71.4355 224.78 71.4548 224.578 71.4548C223.931 71.4548 223.352 71.3101 222.841 71.0206C222.329 70.7215 221.924 70.3162 221.625 69.8048C221.335 69.2837 221.191 68.6951 221.191 68.0389C221.191 67.3538 221.35 66.7459 221.668 66.2152C221.987 65.6844 222.421 65.2647 222.971 64.9559C223.521 64.6471 224.148 64.4927 224.853 64.4927C225.567 64.4927 226.194 64.6471 226.734 64.9559C227.284 65.2647 227.714 65.6893 228.023 66.2296C228.341 66.7603 228.5 67.3683 228.5 68.0534C228.5 68.4201 228.462 68.7819 228.384 69.1389C228.307 69.496 228.172 69.8675 227.979 70.2535C227.786 70.6298 227.516 71.0447 227.169 71.4982L224.158 75.4497H222.117ZM224.853 70.0219C225.229 70.0219 225.562 69.935 225.851 69.7613C226.141 69.5876 226.373 69.3512 226.546 69.0521C226.72 68.753 226.807 68.4104 226.807 68.0244C226.807 67.6288 226.72 67.2814 226.546 66.9823C226.373 66.6735 226.136 66.4371 225.837 66.273C225.547 66.0994 225.219 66.0125 224.853 66.0125C224.486 66.0125 224.153 66.0994 223.854 66.273C223.565 66.4371 223.333 66.6735 223.159 66.9823C222.986 67.2814 222.899 67.6288 222.899 68.0244C222.899 68.4104 222.981 68.753 223.145 69.0521C223.318 69.3512 223.555 69.5876 223.854 69.7613C224.153 69.935 224.486 70.0219 224.853 70.0219ZM230.81 75.4497L234.501 70.6732L234.791 70.8614C234.655 71.0061 234.506 71.1219 234.342 71.2088C234.187 71.2956 234.019 71.3583 233.835 71.3969C233.662 71.4355 233.473 71.4548 233.271 71.4548C232.624 71.4548 232.045 71.3101 231.534 71.0206C231.022 70.7215 230.617 70.3162 230.318 69.8048C230.029 69.2837 229.884 68.6951 229.884 68.0389C229.884 67.3538 230.043 66.7459 230.361 66.2152C230.68 65.6844 231.114 65.2647 231.664 64.9559C232.214 64.6471 232.841 64.4927 233.546 64.4927C234.26 64.4927 234.887 64.6471 235.427 64.9559C235.977 65.2647 236.407 65.6893 236.716 66.2296C237.034 66.7603 237.193 67.3683 237.193 68.0534C237.193 68.4201 237.155 68.7819 237.077 69.1389C237 69.496 236.865 69.8675 236.672 70.2535C236.479 70.6298 236.209 71.0447 235.862 71.4982L232.851 75.4497H230.81ZM233.546 70.0219C233.922 70.0219 234.255 69.935 234.544 69.7613C234.834 69.5876 235.066 69.3512 235.239 69.0521C235.413 68.753 235.5 68.4104 235.5 68.0244C235.5 67.6288 235.413 67.2814 235.239 66.9823C235.066 66.6735 234.829 66.4371 234.53 66.273C234.241 66.0994 233.912 66.0125 233.546 66.0125C233.179 66.0125 232.846 66.0994 232.547 66.273C232.258 66.4371 232.026 66.6735 231.852 66.9823C231.679 67.2814 231.592 67.6288 231.592 68.0244C231.592 68.4104 231.674 68.753 231.838 69.0521C232.011 69.3512 232.248 69.5876 232.547 69.7613C232.846 69.935 233.179 70.0219 233.546 70.0219ZM242.456 75.6234C241.703 75.6234 241.042 75.4787 240.473 75.1892C239.913 74.89 239.479 74.4944 239.17 74.0023C238.861 73.5005 238.707 72.9457 238.707 72.3377C238.707 71.643 238.895 71.0447 239.272 70.5429C239.658 70.0315 240.198 69.66 240.893 69.4284L240.82 69.8627C240.309 69.6697 239.904 69.3464 239.604 68.8929C239.315 68.4297 239.17 67.9231 239.17 67.3731C239.17 66.8231 239.31 66.3309 239.59 65.8967C239.879 65.4625 240.27 65.1199 240.762 64.869C241.264 64.6182 241.829 64.4927 242.456 64.4927C243.093 64.4927 243.657 64.6182 244.149 64.869C244.641 65.1103 245.027 65.448 245.307 65.8822C245.597 66.3165 245.742 66.8134 245.742 67.3731C245.742 67.9424 245.592 68.4538 245.293 68.9074C245.003 69.3512 244.608 69.6697 244.106 69.8627L244.034 69.4284C244.728 69.6697 245.269 70.0412 245.655 70.5429C246.041 71.0447 246.234 71.643 246.234 72.3377C246.234 72.9457 246.074 73.5005 245.756 74.0023C245.447 74.4944 245.008 74.89 244.439 75.1892C243.87 75.4787 243.209 75.6234 242.456 75.6234ZM242.456 74.176C242.871 74.176 243.233 74.0988 243.541 73.9444C243.85 73.7803 244.091 73.5584 244.265 73.2786C244.439 72.9987 244.526 72.6707 244.526 72.2943C244.526 71.918 244.439 71.5899 244.265 71.3101C244.091 71.0302 243.85 70.8131 243.541 70.6587C243.233 70.5043 242.871 70.4272 242.456 70.4272C242.051 70.4272 241.694 70.5043 241.385 70.6587C241.076 70.8131 240.835 71.0302 240.661 71.3101C240.487 71.5899 240.401 71.918 240.401 72.2943C240.401 72.6707 240.487 72.9987 240.661 73.2786C240.835 73.5584 241.076 73.7803 241.385 73.9444C241.694 74.0988 242.051 74.176 242.456 74.176ZM242.456 68.9797C242.765 68.9797 243.035 68.917 243.266 68.7916C243.508 68.6565 243.696 68.4731 243.831 68.2415C243.966 68.01 244.034 67.7494 244.034 67.4599C244.034 67.1608 243.966 66.9003 243.831 66.6783C243.696 66.4467 243.508 66.2682 243.266 66.1428C243.035 66.0077 242.765 65.9401 242.456 65.9401C242.157 65.9401 241.887 66.0077 241.645 66.1428C241.404 66.2682 241.216 66.4467 241.081 66.6783C240.946 66.9003 240.878 67.1608 240.878 67.4599C240.878 67.7494 240.946 68.01 241.081 68.2415C241.216 68.4731 241.404 68.6565 241.645 68.7916C241.887 68.917 242.157 68.9797 242.456 68.9797Z" fill="#0F172A"/>
<path d="M363.704 75.4497V65.8646H367.191C367.834 65.8646 368.4 65.9846 368.889 66.2248C369.378 66.4564 369.76 66.7995 370.034 67.2541C370.317 67.7001 370.459 68.2362 370.459 68.8623C370.459 69.5228 370.291 70.0889 369.957 70.5606C369.631 71.0324 369.189 71.3755 368.632 71.5899L370.845 75.4497H369.121L366.766 71.2683L367.757 71.8472H365.222V75.4497H363.704ZM365.222 70.4963H367.216C367.568 70.4963 367.873 70.4277 368.13 70.2904C368.387 70.1532 368.585 69.9645 368.722 69.7243C368.868 69.4756 368.94 69.184 368.94 68.8495C368.94 68.5149 368.868 68.2276 368.722 67.9874C368.585 67.7387 368.387 67.55 368.13 67.4213C367.873 67.2841 367.568 67.2155 367.216 67.2155H365.222V70.4963ZM374.554 75.6041C373.842 75.6041 373.216 75.4283 372.675 75.0766C372.144 74.7249 371.771 74.2532 371.556 73.6613L372.675 73.1338C372.864 73.5284 373.121 73.8415 373.447 74.073C373.782 74.3046 374.151 74.4204 374.554 74.4204C374.897 74.4204 375.176 74.3432 375.39 74.1888C375.605 74.0344 375.712 73.8243 375.712 73.5584C375.712 73.3869 375.665 73.2496 375.57 73.1467C375.476 73.0352 375.356 72.9451 375.21 72.8765C375.073 72.8079 374.931 72.7564 374.785 72.7221L373.692 72.4133C373.091 72.2418 372.641 71.9845 372.341 71.6414C372.049 71.2897 371.903 70.8823 371.903 70.4191C371.903 69.9988 372.011 69.6343 372.225 69.3255C372.44 69.0081 372.735 68.7637 373.113 68.5921C373.49 68.4206 373.915 68.3348 374.387 68.3348C375.021 68.3348 375.587 68.4935 376.085 68.8109C376.582 69.1196 376.934 69.5528 377.14 70.1103L376.021 70.6378C375.883 70.3033 375.665 70.0374 375.364 69.8401C375.073 69.6429 374.743 69.5442 374.374 69.5442C374.056 69.5442 373.803 69.6214 373.615 69.7758C373.426 69.9216 373.332 70.1146 373.332 70.3548C373.332 70.5177 373.374 70.655 373.46 70.7665C373.546 70.8694 373.658 70.9552 373.795 71.0238C373.932 71.0839 374.074 71.1353 374.219 71.1782L375.352 71.5127C375.926 71.6757 376.368 71.933 376.677 72.2847C376.986 72.6278 377.14 73.0395 377.14 73.5198C377.14 73.9315 377.028 74.2961 376.805 74.6134C376.591 74.9222 376.291 75.1667 375.905 75.3468C375.519 75.5183 375.069 75.6041 374.554 75.6041ZM382.229 75.4497V67.1511H380.389V65.8646H383.734V75.4497H382.229ZM390.072 75.4497V73.2882H385.504V72.0274L390.008 65.8646H391.513V72.0274H392.838V73.2882H391.513V75.4497H390.072ZM386.624 72.5806L386.379 72.0274H390.072V67.074L390.484 67.2026L386.624 72.5806ZM397.939 75.6041C397.176 75.6041 396.507 75.3982 395.932 74.9865C395.357 74.5662 394.907 73.9873 394.581 73.2496C394.264 72.5034 394.105 71.6371 394.105 70.6507C394.105 69.6557 394.264 68.7894 394.581 68.0518C394.907 67.3141 395.353 66.7394 395.919 66.3277C396.494 65.916 397.163 65.7102 397.926 65.7102C398.69 65.7102 399.354 65.916 399.921 66.3277C400.495 66.7394 400.941 67.3184 401.259 68.0646C401.585 68.8023 401.748 69.6643 401.748 70.6507C401.748 71.6371 401.589 72.5034 401.271 73.2496C400.954 73.9873 400.508 74.5662 399.933 74.9865C399.367 75.3982 398.703 75.6041 397.939 75.6041ZM397.939 74.2146C398.411 74.2146 398.818 74.0688 399.161 73.7771C399.505 73.4855 399.77 73.0738 399.959 72.542C400.148 72.0102 400.242 71.3798 400.242 70.6507C400.242 69.9216 400.148 69.2912 399.959 68.7594C399.77 68.2276 399.505 67.8159 399.161 67.5243C398.818 67.2326 398.407 67.0868 397.926 67.0868C397.455 67.0868 397.047 67.2326 396.704 67.5243C396.361 67.8159 396.095 68.2276 395.906 68.7594C395.718 69.2912 395.623 69.9216 395.623 70.6507C395.623 71.3712 395.718 72.0016 395.906 72.542C396.095 73.0738 396.361 73.4855 396.704 73.7771C397.056 74.0688 397.467 74.2146 397.939 74.2146ZM407.149 75.6041C406.386 75.6041 405.717 75.3982 405.142 74.9865C404.567 74.5662 404.117 73.9873 403.791 73.2496C403.474 72.5034 403.315 71.6371 403.315 70.6507C403.315 69.6557 403.474 68.7894 403.791 68.0518C404.117 67.3141 404.563 66.7394 405.129 66.3277C405.704 65.916 406.373 65.7102 407.136 65.7102C407.899 65.7102 408.564 65.916 409.13 66.3277C409.705 66.7394 410.151 67.3184 410.468 68.0646C410.794 68.8023 410.957 69.6643 410.957 70.6507C410.957 71.6371 410.799 72.5034 410.481 73.2496C410.164 73.9873 409.718 74.5662 409.143 74.9865C408.577 75.3982 407.912 75.6041 407.149 75.6041ZM407.149 74.2146C407.621 74.2146 408.028 74.0688 408.371 73.7771C408.714 73.4855 408.98 73.0738 409.169 72.542C409.358 72.0102 409.452 71.3798 409.452 70.6507C409.452 69.9216 409.358 69.2912 409.169 68.7594C408.98 68.2276 408.714 67.8159 408.371 67.5243C408.028 67.2326 407.616 67.0868 407.136 67.0868C406.664 67.0868 406.257 67.2326 405.914 67.5243C405.571 67.8159 405.305 68.2276 405.116 68.7594C404.927 69.2912 404.833 69.9216 404.833 70.6507C404.833 71.3712 404.927 72.0016 405.116 72.542C405.305 73.0738 405.571 73.4855 405.914 73.7771C406.265 74.0688 406.677 74.2146 407.149 74.2146Z" fill="#0F172A"/>
<path d="M425.094 66.1975L428.846 69.9501L425.094 73.7026" stroke="#334155" stroke-width="1.60825" stroke-linecap="round" stroke-linejoin="round"/>
<path d="M151.689 93.7281V95.3363L152.895 96.5425M155.307 95.3363C155.307 97.3348 153.687 98.9549 151.689 98.9549C149.69 98.9549 148.07 97.3348 148.07 95.3363C148.07 93.3379 149.69 91.7178 151.689 91.7178C153.687 91.7178 155.307 93.3379 155.307 95.3363Z" stroke="#475569" stroke-width="0.804124" stroke-linecap="round" stroke-linejoin="round"/>
<path d="M163.395 99.3364V93.016H161.446V92.1476H166.271V93.016H164.35V99.3364H163.395ZM168.868 99.4522C168.366 99.4522 167.913 99.3364 167.507 99.1048C167.102 98.8668 166.78 98.542 166.542 98.1302C166.304 97.7185 166.185 97.2521 166.185 96.7311C166.185 96.21 166.301 95.7468 166.533 95.3415C166.771 94.9363 167.092 94.6146 167.498 94.3766C167.903 94.1386 168.36 94.0196 168.868 94.0196C169.37 94.0196 169.823 94.1386 170.228 94.3766C170.634 94.6082 170.952 94.9266 171.184 95.3319C171.422 95.7372 171.541 96.2036 171.541 96.7311C171.541 97.2586 171.419 97.7282 171.174 98.1399C170.93 98.5452 170.605 98.8668 170.2 99.1048C169.801 99.3364 169.357 99.4522 168.868 99.4522ZM168.868 98.5838C169.19 98.5838 169.479 98.5034 169.736 98.3425C170 98.1817 170.206 97.9598 170.354 97.6767C170.508 97.3937 170.585 97.0784 170.585 96.7311C170.585 96.3773 170.508 96.0653 170.354 95.7951C170.206 95.5184 170 95.2997 169.736 95.1389C169.479 94.9716 169.19 94.888 168.868 94.888C168.54 94.888 168.244 94.9716 167.98 95.1389C167.723 95.2997 167.517 95.5184 167.363 95.7951C167.208 96.0653 167.131 96.3773 167.131 96.7311C167.131 97.0784 167.208 97.3937 167.363 97.6767C167.517 97.9598 167.723 98.1817 167.98 98.3425C168.244 98.5034 168.54 98.5838 168.868 98.5838ZM175.075 99.4522C174.586 99.4522 174.146 99.3332 173.753 99.0952C173.367 98.8572 173.062 98.5323 172.837 98.1206C172.612 97.7089 172.499 97.2489 172.499 96.7407C172.499 96.2196 172.612 95.7565 172.837 95.3512C173.062 94.9395 173.367 94.6146 173.753 94.3766C174.146 94.1386 174.586 94.0196 175.075 94.0196C175.506 94.0196 175.889 94.1128 176.224 94.2994C176.558 94.4795 176.822 94.724 177.015 95.0328L176.87 95.2547V92.0318H177.777V99.3364H176.899V98.2267L177.015 98.3811C176.835 98.7221 176.571 98.9858 176.224 99.1724C175.883 99.3589 175.5 99.4522 175.075 99.4522ZM175.153 98.5838C175.481 98.5838 175.773 98.5034 176.031 98.3425C176.288 98.1817 176.491 97.963 176.639 97.6864C176.793 97.4033 176.87 97.0881 176.87 96.7407C176.87 96.3869 176.793 96.0717 176.639 95.7951C176.491 95.512 176.288 95.2901 176.031 95.1293C175.773 94.9684 175.481 94.888 175.153 94.888C174.831 94.888 174.538 94.9716 174.274 95.1389C174.017 95.2997 173.814 95.5184 173.667 95.7951C173.519 96.0653 173.445 96.3805 173.445 96.7407C173.445 97.0881 173.519 97.4033 173.667 97.6864C173.814 97.963 174.017 98.1817 174.274 98.3425C174.532 98.5034 174.824 98.5838 175.153 98.5838ZM180.691 99.4522C180.35 99.4522 180.048 99.3911 179.784 99.2689C179.526 99.1402 179.324 98.9665 179.176 98.7478C179.028 98.5227 178.954 98.2653 178.954 97.9758C178.954 97.6992 179.012 97.4516 179.128 97.2328C179.25 97.0077 179.436 96.8179 179.687 96.6635C179.945 96.5091 180.266 96.3998 180.652 96.3354L182.582 96.017V96.7697L180.855 97.0591C180.52 97.117 180.276 97.2232 180.122 97.3776C179.974 97.532 179.9 97.7217 179.9 97.9469C179.9 98.1592 179.983 98.3361 180.15 98.4776C180.324 98.6191 180.54 98.6899 180.797 98.6899C181.125 98.6899 181.408 98.6224 181.646 98.4873C181.891 98.3457 182.08 98.156 182.215 97.918C182.357 97.6799 182.428 97.4162 182.428 97.1267V95.8047C182.428 95.5217 182.322 95.2933 182.109 95.1196C181.903 94.9395 181.63 94.8494 181.289 94.8494C180.993 94.8494 180.729 94.9266 180.498 95.081C180.273 95.229 180.105 95.4284 179.996 95.6793L179.214 95.274C179.311 95.036 179.465 94.8237 179.678 94.6371C179.89 94.4441 180.138 94.293 180.421 94.1836C180.704 94.0742 181 94.0196 181.308 94.0196C181.707 94.0196 182.058 94.0968 182.36 94.2511C182.663 94.3991 182.897 94.6082 183.065 94.8784C183.238 95.1421 183.325 95.4509 183.325 95.8047V99.3364H182.447V98.3522L182.611 98.4101C182.502 98.6159 182.354 98.7961 182.167 98.9504C181.981 99.1048 181.762 99.2271 181.511 99.3171C181.26 99.4072 180.987 99.4522 180.691 99.4522ZM184.996 101.459C184.881 101.459 184.765 101.45 184.649 101.43C184.533 101.411 184.424 101.379 184.321 101.334V100.533C184.392 100.546 184.479 100.559 184.581 100.572C184.691 100.591 184.797 100.601 184.9 100.601C185.202 100.601 185.431 100.533 185.585 100.398C185.746 100.269 185.897 100.044 186.039 99.7224L186.367 98.9408L186.347 99.7224L184.128 94.1354H185.103L186.83 98.5741H186.54L188.258 94.1354H189.252L186.907 99.954C186.798 100.231 186.656 100.481 186.482 100.707C186.315 100.938 186.109 101.122 185.865 101.257C185.62 101.392 185.331 101.459 184.996 101.459ZM189.818 100.678V100.243C190.018 100.192 190.169 100.092 190.272 99.9443C190.375 99.7964 190.433 99.5937 190.445 99.3364H190.011V98.1785H190.947V98.9987C190.947 99.4619 190.851 99.835 190.658 100.118C190.471 100.401 190.191 100.588 189.818 100.678ZM197.467 99.3364V97.6767H193.935V96.8951L197.448 92.1476H198.355V96.8951H199.291V97.6767H198.355V99.3364H197.467ZM194.649 97.2328L194.514 96.8951H197.467V92.9388L197.747 93.016L194.649 97.2328ZM200.735 99.3364V98.1785H201.671V99.3364H200.735ZM200.735 95.2933V94.1354H201.671V95.2933H200.735ZM206.239 99.4522C205.667 99.4522 205.165 99.2978 204.734 98.989C204.309 98.6738 203.978 98.2396 203.74 97.6864C203.502 97.1267 203.383 96.477 203.383 95.7372C203.383 94.9974 203.502 94.3509 203.74 93.7976C203.978 93.238 204.309 92.8037 204.734 92.4949C205.159 92.1862 205.657 92.0318 206.23 92.0318C206.802 92.0318 207.301 92.1862 207.725 92.4949C208.15 92.8037 208.481 93.238 208.719 93.7976C208.964 94.3509 209.086 94.9974 209.086 95.7372C209.086 96.477 208.967 97.1267 208.729 97.6864C208.491 98.246 208.156 98.6803 207.725 98.989C207.301 99.2978 206.805 99.4522 206.239 99.4522ZM206.239 98.5741C206.625 98.5741 206.96 98.4583 207.243 98.2267C207.526 97.9887 207.745 97.6574 207.899 97.2328C208.06 96.8083 208.14 96.3097 208.14 95.7372C208.14 95.1646 208.06 94.6661 207.899 94.2415C207.745 93.8169 207.523 93.4888 207.233 93.2572C206.95 93.0257 206.616 92.9099 206.23 92.9099C205.844 92.9099 205.509 93.0257 205.226 93.2572C204.943 93.4888 204.721 93.8169 204.56 94.2415C204.406 94.6661 204.329 95.1646 204.329 95.7372C204.329 96.3033 204.406 96.7986 204.56 97.2232C204.721 97.6478 204.943 97.9791 205.226 98.2171C205.516 98.4551 205.853 98.5741 206.239 98.5741ZM213.222 99.4522C212.649 99.4522 212.148 99.2978 211.717 98.989C211.292 98.6738 210.961 98.2396 210.723 97.6864C210.485 97.1267 210.366 96.477 210.366 95.7372C210.366 94.9974 210.485 94.3509 210.723 93.7976C210.961 93.238 211.292 92.8037 211.717 92.4949C212.141 92.1862 212.64 92.0318 213.212 92.0318C213.785 92.0318 214.283 92.1862 214.708 92.4949C215.133 92.8037 215.464 93.238 215.702 93.7976C215.946 94.3509 216.069 94.9974 216.069 95.7372C216.069 96.477 215.95 97.1267 215.712 97.6864C215.474 98.246 215.139 98.6803 214.708 98.989C214.283 99.2978 213.788 99.4522 213.222 99.4522ZM213.222 98.5741C213.608 98.5741 213.942 98.4583 214.226 98.2267C214.509 97.9887 214.727 97.6574 214.882 97.2328C215.042 96.8083 215.123 96.3097 215.123 95.7372C215.123 95.1646 215.042 94.6661 214.882 94.2415C214.727 93.8169 214.505 93.4888 214.216 93.2572C213.933 93.0257 213.598 92.9099 213.212 92.9099C212.826 92.9099 212.492 93.0257 212.209 93.2572C211.926 93.4888 211.704 93.8169 211.543 94.2415C211.389 94.6661 211.311 95.1646 211.311 95.7372C211.311 96.3033 211.389 96.7986 211.543 97.2232C211.704 97.6478 211.926 97.9791 212.209 98.2171C212.498 98.4551 212.836 98.5741 213.222 98.5741ZM219.171 99.3364V92.1476H221.709C222.185 92.1476 222.603 92.2376 222.963 92.4177C223.323 92.5979 223.603 92.8552 223.802 93.1897C224.008 93.5242 224.111 93.9166 224.111 94.3669C224.111 94.8173 224.008 95.2097 223.802 95.5442C223.603 95.8723 223.323 96.1296 222.963 96.3161C222.609 96.4963 222.191 96.5863 221.709 96.5863H220.116V99.3364H219.171ZM220.116 95.7179H221.737C222.027 95.7179 222.278 95.6632 222.49 95.5538C222.702 95.4445 222.866 95.2869 222.982 95.081C223.098 94.8751 223.156 94.6371 223.156 94.3669C223.156 94.0903 223.098 93.8523 222.982 93.6529C222.866 93.447 222.702 93.2894 222.49 93.1801C222.278 93.0707 222.027 93.016 221.737 93.016H220.116V95.7179ZM225.39 99.3364V92.1476H226.259L228.951 95.9784H228.507L231.18 92.1476H232.048V99.3364H231.093V93.3441L231.431 93.4502L228.758 97.2135H228.681L226.037 93.4502L226.336 93.3441V99.3364H225.39Z" fill="#475569"/>
<path d="M146.867 118.656C146.867 115.103 149.747 112.223 153.3 112.223H426.702C430.255 112.223 433.135 115.103 433.135 118.656V137.656C433.135 141.208 430.255 144.089 426.702 144.089H153.3C149.747 144.089 146.867 141.208 146.867 137.656V118.656Z" fill="#FFFBEB"/>
<path fill-rule="evenodd" clip-rule="evenodd" d="M161.346 133.302C164.188 133.302 166.492 130.998 166.492 128.156C166.492 125.313 164.188 123.009 161.346 123.009C158.503 123.009 156.199 125.313 156.199 128.156C156.199 130.998 158.503 133.302 161.346 133.302ZM163.73 127.324C163.982 127.073 163.982 126.665 163.73 126.414C163.479 126.163 163.072 126.163 162.821 126.414L160.702 128.533L159.871 127.701C159.619 127.45 159.212 127.45 158.961 127.701C158.71 127.952 158.71 128.359 158.961 128.611L160.247 129.897C160.499 130.148 160.906 130.148 161.157 129.897L163.73 127.324Z" fill="#D97706"/>
<path d="M177.544 132.791C176.951 132.791 176.395 132.686 175.878 132.476C175.36 132.258 174.906 131.954 174.515 131.564C174.133 131.173 173.832 130.716 173.615 130.19C173.397 129.657 173.288 129.08 173.288 128.457C173.288 127.826 173.397 127.248 173.615 126.723C173.832 126.198 174.133 125.74 174.515 125.349C174.906 124.959 175.356 124.659 175.866 124.449C176.384 124.239 176.943 124.134 177.544 124.134C178.144 124.134 178.7 124.242 179.21 124.46C179.728 124.67 180.178 124.97 180.561 125.361C180.951 125.744 181.255 126.198 181.473 126.723C181.698 127.248 181.81 127.826 181.81 128.457C181.81 129.08 181.698 129.657 181.473 130.19C181.255 130.716 180.951 131.173 180.561 131.564C180.178 131.954 179.728 132.258 179.21 132.476C178.7 132.686 178.144 132.791 177.544 132.791ZM177.544 131.766C178.009 131.766 178.433 131.684 178.816 131.519C179.199 131.346 179.529 131.11 179.807 130.809C180.092 130.502 180.309 130.149 180.459 129.751C180.617 129.346 180.696 128.914 180.696 128.457C180.696 127.999 180.617 127.571 180.459 127.173C180.309 126.775 180.092 126.426 179.807 126.126C179.529 125.819 179.199 125.582 178.816 125.417C178.433 125.244 178.009 125.158 177.544 125.158C177.086 125.158 176.666 125.244 176.283 125.417C175.9 125.582 175.566 125.819 175.281 126.126C175.003 126.426 174.786 126.775 174.628 127.173C174.47 127.571 174.392 127.999 174.392 128.457C174.392 128.914 174.47 129.346 174.628 129.751C174.786 130.149 175.003 130.502 175.281 130.809C175.566 131.11 175.9 131.346 176.283 131.519C176.666 131.684 177.086 131.766 177.544 131.766ZM183.296 132.656V126.588H184.32V127.702L184.207 127.545C184.35 127.2 184.568 126.944 184.86 126.779C185.153 126.607 185.51 126.52 185.93 126.52H186.301V127.511H185.772C185.345 127.511 184.999 127.646 184.737 127.916C184.474 128.179 184.343 128.554 184.343 129.042V132.656H183.296ZM189.99 132.791C189.419 132.791 188.905 132.652 188.447 132.374C187.997 132.097 187.64 131.718 187.378 131.237C187.115 130.757 186.984 130.22 186.984 129.627C186.984 129.02 187.115 128.479 187.378 128.006C187.64 127.526 187.997 127.147 188.447 126.869C188.905 126.592 189.419 126.453 189.99 126.453C190.492 126.453 190.939 126.562 191.329 126.779C191.72 126.989 192.027 127.275 192.252 127.635L192.084 127.894V124.134H193.142V132.656H192.117V131.361L192.252 131.541C192.042 131.939 191.735 132.247 191.329 132.464C190.931 132.682 190.485 132.791 189.99 132.791ZM190.08 131.778C190.462 131.778 190.804 131.684 191.104 131.496C191.404 131.309 191.641 131.053 191.813 130.731C191.993 130.4 192.084 130.033 192.084 129.627C192.084 129.215 191.993 128.847 191.813 128.524C191.641 128.194 191.404 127.935 191.104 127.747C190.804 127.56 190.462 127.466 190.08 127.466C189.704 127.466 189.363 127.564 189.055 127.759C188.755 127.946 188.519 128.201 188.346 128.524C188.173 128.839 188.087 129.207 188.087 129.627C188.087 130.033 188.173 130.4 188.346 130.731C188.519 131.053 188.755 131.309 189.055 131.496C189.355 131.684 189.697 131.778 190.08 131.778ZM197.554 132.791C196.969 132.791 196.447 132.652 195.989 132.374C195.532 132.097 195.171 131.718 194.909 131.237C194.646 130.749 194.515 130.205 194.515 129.605C194.515 128.997 194.642 128.457 194.897 127.984C195.16 127.511 195.513 127.139 195.956 126.869C196.406 126.592 196.909 126.453 197.464 126.453C197.914 126.453 198.312 126.535 198.657 126.7C199.01 126.858 199.307 127.076 199.547 127.353C199.794 127.624 199.982 127.935 200.11 128.288C200.245 128.633 200.312 128.993 200.312 129.369C200.312 129.451 200.305 129.545 200.29 129.65C200.282 129.748 200.271 129.841 200.256 129.931H195.28V129.031H199.648L199.153 129.436C199.22 129.046 199.183 128.697 199.04 128.389C198.898 128.081 198.687 127.837 198.41 127.657C198.132 127.477 197.817 127.387 197.464 127.387C197.111 127.387 196.789 127.477 196.496 127.657C196.203 127.837 195.974 128.096 195.809 128.434C195.652 128.764 195.588 129.158 195.618 129.616C195.588 130.059 195.655 130.449 195.82 130.787C195.993 131.117 196.233 131.376 196.541 131.564C196.856 131.744 197.198 131.834 197.565 131.834C197.971 131.834 198.312 131.74 198.59 131.553C198.868 131.365 199.093 131.125 199.265 130.832L200.143 131.282C200.023 131.56 199.836 131.815 199.581 132.048C199.333 132.273 199.036 132.453 198.691 132.588C198.353 132.723 197.974 132.791 197.554 132.791ZM201.677 132.656V126.588H202.702V127.702L202.589 127.545C202.732 127.2 202.95 126.944 203.242 126.779C203.535 126.607 203.891 126.52 204.312 126.52H204.683V127.511H204.154C203.726 127.511 203.381 127.646 203.118 127.916C202.856 128.179 202.724 128.554 202.724 129.042V132.656H201.677ZM207.559 132.656V126.588H208.606V132.656H207.559ZM207.559 125.62V124.269H208.606V125.62H207.559ZM212.403 132.791C211.795 132.791 211.266 132.641 210.816 132.341C210.366 132.04 210.047 131.635 209.859 131.125L210.692 130.719C210.865 131.08 211.101 131.365 211.401 131.575C211.702 131.785 212.036 131.89 212.403 131.89C212.734 131.89 213.008 131.811 213.225 131.654C213.443 131.496 213.552 131.29 213.552 131.035C213.552 130.855 213.499 130.712 213.394 130.607C213.296 130.494 213.176 130.408 213.034 130.348C212.891 130.28 212.76 130.232 212.64 130.202L211.728 129.943C211.18 129.785 210.778 129.56 210.523 129.267C210.276 128.974 210.152 128.633 210.152 128.243C210.152 127.882 210.242 127.571 210.422 127.308C210.61 127.038 210.861 126.828 211.176 126.678C211.499 126.528 211.859 126.453 212.257 126.453C212.79 126.453 213.266 126.588 213.687 126.858C214.115 127.128 214.418 127.507 214.599 127.995L213.743 128.389C213.608 128.074 213.405 127.826 213.135 127.646C212.865 127.458 212.561 127.365 212.223 127.365C211.916 127.365 211.672 127.443 211.491 127.601C211.311 127.751 211.221 127.943 211.221 128.175C211.221 128.348 211.266 128.49 211.356 128.603C211.446 128.708 211.555 128.791 211.683 128.851C211.81 128.903 211.934 128.948 212.054 128.986L213.045 129.278C213.54 129.421 213.923 129.642 214.193 129.943C214.471 130.243 214.61 130.603 214.61 131.023C214.61 131.361 214.516 131.665 214.328 131.935C214.141 132.205 213.882 132.416 213.552 132.566C213.221 132.716 212.839 132.791 212.403 132.791ZM217.926 132.656V126.588H218.973V132.656H217.926ZM217.926 125.62V124.269H218.973V125.62H217.926ZM220.598 132.656V126.588H221.622V127.77L221.453 127.669C221.604 127.286 221.844 126.989 222.174 126.779C222.512 126.562 222.906 126.453 223.356 126.453C223.791 126.453 224.178 126.55 224.516 126.745C224.861 126.941 225.131 127.211 225.326 127.556C225.529 127.901 225.63 128.292 225.63 128.727V132.656H224.572V129.065C224.572 128.727 224.512 128.442 224.392 128.209C224.272 127.976 224.099 127.796 223.874 127.669C223.656 127.533 223.405 127.466 223.12 127.466C222.834 127.466 222.579 127.533 222.354 127.669C222.136 127.796 221.964 127.98 221.836 128.22C221.709 128.453 221.645 128.734 221.645 129.065V132.656H220.598ZM229.074 134.907V126.588H230.099V127.894L229.963 127.635C230.189 127.275 230.496 126.989 230.887 126.779C231.277 126.562 231.723 126.453 232.226 126.453C232.797 126.453 233.307 126.592 233.757 126.869C234.215 127.147 234.575 127.526 234.838 128.006C235.101 128.479 235.232 129.02 235.232 129.627C235.232 130.22 235.101 130.757 234.838 131.237C234.575 131.718 234.215 132.097 233.757 132.374C233.307 132.652 232.793 132.791 232.215 132.791C231.727 132.791 231.281 132.682 230.875 132.464C230.478 132.247 230.17 131.939 229.952 131.541L230.121 131.361V134.907H229.074ZM232.136 131.778C232.519 131.778 232.86 131.684 233.161 131.496C233.461 131.309 233.694 131.053 233.859 130.731C234.031 130.4 234.118 130.033 234.118 129.627C234.118 129.207 234.031 128.839 233.859 128.524C233.694 128.201 233.461 127.946 233.161 127.759C232.86 127.564 232.519 127.466 232.136 127.466C231.753 127.466 231.408 127.56 231.101 127.747C230.8 127.935 230.56 128.194 230.38 128.524C230.207 128.847 230.121 129.215 230.121 129.627C230.121 130.033 230.207 130.4 230.38 130.731C230.56 131.053 230.8 131.309 231.101 131.496C231.408 131.684 231.753 131.778 232.136 131.778ZM236.605 132.656V126.588H237.629V127.702L237.517 127.545C237.659 127.2 237.877 126.944 238.17 126.779C238.462 126.607 238.819 126.52 239.239 126.52H239.611V127.511H239.082C238.654 127.511 238.309 127.646 238.046 127.916C237.783 128.179 237.652 128.554 237.652 129.042V132.656H236.605ZM243.423 132.791C242.837 132.791 242.308 132.656 241.835 132.386C241.363 132.108 240.987 131.729 240.71 131.249C240.432 130.768 240.293 130.224 240.293 129.616C240.293 129.008 240.428 128.468 240.698 127.995C240.976 127.522 241.351 127.147 241.824 126.869C242.297 126.592 242.83 126.453 243.423 126.453C244.008 126.453 244.537 126.592 245.01 126.869C245.483 127.139 245.854 127.511 246.125 127.984C246.402 128.457 246.541 129.001 246.541 129.616C246.541 130.232 246.399 130.779 246.113 131.26C245.828 131.733 245.449 132.108 244.976 132.386C244.511 132.656 243.993 132.791 243.423 132.791ZM243.423 131.778C243.798 131.778 244.136 131.684 244.436 131.496C244.744 131.309 244.984 131.05 245.156 130.719C245.337 130.389 245.427 130.021 245.427 129.616C245.427 129.203 245.337 128.839 245.156 128.524C244.984 128.201 244.744 127.946 244.436 127.759C244.136 127.564 243.798 127.466 243.423 127.466C243.04 127.466 242.695 127.564 242.387 127.759C242.087 127.946 241.847 128.201 241.667 128.524C241.486 128.839 241.396 129.203 241.396 129.616C241.396 130.021 241.486 130.389 241.667 130.719C241.847 131.05 242.087 131.309 242.387 131.496C242.695 131.684 243.04 131.778 243.423 131.778ZM250.8 135.132C250.372 135.132 249.974 135.065 249.607 134.93C249.246 134.795 248.935 134.607 248.672 134.367C248.417 134.134 248.222 133.86 248.087 133.545L249.066 133.095C249.171 133.38 249.37 133.62 249.663 133.815C249.963 134.018 250.338 134.119 250.789 134.119C251.134 134.119 251.445 134.052 251.723 133.917C252.008 133.789 252.233 133.594 252.398 133.331C252.564 133.076 252.646 132.765 252.646 132.397V131.035L252.838 131.237C252.627 131.65 252.323 131.965 251.926 132.183C251.535 132.401 251.104 132.509 250.631 132.509C250.061 132.509 249.55 132.378 249.1 132.115C248.65 131.845 248.297 131.481 248.042 131.023C247.787 130.558 247.659 130.044 247.659 129.481C247.659 128.911 247.787 128.397 248.042 127.939C248.297 127.481 248.646 127.121 249.089 126.858C249.539 126.588 250.049 126.453 250.62 126.453C251.093 126.453 251.52 126.562 251.903 126.779C252.293 126.989 252.605 127.282 252.838 127.657L252.68 127.939V126.588H253.704V132.397C253.704 132.922 253.581 133.391 253.333 133.804C253.085 134.217 252.74 134.54 252.297 134.772C251.862 135.012 251.363 135.132 250.8 135.132ZM250.721 131.496C251.081 131.496 251.404 131.406 251.689 131.226C251.982 131.046 252.215 130.806 252.387 130.506C252.56 130.198 252.646 129.856 252.646 129.481C252.646 129.113 252.56 128.776 252.387 128.468C252.215 128.16 251.982 127.916 251.689 127.736C251.404 127.556 251.081 127.466 250.721 127.466C250.353 127.466 250.019 127.556 249.719 127.736C249.419 127.916 249.183 128.16 249.01 128.468C248.845 128.768 248.762 129.106 248.762 129.481C248.762 129.856 248.845 130.198 249.01 130.506C249.183 130.806 249.415 131.046 249.708 131.226C250.008 131.406 250.346 131.496 250.721 131.496ZM255.328 132.656V126.588H256.352V127.702L256.239 127.545C256.382 127.2 256.6 126.944 256.892 126.779C257.185 126.607 257.542 126.52 257.962 126.52H258.333V127.511H257.804C257.376 127.511 257.031 127.646 256.768 127.916C256.506 128.179 256.374 128.554 256.374 129.042V132.656H255.328ZM262.055 132.791C261.47 132.791 260.948 132.652 260.49 132.374C260.033 132.097 259.672 131.718 259.41 131.237C259.147 130.749 259.016 130.205 259.016 129.605C259.016 128.997 259.143 128.457 259.398 127.984C259.661 127.511 260.014 127.139 260.457 126.869C260.907 126.592 261.41 126.453 261.965 126.453C262.415 126.453 262.813 126.535 263.158 126.7C263.511 126.858 263.808 127.076 264.048 127.353C264.296 127.624 264.483 127.935 264.611 128.288C264.746 128.633 264.813 128.993 264.813 129.369C264.813 129.451 264.806 129.545 264.791 129.65C264.783 129.748 264.772 129.841 264.757 129.931H259.781V129.031H264.149L263.654 129.436C263.721 129.046 263.684 128.697 263.541 128.389C263.399 128.081 263.189 127.837 262.911 127.657C262.633 127.477 262.318 127.387 261.965 127.387C261.612 127.387 261.29 127.477 260.997 127.657C260.704 127.837 260.475 128.096 260.31 128.434C260.153 128.764 260.089 129.158 260.119 129.616C260.089 130.059 260.156 130.449 260.322 130.787C260.494 131.117 260.734 131.376 261.042 131.564C261.357 131.744 261.699 131.834 262.066 131.834C262.472 131.834 262.813 131.74 263.091 131.553C263.369 131.365 263.594 131.125 263.766 130.832L264.645 131.282C264.524 131.56 264.337 131.815 264.082 132.048C263.834 132.273 263.538 132.453 263.192 132.588C262.855 132.723 262.476 132.791 262.055 132.791ZM268.351 132.791C267.743 132.791 267.214 132.641 266.764 132.341C266.314 132.04 265.995 131.635 265.807 131.125L266.64 130.719C266.813 131.08 267.049 131.365 267.349 131.575C267.649 131.785 267.983 131.89 268.351 131.89C268.681 131.89 268.955 131.811 269.173 131.654C269.391 131.496 269.499 131.29 269.499 131.035C269.499 130.855 269.447 130.712 269.342 130.607C269.244 130.494 269.124 130.408 268.982 130.348C268.839 130.28 268.708 130.232 268.588 130.202L267.676 129.943C267.128 129.785 266.726 129.56 266.471 129.267C266.223 128.974 266.1 128.633 266.1 128.243C266.1 127.882 266.19 127.571 266.37 127.308C266.557 127.038 266.809 126.828 267.124 126.678C267.447 126.528 267.807 126.453 268.205 126.453C268.738 126.453 269.214 126.588 269.635 126.858C270.062 127.128 270.366 127.507 270.546 127.995L269.691 128.389C269.556 128.074 269.353 127.826 269.083 127.646C268.813 127.458 268.509 127.365 268.171 127.365C267.863 127.365 267.619 127.443 267.439 127.601C267.259 127.751 267.169 127.943 267.169 128.175C267.169 128.348 267.214 128.49 267.304 128.603C267.394 128.708 267.503 128.791 267.631 128.851C267.758 128.903 267.882 128.948 268.002 128.986L268.993 129.278C269.488 129.421 269.871 129.642 270.141 129.943C270.419 130.243 270.558 130.603 270.558 131.023C270.558 131.361 270.464 131.665 270.276 131.935C270.089 132.205 269.83 132.416 269.499 132.566C269.169 132.716 268.787 132.791 268.351 132.791ZM274.101 132.791C273.493 132.791 272.964 132.641 272.514 132.341C272.063 132.04 271.744 131.635 271.557 131.125L272.39 130.719C272.562 131.08 272.799 131.365 273.099 131.575C273.399 131.785 273.733 131.89 274.101 131.89C274.431 131.89 274.705 131.811 274.923 131.654C275.14 131.496 275.249 131.29 275.249 131.035C275.249 130.855 275.197 130.712 275.092 130.607C274.994 130.494 274.874 130.408 274.731 130.348C274.589 130.28 274.458 130.232 274.337 130.202L273.426 129.943C272.878 129.785 272.476 129.56 272.221 129.267C271.973 128.974 271.849 128.633 271.849 128.243C271.849 127.882 271.94 127.571 272.12 127.308C272.307 127.038 272.559 126.828 272.874 126.678C273.197 126.528 273.557 126.453 273.955 126.453C274.488 126.453 274.964 126.588 275.384 126.858C275.812 127.128 276.116 127.507 276.296 127.995L275.441 128.389C275.306 128.074 275.103 127.826 274.833 127.646C274.563 127.458 274.259 127.365 273.921 127.365C273.613 127.365 273.369 127.443 273.189 127.601C273.009 127.751 272.919 127.943 272.919 128.175C272.919 128.348 272.964 128.49 273.054 128.603C273.144 128.708 273.253 128.791 273.381 128.851C273.508 128.903 273.632 128.948 273.752 128.986L274.743 129.278C275.238 129.421 275.621 129.642 275.891 129.943C276.169 130.243 276.308 130.603 276.308 131.023C276.308 131.361 276.214 131.665 276.026 131.935C275.838 132.205 275.58 132.416 275.249 132.566C274.919 132.716 274.536 132.791 274.101 132.791Z" fill="#D97706"/>
<path d="M146.867 160.171C146.867 156.618 149.747 153.738 153.3 153.738H426.702C430.255 153.738 433.135 156.618 433.135 160.171V241.985C433.135 245.538 430.255 248.418 426.702 248.418H153.3C149.747 248.418 146.867 245.538 146.867 241.985V160.171Z" fill="#F8FAFC"/>
<path d="M170.99 173.387C170.99 177.384 167.75 180.624 163.753 180.624C159.756 180.624 156.516 177.384 156.516 173.387C156.516 169.39 159.756 166.15 163.753 166.15C167.75 166.15 170.99 169.39 170.99 173.387ZM157.963 173.387C157.963 176.585 160.555 179.177 163.753 179.177C166.95 179.177 169.542 176.585 169.542 173.387C169.542 170.189 166.95 167.597 163.753 167.597C160.555 167.597 157.963 170.189 157.963 173.387Z" fill="#F4F4F4"/>
<path d="M170.266 173.387C170.666 173.387 170.994 173.062 170.954 172.665C170.871 171.841 170.648 171.036 170.291 170.285C169.831 169.315 169.161 168.46 168.33 167.781C167.499 167.102 166.527 166.617 165.485 166.36C164.443 166.103 163.357 166.081 162.305 166.296C161.254 166.511 160.263 166.957 159.405 167.601C158.547 168.246 157.843 169.074 157.345 170.024C156.846 170.974 156.565 172.023 156.521 173.096C156.488 173.926 156.598 174.755 156.845 175.545C156.964 175.926 157.393 176.097 157.761 175.94C158.128 175.783 158.295 175.359 158.185 174.975C158.017 174.385 157.943 173.77 157.968 173.154C158.002 172.296 158.227 171.457 158.626 170.696C159.025 169.936 159.588 169.274 160.275 168.759C160.961 168.243 161.753 167.886 162.595 167.714C163.436 167.543 164.305 167.56 165.138 167.766C165.972 167.971 166.749 168.359 167.414 168.902C168.079 169.445 168.615 170.129 168.983 170.905C169.248 171.462 169.421 172.056 169.497 172.665C169.547 173.062 169.866 173.387 170.266 173.387Z" fill="url(#paint0_linear_1318_58054)"/>
<path d="M179.426 178.387V170.957H177.838V170H180.54V178.387H179.426ZM183.79 178.387L185.918 175.348L183.801 172.319H185.062L186.875 174.954H186.233L188.023 172.319H189.295L187.179 175.348L189.284 178.387H188.023L186.233 175.753H186.864L185.074 178.387H183.79ZM192.297 178.387V170H195.043C195.891 170 196.631 170.173 197.261 170.518C197.892 170.863 198.379 171.351 198.725 171.982C199.07 172.604 199.243 173.34 199.243 174.188C199.243 175.029 199.07 175.764 198.725 176.395C198.379 177.025 197.892 177.517 197.261 177.869C196.631 178.215 195.891 178.387 195.043 178.387H192.297ZM193.4 177.374H195.055C195.678 177.374 196.214 177.243 196.665 176.98C197.122 176.717 197.475 176.35 197.723 175.877C197.97 175.396 198.094 174.834 198.094 174.188C198.094 173.535 197.967 172.972 197.711 172.499C197.464 172.027 197.111 171.663 196.653 171.407C196.203 171.145 195.67 171.013 195.055 171.013H193.4V177.374ZM200.517 178.387V172.319H201.541V173.434L201.429 173.276C201.571 172.931 201.789 172.676 202.082 172.511C202.375 172.338 202.731 172.252 203.151 172.252H203.523V173.242H202.994C202.566 173.242 202.221 173.378 201.958 173.648C201.695 173.91 201.564 174.286 201.564 174.773V178.387H200.517ZM206.603 178.522C206.168 178.522 205.774 178.421 205.421 178.218C205.076 178.016 204.806 177.734 204.61 177.374C204.423 177.006 204.329 176.586 204.329 176.113V172.319H205.376V176.001C205.376 176.301 205.436 176.563 205.556 176.789C205.684 177.014 205.856 177.19 206.074 177.318C206.299 177.445 206.554 177.509 206.839 177.509C207.125 177.509 207.376 177.445 207.594 177.318C207.819 177.19 207.992 177.006 208.112 176.766C208.239 176.526 208.303 176.241 208.303 175.911V172.319H209.361V178.387H208.337V177.205L208.506 177.306C208.363 177.689 208.119 177.989 207.774 178.207C207.436 178.417 207.046 178.522 206.603 178.522ZM210.983 178.387V172.319H212.008V173.558L211.861 173.366C212.011 172.983 212.252 172.691 212.582 172.488C212.912 172.286 213.284 172.184 213.696 172.184C214.169 172.184 214.593 172.316 214.968 172.578C215.351 172.841 215.614 173.186 215.756 173.614L215.464 173.625C215.621 173.152 215.888 172.796 216.263 172.556C216.638 172.308 217.055 172.184 217.513 172.184C217.933 172.184 218.312 172.282 218.65 172.477C218.995 172.672 219.269 172.942 219.472 173.287C219.674 173.633 219.775 174.023 219.775 174.458V178.387H218.717V174.796C218.717 174.458 218.657 174.173 218.537 173.94C218.417 173.708 218.252 173.528 218.042 173.4C217.839 173.265 217.599 173.197 217.321 173.197C217.051 173.197 216.807 173.265 216.59 173.4C216.379 173.528 216.211 173.711 216.083 173.952C215.963 174.184 215.903 174.466 215.903 174.796V178.387H214.845V174.796C214.845 174.458 214.785 174.173 214.664 173.94C214.544 173.708 214.379 173.528 214.169 173.4C213.966 173.265 213.726 173.197 213.449 173.197C213.178 173.197 212.935 173.265 212.717 173.4C212.507 173.528 212.338 173.711 212.21 173.952C212.09 174.184 212.03 174.466 212.03 174.796V178.387H210.983ZM223.435 178.522C222.827 178.522 222.298 178.372 221.848 178.072C221.398 177.772 221.079 177.367 220.891 176.856L221.724 176.451C221.897 176.811 222.133 177.096 222.433 177.306C222.733 177.517 223.067 177.622 223.435 177.622C223.765 177.622 224.039 177.543 224.257 177.385C224.475 177.228 224.584 177.021 224.584 176.766C224.584 176.586 224.531 176.443 224.426 176.338C224.328 176.226 224.208 176.139 224.066 176.079C223.923 176.012 223.792 175.963 223.672 175.933L222.76 175.674C222.212 175.516 221.81 175.291 221.555 174.999C221.308 174.706 221.184 174.364 221.184 173.974C221.184 173.614 221.274 173.302 221.454 173.04C221.641 172.77 221.893 172.559 222.208 172.409C222.531 172.259 222.891 172.184 223.289 172.184C223.822 172.184 224.298 172.319 224.719 172.589C225.146 172.86 225.45 173.239 225.63 173.727L224.775 174.121C224.64 173.805 224.437 173.558 224.167 173.378C223.897 173.19 223.593 173.096 223.255 173.096C222.947 173.096 222.703 173.175 222.523 173.332C222.343 173.483 222.253 173.674 222.253 173.907C222.253 174.079 222.298 174.222 222.388 174.334C222.478 174.439 222.587 174.522 222.715 174.582C222.842 174.635 222.966 174.68 223.086 174.717L224.077 175.01C224.572 175.152 224.955 175.374 225.225 175.674C225.503 175.974 225.642 176.335 225.642 176.755C225.642 177.093 225.548 177.397 225.36 177.667C225.173 177.937 224.914 178.147 224.584 178.297C224.253 178.447 223.871 178.522 223.435 178.522ZM229.478 178.455C228.885 178.455 228.427 178.286 228.104 177.948C227.789 177.61 227.631 177.134 227.631 176.518V173.321H226.528V172.319H226.753C227.024 172.319 227.237 172.237 227.395 172.072C227.553 171.907 227.631 171.689 227.631 171.419V170.923H228.678V172.319H230.041V173.321H228.678V176.485C228.678 176.687 228.708 176.864 228.768 177.014C228.836 177.164 228.945 177.284 229.095 177.374C229.245 177.457 229.444 177.498 229.692 177.498C229.744 177.498 229.808 177.494 229.883 177.487C229.966 177.479 230.041 177.472 230.108 177.464V178.387C230.011 178.41 229.902 178.425 229.782 178.432C229.662 178.447 229.56 178.455 229.478 178.455ZM231.476 178.387V172.319H232.523V178.387H231.476ZM231.476 171.351V170H232.523V171.351H231.476ZM236.962 178.522C236.369 178.522 235.84 178.383 235.374 178.106C234.917 177.828 234.556 177.449 234.294 176.969C234.031 176.488 233.9 175.948 233.9 175.348C233.9 174.74 234.031 174.199 234.294 173.727C234.556 173.254 234.917 172.878 235.374 172.601C235.84 172.323 236.369 172.184 236.962 172.184C237.36 172.184 237.731 172.255 238.076 172.398C238.421 172.541 238.725 172.732 238.988 172.972C239.251 173.212 239.442 173.494 239.562 173.817L238.628 174.267C238.485 173.952 238.268 173.696 237.975 173.501C237.682 173.299 237.344 173.197 236.962 173.197C236.594 173.197 236.26 173.291 235.96 173.479C235.667 173.666 235.434 173.922 235.262 174.244C235.089 174.567 235.003 174.939 235.003 175.359C235.003 175.764 235.089 176.132 235.262 176.462C235.434 176.785 235.667 177.04 235.96 177.228C236.26 177.415 236.594 177.509 236.962 177.509C237.344 177.509 237.682 177.412 237.975 177.216C238.268 177.014 238.485 176.747 238.628 176.417L239.562 176.89C239.442 177.205 239.251 177.487 238.988 177.734C238.725 177.974 238.421 178.166 238.076 178.308C237.731 178.451 237.36 178.522 236.962 178.522ZM240.931 178.387V169.865H241.977V175.708L241.55 175.607L244.769 172.319H246.109L243.779 174.762L246.267 178.387H245.028L242.754 175.1L243.407 175.066L241.64 176.912L241.977 176.147V178.387H240.931Z" fill="#0F172A"/>
<path d="M170.99 203.036C170.99 207.033 167.75 210.274 163.753 210.274C159.756 210.274 156.516 207.033 156.516 203.036C156.516 199.039 159.756 195.799 163.753 195.799C167.75 195.799 170.99 199.039 170.99 203.036ZM157.963 203.036C157.963 206.234 160.555 208.826 163.753 208.826C166.95 208.826 169.542 206.234 169.542 203.036C169.542 199.839 166.95 197.247 163.753 197.247C160.555 197.247 157.963 199.839 157.963 203.036Z" fill="#F4F4F4"/>
<path d="M170.266 203.036C170.666 203.036 170.994 202.712 170.954 202.314C170.871 201.49 170.648 200.685 170.291 199.934C169.831 198.964 169.161 198.109 168.33 197.431C167.499 196.752 166.527 196.266 165.485 196.01C164.443 195.753 163.357 195.731 162.305 195.946C161.254 196.16 160.263 196.606 159.405 197.251C158.547 197.896 157.843 198.723 157.345 199.673C156.846 200.623 156.565 201.673 156.521 202.745C156.488 203.576 156.598 204.404 156.845 205.194C156.964 205.576 157.393 205.746 157.761 205.59C158.128 205.433 158.295 205.008 158.185 204.624C158.017 204.034 157.943 203.419 157.968 202.803C158.002 201.946 158.227 201.106 158.626 200.346C159.025 199.586 159.588 198.924 160.275 198.408C160.961 197.892 161.753 197.535 162.595 197.364C163.436 197.192 164.305 197.21 165.138 197.415C165.972 197.62 166.749 198.009 167.414 198.552C168.079 199.095 168.615 199.779 168.983 200.554C169.248 201.112 169.421 201.706 169.497 202.315C169.547 202.711 169.866 203.036 170.266 203.036Z" fill="url(#paint1_linear_1318_58054)"/>
<path d="M179.426 208.037V200.607H177.838V199.65H180.54V208.037H179.426ZM183.79 208.037L185.918 204.997L183.801 201.969H185.062L186.875 204.603H186.233L188.023 201.969H189.295L187.179 204.997L189.284 208.037H188.023L186.233 205.402H186.864L185.074 208.037H183.79ZM192.297 208.037V199.65H195.257C195.813 199.65 196.301 199.755 196.721 199.965C197.141 200.175 197.468 200.475 197.7 200.865C197.94 201.256 198.06 201.714 198.06 202.239C198.06 202.764 197.94 203.222 197.7 203.612C197.468 203.995 197.141 204.295 196.721 204.513C196.308 204.723 195.82 204.828 195.257 204.828H193.4V208.037H192.297ZM193.4 203.815H195.291C195.629 203.815 195.921 203.751 196.169 203.624C196.417 203.496 196.608 203.312 196.743 203.072C196.878 202.832 196.946 202.554 196.946 202.239C196.946 201.916 196.878 201.638 196.743 201.406C196.608 201.166 196.417 200.982 196.169 200.854C195.921 200.727 195.629 200.663 195.291 200.663H193.4V203.815ZM199.429 208.037V201.969H200.476V208.037H199.429ZM199.429 201.001V199.65H200.476V201.001H199.429ZM201.503 208.037V207.147L205.117 202.588L205.297 202.971H201.684V201.969H206.232V202.858L202.652 207.429L202.472 207.035H206.254V208.037H201.503ZM206.682 208.037V207.147L210.295 202.588L210.475 202.971H206.862V201.969H211.41V202.858L207.83 207.429L207.65 207.035H211.432V208.037H206.682ZM214.235 208.172C213.837 208.172 213.485 208.1 213.177 207.958C212.877 207.808 212.64 207.605 212.468 207.35C212.295 207.087 212.209 206.787 212.209 206.449C212.209 206.127 212.276 205.838 212.411 205.582C212.554 205.32 212.772 205.098 213.064 204.918C213.364 204.738 213.74 204.611 214.19 204.535L216.442 204.164V205.042L214.426 205.38C214.036 205.447 213.751 205.571 213.571 205.751C213.398 205.931 213.312 206.153 213.312 206.416C213.312 206.663 213.41 206.87 213.605 207.035C213.807 207.2 214.059 207.282 214.359 207.282C214.742 207.282 215.072 207.204 215.35 207.046C215.635 206.881 215.856 206.659 216.014 206.382C216.179 206.104 216.261 205.796 216.261 205.459V203.916C216.261 203.586 216.138 203.32 215.89 203.117C215.65 202.907 215.331 202.802 214.933 202.802C214.588 202.802 214.28 202.892 214.01 203.072C213.747 203.245 213.552 203.477 213.425 203.77L212.513 203.297C212.625 203.019 212.805 202.772 213.053 202.554C213.301 202.329 213.59 202.153 213.92 202.025C214.25 201.897 214.595 201.834 214.956 201.834C215.421 201.834 215.83 201.924 216.183 202.104C216.535 202.276 216.809 202.52 217.004 202.836C217.207 203.143 217.308 203.504 217.308 203.916V208.037H216.284V206.888L216.475 206.956C216.348 207.196 216.175 207.406 215.958 207.586C215.74 207.766 215.485 207.909 215.192 208.014C214.899 208.119 214.58 208.172 214.235 208.172Z" fill="#0F172A"/>
<path d="M225.846 208.037V199.65H226.747V203.421H231.25V199.65H232.15V208.037H231.25V204.265H226.747V208.037H225.846ZM235.757 208.172C235.374 208.172 235.032 208.1 234.732 207.958C234.432 207.808 234.196 207.605 234.023 207.35C233.85 207.095 233.764 206.802 233.764 206.472C233.764 206.157 233.832 205.871 233.967 205.616C234.102 205.354 234.312 205.132 234.597 204.952C234.882 204.772 235.246 204.644 235.689 204.569L238.053 204.175V204.941L235.892 205.301C235.456 205.376 235.141 205.515 234.946 205.718C234.758 205.92 234.665 206.16 234.665 206.438C234.665 206.708 234.77 206.937 234.98 207.125C235.198 207.312 235.475 207.406 235.813 207.406C236.226 207.406 236.586 207.32 236.894 207.147C237.201 206.967 237.442 206.727 237.614 206.427C237.787 206.127 237.873 205.793 237.873 205.425V203.894C237.873 203.534 237.742 203.241 237.479 203.016C237.216 202.791 236.875 202.678 236.455 202.678C236.087 202.678 235.764 202.772 235.486 202.959C235.209 203.14 235.002 203.376 234.867 203.669L234.102 203.252C234.214 202.997 234.391 202.764 234.631 202.554C234.879 202.344 235.16 202.179 235.475 202.059C235.79 201.931 236.117 201.867 236.455 201.867C236.897 201.867 237.288 201.954 237.625 202.126C237.971 202.299 238.237 202.539 238.425 202.847C238.62 203.147 238.717 203.496 238.717 203.894V208.037H237.873V206.832L237.997 206.956C237.892 207.181 237.727 207.387 237.502 207.575C237.284 207.755 237.025 207.902 236.725 208.014C236.432 208.119 236.109 208.172 235.757 208.172ZM240.454 208.037V202.002H241.298V203.151L241.163 202.982C241.328 202.629 241.572 202.355 241.895 202.16C242.225 201.965 242.586 201.867 242.976 201.867C243.441 201.867 243.861 201.999 244.237 202.261C244.612 202.524 244.878 202.866 245.036 203.286L244.8 203.297C244.95 202.832 245.209 202.479 245.576 202.239C245.952 201.991 246.364 201.867 246.815 201.867C247.22 201.867 247.592 201.965 247.929 202.16C248.274 202.355 248.548 202.625 248.751 202.971C248.961 203.308 249.066 203.691 249.066 204.119V208.037H248.222V204.445C248.222 204.078 248.154 203.766 248.019 203.511C247.892 203.256 247.715 203.061 247.49 202.926C247.265 202.783 247.006 202.712 246.713 202.712C246.428 202.712 246.169 202.783 245.937 202.926C245.704 203.061 245.52 203.26 245.385 203.522C245.25 203.777 245.182 204.085 245.182 204.445V208.037H244.338V204.445C244.338 204.078 244.27 203.766 244.135 203.511C244.008 203.256 243.831 203.061 243.606 202.926C243.381 202.783 243.122 202.712 242.829 202.712C242.537 202.712 242.274 202.783 242.041 202.926C241.816 203.061 241.636 203.26 241.501 203.522C241.366 203.777 241.298 204.085 241.298 204.445V208.037H240.454ZM250.712 209.5V209.106C250.937 209.046 251.102 208.93 251.208 208.757C251.313 208.584 251.365 208.344 251.365 208.037H250.937V206.798H251.838V207.744C251.838 208.232 251.744 208.622 251.557 208.915C251.369 209.215 251.087 209.41 250.712 209.5ZM255.749 208.037V199.65H259.273C259.746 199.65 260.155 199.74 260.5 199.92C260.853 200.092 261.123 200.336 261.311 200.652C261.506 200.967 261.604 201.335 261.604 201.755C261.604 202.19 261.495 202.577 261.277 202.914C261.067 203.245 260.763 203.496 260.365 203.669L260.354 203.398C260.684 203.519 260.966 203.687 261.198 203.905C261.438 204.123 261.622 204.378 261.75 204.671C261.877 204.956 261.941 205.263 261.941 205.594C261.941 206.344 261.701 206.941 261.221 207.384C260.748 207.819 260.102 208.037 259.284 208.037H255.749ZM256.65 207.192H259.284C259.817 207.192 260.241 207.053 260.557 206.776C260.879 206.491 261.041 206.1 261.041 205.605C261.041 205.117 260.879 204.731 260.557 204.445C260.241 204.153 259.817 204.006 259.284 204.006H256.65V207.192ZM256.65 203.196H259.206C259.656 203.196 260.016 203.064 260.286 202.802C260.564 202.539 260.703 202.201 260.703 201.789C260.703 201.368 260.564 201.049 260.286 200.832C260.016 200.607 259.656 200.494 259.206 200.494H256.65V203.196ZM265.176 208.172C264.794 208.172 264.452 208.1 264.152 207.958C263.852 207.808 263.615 207.605 263.443 207.35C263.27 207.095 263.184 206.802 263.184 206.472C263.184 206.157 263.251 205.871 263.386 205.616C263.521 205.354 263.732 205.132 264.017 204.952C264.302 204.772 264.666 204.644 265.109 204.569L267.473 204.175V204.941L265.311 205.301C264.876 205.376 264.561 205.515 264.366 205.718C264.178 205.92 264.084 206.16 264.084 206.438C264.084 206.708 264.189 206.937 264.399 207.125C264.617 207.312 264.895 207.406 265.233 207.406C265.645 207.406 266.006 207.32 266.313 207.147C266.621 206.967 266.861 206.727 267.034 206.427C267.206 206.127 267.293 205.793 267.293 205.425V203.894C267.293 203.534 267.161 203.241 266.899 203.016C266.636 202.791 266.295 202.678 265.874 202.678C265.506 202.678 265.184 202.772 264.906 202.959C264.628 203.14 264.422 203.376 264.287 203.669L263.521 203.252C263.634 202.997 263.81 202.764 264.05 202.554C264.298 202.344 264.58 202.179 264.895 202.059C265.21 201.931 265.537 201.867 265.874 201.867C266.317 201.867 266.707 201.954 267.045 202.126C267.39 202.299 267.657 202.539 267.844 202.847C268.039 203.147 268.137 203.496 268.137 203.894V208.037H267.293V206.832L267.417 206.956C267.311 207.181 267.146 207.387 266.921 207.575C266.704 207.755 266.445 207.902 266.144 208.014C265.852 208.119 265.529 208.172 265.176 208.172ZM272.632 208.172C272.039 208.172 271.517 208.033 271.067 207.755C270.617 207.477 270.264 207.102 270.009 206.629C269.754 206.149 269.626 205.609 269.626 205.008C269.626 204.408 269.754 203.871 270.009 203.398C270.264 202.926 270.617 202.554 271.067 202.284C271.517 202.006 272.039 201.867 272.632 201.867C273.007 201.867 273.36 201.935 273.69 202.07C274.02 202.205 274.313 202.389 274.568 202.622C274.823 202.847 275.015 203.109 275.142 203.41L274.377 203.804C274.227 203.481 273.998 203.218 273.69 203.016C273.382 202.813 273.03 202.712 272.632 202.712C272.234 202.712 271.874 202.813 271.551 203.016C271.236 203.211 270.984 203.485 270.797 203.837C270.617 204.183 270.527 204.577 270.527 205.02C270.527 205.455 270.617 205.849 270.797 206.202C270.984 206.547 271.236 206.821 271.551 207.023C271.874 207.226 272.234 207.327 272.632 207.327C273.03 207.327 273.379 207.226 273.679 207.023C273.987 206.821 274.219 206.551 274.377 206.213L275.142 206.629C275.015 206.922 274.823 207.185 274.568 207.417C274.313 207.65 274.02 207.834 273.69 207.969C273.36 208.104 273.007 208.172 272.632 208.172ZM279.45 208.172C278.879 208.172 278.361 208.037 277.896 207.766C277.431 207.489 277.059 207.113 276.782 206.641C276.511 206.16 276.376 205.616 276.376 205.008C276.376 204.408 276.511 203.871 276.782 203.398C277.052 202.926 277.416 202.554 277.874 202.284C278.339 202.006 278.864 201.867 279.45 201.867C280.035 201.867 280.557 202.002 281.014 202.273C281.48 202.543 281.844 202.914 282.106 203.387C282.377 203.86 282.512 204.4 282.512 205.008C282.512 205.624 282.373 206.172 282.095 206.652C281.818 207.125 281.446 207.496 280.981 207.766C280.523 208.037 280.013 208.172 279.45 208.172ZM279.45 207.327C279.855 207.327 280.219 207.226 280.542 207.023C280.872 206.821 281.131 206.543 281.318 206.19C281.514 205.838 281.611 205.444 281.611 205.008C281.611 204.573 281.514 204.183 281.318 203.837C281.131 203.492 280.872 203.218 280.542 203.016C280.219 202.813 279.855 202.712 279.45 202.712C279.044 202.712 278.677 202.813 278.346 203.016C278.024 203.218 277.765 203.492 277.57 203.837C277.374 204.183 277.277 204.573 277.277 205.008C277.277 205.444 277.374 205.838 277.57 206.19C277.765 206.543 278.024 206.821 278.346 207.023C278.677 207.226 279.044 207.327 279.45 207.327ZM284.001 208.037V202.002H284.845V203.173L284.654 203.128C284.804 202.738 285.048 202.43 285.386 202.205C285.731 201.98 286.129 201.867 286.579 201.867C287.007 201.867 287.389 201.965 287.727 202.16C288.072 202.355 288.343 202.625 288.538 202.971C288.74 203.308 288.842 203.691 288.842 204.119V208.037H287.997V204.445C287.997 204.078 287.93 203.766 287.795 203.511C287.667 203.256 287.483 203.061 287.243 202.926C287.01 202.783 286.74 202.712 286.433 202.712C286.125 202.712 285.851 202.783 285.611 202.926C285.371 203.061 285.183 203.26 285.048 203.522C284.913 203.777 284.845 204.085 284.845 204.445V208.037H284.001Z" fill="#475569"/>
</g>
</g>
<defs>
<filter id="filter0_dd_1318_58054" x="109" y="-3.75684" width="372" height="348.536" filterUnits="userSpaceOnUse" color-interpolation-filters="sRGB">
<feFlood flood-opacity="0" result="BackgroundImageFix"/>
<feColorMatrix in="SourceAlpha" type="matrix" values="0 0 0 0 0 0 0 0 0 0 0 0 0 0 0 0 0 0 127 0" result="hardAlpha"/>
<feOffset dx="5" dy="5"/>
<feGaussianBlur stdDeviation="15"/>
<feComposite in2="hardAlpha" operator="out"/>
<feColorMatrix type="matrix" values="0 0 0 0 0 0 0 0 0 0 0 0 0 0 0 0 0 0 0.03 0"/>
<feBlend mode="normal" in2="BackgroundImageFix" result="effect1_dropShadow_1318_58054"/>
<feColorMatrix in="SourceAlpha" type="matrix" values="0 0 0 0 0 0 0 0 0 0 0 0 0 0 0 0 0 0 127 0" result="hardAlpha"/>
<feOffset dx="5" dy="15"/>
<feGaussianBlur stdDeviation="15"/>
<feComposite in2="hardAlpha" operator="out"/>
<feColorMatrix type="matrix" values="0 0 0 0 0 0 0 0 0 0 0 0 0 0 0 0 0 0 0.03 0"/>
<feBlend mode="normal" in2="effect1_dropShadow_1318_58054" result="effect2_dropShadow_1318_58054"/>
<feBlend mode="normal" in="SourceGraphic" in2="effect2_dropShadow_1318_58054" result="shape"/>
</filter>
<linearGradient id="paint0_linear_1318_58054" x1="169.382" y1="168.964" x2="158.124" y2="172.583" gradientUnits="userSpaceOnUse">
<stop stop-color="#F97316"/>
<stop offset="1" stop-color="#FFA466" stop-opacity="0"/>
</linearGradient>
<linearGradient id="paint1_linear_1318_58054" x1="169.382" y1="198.614" x2="158.124" y2="202.232" gradientUnits="userSpaceOnUse">
<stop stop-color="#F97316"/>
<stop offset="1" stop-color="#FFA466" stop-opacity="0"/>
</linearGradient>
<clipPath id="clip0_1318_58054">
<rect width="580" height="225" fill="white" transform="translate(0 0.22998)"/>
</clipPath>
</defs>
</svg>
