<svg width="30" height="30" viewBox="0 0 30 30" fill="none" xmlns="http://www.w3.org/2000/svg">
<path d="M24.8147 13.5426H27.275C27.275 7.23196 22.5106 2.47253 16.1914 2.47253V4.93282C21.1882 4.93282 24.8147 8.55313 24.8147 13.5426Z" fill="white"/>
<path d="M16.2041 9.85336C18.7911 9.85336 19.8945 10.9568 19.8945 13.5438H22.3548C22.3548 9.57658 20.1713 7.39308 16.2041 7.39308V9.85336ZM20.4137 16.549C20.1773 16.3342 19.8667 16.2196 19.5474 16.2295C19.2281 16.2393 18.9252 16.3729 18.7025 16.6019L15.7588 19.6293C15.0502 19.494 13.6257 19.0499 12.1594 17.5873C10.6931 16.1197 10.249 14.6915 10.1174 13.9879L13.1423 11.0429C13.3716 10.8204 13.5054 10.5174 13.5152 10.1981C13.5251 9.87869 13.4103 9.56802 13.1952 9.33178L8.64981 4.33371C8.43459 4.09673 8.13546 3.95299 7.81596 3.933C7.49646 3.91302 7.18176 4.01837 6.93868 4.22669L4.26927 6.51598C4.0566 6.72943 3.92965 7.01352 3.91253 7.31435C3.89408 7.62188 3.54226 14.9068 9.19107 20.5581C14.119 25.4848 20.2919 25.8452 21.9919 25.8452C22.2404 25.8452 22.393 25.8378 22.4336 25.8354C22.7343 25.8185 23.0183 25.691 23.2307 25.4774L25.5188 22.8068C25.7272 22.5638 25.8328 22.2492 25.813 21.9297C25.7933 21.6102 25.6498 21.311 25.413 21.0956L20.4137 16.549Z" fill="white"/>
</svg>
