<svg width="160" height="48" viewBox="0 0 160 48" fill="none" xmlns="http://www.w3.org/2000/svg">
<g clip-path="url(#clip0_2014_3842)">
<path d="M154.074 0.0268555H5.92593C2.65313 0.0268555 0 2.67998 0 5.95278V41.5083C0 44.7811 2.65313 47.4343 5.92593 47.4343H154.074C157.347 47.4343 160 44.7811 160 41.5083V5.95278C160 2.67998 157.347 0.0268555 154.074 0.0268555Z" fill="black"/>
<path d="M154.074 0.975004C155.394 0.975004 156.66 1.49945 157.594 2.43296C158.527 3.36648 159.052 4.63259 159.052 5.95278V41.5083C159.052 42.8285 158.527 44.0946 157.594 45.0282C156.66 45.9617 155.394 46.4861 154.074 46.4861H5.92593C4.60574 46.4861 3.33962 45.9617 2.40611 45.0282C1.47259 44.0946 0.948148 42.8285 0.948148 41.5083V5.95278C0.948148 4.63259 1.47259 3.36648 2.40611 2.43296C3.33962 1.49945 4.60574 0.975004 5.92593 0.975004H154.074ZM154.074 0.0268555H5.92593C4.35427 0.0268555 2.84699 0.651192 1.73566 1.76252C0.624337 2.87385 0 4.38113 0 5.95278V41.5083C0 43.08 0.624337 44.5873 1.73566 45.6986C2.84699 46.8099 4.35427 47.4343 5.92593 47.4343H154.074C155.646 47.4343 157.153 46.8099 158.264 45.6986C159.376 44.5873 160 43.08 160 41.5083V5.95278C160 4.38113 159.376 2.87385 158.264 1.76252C157.153 0.651192 155.646 0.0268555 154.074 0.0268555Z" fill="#A6A6A6"/>
<path d="M56.2026 12.163C56.222 12.5976 56.1533 13.0317 56.0006 13.4391C55.8478 13.8464 55.6142 14.2187 55.3137 14.5334C54.977 14.881 54.5707 15.1536 54.1214 15.3333C53.6721 15.513 53.1898 15.5958 52.7063 15.5763C52.22 15.5872 51.7366 15.4981 51.2861 15.3146C50.8355 15.1311 50.4274 14.8572 50.087 14.5096C49.3964 13.8032 49.0098 12.8546 49.0098 11.8667C49.0098 10.8788 49.3964 9.93013 50.087 9.22372C50.615 8.70779 51.2837 8.35941 52.0091 8.22235C52.7345 8.08528 53.4842 8.16565 54.1641 8.45335C54.5915 8.62903 54.9727 8.90074 55.2781 9.24743L54.65 9.87558C54.4146 9.59205 54.1164 9.36729 53.779 9.21916C53.4416 9.07104 53.0743 9.00361 52.7063 9.02224C52.2417 9.02546 51.785 9.14241 51.3761 9.36288C50.9672 9.58335 50.6185 9.90063 50.3605 10.287C50.1025 10.6733 49.943 11.117 49.8961 11.5792C49.8491 12.0414 49.9161 12.5081 50.0912 12.9384C50.2662 13.3687 50.544 13.7496 50.9003 14.0478C51.2565 14.346 51.6804 14.5524 52.1348 14.649C52.5893 14.7455 53.0604 14.7293 53.5071 14.6017C53.9539 14.4741 54.3625 14.239 54.6974 13.9171C55.0594 13.5201 55.2693 13.0079 55.29 12.4711H52.7063V11.6178H56.1552C56.1822 11.7984 56.198 11.9805 56.2026 12.163Z" fill="white" stroke="white" stroke-width="0.224237" stroke-miterlimit="10"/>
<path d="M61.6284 9.19979H58.4284V11.4516H61.3439V12.305H58.4284V14.5568H61.6284V15.4339H57.5039V8.32275H61.6284V9.19979Z" fill="white" stroke="white" stroke-width="0.224237" stroke-miterlimit="10"/>
<path d="M65.517 15.4339H64.6044V9.19979H62.6133V8.32275H67.5555V9.19979H65.517V15.4339Z" fill="white" stroke="white" stroke-width="0.224237" stroke-miterlimit="10"/>
<path d="M71.041 15.4339V8.32275H71.9536V15.4339H71.041Z" fill="white" stroke="white" stroke-width="0.224237" stroke-miterlimit="10"/>
<path d="M76.0053 15.4339H75.0927V9.19979H73.1016V8.32275H77.9845V9.19979H76.0053V15.4339Z" fill="white" stroke="white" stroke-width="0.224237" stroke-miterlimit="10"/>
<path d="M87.2423 14.5099C86.8999 14.8525 86.4935 15.1243 86.0461 15.3097C85.5987 15.4951 85.1191 15.5905 84.6349 15.5905C84.1506 15.5905 83.671 15.4951 83.2236 15.3097C82.7762 15.1243 82.3697 14.8525 82.0274 14.5099C81.3574 13.7977 80.9844 12.8566 80.9844 11.8788C80.9844 10.9009 81.3574 9.95991 82.0274 9.24768C82.3624 8.89544 82.7675 8.61743 83.2167 8.43165C83.6658 8.24587 84.149 8.15644 84.6349 8.16916C85.1201 8.16148 85.6017 8.25321 86.0501 8.43869C86.4985 8.62418 86.9042 8.89949 87.2423 9.24768C87.583 9.59433 87.8509 10.0058 88.0301 10.4577C88.2092 10.9096 88.2959 11.3928 88.2852 11.8788C88.3008 12.3654 88.2162 12.85 88.0368 13.3026C87.8574 13.7552 87.587 14.1661 87.2423 14.5099ZM82.703 13.9173C82.9555 14.1732 83.2563 14.3763 83.5879 14.515C83.9195 14.6536 84.2754 14.725 84.6349 14.725C84.9943 14.725 85.3502 14.6536 85.6818 14.515C86.0134 14.3763 86.3142 14.1732 86.5667 13.9173C87.0781 13.3616 87.3619 12.634 87.3619 11.8788C87.3619 11.1236 87.0781 10.396 86.5667 9.84027C86.3142 9.58441 86.0134 9.38126 85.6818 9.2426C85.3502 9.10394 84.9943 9.03254 84.6349 9.03254C84.2754 9.03254 83.9195 9.10394 83.5879 9.2426C83.2563 9.38126 82.9555 9.58441 82.703 9.84027C82.1916 10.396 81.9077 11.1236 81.9077 11.8788C81.9077 12.634 82.1916 13.3616 82.703 13.9173Z" fill="white" stroke="white" stroke-width="0.224237" stroke-miterlimit="10"/>
<path d="M89.5762 15.4339V8.32275H90.6784L94.1391 13.8576V12.4828V8.32275H95.0517V15.4339H94.1036L90.4888 9.63831V11.0013V15.4339H89.5762Z" fill="white" stroke="white" stroke-width="0.224237" stroke-miterlimit="10"/>
<path d="M80.7599 25.8048C79.7613 25.8072 78.7858 26.1056 77.9569 26.6623C77.1279 27.219 76.4826 28.0091 76.1026 28.9325C75.7227 29.856 75.6251 30.8714 75.8222 31.8503C76.0193 32.8292 76.5023 33.7277 77.21 34.4322C77.9178 35.1366 78.8185 35.6153 79.7984 35.8079C80.7782 36.0004 81.7931 35.898 82.7148 35.5137C83.6365 35.1294 84.4235 34.4804 84.9763 33.6488C85.5291 32.8173 85.823 31.8404 85.8206 30.8419C85.8303 30.1757 85.7058 29.5144 85.4546 28.8974C85.2034 28.2803 84.8306 27.7201 84.3584 27.2502C83.8862 26.7802 83.3243 26.41 82.706 26.1617C82.0878 25.9134 81.426 25.792 80.7599 25.8048ZM80.7599 33.8996C80.1478 33.9424 79.537 33.8001 79.0069 33.4912C78.4768 33.1823 78.0519 32.721 77.7874 32.1674C77.523 31.6138 77.4311 30.9934 77.5239 30.3869C77.6167 29.7804 77.8898 29.2159 78.3077 28.7666C78.7256 28.3174 79.2689 28.0043 79.8672 27.868C80.4654 27.7316 81.0907 27.7784 81.662 28.0022C82.2333 28.2261 82.724 28.6166 83.0704 29.123C83.4168 29.6294 83.6028 30.2283 83.6043 30.8419C83.6234 31.2306 83.5645 31.6193 83.431 31.9849C83.2975 32.3505 83.0921 32.6857 82.827 32.9707C82.5619 33.2556 82.2424 33.4847 81.8874 33.6442C81.5324 33.8038 81.149 33.8906 80.7599 33.8996ZM69.7139 25.8048C68.7154 25.8072 67.7399 26.1056 66.9109 26.6623C66.082 27.219 65.4367 28.0091 65.0567 28.9325C64.6767 29.856 64.5791 30.8714 64.7763 31.8503C64.9734 32.8292 65.4563 33.7277 66.1641 34.4322C66.8718 35.1366 67.7726 35.6153 68.7524 35.8079C69.7323 36.0004 70.7472 35.898 71.6689 35.5137C72.5905 35.1294 73.3775 34.4804 73.9304 33.6488C74.4832 32.8173 74.777 31.8404 74.7747 30.8419C74.7843 30.1757 74.6599 29.5144 74.4087 28.8974C74.1575 28.2803 73.7847 27.7201 73.3125 27.2502C72.8403 26.7802 72.2783 26.41 71.6601 26.1617C71.0419 25.9134 70.38 25.792 69.7139 25.8048ZM69.7139 33.8996C69.1019 33.9424 68.4911 33.8001 67.961 33.4912C67.4309 33.1823 67.006 32.721 66.7415 32.1674C66.477 31.6138 66.3852 30.9934 66.478 30.3869C66.5708 29.7804 66.8439 29.2159 67.2618 28.7666C67.6796 28.3174 68.223 28.0043 68.8212 27.868C69.4194 27.7316 70.0448 27.7784 70.6161 28.0022C71.1874 28.2261 71.6781 28.6166 72.0245 29.123C72.3709 29.6294 72.5569 30.2283 72.5584 30.8419C72.5775 31.2306 72.5185 31.6193 72.385 31.9849C72.2515 32.3505 72.0462 32.6857 71.7811 32.9707C71.516 33.2556 71.1965 33.4847 70.8415 33.6442C70.4864 33.8038 70.1031 33.8906 69.7139 33.8996ZM56.5821 27.3574V29.4907H61.7021C61.6218 30.4955 61.2041 31.4437 60.5169 32.1811C60.0033 32.7044 59.3856 33.114 58.7037 33.3835C58.0218 33.653 57.2909 33.7763 56.5584 33.7456C55.0496 33.7456 53.6026 33.1462 52.5357 32.0793C51.4689 31.0124 50.8695 29.5655 50.8695 28.0567C50.8695 26.5479 51.4689 25.1009 52.5357 24.034C53.6026 22.9671 55.0496 22.3678 56.5584 22.3678C58.0048 22.3463 59.4015 22.8956 60.4458 23.8967L61.951 22.3915C61.2446 21.6928 60.4059 21.1422 59.484 20.7718C58.5621 20.4014 57.5755 20.2187 56.5821 20.2344C55.5285 20.1934 54.4774 20.3656 53.4919 20.7405C52.5063 21.1154 51.6066 21.6854 50.8467 22.4164C50.0867 23.1473 49.4822 24.0242 49.0692 24.9944C48.6562 25.9646 48.4434 27.0082 48.4434 28.0626C48.4434 29.117 48.6562 30.1606 49.0692 31.1308C49.4822 32.101 50.0867 32.9778 50.8467 33.7088C51.6066 34.4398 52.5063 35.0098 53.4919 35.3847C54.4774 35.7596 55.5285 35.9317 56.5821 35.8907C57.5959 35.9312 58.6068 35.7568 59.5485 35.3789C60.4901 35.001 61.3412 34.4282 62.0458 33.6981C63.2904 32.3309 63.9535 30.5327 63.8947 28.6848C63.8989 28.24 63.8632 27.7958 63.788 27.3574H56.5821ZM110.283 29.0167C109.974 28.1073 109.396 27.3133 108.625 26.7397C107.855 26.1662 106.929 25.8402 105.969 25.8048C105.32 25.8035 104.679 25.9353 104.083 26.1918C103.488 26.4484 102.952 26.8243 102.507 27.2964C102.063 27.7685 101.72 28.3267 101.5 28.9365C101.28 29.5463 101.188 30.1948 101.228 30.8419C101.218 31.9237 101.558 32.9799 102.198 33.8525C102.837 34.7252 103.742 35.3675 104.777 35.6835C105.812 35.9995 106.921 35.9723 107.939 35.6059C108.957 35.2396 109.829 34.5537 110.425 33.6507L108.707 32.4656C108.45 32.8926 108.087 33.2452 107.652 33.4884C107.218 33.7316 106.727 33.8571 106.229 33.8522C105.716 33.8734 105.208 33.7388 104.772 33.4659C104.336 33.193 103.993 32.7947 103.788 32.3233L110.532 29.5381L110.283 29.0167ZM103.409 30.6996C103.385 30.3315 103.434 29.9622 103.555 29.6135C103.675 29.2648 103.864 28.9437 104.11 28.6688C104.356 28.394 104.655 28.1711 104.988 28.013C105.322 27.855 105.683 27.7651 106.052 27.7485C106.434 27.7252 106.814 27.8151 107.145 28.007C107.476 28.1988 107.743 28.4841 107.912 28.827L103.409 30.6996ZM97.9332 35.5826H100.149V20.7678H97.9332V35.5826ZM94.3065 26.9307H94.2236C93.8925 26.5537 93.4839 26.2526 93.0257 26.048C92.5675 25.8435 92.0705 25.7403 91.5688 25.7456C90.2736 25.8084 89.0522 26.3671 88.1578 27.3059C87.2633 28.2448 86.7644 29.4918 86.7644 30.7885C86.7644 32.0852 87.2633 33.3322 88.1578 34.2711C89.0522 35.2099 90.2736 35.7687 91.5688 35.8315C92.0712 35.8416 92.5697 35.7406 93.0287 35.5357C93.4876 35.3308 93.8956 35.0271 94.2236 34.6463H94.3065V35.3693C94.3065 37.3011 93.2754 38.3322 91.6162 38.3322C91.0619 38.32 90.5237 38.1434 90.07 37.8248C89.6163 37.5061 89.2676 37.0598 89.068 36.5426L87.148 37.3367C87.503 38.2282 88.1202 38.9911 88.918 39.5243C89.7158 40.0576 90.6566 40.3362 91.6162 40.3233C94.2117 40.3233 96.3569 38.7944 96.3569 35.073V26.1011H94.3065V26.9307ZM91.7584 33.8996C90.9819 33.8512 90.253 33.5086 89.7202 32.9416C89.1875 32.3746 88.8909 31.6258 88.8909 30.8478C88.8909 30.0697 89.1875 29.321 89.7202 28.754C90.253 28.1869 90.9819 27.8443 91.7584 27.7959C92.1379 27.8123 92.5103 27.9049 92.8533 28.0681C93.1964 28.2313 93.5031 28.4619 93.7552 28.7461C94.0073 29.0302 94.1997 29.3622 94.3209 29.7223C94.442 30.0823 94.4896 30.4631 94.4606 30.8419C94.4929 31.2219 94.4478 31.6046 94.3281 31.9668C94.2083 32.3289 94.0163 32.663 93.7637 32.9489C93.5111 33.2347 93.2031 33.4663 92.8585 33.6297C92.5138 33.7932 92.1396 33.885 91.7584 33.8996ZM120.665 20.7678H115.355V35.5826H117.572V29.9648H120.665C121.297 30.0102 121.931 29.925 122.528 29.7144C123.125 29.5039 123.673 29.1726 124.136 28.7411C124.6 28.3096 124.97 27.7873 125.223 27.2067C125.475 26.6261 125.606 25.9996 125.606 25.3663C125.606 24.733 125.475 24.1065 125.223 23.5259C124.97 22.9453 124.6 22.4229 124.136 21.9915C123.673 21.56 123.125 21.2287 122.528 21.0182C121.931 20.8076 121.297 20.7224 120.665 20.7678ZM120.665 27.8789H117.572V22.83H120.712C121.046 22.83 121.375 22.8956 121.683 23.0231C121.991 23.1505 122.27 23.3373 122.506 23.5729C122.741 23.8084 122.928 24.088 123.056 24.3957C123.183 24.7034 123.249 25.0332 123.249 25.3663C123.249 25.6994 123.183 26.0292 123.056 26.3369C122.928 26.6446 122.741 26.9242 122.506 27.1597C122.27 27.3952 121.991 27.5821 121.683 27.7095C121.375 27.837 121.046 27.9026 120.712 27.9026L120.665 27.8789ZM134.342 25.7574C133.535 25.7076 132.731 25.8955 132.03 26.2979C131.328 26.7002 130.76 27.2993 130.395 28.0211L132.351 28.8389C132.549 28.4826 132.845 28.1912 133.205 27.9998C133.564 27.8084 133.972 27.7253 134.378 27.7604C134.659 27.7275 134.944 27.751 135.216 27.8295C135.488 27.908 135.742 28.0399 135.963 28.2175C136.184 28.3951 136.367 28.6149 136.501 28.864C136.636 29.1132 136.72 29.3866 136.748 29.6685V29.8107C136.035 29.4361 135.242 29.2409 134.437 29.2419C132.327 29.2419 130.17 30.427 130.17 32.5841C130.191 33.0426 130.304 33.4922 130.502 33.9062C130.7 34.3202 130.979 34.6903 131.323 34.9943C131.667 35.2983 132.068 35.5301 132.503 35.676C132.939 35.8218 133.399 35.8787 133.856 35.8433C134.412 35.8741 134.967 35.7564 135.462 35.5023C135.958 35.2482 136.377 34.8669 136.677 34.3974H136.748V35.5826H138.881V29.8818C138.881 27.2863 136.914 25.7811 134.389 25.7811L134.342 25.7574ZM134.069 33.8759C133.347 33.8759 132.339 33.5085 132.339 32.6196C132.339 31.4344 133.595 31.0315 134.71 31.0315C135.414 31.0141 136.109 31.186 136.724 31.5293C136.65 32.1729 136.345 32.7677 135.865 33.2036C135.386 33.6394 134.765 33.8867 134.117 33.8996L134.069 33.8759ZM146.656 26.1011L144.12 32.5248H144.049L141.418 26.1011H139.047L142.994 35.0848L140.742 40.0744H143.053L149.121 26.1011H146.656ZM126.745 35.5826H128.95V20.7678H126.745V35.5826Z" fill="white"/>
<path d="M12.3746 8.96285C11.9841 9.42462 11.7848 10.0182 11.8176 10.6221V36.8384C11.7773 37.4433 11.9775 38.0396 12.3746 38.4977L12.4576 38.5925L27.142 23.908V23.5525L12.4576 8.87988L12.3746 8.96285Z" fill="url(#paint0_linear_2014_3842)"/>
<path d="M31.9999 28.8029L27.1406 23.9081V23.5525L31.9999 18.6577L32.1065 18.7288L37.9258 22.0236C39.5851 22.9599 39.5851 24.5007 37.9258 25.4488L32.1303 28.7436L31.9999 28.8029Z" fill="url(#paint1_linear_2014_3842)"/>
<path d="M32.1439 28.732L27.1424 23.7305L12.375 38.4979C12.7099 38.796 13.1386 38.9675 13.5867 38.9826C14.0348 38.9978 14.4741 38.8556 14.8283 38.5808L32.1439 28.732Z" fill="url(#paint2_linear_2014_3842)"/>
<path d="M32.1439 18.729L14.8283 8.892C14.4764 8.61338 14.0374 8.46778 13.5887 8.48078C13.14 8.49379 12.7102 8.66458 12.375 8.96312L27.1424 23.7305L32.1439 18.729Z" fill="url(#paint3_linear_2014_3842)"/>
<path opacity="0.2" d="M32.0017 28.625L14.8283 38.4028C14.4869 38.6604 14.0709 38.7998 13.6431 38.7998C13.2154 38.7998 12.7994 38.6604 12.458 38.4028L12.375 38.4857L12.458 38.5806C12.7994 38.8382 13.2154 38.9776 13.6431 38.9776C14.0709 38.9776 14.4869 38.8382 14.8283 38.5806L32.1439 28.7317L32.0017 28.625Z" fill="black"/>
<path opacity="0.12" d="M12.374 38.3318C11.9933 37.8617 11.8067 37.2638 11.8525 36.6606V36.8384C11.8122 37.4433 12.0124 38.0397 12.4095 38.4977L12.4925 38.4147L12.374 38.3318Z" fill="black"/>
<path opacity="0.12" d="M37.9279 25.2712L32.002 28.6253L32.1086 28.732L37.9279 25.4371C38.2714 25.2919 38.5694 25.0567 38.7905 24.7564C39.0115 24.456 39.1476 24.1016 39.1842 23.7305C39.1101 24.0677 38.9578 24.3829 38.7396 24.6505C38.5214 24.9181 38.2433 25.1307 37.9279 25.2712Z" fill="black"/>
<path opacity="0.25" d="M14.8268 9.05756L37.926 22.1894C38.2415 22.3299 38.5195 22.5425 38.7377 22.8101C38.9559 23.0777 39.1082 23.3929 39.1823 23.7302C39.1457 23.359 39.0097 23.0046 38.7886 22.7043C38.5675 22.4039 38.2695 22.1687 37.926 22.0235L14.8268 8.89163C13.1794 7.94349 11.8164 8.72571 11.8164 10.622V10.7998C11.852 8.90349 13.1794 8.12127 14.8268 9.05756Z" fill="white"/>
</g>
<defs>
<linearGradient id="paint0_linear_2014_3842" x1="25.8383" y1="10.3495" x2="5.95093" y2="30.2369" gradientUnits="userSpaceOnUse">
<stop stop-color="#00A0FF"/>
<stop offset="0.01" stop-color="#00A1FF"/>
<stop offset="0.26" stop-color="#00BEFF"/>
<stop offset="0.51" stop-color="#00D2FF"/>
<stop offset="0.76" stop-color="#00DFFF"/>
<stop offset="1" stop-color="#00E3FF"/>
</linearGradient>
<linearGradient id="paint1_linear_2014_3842" x1="40.0947" y1="23.7303" x2="11.4251" y2="23.7303" gradientUnits="userSpaceOnUse">
<stop stop-color="#FFE000"/>
<stop offset="0.41" stop-color="#FFBD00"/>
<stop offset="0.78" stop-color="#FFA500"/>
<stop offset="1" stop-color="#FF9C00"/>
</linearGradient>
<linearGradient id="paint2_linear_2014_3842" x1="29.4298" y1="26.4564" x2="2.455" y2="53.4194" gradientUnits="userSpaceOnUse">
<stop stop-color="#FF3A44"/>
<stop offset="1" stop-color="#C31162"/>
</linearGradient>
<linearGradient id="paint3_linear_2014_3842" x1="8.65352" y1="0.240154" x2="20.695" y2="12.2816" gradientUnits="userSpaceOnUse">
<stop stop-color="#32A071"/>
<stop offset="0.07" stop-color="#2DA771"/>
<stop offset="0.48" stop-color="#15CF74"/>
<stop offset="0.8" stop-color="#06E775"/>
<stop offset="1" stop-color="#00F076"/>
</linearGradient>
<clipPath id="clip0_2014_3842">
<rect width="160" height="47.4074" fill="white" transform="translate(0 0.0268555)"/>
</clipPath>
</defs>
</svg>
