<svg width="436" height="336" viewBox="0 0 436 336" fill="none" xmlns="http://www.w3.org/2000/svg">
<rect y="0.5" width="87" height="30" rx="15" fill="#FEF3C7"/>
<path d="M12.996 20.5V11.56H14.172V19.42H18.096V20.5H12.996ZM21.1819 20.644C20.7579 20.644 20.3819 20.568 20.0539 20.416C19.7339 20.256 19.4819 20.04 19.2979 19.768C19.1139 19.488 19.0219 19.168 19.0219 18.808C19.0219 18.464 19.0939 18.156 19.2379 17.884C19.3899 17.604 19.6219 17.368 19.9339 17.176C20.2539 16.984 20.6539 16.848 21.1339 16.768L23.5339 16.372V17.308L21.3859 17.668C20.9699 17.74 20.6659 17.872 20.4739 18.064C20.2899 18.256 20.1979 18.492 20.1979 18.772C20.1979 19.036 20.3019 19.256 20.5099 19.432C20.7259 19.608 20.9939 19.696 21.3139 19.696C21.7219 19.696 22.0739 19.612 22.3699 19.444C22.6739 19.268 22.9099 19.032 23.0779 18.736C23.2539 18.44 23.3419 18.112 23.3419 17.752V16.108C23.3419 15.756 23.2099 15.472 22.9459 15.256C22.6899 15.032 22.3499 14.92 21.9259 14.92C21.5579 14.92 21.2299 15.016 20.9419 15.208C20.6619 15.392 20.4539 15.64 20.3179 15.952L19.3459 15.448C19.4659 15.152 19.6579 14.888 19.9219 14.656C20.1859 14.416 20.4939 14.228 20.8459 14.092C21.1979 13.956 21.5659 13.888 21.9499 13.888C22.4459 13.888 22.8819 13.984 23.2579 14.176C23.6339 14.36 23.9259 14.62 24.1339 14.956C24.3499 15.284 24.4579 15.668 24.4579 16.108V20.5H23.3659V19.276L23.5699 19.348C23.4339 19.604 23.2499 19.828 23.0179 20.02C22.7859 20.212 22.5139 20.364 22.2019 20.476C21.8899 20.588 21.5499 20.644 21.1819 20.644ZM28.5042 20.644C27.8562 20.644 27.2922 20.484 26.8122 20.164C26.3322 19.844 25.9922 19.412 25.7922 18.868L26.6802 18.436C26.8642 18.82 27.1162 19.124 27.4362 19.348C27.7562 19.572 28.1122 19.684 28.5042 19.684C28.8562 19.684 29.1482 19.6 29.3802 19.432C29.6122 19.264 29.7282 19.044 29.7282 18.772C29.7282 18.58 29.6722 18.428 29.5602 18.316C29.4562 18.196 29.3282 18.104 29.1762 18.04C29.0242 17.968 28.8842 17.916 28.7562 17.884L27.7842 17.608C27.2002 17.44 26.7722 17.2 26.5002 16.888C26.2362 16.576 26.1042 16.212 26.1042 15.796C26.1042 15.412 26.2002 15.08 26.3922 14.8C26.5922 14.512 26.8602 14.288 27.1962 14.128C27.5402 13.968 27.9242 13.888 28.3482 13.888C28.9162 13.888 29.4242 14.032 29.8722 14.32C30.3282 14.608 30.6522 15.012 30.8442 15.532L29.9322 15.952C29.7882 15.616 29.5722 15.352 29.2842 15.16C28.9962 14.96 28.6722 14.86 28.3122 14.86C27.9842 14.86 27.7242 14.944 27.5322 15.112C27.3402 15.272 27.2442 15.476 27.2442 15.724C27.2442 15.908 27.2922 16.06 27.3882 16.18C27.4842 16.292 27.6002 16.38 27.7362 16.444C27.8722 16.5 28.0042 16.548 28.1322 16.588L29.1882 16.9C29.7162 17.052 30.1242 17.288 30.4122 17.608C30.7082 17.928 30.8562 18.312 30.8562 18.76C30.8562 19.12 30.7562 19.444 30.5562 19.732C30.3562 20.02 30.0802 20.244 29.7282 20.404C29.3762 20.564 28.9682 20.644 28.5042 20.644ZM34.9451 20.572C34.3131 20.572 33.8251 20.392 33.4811 20.032C33.1451 19.672 32.9771 19.164 32.9771 18.508V15.1H31.8011V14.032H32.0411C32.3291 14.032 32.5571 13.944 32.7251 13.768C32.8931 13.592 32.9771 13.36 32.9771 13.072V12.544H34.0931V14.032H35.5451V15.1H34.0931V18.472C34.0931 18.688 34.1251 18.876 34.1891 19.036C34.2611 19.196 34.3771 19.324 34.5371 19.42C34.6971 19.508 34.9091 19.552 35.1731 19.552C35.2291 19.552 35.2971 19.548 35.3771 19.54C35.4651 19.532 35.5451 19.524 35.6171 19.516V20.5C35.5131 20.524 35.3971 20.54 35.2691 20.548C35.1411 20.564 35.0331 20.572 34.9451 20.572ZM39.2092 20.5L43.1332 12.58H38.7532V11.56H44.3692V12.58L40.4812 20.5H39.2092ZM50.7376 20.644C50.1296 20.644 49.5816 20.496 49.0936 20.2C48.6136 19.904 48.2336 19.5 47.9536 18.988C47.6736 18.476 47.5336 17.904 47.5336 17.272C47.5336 16.624 47.6736 16.048 47.9536 15.544C48.2336 15.032 48.6136 14.628 49.0936 14.332C49.5816 14.036 50.1296 13.888 50.7376 13.888C51.2736 13.888 51.7496 14.004 52.1656 14.236C52.5816 14.46 52.9096 14.764 53.1496 15.148L52.9696 15.424V11.416H54.0976V20.5H53.0056V19.12L53.1496 19.312C52.9256 19.736 52.5976 20.064 52.1656 20.296C51.7416 20.528 51.2656 20.644 50.7376 20.644ZM50.8336 19.564C51.2416 19.564 51.6056 19.464 51.9256 19.264C52.2456 19.064 52.4976 18.792 52.6816 18.448C52.8736 18.096 52.9696 17.704 52.9696 17.272C52.9696 16.832 52.8736 16.44 52.6816 16.096C52.4976 15.744 52.2456 15.468 51.9256 15.268C51.6056 15.068 51.2416 14.968 50.8336 14.968C50.4336 14.968 50.0696 15.072 49.7416 15.28C49.4216 15.48 49.1696 15.752 48.9856 16.096C48.8016 16.432 48.7096 16.824 48.7096 17.272C48.7096 17.704 48.8016 18.096 48.9856 18.448C49.1696 18.792 49.4216 19.064 49.7416 19.264C50.0616 19.464 50.4256 19.564 50.8336 19.564ZM57.7209 20.644C57.2969 20.644 56.9209 20.568 56.5929 20.416C56.2729 20.256 56.0209 20.04 55.8369 19.768C55.6529 19.488 55.5609 19.168 55.5609 18.808C55.5609 18.464 55.6329 18.156 55.7769 17.884C55.9289 17.604 56.1609 17.368 56.4729 17.176C56.7929 16.984 57.1929 16.848 57.6729 16.768L60.0729 16.372V17.308L57.9249 17.668C57.5089 17.74 57.2049 17.872 57.0129 18.064C56.8289 18.256 56.7369 18.492 56.7369 18.772C56.7369 19.036 56.8409 19.256 57.0489 19.432C57.2649 19.608 57.5329 19.696 57.8529 19.696C58.2609 19.696 58.6129 19.612 58.9089 19.444C59.2129 19.268 59.4489 19.032 59.6169 18.736C59.7929 18.44 59.8809 18.112 59.8809 17.752V16.108C59.8809 15.756 59.7489 15.472 59.4849 15.256C59.2289 15.032 58.8889 14.92 58.4649 14.92C58.0969 14.92 57.7689 15.016 57.4809 15.208C57.2009 15.392 56.9929 15.64 56.8569 15.952L55.8849 15.448C56.0049 15.152 56.1969 14.888 56.4609 14.656C56.7249 14.416 57.0329 14.228 57.3849 14.092C57.7369 13.956 58.1049 13.888 58.4889 13.888C58.9849 13.888 59.4209 13.984 59.7969 14.176C60.1729 14.36 60.4649 14.62 60.6729 14.956C60.8889 15.284 60.9969 15.668 60.9969 16.108V20.5H59.9049V19.276L60.1089 19.348C59.9729 19.604 59.7889 19.828 59.5569 20.02C59.3249 20.212 59.0529 20.364 58.7409 20.476C58.4289 20.588 58.0889 20.644 57.7209 20.644ZM63.0753 23.14C62.9313 23.14 62.7873 23.128 62.6433 23.104C62.4993 23.088 62.3633 23.052 62.2353 22.996V22C62.3233 22.008 62.4313 22.024 62.5593 22.048C62.6953 22.072 62.8273 22.084 62.9553 22.084C63.3313 22.084 63.6153 22 63.8073 21.832C64.0073 21.664 64.1953 21.38 64.3713 20.98L64.7793 20.008L64.7553 20.98L61.9953 14.032H63.2073L65.3553 19.552H64.9953L67.1313 14.032H68.3673L65.4513 21.268C65.3153 21.612 65.1393 21.928 64.9233 22.216C64.7153 22.504 64.4593 22.728 64.1553 22.888C63.8513 23.056 63.4913 23.14 63.0753 23.14ZM71.6761 20.644C71.0281 20.644 70.4641 20.484 69.9841 20.164C69.5041 19.844 69.1641 19.412 68.9641 18.868L69.8521 18.436C70.0361 18.82 70.2881 19.124 70.6081 19.348C70.9281 19.572 71.2841 19.684 71.6761 19.684C72.0281 19.684 72.3201 19.6 72.5521 19.432C72.7841 19.264 72.9001 19.044 72.9001 18.772C72.9001 18.58 72.8441 18.428 72.7321 18.316C72.6281 18.196 72.5001 18.104 72.3481 18.04C72.1961 17.968 72.0561 17.916 71.9281 17.884L70.9561 17.608C70.3721 17.44 69.9441 17.2 69.6721 16.888C69.4081 16.576 69.2761 16.212 69.2761 15.796C69.2761 15.412 69.3721 15.08 69.5641 14.8C69.7641 14.512 70.0321 14.288 70.3681 14.128C70.7121 13.968 71.0961 13.888 71.5201 13.888C72.0881 13.888 72.5961 14.032 73.0441 14.32C73.5001 14.608 73.8241 15.012 74.0161 15.532L73.1041 15.952C72.9601 15.616 72.7441 15.352 72.4561 15.16C72.1681 14.96 71.8441 14.86 71.4841 14.86C71.1561 14.86 70.8961 14.944 70.7041 15.112C70.5121 15.272 70.4161 15.476 70.4161 15.724C70.4161 15.908 70.4641 16.06 70.5601 16.18C70.6561 16.292 70.7721 16.38 70.9081 16.444C71.0441 16.5 71.1761 16.548 71.3041 16.588L72.3601 16.9C72.8881 17.052 73.2961 17.288 73.5841 17.608C73.8801 17.928 74.0281 18.312 74.0281 18.76C74.0281 19.12 73.9281 19.444 73.7281 19.732C73.5281 20.02 73.2521 20.244 72.9001 20.404C72.5481 20.564 72.1401 20.644 71.6761 20.644Z" fill="#B45309"/>
<rect x="95" y="0.5" width="82" height="30" rx="15" fill="#F1F5F9"/>
<path d="M110.228 20.5V16.408L107.132 11.56H108.464L111.056 15.628H110.576L113.156 11.56H114.488L111.416 16.408V20.5H110.228ZM117.297 20.644C116.673 20.644 116.117 20.496 115.629 20.2C115.141 19.904 114.757 19.5 114.477 18.988C114.197 18.468 114.057 17.888 114.057 17.248C114.057 16.6 114.193 16.024 114.465 15.52C114.745 15.016 115.121 14.62 115.593 14.332C116.073 14.036 116.609 13.888 117.201 13.888C117.681 13.888 118.105 13.976 118.473 14.152C118.849 14.32 119.165 14.552 119.421 14.848C119.685 15.136 119.885 15.468 120.021 15.844C120.165 16.212 120.237 16.596 120.237 16.996C120.237 17.084 120.229 17.184 120.213 17.296C120.205 17.4 120.193 17.5 120.177 17.596H114.873V16.636H119.529L119.001 17.068C119.073 16.652 119.033 16.28 118.881 15.952C118.729 15.624 118.505 15.364 118.209 15.172C117.913 14.98 117.577 14.884 117.201 14.884C116.825 14.884 116.481 14.98 116.169 15.172C115.857 15.364 115.613 15.64 115.437 16C115.269 16.352 115.201 16.772 115.233 17.26C115.201 17.732 115.273 18.148 115.449 18.508C115.633 18.86 115.889 19.136 116.217 19.336C116.553 19.528 116.917 19.624 117.309 19.624C117.741 19.624 118.105 19.524 118.401 19.324C118.697 19.124 118.937 18.868 119.121 18.556L120.057 19.036C119.929 19.332 119.729 19.604 119.457 19.852C119.193 20.092 118.877 20.284 118.509 20.428C118.149 20.572 117.745 20.644 117.297 20.644ZM124.008 20.644C123.36 20.644 122.796 20.484 122.316 20.164C121.836 19.844 121.496 19.412 121.296 18.868L122.184 18.436C122.368 18.82 122.62 19.124 122.94 19.348C123.26 19.572 123.616 19.684 124.008 19.684C124.36 19.684 124.652 19.6 124.884 19.432C125.116 19.264 125.232 19.044 125.232 18.772C125.232 18.58 125.176 18.428 125.064 18.316C124.96 18.196 124.832 18.104 124.68 18.04C124.528 17.968 124.388 17.916 124.26 17.884L123.288 17.608C122.704 17.44 122.276 17.2 122.004 16.888C121.74 16.576 121.608 16.212 121.608 15.796C121.608 15.412 121.704 15.08 121.896 14.8C122.096 14.512 122.364 14.288 122.7 14.128C123.044 13.968 123.428 13.888 123.852 13.888C124.42 13.888 124.928 14.032 125.376 14.32C125.832 14.608 126.156 15.012 126.348 15.532L125.436 15.952C125.292 15.616 125.076 15.352 124.788 15.16C124.5 14.96 124.176 14.86 123.816 14.86C123.488 14.86 123.228 14.944 123.036 15.112C122.844 15.272 122.748 15.476 122.748 15.724C122.748 15.908 122.796 16.06 122.892 16.18C122.988 16.292 123.104 16.38 123.24 16.444C123.376 16.5 123.508 16.548 123.636 16.588L124.692 16.9C125.22 17.052 125.628 17.288 125.916 17.608C126.212 17.928 126.36 18.312 126.36 18.76C126.36 19.12 126.26 19.444 126.06 19.732C125.86 20.02 125.584 20.244 125.232 20.404C124.88 20.564 124.472 20.644 124.008 20.644ZM130.449 20.572C129.817 20.572 129.329 20.392 128.985 20.032C128.649 19.672 128.481 19.164 128.481 18.508V15.1H127.305V14.032H127.545C127.833 14.032 128.061 13.944 128.229 13.768C128.397 13.592 128.481 13.36 128.481 13.072V12.544H129.597V14.032H131.049V15.1H129.597V18.472C129.597 18.688 129.629 18.876 129.693 19.036C129.765 19.196 129.881 19.324 130.041 19.42C130.201 19.508 130.413 19.552 130.677 19.552C130.733 19.552 130.801 19.548 130.881 19.54C130.969 19.532 131.049 19.524 131.121 19.516V20.5C131.017 20.524 130.901 20.54 130.773 20.548C130.645 20.564 130.537 20.572 130.449 20.572ZM135.379 20.644C134.755 20.644 134.199 20.496 133.711 20.2C133.223 19.904 132.839 19.5 132.559 18.988C132.279 18.468 132.139 17.888 132.139 17.248C132.139 16.6 132.275 16.024 132.547 15.52C132.827 15.016 133.203 14.62 133.675 14.332C134.155 14.036 134.691 13.888 135.283 13.888C135.763 13.888 136.187 13.976 136.555 14.152C136.931 14.32 137.247 14.552 137.503 14.848C137.767 15.136 137.967 15.468 138.103 15.844C138.247 16.212 138.319 16.596 138.319 16.996C138.319 17.084 138.311 17.184 138.295 17.296C138.287 17.4 138.275 17.5 138.259 17.596H132.955V16.636H137.611L137.083 17.068C137.155 16.652 137.115 16.28 136.963 15.952C136.811 15.624 136.587 15.364 136.291 15.172C135.995 14.98 135.659 14.884 135.283 14.884C134.907 14.884 134.563 14.98 134.251 15.172C133.939 15.364 133.695 15.64 133.519 16C133.351 16.352 133.283 16.772 133.315 17.26C133.283 17.732 133.355 18.148 133.531 18.508C133.715 18.86 133.971 19.136 134.299 19.336C134.635 19.528 134.999 19.624 135.391 19.624C135.823 19.624 136.187 19.524 136.483 19.324C136.779 19.124 137.019 18.868 137.203 18.556L138.139 19.036C138.011 19.332 137.811 19.604 137.539 19.852C137.275 20.092 136.959 20.284 136.591 20.428C136.231 20.572 135.827 20.644 135.379 20.644ZM139.774 20.5V14.032H140.866V15.22L140.746 15.052C140.898 14.684 141.13 14.412 141.442 14.236C141.754 14.052 142.134 13.96 142.582 13.96H142.978V15.016H142.414C141.958 15.016 141.59 15.16 141.31 15.448C141.03 15.728 140.89 16.128 140.89 16.648V20.5H139.774ZM146.909 20.644C146.301 20.644 145.753 20.496 145.265 20.2C144.785 19.904 144.405 19.5 144.125 18.988C143.845 18.476 143.705 17.904 143.705 17.272C143.705 16.624 143.845 16.048 144.125 15.544C144.405 15.032 144.785 14.628 145.265 14.332C145.753 14.036 146.301 13.888 146.909 13.888C147.445 13.888 147.921 14.004 148.337 14.236C148.753 14.46 149.081 14.764 149.321 15.148L149.141 15.424V11.416H150.269V20.5H149.177V19.12L149.321 19.312C149.097 19.736 148.769 20.064 148.337 20.296C147.913 20.528 147.437 20.644 146.909 20.644ZM147.005 19.564C147.413 19.564 147.777 19.464 148.097 19.264C148.417 19.064 148.669 18.792 148.853 18.448C149.045 18.096 149.141 17.704 149.141 17.272C149.141 16.832 149.045 16.44 148.853 16.096C148.669 15.744 148.417 15.468 148.097 15.268C147.777 15.068 147.413 14.968 147.005 14.968C146.605 14.968 146.241 15.072 145.913 15.28C145.593 15.48 145.341 15.752 145.157 16.096C144.973 16.432 144.881 16.824 144.881 17.272C144.881 17.704 144.973 18.096 145.157 18.448C145.341 18.792 145.593 19.064 145.913 19.264C146.233 19.464 146.597 19.564 147.005 19.564ZM153.893 20.644C153.469 20.644 153.093 20.568 152.765 20.416C152.445 20.256 152.193 20.04 152.009 19.768C151.825 19.488 151.733 19.168 151.733 18.808C151.733 18.464 151.805 18.156 151.949 17.884C152.101 17.604 152.333 17.368 152.645 17.176C152.965 16.984 153.365 16.848 153.845 16.768L156.245 16.372V17.308L154.097 17.668C153.681 17.74 153.377 17.872 153.185 18.064C153.001 18.256 152.909 18.492 152.909 18.772C152.909 19.036 153.013 19.256 153.221 19.432C153.437 19.608 153.705 19.696 154.025 19.696C154.433 19.696 154.785 19.612 155.081 19.444C155.385 19.268 155.621 19.032 155.789 18.736C155.965 18.44 156.053 18.112 156.053 17.752V16.108C156.053 15.756 155.921 15.472 155.657 15.256C155.401 15.032 155.061 14.92 154.637 14.92C154.269 14.92 153.941 15.016 153.653 15.208C153.373 15.392 153.165 15.64 153.029 15.952L152.057 15.448C152.177 15.152 152.369 14.888 152.633 14.656C152.897 14.416 153.205 14.228 153.557 14.092C153.909 13.956 154.277 13.888 154.661 13.888C155.157 13.888 155.593 13.984 155.969 14.176C156.345 14.36 156.637 14.62 156.845 14.956C157.061 15.284 157.169 15.668 157.169 16.108V20.5H156.077V19.276L156.281 19.348C156.145 19.604 155.961 19.828 155.729 20.02C155.497 20.212 155.225 20.364 154.913 20.476C154.601 20.588 154.261 20.644 153.893 20.644ZM159.247 23.14C159.103 23.14 158.959 23.128 158.815 23.104C158.671 23.088 158.535 23.052 158.407 22.996V22C158.495 22.008 158.603 22.024 158.731 22.048C158.867 22.072 158.999 22.084 159.127 22.084C159.503 22.084 159.787 22 159.979 21.832C160.179 21.664 160.367 21.38 160.543 20.98L160.951 20.008L160.927 20.98L158.167 14.032H159.379L161.527 19.552H161.167L163.303 14.032H164.539L161.623 21.268C161.487 21.612 161.311 21.928 161.095 22.216C160.887 22.504 160.631 22.728 160.327 22.888C160.023 23.056 159.663 23.14 159.247 23.14Z" fill="#475569"/>
<rect x="185" y="0.5" width="70" height="30" rx="15" fill="#F1F5F9"/>
<path d="M200.528 20.644C200.056 20.644 199.616 20.56 199.208 20.392C198.8 20.224 198.448 19.988 198.152 19.684C197.856 19.372 197.636 19.004 197.492 18.58L198.488 18.172C198.656 18.62 198.92 18.968 199.28 19.216C199.64 19.464 200.056 19.588 200.528 19.588C200.896 19.588 201.224 19.516 201.512 19.372C201.8 19.228 202.024 19.02 202.184 18.748C202.352 18.476 202.436 18.148 202.436 17.764C202.436 17.372 202.352 17.044 202.184 16.78C202.024 16.508 201.8 16.3 201.512 16.156C201.224 16.012 200.892 15.94 200.516 15.94C200.396 15.94 200.264 15.948 200.12 15.964C199.984 15.98 199.868 16.004 199.772 16.036L199.52 15.496L201.908 12.58H197.948V11.56H203.24V12.544L200.96 15.352L200.888 15.04C201.424 15.056 201.896 15.18 202.304 15.412C202.712 15.644 203.032 15.96 203.264 16.36C203.496 16.752 203.612 17.212 203.612 17.74C203.612 18.284 203.48 18.776 203.216 19.216C202.952 19.656 202.588 20.004 202.124 20.26C201.66 20.516 201.128 20.644 200.528 20.644ZM208.68 20.644C207.968 20.644 207.344 20.452 206.808 20.068C206.28 19.676 205.868 19.136 205.572 18.448C205.276 17.752 205.128 16.944 205.128 16.024C205.128 15.104 205.276 14.3 205.572 13.612C205.868 12.916 206.28 12.376 206.808 11.992C207.336 11.608 207.956 11.416 208.668 11.416C209.38 11.416 210 11.608 210.528 11.992C211.056 12.376 211.468 12.916 211.764 13.612C212.068 14.3 212.22 15.104 212.22 16.024C212.22 16.944 212.072 17.752 211.776 18.448C211.48 19.144 211.064 19.684 210.528 20.068C210 20.452 209.384 20.644 208.68 20.644ZM208.68 19.552C209.16 19.552 209.576 19.408 209.928 19.12C210.28 18.824 210.552 18.412 210.744 17.884C210.944 17.356 211.044 16.736 211.044 16.024C211.044 15.312 210.944 14.692 210.744 14.164C210.552 13.636 210.276 13.228 209.916 12.94C209.564 12.652 209.148 12.508 208.668 12.508C208.188 12.508 207.772 12.652 207.42 12.94C207.068 13.228 206.792 13.636 206.592 14.164C206.4 14.692 206.304 15.312 206.304 16.024C206.304 16.728 206.4 17.344 206.592 17.872C206.792 18.4 207.068 18.812 207.42 19.108C207.78 19.404 208.2 19.552 208.68 19.552ZM218.886 20.644C218.278 20.644 217.73 20.496 217.242 20.2C216.762 19.904 216.382 19.5 216.102 18.988C215.822 18.476 215.682 17.904 215.682 17.272C215.682 16.624 215.822 16.048 216.102 15.544C216.382 15.032 216.762 14.628 217.242 14.332C217.73 14.036 218.278 13.888 218.886 13.888C219.422 13.888 219.898 14.004 220.314 14.236C220.73 14.46 221.058 14.764 221.298 15.148L221.118 15.424V11.416H222.246V20.5H221.154V19.12L221.298 19.312C221.074 19.736 220.746 20.064 220.314 20.296C219.89 20.528 219.414 20.644 218.886 20.644ZM218.982 19.564C219.39 19.564 219.754 19.464 220.074 19.264C220.394 19.064 220.646 18.792 220.83 18.448C221.022 18.096 221.118 17.704 221.118 17.272C221.118 16.832 221.022 16.44 220.83 16.096C220.646 15.744 220.394 15.468 220.074 15.268C219.754 15.068 219.39 14.968 218.982 14.968C218.582 14.968 218.218 15.072 217.89 15.28C217.57 15.48 217.318 15.752 217.134 16.096C216.95 16.432 216.858 16.824 216.858 17.272C216.858 17.704 216.95 18.096 217.134 18.448C217.318 18.792 217.57 19.064 217.89 19.264C218.21 19.464 218.574 19.564 218.982 19.564ZM225.869 20.644C225.445 20.644 225.069 20.568 224.741 20.416C224.421 20.256 224.169 20.04 223.985 19.768C223.801 19.488 223.709 19.168 223.709 18.808C223.709 18.464 223.781 18.156 223.925 17.884C224.077 17.604 224.309 17.368 224.621 17.176C224.941 16.984 225.341 16.848 225.821 16.768L228.221 16.372V17.308L226.073 17.668C225.657 17.74 225.353 17.872 225.161 18.064C224.977 18.256 224.885 18.492 224.885 18.772C224.885 19.036 224.989 19.256 225.197 19.432C225.413 19.608 225.681 19.696 226.001 19.696C226.409 19.696 226.761 19.612 227.057 19.444C227.361 19.268 227.597 19.032 227.765 18.736C227.941 18.44 228.029 18.112 228.029 17.752V16.108C228.029 15.756 227.897 15.472 227.633 15.256C227.377 15.032 227.037 14.92 226.613 14.92C226.245 14.92 225.917 15.016 225.629 15.208C225.349 15.392 225.141 15.64 225.005 15.952L224.033 15.448C224.153 15.152 224.345 14.888 224.609 14.656C224.873 14.416 225.181 14.228 225.533 14.092C225.885 13.956 226.253 13.888 226.637 13.888C227.133 13.888 227.569 13.984 227.945 14.176C228.321 14.36 228.613 14.62 228.821 14.956C229.037 15.284 229.145 15.668 229.145 16.108V20.5H228.053V19.276L228.257 19.348C228.121 19.604 227.937 19.828 227.705 20.02C227.473 20.212 227.201 20.364 226.889 20.476C226.577 20.588 226.237 20.644 225.869 20.644ZM231.224 23.14C231.08 23.14 230.936 23.128 230.792 23.104C230.648 23.088 230.512 23.052 230.384 22.996V22C230.472 22.008 230.58 22.024 230.708 22.048C230.844 22.072 230.976 22.084 231.104 22.084C231.48 22.084 231.764 22 231.956 21.832C232.156 21.664 232.344 21.38 232.52 20.98L232.928 20.008L232.904 20.98L230.144 14.032H231.356L233.504 19.552H233.144L235.28 14.032H236.516L233.6 21.268C233.464 21.612 233.288 21.928 233.072 22.216C232.864 22.504 232.608 22.728 232.304 22.888C232 23.056 231.64 23.14 231.224 23.14ZM239.825 20.644C239.177 20.644 238.613 20.484 238.133 20.164C237.653 19.844 237.313 19.412 237.113 18.868L238.001 18.436C238.185 18.82 238.437 19.124 238.757 19.348C239.077 19.572 239.433 19.684 239.825 19.684C240.177 19.684 240.469 19.6 240.701 19.432C240.933 19.264 241.049 19.044 241.049 18.772C241.049 18.58 240.993 18.428 240.881 18.316C240.777 18.196 240.649 18.104 240.497 18.04C240.345 17.968 240.205 17.916 240.077 17.884L239.105 17.608C238.521 17.44 238.093 17.2 237.821 16.888C237.557 16.576 237.425 16.212 237.425 15.796C237.425 15.412 237.521 15.08 237.713 14.8C237.913 14.512 238.181 14.288 238.517 14.128C238.861 13.968 239.245 13.888 239.669 13.888C240.237 13.888 240.745 14.032 241.193 14.32C241.649 14.608 241.973 15.012 242.165 15.532L241.253 15.952C241.109 15.616 240.893 15.352 240.605 15.16C240.317 14.96 239.993 14.86 239.633 14.86C239.305 14.86 239.045 14.944 238.853 15.112C238.661 15.272 238.565 15.476 238.565 15.724C238.565 15.908 238.613 16.06 238.709 16.18C238.805 16.292 238.921 16.38 239.057 16.444C239.193 16.5 239.325 16.548 239.453 16.588L240.509 16.9C241.037 17.052 241.445 17.288 241.733 17.608C242.029 17.928 242.177 18.312 242.177 18.76C242.177 19.12 242.077 19.444 241.877 19.732C241.677 20.02 241.401 20.244 241.049 20.404C240.697 20.564 240.289 20.644 239.825 20.644Z" fill="#475569"/>
<rect x="263" y="0.5" width="122" height="30" rx="15" fill="#F1F5F9"/>
<path d="M288 9.5H286.5V9C286.5 8.86739 286.447 8.74021 286.354 8.64645C286.26 8.55268 286.133 8.5 286 8.5C285.867 8.5 285.74 8.55268 285.646 8.64645C285.553 8.74021 285.5 8.86739 285.5 9V9.5H280.5V9C280.5 8.86739 280.447 8.74021 280.354 8.64645C280.26 8.55268 280.133 8.5 280 8.5C279.867 8.5 279.74 8.55268 279.646 8.64645C279.553 8.74021 279.5 8.86739 279.5 9V9.5H278C277.735 9.5 277.48 9.60536 277.293 9.79289C277.105 9.98043 277 10.2348 277 10.5V20.5C277 20.7652 277.105 21.0196 277.293 21.2071C277.48 21.3946 277.735 21.5 278 21.5H288C288.265 21.5 288.52 21.3946 288.707 21.2071C288.895 21.0196 289 20.7652 289 20.5V10.5C289 10.2348 288.895 9.98043 288.707 9.79289C288.52 9.60536 288.265 9.5 288 9.5ZM279.5 10.5V11C279.5 11.1326 279.553 11.2598 279.646 11.3536C279.74 11.4473 279.867 11.5 280 11.5C280.133 11.5 280.26 11.4473 280.354 11.3536C280.447 11.2598 280.5 11.1326 280.5 11V10.5H285.5V11C285.5 11.1326 285.553 11.2598 285.646 11.3536C285.74 11.4473 285.867 11.5 286 11.5C286.133 11.5 286.26 11.4473 286.354 11.3536C286.447 11.2598 286.5 11.1326 286.5 11V10.5H288V12.5H278V10.5H279.5ZM288 20.5H278V13.5H288V20.5Z" fill="#475569"/>
<path d="M302.112 20.644C301.48 20.644 300.896 20.532 300.36 20.308C299.832 20.076 299.368 19.752 298.968 19.336C298.576 18.92 298.272 18.432 298.056 17.872C297.84 17.312 297.732 16.7 297.732 16.036C297.732 15.364 297.84 14.748 298.056 14.188C298.272 13.628 298.576 13.14 298.968 12.724C299.36 12.308 299.824 11.988 300.36 11.764C300.896 11.532 301.48 11.416 302.112 11.416C302.728 11.416 303.28 11.524 303.768 11.74C304.264 11.956 304.68 12.236 305.016 12.58C305.36 12.924 305.604 13.292 305.748 13.684L304.668 14.176C304.46 13.68 304.136 13.28 303.696 12.976C303.256 12.664 302.728 12.508 302.112 12.508C301.488 12.508 300.932 12.656 300.444 12.952C299.964 13.248 299.588 13.66 299.316 14.188C299.044 14.716 298.908 15.332 298.908 16.036C298.908 16.732 299.044 17.344 299.316 17.872C299.588 18.4 299.964 18.812 300.444 19.108C300.932 19.404 301.488 19.552 302.112 19.552C302.728 19.552 303.256 19.4 303.696 19.096C304.136 18.784 304.46 18.38 304.668 17.884L305.748 18.376C305.604 18.768 305.36 19.136 305.016 19.48C304.68 19.824 304.264 20.104 303.768 20.32C303.28 20.536 302.728 20.644 302.112 20.644ZM309.508 20.644C309.044 20.644 308.624 20.536 308.248 20.32C307.88 20.104 307.592 19.804 307.384 19.42C307.184 19.028 307.084 18.58 307.084 18.076V14.032H308.2V17.956C308.2 18.276 308.264 18.556 308.392 18.796C308.528 19.036 308.712 19.224 308.944 19.36C309.184 19.496 309.456 19.564 309.76 19.564C310.064 19.564 310.332 19.496 310.564 19.36C310.804 19.224 310.988 19.028 311.116 18.772C311.252 18.516 311.32 18.212 311.32 17.86V14.032H312.448V20.5H311.356V19.24L311.536 19.348C311.384 19.756 311.124 20.076 310.756 20.308C310.396 20.532 309.98 20.644 309.508 20.644ZM316.493 20.644C315.845 20.644 315.281 20.484 314.801 20.164C314.321 19.844 313.981 19.412 313.781 18.868L314.669 18.436C314.853 18.82 315.105 19.124 315.425 19.348C315.745 19.572 316.101 19.684 316.493 19.684C316.845 19.684 317.137 19.6 317.369 19.432C317.601 19.264 317.717 19.044 317.717 18.772C317.717 18.58 317.661 18.428 317.549 18.316C317.445 18.196 317.317 18.104 317.165 18.04C317.013 17.968 316.873 17.916 316.745 17.884L315.773 17.608C315.189 17.44 314.761 17.2 314.489 16.888C314.225 16.576 314.093 16.212 314.093 15.796C314.093 15.412 314.189 15.08 314.381 14.8C314.581 14.512 314.849 14.288 315.185 14.128C315.529 13.968 315.913 13.888 316.337 13.888C316.905 13.888 317.413 14.032 317.861 14.32C318.317 14.608 318.641 15.012 318.833 15.532L317.921 15.952C317.777 15.616 317.561 15.352 317.273 15.16C316.985 14.96 316.661 14.86 316.301 14.86C315.973 14.86 315.713 14.944 315.521 15.112C315.329 15.272 315.233 15.476 315.233 15.724C315.233 15.908 315.281 16.06 315.377 16.18C315.473 16.292 315.589 16.38 315.725 16.444C315.861 16.5 315.993 16.548 316.121 16.588L317.177 16.9C317.705 17.052 318.113 17.288 318.401 17.608C318.697 17.928 318.845 18.312 318.845 18.76C318.845 19.12 318.745 19.444 318.545 19.732C318.345 20.02 318.069 20.244 317.717 20.404C317.365 20.564 316.957 20.644 316.493 20.644ZM322.933 20.572C322.301 20.572 321.813 20.392 321.469 20.032C321.133 19.672 320.965 19.164 320.965 18.508V15.1H319.789V14.032H320.029C320.317 14.032 320.545 13.944 320.713 13.768C320.881 13.592 320.965 13.36 320.965 13.072V12.544H322.081V14.032H323.533V15.1H322.081V18.472C322.081 18.688 322.113 18.876 322.177 19.036C322.249 19.196 322.365 19.324 322.525 19.42C322.685 19.508 322.897 19.552 323.161 19.552C323.217 19.552 323.285 19.548 323.365 19.54C323.453 19.532 323.533 19.524 323.605 19.516V20.5C323.501 20.524 323.385 20.54 323.257 20.548C323.129 20.564 323.021 20.572 322.933 20.572ZM327.959 20.644C327.335 20.644 326.771 20.5 326.267 20.212C325.763 19.916 325.363 19.512 325.067 19C324.771 18.488 324.623 17.908 324.623 17.26C324.623 16.612 324.767 16.036 325.055 15.532C325.351 15.028 325.751 14.628 326.255 14.332C326.759 14.036 327.327 13.888 327.959 13.888C328.583 13.888 329.147 14.036 329.651 14.332C330.155 14.62 330.551 15.016 330.839 15.52C331.135 16.024 331.283 16.604 331.283 17.26C331.283 17.916 331.131 18.5 330.827 19.012C330.523 19.516 330.119 19.916 329.615 20.212C329.119 20.5 328.567 20.644 327.959 20.644ZM327.959 19.564C328.359 19.564 328.719 19.464 329.039 19.264C329.367 19.064 329.623 18.788 329.807 18.436C329.999 18.084 330.095 17.692 330.095 17.26C330.095 16.82 329.999 16.432 329.807 16.096C329.623 15.752 329.367 15.48 329.039 15.28C328.719 15.072 328.359 14.968 327.959 14.968C327.551 14.968 327.183 15.072 326.855 15.28C326.535 15.48 326.279 15.752 326.087 16.096C325.895 16.432 325.799 16.82 325.799 17.26C325.799 17.692 325.895 18.084 326.087 18.436C326.279 18.788 326.535 19.064 326.855 19.264C327.183 19.464 327.551 19.564 327.959 19.564ZM332.739 20.5V14.032H333.831V15.352L333.675 15.148C333.835 14.74 334.091 14.428 334.443 14.212C334.795 13.996 335.191 13.888 335.631 13.888C336.135 13.888 336.587 14.028 336.987 14.308C337.395 14.588 337.675 14.956 337.827 15.412L337.515 15.424C337.683 14.92 337.967 14.54 338.367 14.284C338.767 14.02 339.211 13.888 339.699 13.888C340.147 13.888 340.551 13.992 340.911 14.2C341.279 14.408 341.571 14.696 341.787 15.064C342.003 15.432 342.111 15.848 342.111 16.312V20.5H340.983V16.672C340.983 16.312 340.919 16.008 340.791 15.76C340.663 15.512 340.487 15.32 340.263 15.184C340.047 15.04 339.791 14.968 339.495 14.968C339.207 14.968 338.947 15.04 338.715 15.184C338.491 15.32 338.311 15.516 338.175 15.772C338.047 16.02 337.983 16.32 337.983 16.672V20.5H336.855V16.672C336.855 16.312 336.791 16.008 336.663 15.76C336.535 15.512 336.359 15.32 336.135 15.184C335.919 15.04 335.663 14.968 335.367 14.968C335.079 14.968 334.819 15.04 334.587 15.184C334.363 15.32 334.183 15.516 334.047 15.772C333.919 16.02 333.855 16.32 333.855 16.672V20.5H332.739ZM345.902 20.5V11.56H348.83C349.734 11.56 350.522 11.744 351.194 12.112C351.866 12.48 352.386 13 352.754 13.672C353.122 14.336 353.306 15.12 353.306 16.024C353.306 16.92 353.122 17.704 352.754 18.376C352.386 19.048 351.866 19.572 351.194 19.948C350.522 20.316 349.734 20.5 348.83 20.5H345.902ZM347.078 19.42H348.842C349.506 19.42 350.078 19.28 350.558 19C351.046 18.72 351.422 18.328 351.686 17.824C351.95 17.312 352.082 16.712 352.082 16.024C352.082 15.328 351.946 14.728 351.674 14.224C351.41 13.72 351.034 13.332 350.546 13.06C350.066 12.78 349.498 12.64 348.842 12.64H347.078V19.42ZM356.479 20.644C356.055 20.644 355.679 20.568 355.351 20.416C355.031 20.256 354.779 20.04 354.595 19.768C354.411 19.488 354.319 19.168 354.319 18.808C354.319 18.464 354.391 18.156 354.535 17.884C354.687 17.604 354.919 17.368 355.231 17.176C355.551 16.984 355.951 16.848 356.431 16.768L358.831 16.372V17.308L356.683 17.668C356.267 17.74 355.963 17.872 355.771 18.064C355.587 18.256 355.495 18.492 355.495 18.772C355.495 19.036 355.599 19.256 355.807 19.432C356.023 19.608 356.291 19.696 356.611 19.696C357.019 19.696 357.371 19.612 357.667 19.444C357.971 19.268 358.207 19.032 358.375 18.736C358.551 18.44 358.639 18.112 358.639 17.752V16.108C358.639 15.756 358.507 15.472 358.243 15.256C357.987 15.032 357.647 14.92 357.223 14.92C356.855 14.92 356.527 15.016 356.239 15.208C355.959 15.392 355.751 15.64 355.615 15.952L354.643 15.448C354.763 15.152 354.955 14.888 355.219 14.656C355.483 14.416 355.791 14.228 356.143 14.092C356.495 13.956 356.863 13.888 357.247 13.888C357.743 13.888 358.179 13.984 358.555 14.176C358.931 14.36 359.223 14.62 359.431 14.956C359.647 15.284 359.755 15.668 359.755 16.108V20.5H358.663V19.276L358.867 19.348C358.731 19.604 358.547 19.828 358.315 20.02C358.083 20.212 357.811 20.364 357.499 20.476C357.187 20.588 356.847 20.644 356.479 20.644ZM363.996 20.572C363.364 20.572 362.876 20.392 362.532 20.032C362.196 19.672 362.028 19.164 362.028 18.508V15.1H360.852V14.032H361.092C361.38 14.032 361.608 13.944 361.776 13.768C361.944 13.592 362.028 13.36 362.028 13.072V12.544H363.144V14.032H364.596V15.1H363.144V18.472C363.144 18.688 363.176 18.876 363.24 19.036C363.312 19.196 363.428 19.324 363.588 19.42C363.748 19.508 363.96 19.552 364.224 19.552C364.28 19.552 364.348 19.548 364.428 19.54C364.516 19.532 364.596 19.524 364.668 19.516V20.5C364.564 20.524 364.448 20.54 364.32 20.548C364.192 20.564 364.084 20.572 363.996 20.572ZM368.926 20.644C368.302 20.644 367.746 20.496 367.258 20.2C366.77 19.904 366.386 19.5 366.106 18.988C365.826 18.468 365.686 17.888 365.686 17.248C365.686 16.6 365.822 16.024 366.094 15.52C366.374 15.016 366.75 14.62 367.222 14.332C367.702 14.036 368.238 13.888 368.83 13.888C369.31 13.888 369.734 13.976 370.102 14.152C370.478 14.32 370.794 14.552 371.05 14.848C371.314 15.136 371.514 15.468 371.65 15.844C371.794 16.212 371.866 16.596 371.866 16.996C371.866 17.084 371.858 17.184 371.842 17.296C371.834 17.4 371.822 17.5 371.806 17.596H366.502V16.636H371.158L370.63 17.068C370.702 16.652 370.662 16.28 370.51 15.952C370.358 15.624 370.134 15.364 369.838 15.172C369.542 14.98 369.206 14.884 368.83 14.884C368.454 14.884 368.11 14.98 367.798 15.172C367.486 15.364 367.242 15.64 367.066 16C366.898 16.352 366.83 16.772 366.862 17.26C366.83 17.732 366.902 18.148 367.078 18.508C367.262 18.86 367.518 19.136 367.846 19.336C368.182 19.528 368.546 19.624 368.938 19.624C369.37 19.624 369.734 19.524 370.03 19.324C370.326 19.124 370.566 18.868 370.75 18.556L371.686 19.036C371.558 19.332 371.358 19.604 371.086 19.852C370.822 20.092 370.506 20.284 370.138 20.428C369.778 20.572 369.374 20.644 368.926 20.644Z" fill="#475569"/>
<rect x="0.5" y="45" width="435" height="290" rx="7.5" fill="#FEFEFE"/>
<rect x="0.5" y="45" width="435" height="290" rx="7.5" stroke="#E2E8F0"/>
<path d="M19.038 76.5V67.12H16.154V66.07H23.014V67.12H20.158V76.5H19.038ZM26.6317 76.668C25.9224 76.668 25.2784 76.5 24.6997 76.164C24.121 75.8187 23.659 75.352 23.3137 74.764C22.9777 74.1667 22.8097 73.49 22.8097 72.734C22.8097 71.9873 22.9777 71.32 23.3137 70.732C23.6497 70.144 24.1024 69.682 24.6717 69.346C25.2504 69.0007 25.9037 68.828 26.6317 68.828C27.3597 68.828 28.0084 68.996 28.5777 69.332C29.1564 69.668 29.609 70.13 29.9357 70.718C30.2717 71.306 30.4397 71.978 30.4397 72.734C30.4397 73.4993 30.267 74.1807 29.9217 74.778C29.5764 75.366 29.1144 75.828 28.5357 76.164C27.9664 76.5 27.3317 76.668 26.6317 76.668ZM26.6317 75.618C27.1357 75.618 27.5884 75.492 27.9897 75.24C28.4004 74.988 28.7224 74.6427 28.9557 74.204C29.1984 73.7653 29.3197 73.2753 29.3197 72.734C29.3197 72.1927 29.1984 71.7073 28.9557 71.278C28.7224 70.8487 28.4004 70.508 27.9897 70.256C27.5884 70.004 27.1357 69.878 26.6317 69.878C26.1277 69.878 25.6704 70.004 25.2597 70.256C24.8584 70.508 24.5364 70.8487 24.2937 71.278C24.051 71.7073 23.9297 72.1927 23.9297 72.734C23.9297 73.2753 24.051 73.7653 24.2937 74.204C24.5364 74.6427 24.8584 74.988 25.2597 75.24C25.6704 75.492 26.1277 75.618 26.6317 75.618ZM34.8848 76.584C34.2128 76.584 33.6948 76.388 33.3308 75.996C32.9668 75.604 32.7848 75.044 32.7848 74.316V70.046H31.3988V68.996H31.7488C32.0661 68.996 32.3181 68.8933 32.5048 68.688C32.6915 68.4733 32.7848 68.2073 32.7848 67.89V67.26H33.8348V68.996H35.4868V70.046H33.8348V74.316C33.8348 74.568 33.8721 74.792 33.9468 74.988C34.0215 75.1747 34.1475 75.324 34.3248 75.436C34.5115 75.548 34.7588 75.604 35.0668 75.604C35.1415 75.604 35.2301 75.5993 35.3328 75.59C35.4355 75.5807 35.5241 75.5713 35.5988 75.562V76.5C35.4868 76.528 35.3608 76.5467 35.2208 76.556C35.0808 76.5747 34.9688 76.584 34.8848 76.584ZM39.3358 76.668C38.8598 76.668 38.4351 76.5793 38.0618 76.402C37.6885 76.2153 37.3945 75.9633 37.1798 75.646C36.9651 75.3287 36.8578 74.9647 36.8578 74.554C36.8578 74.162 36.9418 73.8073 37.1098 73.49C37.2778 73.1633 37.5391 72.888 37.8938 72.664C38.2485 72.44 38.7011 72.2813 39.2518 72.188L42.1918 71.698V72.65L39.5038 73.098C38.9625 73.1913 38.5705 73.364 38.3278 73.616C38.0945 73.868 37.9778 74.1667 37.9778 74.512C37.9778 74.848 38.1085 75.1327 38.3698 75.366C38.6405 75.5993 38.9858 75.716 39.4058 75.716C39.9191 75.716 40.3671 75.6087 40.7498 75.394C41.1325 75.17 41.4311 74.8713 41.6458 74.498C41.8605 74.1247 41.9678 73.7093 41.9678 73.252V71.348C41.9678 70.9 41.8045 70.536 41.4778 70.256C41.1511 69.976 40.7265 69.836 40.2038 69.836C39.7465 69.836 39.3451 69.9527 38.9998 70.186C38.6545 70.41 38.3978 70.704 38.2298 71.068L37.2778 70.55C37.4178 70.2327 37.6371 69.9433 37.9358 69.682C38.2438 69.4207 38.5938 69.2153 38.9858 69.066C39.3778 68.9073 39.7838 68.828 40.2038 68.828C40.7545 68.828 41.2398 68.9353 41.6598 69.15C42.0891 69.3647 42.4205 69.6633 42.6538 70.046C42.8965 70.4193 43.0178 70.8533 43.0178 71.348V76.5H41.9678V75.002L42.1218 75.156C41.9911 75.436 41.7858 75.6927 41.5058 75.926C41.2351 76.15 40.9131 76.332 40.5398 76.472C40.1758 76.6027 39.7745 76.668 39.3358 76.668ZM45.0375 76.5V65.902H46.0875V76.5H45.0375ZM54.0037 76.668C53.341 76.668 52.739 76.542 52.1977 76.29C51.6563 76.038 51.199 75.702 50.8257 75.282C50.4523 74.8527 50.1863 74.3813 50.0277 73.868L51.0357 73.49C51.2783 74.1993 51.6563 74.7407 52.1697 75.114C52.683 75.478 53.2943 75.66 54.0037 75.66C54.4517 75.66 54.8437 75.59 55.1797 75.45C55.525 75.3007 55.791 75.0953 55.9777 74.834C56.1643 74.5727 56.2577 74.2693 56.2577 73.924C56.2577 73.4107 56.1177 73.014 55.8377 72.734C55.5577 72.454 55.1563 72.2393 54.6337 72.09L52.7577 71.53C52.0203 71.3153 51.451 70.956 51.0497 70.452C50.6577 69.948 50.4617 69.374 50.4617 68.73C50.4617 68.1793 50.597 67.694 50.8677 67.274C51.1383 66.8447 51.507 66.5087 51.9737 66.266C52.4497 66.0233 52.9863 65.902 53.5837 65.902C54.209 65.902 54.769 66.0187 55.2637 66.252C55.7677 66.476 56.1923 66.7747 56.5377 67.148C56.883 67.5213 57.1303 67.9367 57.2797 68.394L56.2997 68.786C56.0757 68.17 55.7257 67.7033 55.2497 67.386C54.783 67.0687 54.2323 66.91 53.5977 66.91C53.1963 66.91 52.8417 66.98 52.5337 67.12C52.235 67.26 52.0017 67.4607 51.8337 67.722C51.6657 67.9833 51.5817 68.2913 51.5817 68.646C51.5817 69.0753 51.717 69.4627 51.9877 69.808C52.2583 70.144 52.6737 70.396 53.2337 70.564L54.8857 71.054C55.707 71.2967 56.3277 71.6467 56.7477 72.104C57.1677 72.5613 57.3777 73.1353 57.3777 73.826C57.3777 74.386 57.233 74.8807 56.9437 75.31C56.6637 75.73 56.267 76.0613 55.7537 76.304C55.2497 76.5467 54.6663 76.668 54.0037 76.668ZM61.143 76.668C60.667 76.668 60.2423 76.5793 59.869 76.402C59.4957 76.2153 59.2017 75.9633 58.987 75.646C58.7723 75.3287 58.665 74.9647 58.665 74.554C58.665 74.162 58.749 73.8073 58.917 73.49C59.085 73.1633 59.3463 72.888 59.701 72.664C60.0557 72.44 60.5083 72.2813 61.059 72.188L63.999 71.698V72.65L61.311 73.098C60.7697 73.1913 60.3777 73.364 60.135 73.616C59.9017 73.868 59.785 74.1667 59.785 74.512C59.785 74.848 59.9157 75.1327 60.177 75.366C60.4477 75.5993 60.793 75.716 61.213 75.716C61.7263 75.716 62.1743 75.6087 62.557 75.394C62.9397 75.17 63.2383 74.8713 63.453 74.498C63.6677 74.1247 63.775 73.7093 63.775 73.252V71.348C63.775 70.9 63.6117 70.536 63.285 70.256C62.9583 69.976 62.5337 69.836 62.011 69.836C61.5537 69.836 61.1523 69.9527 60.807 70.186C60.4617 70.41 60.205 70.704 60.037 71.068L59.085 70.55C59.225 70.2327 59.4443 69.9433 59.743 69.682C60.051 69.4207 60.401 69.2153 60.793 69.066C61.185 68.9073 61.591 68.828 62.011 68.828C62.5617 68.828 63.047 68.9353 63.467 69.15C63.8963 69.3647 64.2277 69.6633 64.461 70.046C64.7037 70.4193 64.825 70.8533 64.825 71.348V76.5H63.775V75.002L63.929 75.156C63.7983 75.436 63.593 75.6927 63.313 75.926C63.0423 76.15 62.7203 76.332 62.347 76.472C61.983 76.6027 61.5817 76.668 61.143 76.668ZM66.8447 76.5V65.902H67.8947V76.5H66.8447ZM73.3199 76.668C72.6199 76.668 71.9853 76.5 71.4159 76.164C70.8559 75.8187 70.4126 75.3473 70.0859 74.75C69.7593 74.1527 69.5959 73.476 69.5959 72.72C69.5959 71.964 69.7546 71.2967 70.0719 70.718C70.3893 70.13 70.8186 69.668 71.3599 69.332C71.9106 68.996 72.5266 68.828 73.2079 68.828C73.7493 68.828 74.2299 68.9307 74.6499 69.136C75.0793 69.332 75.4433 69.6027 75.7419 69.948C76.0406 70.284 76.2693 70.6667 76.4279 71.096C76.5866 71.516 76.6659 71.95 76.6659 72.398C76.6659 72.4913 76.6613 72.5987 76.6519 72.72C76.6426 72.832 76.6286 72.9487 76.6099 73.07H70.2679V72.09H76.0079L75.5039 72.51C75.5879 71.9967 75.5273 71.5393 75.3219 71.138C75.1259 70.7273 74.8413 70.4053 74.4679 70.172C74.0946 69.9293 73.6746 69.808 73.2079 69.808C72.7413 69.808 72.3073 69.9293 71.9059 70.172C71.5139 70.4147 71.2059 70.7553 70.9819 71.194C70.7579 71.6233 70.6693 72.1367 70.7159 72.734C70.6693 73.3313 70.7626 73.854 70.9959 74.302C71.2386 74.7407 71.5653 75.0813 71.9759 75.324C72.3959 75.5667 72.8439 75.688 73.3199 75.688C73.8706 75.688 74.3326 75.5573 74.7059 75.296C75.0793 75.0347 75.3826 74.708 75.6159 74.316L76.5119 74.792C76.3626 75.128 76.1339 75.4407 75.8259 75.73C75.5179 76.01 75.1493 76.2387 74.7199 76.416C74.2999 76.584 73.8333 76.668 73.3199 76.668ZM80.9812 76.668C80.2626 76.668 79.6326 76.486 79.0912 76.122C78.5499 75.758 78.1579 75.2633 77.9152 74.638L78.7972 74.218C79.0119 74.6753 79.3106 75.0393 79.6932 75.31C80.0852 75.5807 80.5146 75.716 80.9812 75.716C81.4292 75.716 81.8072 75.6087 82.1152 75.394C82.4232 75.17 82.5772 74.8807 82.5772 74.526C82.5772 74.2647 82.5026 74.0593 82.3532 73.91C82.2039 73.7513 82.0312 73.63 81.8352 73.546C81.6392 73.462 81.4666 73.4013 81.3172 73.364L80.2392 73.056C79.5486 72.86 79.0492 72.5847 78.7412 72.23C78.4332 71.8753 78.2792 71.4647 78.2792 70.998C78.2792 70.5593 78.3912 70.1767 78.6152 69.85C78.8392 69.5233 79.1426 69.2713 79.5252 69.094C79.9079 68.9167 80.3326 68.828 80.7992 68.828C81.4339 68.828 82.0079 68.996 82.5212 69.332C83.0439 69.6587 83.4126 70.116 83.6272 70.704L82.7312 71.124C82.5446 70.704 82.2739 70.3773 81.9192 70.144C81.5739 69.9013 81.1866 69.78 80.7572 69.78C80.3372 69.78 80.0012 69.8873 79.7492 70.102C79.4972 70.3167 79.3712 70.5873 79.3712 70.914C79.3712 71.166 79.4366 71.3667 79.5672 71.516C79.6979 71.6653 79.8472 71.7773 80.0152 71.852C80.1926 71.9267 80.3466 71.9827 80.4772 72.02L81.7232 72.384C82.3299 72.5613 82.8012 72.8367 83.1372 73.21C83.4826 73.5833 83.6552 74.022 83.6552 74.526C83.6552 74.9367 83.5386 75.3053 83.3052 75.632C83.0812 75.9587 82.7686 76.2153 82.3672 76.402C81.9659 76.5793 81.5039 76.668 80.9812 76.668Z" fill="#475569"/>
<path d="M17.188 104.5V91.09H22.318C23.242 91.09 24.058 91.252 24.766 91.576C25.486 91.9 26.05 92.38 26.458 93.016C26.866 93.652 27.07 94.438 27.07 95.374C27.07 96.286 26.86 97.066 26.44 97.714C26.02 98.35 25.456 98.83 24.748 99.154L27.808 104.5H24.676L21.364 98.578L23.164 99.64H19.978V104.5H17.188ZM19.978 97.21H22.336C22.732 97.21 23.074 97.132 23.362 96.976C23.65 96.82 23.872 96.604 24.028 96.328C24.196 96.052 24.28 95.734 24.28 95.374C24.28 95.002 24.196 94.678 24.028 94.402C23.872 94.126 23.65 93.91 23.362 93.754C23.074 93.598 22.732 93.52 22.336 93.52H19.978V97.21ZM32.8479 104.716C31.7679 104.716 30.8259 104.464 30.0219 103.96C29.2299 103.444 28.6899 102.754 28.4019 101.89L30.3819 100.954C30.6339 101.482 30.9759 101.896 31.4079 102.196C31.8399 102.496 32.3199 102.646 32.8479 102.646C33.2319 102.646 33.5259 102.568 33.7299 102.412C33.9339 102.256 34.0359 102.04 34.0359 101.764C34.0359 101.62 33.9999 101.5 33.9279 101.404C33.8559 101.296 33.7479 101.2 33.6039 101.116C33.4599 101.032 33.2799 100.96 33.0639 100.9L31.3899 100.432C30.5859 100.204 29.9679 99.838 29.5359 99.334C29.1039 98.818 28.8879 98.212 28.8879 97.516C28.8879 96.904 29.0439 96.37 29.3559 95.914C29.6679 95.458 30.1059 95.104 30.6699 94.852C31.2339 94.588 31.8819 94.456 32.6139 94.456C33.5739 94.456 34.4139 94.684 35.1339 95.14C35.8659 95.584 36.3819 96.214 36.6819 97.03L34.6839 97.966C34.5399 97.558 34.2759 97.234 33.8919 96.994C33.5199 96.742 33.0939 96.616 32.6139 96.616C32.2659 96.616 31.9899 96.688 31.7859 96.832C31.5939 96.976 31.4979 97.174 31.4979 97.426C31.4979 97.558 31.5339 97.678 31.6059 97.786C31.6779 97.894 31.7919 97.99 31.9479 98.074C32.1159 98.158 32.3199 98.236 32.5599 98.308L34.1259 98.776C34.9419 99.016 35.5659 99.382 35.9979 99.874C36.4299 100.354 36.6459 100.948 36.6459 101.656C36.6459 102.268 36.4839 102.802 36.1599 103.258C35.8479 103.714 35.4099 104.074 34.8459 104.338C34.2819 104.59 33.6159 104.716 32.8479 104.716ZM41.7639 104.5L47.1819 93.43H40.9899V91.09H50.1159V93.43L44.8599 104.5H41.7639ZM56.9641 104.716C55.8961 104.716 54.9541 104.428 54.1381 103.852C53.3341 103.276 52.7041 102.466 52.2481 101.422C51.7921 100.378 51.5641 99.166 51.5641 97.786C51.5641 96.394 51.7861 95.182 52.2301 94.15C52.6861 93.118 53.3161 92.314 54.1201 91.738C54.9361 91.162 55.8781 90.874 56.9461 90.874C58.0381 90.874 58.9861 91.162 59.7901 91.738C60.6061 92.314 61.2361 93.124 61.6801 94.168C62.1361 95.2 62.3641 96.406 62.3641 97.786C62.3641 99.166 62.1361 100.378 61.6801 101.422C61.2361 102.454 60.6061 103.264 59.7901 103.852C58.9861 104.428 58.0441 104.716 56.9641 104.716ZM56.9821 102.196C57.5341 102.196 58.0021 102.022 58.3861 101.674C58.7701 101.326 59.0641 100.822 59.2681 100.162C59.4721 99.502 59.5741 98.71 59.5741 97.786C59.5741 96.862 59.4721 96.076 59.2681 95.428C59.0641 94.768 58.7641 94.264 58.3681 93.916C57.9841 93.568 57.5101 93.394 56.9461 93.394C56.3941 93.394 55.9261 93.568 55.5421 93.916C55.1581 94.264 54.8641 94.768 54.6601 95.428C54.4561 96.076 54.3541 96.862 54.3541 97.786C54.3541 98.698 54.4561 99.484 54.6601 100.144C54.8641 100.804 55.1581 101.314 55.5421 101.674C55.9381 102.022 56.4181 102.196 56.9821 102.196ZM65.2476 107.47V106.12C65.6676 106.024 66.0096 105.838 66.2736 105.562C66.5496 105.298 66.7296 104.944 66.8136 104.5H65.6076V101.8H68.3076V103.366C68.3076 104.506 68.0496 105.424 67.5336 106.12C67.0176 106.816 66.2556 107.266 65.2476 107.47ZM76.5109 104.716C75.4429 104.716 74.5009 104.428 73.6849 103.852C72.8809 103.276 72.2509 102.466 71.7949 101.422C71.3389 100.378 71.1109 99.166 71.1109 97.786C71.1109 96.394 71.3329 95.182 71.7769 94.15C72.2329 93.118 72.8629 92.314 73.6669 91.738C74.4829 91.162 75.4249 90.874 76.4929 90.874C77.5849 90.874 78.5329 91.162 79.3369 91.738C80.1529 92.314 80.7829 93.124 81.2269 94.168C81.6829 95.2 81.9109 96.406 81.9109 97.786C81.9109 99.166 81.6829 100.378 81.2269 101.422C80.7829 102.454 80.1529 103.264 79.3369 103.852C78.5329 104.428 77.5909 104.716 76.5109 104.716ZM76.5289 102.196C77.0809 102.196 77.5489 102.022 77.9329 101.674C78.3169 101.326 78.6109 100.822 78.8149 100.162C79.0189 99.502 79.1209 98.71 79.1209 97.786C79.1209 96.862 79.0189 96.076 78.8149 95.428C78.6109 94.768 78.3109 94.264 77.9149 93.916C77.5309 93.568 77.0569 93.394 76.4929 93.394C75.9409 93.394 75.4729 93.568 75.0889 93.916C74.7049 94.264 74.4109 94.768 74.2069 95.428C74.0029 96.076 73.9009 96.862 73.9009 97.786C73.9009 98.698 74.0029 99.484 74.2069 100.144C74.4109 100.804 74.7049 101.314 75.0889 101.674C75.4849 102.022 75.9649 102.196 76.5289 102.196ZM89.1145 104.716C88.0465 104.716 87.1045 104.428 86.2885 103.852C85.4845 103.276 84.8545 102.466 84.3985 101.422C83.9425 100.378 83.7145 99.166 83.7145 97.786C83.7145 96.394 83.9365 95.182 84.3805 94.15C84.8365 93.118 85.4665 92.314 86.2705 91.738C87.0865 91.162 88.0285 90.874 89.0965 90.874C90.1885 90.874 91.1365 91.162 91.9405 91.738C92.7565 92.314 93.3865 93.124 93.8305 94.168C94.2865 95.2 94.5145 96.406 94.5145 97.786C94.5145 99.166 94.2865 100.378 93.8305 101.422C93.3865 102.454 92.7565 103.264 91.9405 103.852C91.1365 104.428 90.1945 104.716 89.1145 104.716ZM89.1325 102.196C89.6845 102.196 90.1525 102.022 90.5365 101.674C90.9205 101.326 91.2145 100.822 91.4185 100.162C91.6225 99.502 91.7245 98.71 91.7245 97.786C91.7245 96.862 91.6225 96.076 91.4185 95.428C91.2145 94.768 90.9145 94.264 90.5185 93.916C90.1345 93.568 89.6605 93.394 89.0965 93.394C88.5445 93.394 88.0765 93.568 87.6925 93.916C87.3085 94.264 87.0145 94.768 86.8105 95.428C86.6065 96.076 86.5045 96.862 86.5045 97.786C86.5045 98.698 86.6065 99.484 86.8105 100.144C87.0145 100.804 87.3085 101.314 87.6925 101.674C88.0885 102.022 88.5685 102.196 89.1325 102.196ZM101.718 104.716C100.65 104.716 99.708 104.428 98.892 103.852C98.088 103.276 97.458 102.466 97.002 101.422C96.546 100.378 96.318 99.166 96.318 97.786C96.318 96.394 96.54 95.182 96.984 94.15C97.44 93.118 98.07 92.314 98.874 91.738C99.69 91.162 100.632 90.874 101.7 90.874C102.792 90.874 103.74 91.162 104.544 91.738C105.36 92.314 105.99 93.124 106.434 94.168C106.89 95.2 107.118 96.406 107.118 97.786C107.118 99.166 106.89 100.378 106.434 101.422C105.99 102.454 105.36 103.264 104.544 103.852C103.74 104.428 102.798 104.716 101.718 104.716ZM101.736 102.196C102.288 102.196 102.756 102.022 103.14 101.674C103.524 101.326 103.818 100.822 104.022 100.162C104.226 99.502 104.328 98.71 104.328 97.786C104.328 96.862 104.226 96.076 104.022 95.428C103.818 94.768 103.518 94.264 103.122 93.916C102.738 93.568 102.264 93.394 101.7 93.394C101.148 93.394 100.68 93.568 100.296 93.916C99.912 94.264 99.618 94.768 99.414 95.428C99.21 96.076 99.108 96.862 99.108 97.786C99.108 98.698 99.21 99.484 99.414 100.144C99.618 100.804 99.912 101.314 100.296 101.674C100.692 102.022 101.172 102.196 101.736 102.196Z" fill="#1E293B"/>
<rect x="355" y="72" width="65" height="26" rx="13" fill="#F1F5F9"/>
<path d="M364.051 90V81.06H366.979C367.907 81.06 368.711 81.248 369.391 81.624C370.079 81.992 370.611 82.512 370.987 83.184C371.363 83.856 371.551 84.636 371.551 85.524C371.551 86.404 371.363 87.184 370.987 87.864C370.611 88.536 370.079 89.06 369.391 89.436C368.711 89.812 367.907 90 366.979 90H364.051ZM365.467 88.74H367.003C367.635 88.74 368.183 88.608 368.647 88.344C369.119 88.08 369.483 87.708 369.739 87.228C369.995 86.748 370.123 86.18 370.123 85.524C370.123 84.868 369.991 84.304 369.727 83.832C369.471 83.352 369.111 82.98 368.647 82.716C368.183 82.452 367.635 82.32 367.003 82.32H365.467V88.74ZM374.699 90.144C374.259 90.144 373.871 90.068 373.535 89.916C373.207 89.756 372.951 89.54 372.767 89.268C372.583 88.988 372.491 88.66 372.491 88.284C372.491 87.932 372.567 87.616 372.719 87.336C372.879 87.056 373.123 86.82 373.451 86.628C373.779 86.436 374.191 86.3 374.687 86.22L376.943 85.848V86.916L374.951 87.264C374.591 87.328 374.327 87.444 374.159 87.612C373.991 87.772 373.907 87.98 373.907 88.236C373.907 88.484 373.999 88.688 374.183 88.848C374.375 89 374.619 89.076 374.915 89.076C375.283 89.076 375.603 88.996 375.875 88.836C376.155 88.676 376.371 88.464 376.523 88.2C376.675 87.928 376.751 87.628 376.751 87.3V85.632C376.751 85.312 376.631 85.052 376.391 84.852C376.159 84.644 375.847 84.54 375.455 84.54C375.095 84.54 374.779 84.636 374.507 84.828C374.243 85.012 374.047 85.252 373.919 85.548L372.791 84.984C372.911 84.664 373.107 84.384 373.379 84.144C373.651 83.896 373.967 83.704 374.327 83.568C374.695 83.432 375.083 83.364 375.491 83.364C376.003 83.364 376.455 83.46 376.847 83.652C377.247 83.844 377.555 84.112 377.771 84.456C377.995 84.792 378.107 85.184 378.107 85.632V90H376.811V88.824L377.087 88.86C376.935 89.124 376.739 89.352 376.499 89.544C376.267 89.736 375.999 89.884 375.695 89.988C375.399 90.092 375.067 90.144 374.699 90.144ZM380.268 92.652C380.108 92.652 379.948 92.636 379.788 92.604C379.636 92.58 379.496 92.54 379.368 92.484V91.32C379.464 91.344 379.58 91.364 379.716 91.38C379.852 91.404 379.984 91.416 380.112 91.416C380.488 91.416 380.764 91.332 380.94 91.164C381.124 91.004 381.288 90.752 381.432 90.408L381.864 89.424L381.84 90.564L379.032 83.508H380.484L382.56 88.92H382.068L384.132 83.508H385.596L382.728 90.708C382.576 91.092 382.384 91.428 382.152 91.716C381.928 92.012 381.66 92.24 381.348 92.4C381.044 92.568 380.684 92.652 380.268 92.652ZM388.924 90.144C388.26 90.144 387.676 89.98 387.172 89.652C386.676 89.324 386.328 88.884 386.128 88.332L387.172 87.84C387.348 88.208 387.588 88.5 387.892 88.716C388.204 88.932 388.548 89.04 388.924 89.04C389.244 89.04 389.504 88.968 389.704 88.824C389.904 88.68 390.004 88.484 390.004 88.236C390.004 88.076 389.96 87.948 389.872 87.852C389.784 87.748 389.672 87.664 389.536 87.6C389.408 87.536 389.276 87.488 389.14 87.456L388.12 87.168C387.56 87.008 387.14 86.768 386.86 86.448C386.588 86.12 386.452 85.74 386.452 85.308C386.452 84.916 386.552 84.576 386.752 84.288C386.952 83.992 387.228 83.764 387.58 83.604C387.932 83.444 388.328 83.364 388.768 83.364C389.36 83.364 389.888 83.512 390.352 83.808C390.816 84.096 391.144 84.5 391.336 85.02L390.292 85.512C390.164 85.2 389.96 84.952 389.68 84.768C389.408 84.584 389.1 84.492 388.756 84.492C388.46 84.492 388.224 84.564 388.048 84.708C387.872 84.844 387.784 85.024 387.784 85.248C387.784 85.4 387.824 85.528 387.904 85.632C387.984 85.728 388.088 85.808 388.216 85.872C388.344 85.928 388.476 85.976 388.612 86.016L389.668 86.328C390.204 86.48 390.616 86.72 390.904 87.048C391.192 87.368 391.336 87.752 391.336 88.2C391.336 88.584 391.232 88.924 391.024 89.22C390.824 89.508 390.544 89.736 390.184 89.904C389.824 90.064 389.404 90.144 388.924 90.144Z" fill="#0F172A"/>
<path d="M409.533 83.5306L404.533 88.5306C404.463 88.6005 404.38 88.656 404.289 88.6939C404.198 88.7317 404.1 88.7512 404.001 88.7512C403.903 88.7512 403.805 88.7317 403.714 88.6939C403.623 88.656 403.54 88.6005 403.47 88.5306L398.47 83.5306C398.329 83.3897 398.25 83.1986 398.25 82.9994C398.25 82.8001 398.329 82.609 398.47 82.4681C398.611 82.3272 398.802 82.2481 399.001 82.2481C399.201 82.2481 399.392 82.3272 399.533 82.4681L404.002 86.9375L408.471 82.4675C408.612 82.3266 408.803 82.2474 409.003 82.2474C409.202 82.2474 409.393 82.3266 409.534 82.4675C409.675 82.6084 409.754 82.7995 409.754 82.9987C409.754 83.198 409.675 83.3891 409.534 83.53L409.533 83.5306Z" fill="#343330"/>
<line x1="16" y1="125" x2="420" y2="125" stroke="#E9E9E9"/>
<line x1="57" y1="185" x2="372" y2="185" stroke="#E2E8F0" stroke-dasharray="3 3"/>
<line x1="57" y1="151" x2="372" y2="151" stroke="#E2E8F0" stroke-dasharray="3 3"/>
<line x1="57" y1="219" x2="372" y2="219" stroke="#E2E8F0" stroke-dasharray="3 3"/>
<line x1="57" y1="253" x2="372" y2="253" stroke="#E2E8F0" stroke-dasharray="3 3"/>
<path d="M50.5 258.5L107.5 235L160.5 219.5L209.5 235L263.5 200L280 185L309 164.5L359.5 157" stroke="#F97316" stroke-width="3" stroke-linecap="round"/>
<circle cx="53.5135" cy="259.014" r="6.38514" fill="#F97316" stroke="#FEFEFE" stroke-width="4.25676"/>
<circle cx="103.514" cy="236.014" r="6.38514" fill="#F97316" stroke="#FEFEFE" stroke-width="4.25676"/>
<circle cx="165.514" cy="222.014" r="6.38514" fill="#F97316" stroke="#FEFEFE" stroke-width="4.25676"/>
<circle cx="213.514" cy="235.014" r="6.38514" fill="#F97316" stroke="#FEFEFE" stroke-width="4.25676"/>
<circle cx="265.514" cy="200.014" r="6.38514" fill="#F97316" stroke="#FEFEFE" stroke-width="4.25676"/>
<circle cx="304.514" cy="170.014" r="6.38514" fill="#F97316" stroke="#FEFEFE" stroke-width="4.25676"/>
<circle cx="349.514" cy="160.014" r="6.38514" fill="#F97316" stroke="#FEFEFE" stroke-width="4.25676"/>
<line x1="45" y1="291" x2="372" y2="291" stroke="#E9E9E9"/>
<path d="M53.2282 314.644C52.6602 314.644 52.1402 314.54 51.6682 314.332C51.1962 314.116 50.7962 313.824 50.4682 313.456C50.1402 313.088 49.9042 312.676 49.7602 312.22L50.7802 311.8C50.9962 312.376 51.3162 312.82 51.7402 313.132C52.1722 313.436 52.6762 313.588 53.2522 313.588C53.6042 313.588 53.9122 313.532 54.1762 313.42C54.4402 313.308 54.6442 313.152 54.7882 312.952C54.9402 312.744 55.0162 312.504 55.0162 312.232C55.0162 311.856 54.9082 311.56 54.6922 311.344C54.4842 311.12 54.1762 310.952 53.7682 310.84L52.1242 310.336C51.4762 310.136 50.9802 309.82 50.6362 309.388C50.2922 308.956 50.1202 308.46 50.1202 307.9C50.1202 307.412 50.2362 306.984 50.4682 306.616C50.7082 306.24 51.0362 305.948 51.4522 305.74C51.8762 305.524 52.3562 305.416 52.8922 305.416C53.4282 305.416 53.9122 305.512 54.3442 305.704C54.7842 305.896 55.1562 306.156 55.4602 306.484C55.7642 306.804 55.9882 307.172 56.1322 307.588L55.1242 308.008C54.9322 307.504 54.6442 307.124 54.2602 306.868C53.8762 306.604 53.4242 306.472 52.9042 306.472C52.5842 306.472 52.3002 306.528 52.0522 306.64C51.8122 306.744 51.6242 306.9 51.4882 307.108C51.3602 307.308 51.2962 307.548 51.2962 307.828C51.2962 308.156 51.4002 308.448 51.6082 308.704C51.8162 308.96 52.1322 309.156 52.5562 309.292L54.0562 309.736C54.7602 309.952 55.2922 310.26 55.6522 310.66C56.0122 311.06 56.1922 311.556 56.1922 312.148C56.1922 312.636 56.0642 313.068 55.8082 313.444C55.5602 313.82 55.2122 314.116 54.7642 314.332C54.3242 314.54 53.8122 314.644 53.2282 314.644ZM60.074 314.644C59.61 314.644 59.19 314.536 58.814 314.32C58.446 314.104 58.158 313.804 57.95 313.42C57.75 313.028 57.65 312.58 57.65 312.076V308.032H58.766V311.956C58.766 312.276 58.83 312.556 58.958 312.796C59.094 313.036 59.278 313.224 59.51 313.36C59.75 313.496 60.022 313.564 60.326 313.564C60.63 313.564 60.898 313.496 61.13 313.36C61.37 313.224 61.554 313.028 61.682 312.772C61.818 312.516 61.886 312.212 61.886 311.86V308.032H63.014V314.5H61.922V313.24L62.102 313.348C61.95 313.756 61.69 314.076 61.322 314.308C60.962 314.532 60.546 314.644 60.074 314.644ZM64.7429 314.5V308.032H65.8349V309.292L65.6549 309.184C65.8149 308.776 66.0709 308.46 66.4229 308.236C66.7829 308.004 67.2029 307.888 67.6829 307.888C68.1469 307.888 68.5589 307.992 68.9189 308.2C69.2869 308.408 69.5749 308.696 69.7829 309.064C69.9989 309.432 70.1069 309.848 70.1069 310.312V314.5H68.9789V310.672C68.9789 310.312 68.9149 310.008 68.7869 309.76C68.6589 309.512 68.4749 309.32 68.2349 309.184C68.0029 309.04 67.7349 308.968 67.4309 308.968C67.1269 308.968 66.8549 309.04 66.6149 309.184C66.3829 309.32 66.1989 309.516 66.0629 309.772C65.9269 310.02 65.8589 310.32 65.8589 310.672V314.5H64.7429Z" fill="#475569"/>
<path d="M100.457 314.5V305.56H101.537L104.885 310.324H104.333L107.657 305.56H108.737V314.5H107.549V307.048L107.969 307.18L104.645 311.86H104.549L101.261 307.18L101.633 307.048V314.5H100.457ZM113.663 314.644C113.039 314.644 112.475 314.5 111.971 314.212C111.467 313.916 111.067 313.512 110.771 313C110.475 312.488 110.327 311.908 110.327 311.26C110.327 310.612 110.471 310.036 110.759 309.532C111.055 309.028 111.455 308.628 111.959 308.332C112.463 308.036 113.031 307.888 113.663 307.888C114.287 307.888 114.851 308.036 115.355 308.332C115.859 308.62 116.255 309.016 116.543 309.52C116.839 310.024 116.987 310.604 116.987 311.26C116.987 311.916 116.835 312.5 116.531 313.012C116.227 313.516 115.823 313.916 115.319 314.212C114.823 314.5 114.271 314.644 113.663 314.644ZM113.663 313.564C114.063 313.564 114.423 313.464 114.743 313.264C115.071 313.064 115.327 312.788 115.511 312.436C115.703 312.084 115.799 311.692 115.799 311.26C115.799 310.82 115.703 310.432 115.511 310.096C115.327 309.752 115.071 309.48 114.743 309.28C114.423 309.072 114.063 308.968 113.663 308.968C113.255 308.968 112.887 309.072 112.559 309.28C112.239 309.48 111.983 309.752 111.791 310.096C111.599 310.432 111.503 310.82 111.503 311.26C111.503 311.692 111.599 312.084 111.791 312.436C111.983 312.788 112.239 313.064 112.559 313.264C112.887 313.464 113.255 313.564 113.663 313.564ZM118.442 314.5V308.032H119.534V309.292L119.354 309.184C119.514 308.776 119.77 308.46 120.122 308.236C120.482 308.004 120.902 307.888 121.382 307.888C121.846 307.888 122.258 307.992 122.618 308.2C122.986 308.408 123.274 308.696 123.482 309.064C123.698 309.432 123.806 309.848 123.806 310.312V314.5H122.678V310.672C122.678 310.312 122.614 310.008 122.486 309.76C122.358 309.512 122.174 309.32 121.934 309.184C121.702 309.04 121.434 308.968 121.13 308.968C120.826 308.968 120.554 309.04 120.314 309.184C120.082 309.32 119.898 309.516 119.762 309.772C119.626 310.02 119.558 310.32 119.558 310.672V314.5H118.442Z" fill="#475569"/>
<path d="M155.995 314.5V306.64H153.571V305.56H159.571V306.64H157.183V314.5H155.995ZM162.385 314.644C161.921 314.644 161.501 314.536 161.125 314.32C160.757 314.104 160.469 313.804 160.261 313.42C160.061 313.028 159.961 312.58 159.961 312.076V308.032H161.077V311.956C161.077 312.276 161.141 312.556 161.269 312.796C161.405 313.036 161.589 313.224 161.821 313.36C162.061 313.496 162.333 313.564 162.637 313.564C162.941 313.564 163.209 313.496 163.441 313.36C163.681 313.224 163.865 313.028 163.993 312.772C164.129 312.516 164.197 312.212 164.197 311.86V308.032H165.325V314.5H164.233V313.24L164.413 313.348C164.261 313.756 164.001 314.076 163.633 314.308C163.273 314.532 162.857 314.644 162.385 314.644ZM170.029 314.644C169.405 314.644 168.849 314.496 168.361 314.2C167.873 313.904 167.489 313.5 167.209 312.988C166.929 312.468 166.789 311.888 166.789 311.248C166.789 310.6 166.925 310.024 167.197 309.52C167.477 309.016 167.853 308.62 168.325 308.332C168.805 308.036 169.341 307.888 169.933 307.888C170.413 307.888 170.837 307.976 171.205 308.152C171.581 308.32 171.897 308.552 172.153 308.848C172.417 309.136 172.617 309.468 172.753 309.844C172.897 310.212 172.969 310.596 172.969 310.996C172.969 311.084 172.961 311.184 172.945 311.296C172.937 311.4 172.925 311.5 172.909 311.596H167.605V310.636H172.261L171.733 311.068C171.805 310.652 171.765 310.28 171.613 309.952C171.461 309.624 171.237 309.364 170.941 309.172C170.645 308.98 170.309 308.884 169.933 308.884C169.557 308.884 169.213 308.98 168.901 309.172C168.589 309.364 168.345 309.64 168.169 310C168.001 310.352 167.933 310.772 167.965 311.26C167.933 311.732 168.005 312.148 168.181 312.508C168.365 312.86 168.621 313.136 168.949 313.336C169.285 313.528 169.649 313.624 170.041 313.624C170.473 313.624 170.837 313.524 171.133 313.324C171.429 313.124 171.669 312.868 171.853 312.556L172.789 313.036C172.661 313.332 172.461 313.604 172.189 313.852C171.925 314.092 171.609 314.284 171.241 314.428C170.881 314.572 170.477 314.644 170.029 314.644Z" fill="#475569"/>
<path d="M204.687 314.5L202.179 305.56H203.415L205.515 313.432H205.227L207.411 305.56H208.647L210.819 313.432H210.519L212.631 305.56H213.867L211.359 314.5H210.051L207.867 306.664H208.179L205.995 314.5H204.687ZM217.395 314.644C216.771 314.644 216.215 314.496 215.727 314.2C215.239 313.904 214.855 313.5 214.575 312.988C214.295 312.468 214.155 311.888 214.155 311.248C214.155 310.6 214.291 310.024 214.563 309.52C214.843 309.016 215.219 308.62 215.691 308.332C216.171 308.036 216.707 307.888 217.299 307.888C217.779 307.888 218.203 307.976 218.571 308.152C218.947 308.32 219.263 308.552 219.519 308.848C219.783 309.136 219.983 309.468 220.119 309.844C220.263 310.212 220.335 310.596 220.335 310.996C220.335 311.084 220.327 311.184 220.311 311.296C220.303 311.4 220.291 311.5 220.275 311.596H214.971V310.636H219.627L219.099 311.068C219.171 310.652 219.131 310.28 218.979 309.952C218.827 309.624 218.603 309.364 218.307 309.172C218.011 308.98 217.675 308.884 217.299 308.884C216.923 308.884 216.579 308.98 216.267 309.172C215.955 309.364 215.711 309.64 215.535 310C215.367 310.352 215.299 310.772 215.331 311.26C215.299 311.732 215.371 312.148 215.547 312.508C215.731 312.86 215.987 313.136 216.315 313.336C216.651 313.528 217.015 313.624 217.407 313.624C217.839 313.624 218.203 313.524 218.499 313.324C218.795 313.124 219.035 312.868 219.219 312.556L220.155 313.036C220.027 313.332 219.827 313.604 219.555 313.852C219.291 314.092 218.975 314.284 218.607 314.428C218.247 314.572 217.843 314.644 217.395 314.644ZM224.73 314.644C224.122 314.644 223.574 314.496 223.086 314.2C222.606 313.904 222.226 313.5 221.946 312.988C221.666 312.476 221.526 311.904 221.526 311.272C221.526 310.624 221.666 310.048 221.946 309.544C222.226 309.032 222.606 308.628 223.086 308.332C223.574 308.036 224.122 307.888 224.73 307.888C225.266 307.888 225.742 308.004 226.158 308.236C226.574 308.46 226.902 308.764 227.142 309.148L226.962 309.424V305.416H228.09V314.5H226.998V313.12L227.142 313.312C226.918 313.736 226.59 314.064 226.158 314.296C225.734 314.528 225.258 314.644 224.73 314.644ZM224.826 313.564C225.234 313.564 225.598 313.464 225.918 313.264C226.238 313.064 226.49 312.792 226.674 312.448C226.866 312.096 226.962 311.704 226.962 311.272C226.962 310.832 226.866 310.44 226.674 310.096C226.49 309.744 226.238 309.468 225.918 309.268C225.598 309.068 225.234 308.968 224.826 308.968C224.426 308.968 224.062 309.072 223.734 309.28C223.414 309.48 223.162 309.752 222.978 310.096C222.794 310.432 222.702 310.824 222.702 311.272C222.702 311.704 222.794 312.096 222.978 312.448C223.162 312.792 223.414 313.064 223.734 313.264C224.054 313.464 224.418 313.564 224.826 313.564Z" fill="#475569"/>
<path d="M259.96 314.5V306.64H257.536V305.56H263.536V306.64H261.148V314.5H259.96ZM264.538 314.5V305.416H265.654V309.292L265.45 309.184C265.61 308.776 265.866 308.46 266.218 308.236C266.578 308.004 266.998 307.888 267.478 307.888C267.942 307.888 268.354 307.992 268.714 308.2C269.082 308.408 269.37 308.696 269.578 309.064C269.794 309.432 269.902 309.848 269.902 310.312V314.5H268.774V310.672C268.774 310.312 268.706 310.008 268.57 309.76C268.442 309.512 268.262 309.32 268.03 309.184C267.798 309.04 267.53 308.968 267.226 308.968C266.93 308.968 266.662 309.04 266.422 309.184C266.182 309.32 265.994 309.516 265.858 309.772C265.722 310.02 265.654 310.32 265.654 310.672V314.5H264.538ZM273.791 314.644C273.327 314.644 272.907 314.536 272.531 314.32C272.163 314.104 271.875 313.804 271.667 313.42C271.467 313.028 271.367 312.58 271.367 312.076V308.032H272.483V311.956C272.483 312.276 272.547 312.556 272.675 312.796C272.811 313.036 272.995 313.224 273.227 313.36C273.467 313.496 273.739 313.564 274.043 313.564C274.347 313.564 274.615 313.496 274.847 313.36C275.087 313.224 275.271 313.028 275.399 312.772C275.535 312.516 275.603 312.212 275.603 311.86V308.032H276.731V314.5H275.639V313.24L275.819 313.348C275.667 313.756 275.407 314.076 275.039 314.308C274.679 314.532 274.263 314.644 273.791 314.644Z" fill="#475569"/>
<path d="M307.158 314.5V305.56H312.822V306.64H308.334V309.532H312.402V310.612H308.334V314.5H307.158ZM313.659 314.5V308.032H314.751V309.22L314.631 309.052C314.783 308.684 315.015 308.412 315.327 308.236C315.639 308.052 316.019 307.96 316.467 307.96H316.863V309.016H316.299C315.843 309.016 315.475 309.16 315.195 309.448C314.915 309.728 314.775 310.128 314.775 310.648V314.5H313.659ZM317.854 314.5V308.032H318.97V314.5H317.854ZM317.854 307V305.56H318.97V307H317.854Z" fill="#475569"/>
<path d="M352.506 314.644C351.938 314.644 351.418 314.54 350.946 314.332C350.474 314.116 350.074 313.824 349.746 313.456C349.418 313.088 349.182 312.676 349.038 312.22L350.058 311.8C350.274 312.376 350.594 312.82 351.018 313.132C351.45 313.436 351.954 313.588 352.53 313.588C352.882 313.588 353.19 313.532 353.454 313.42C353.718 313.308 353.922 313.152 354.066 312.952C354.218 312.744 354.294 312.504 354.294 312.232C354.294 311.856 354.186 311.56 353.97 311.344C353.762 311.12 353.454 310.952 353.046 310.84L351.402 310.336C350.754 310.136 350.258 309.82 349.914 309.388C349.57 308.956 349.398 308.46 349.398 307.9C349.398 307.412 349.514 306.984 349.746 306.616C349.986 306.24 350.314 305.948 350.73 305.74C351.154 305.524 351.634 305.416 352.17 305.416C352.706 305.416 353.19 305.512 353.622 305.704C354.062 305.896 354.434 306.156 354.738 306.484C355.042 306.804 355.266 307.172 355.41 307.588L354.402 308.008C354.21 307.504 353.922 307.124 353.538 306.868C353.154 306.604 352.702 306.472 352.182 306.472C351.862 306.472 351.578 306.528 351.33 306.64C351.09 306.744 350.902 306.9 350.766 307.108C350.638 307.308 350.574 307.548 350.574 307.828C350.574 308.156 350.678 308.448 350.886 308.704C351.094 308.96 351.41 309.156 351.834 309.292L353.334 309.736C354.038 309.952 354.57 310.26 354.93 310.66C355.29 311.06 355.47 311.556 355.47 312.148C355.47 312.636 355.342 313.068 355.086 313.444C354.838 313.82 354.49 314.116 354.042 314.332C353.602 314.54 353.09 314.644 352.506 314.644ZM358.78 314.644C358.356 314.644 357.98 314.568 357.652 314.416C357.332 314.256 357.08 314.04 356.896 313.768C356.712 313.488 356.62 313.168 356.62 312.808C356.62 312.464 356.692 312.156 356.836 311.884C356.988 311.604 357.22 311.368 357.532 311.176C357.852 310.984 358.252 310.848 358.732 310.768L361.132 310.372V311.308L358.984 311.668C358.568 311.74 358.264 311.872 358.072 312.064C357.888 312.256 357.796 312.492 357.796 312.772C357.796 313.036 357.9 313.256 358.108 313.432C358.324 313.608 358.592 313.696 358.912 313.696C359.32 313.696 359.672 313.612 359.968 313.444C360.272 313.268 360.508 313.032 360.676 312.736C360.852 312.44 360.94 312.112 360.94 311.752V310.108C360.94 309.756 360.808 309.472 360.544 309.256C360.288 309.032 359.948 308.92 359.524 308.92C359.156 308.92 358.828 309.016 358.54 309.208C358.26 309.392 358.052 309.64 357.916 309.952L356.944 309.448C357.064 309.152 357.256 308.888 357.52 308.656C357.784 308.416 358.092 308.228 358.444 308.092C358.796 307.956 359.164 307.888 359.548 307.888C360.044 307.888 360.48 307.984 360.856 308.176C361.232 308.36 361.524 308.62 361.732 308.956C361.948 309.284 362.056 309.668 362.056 310.108V314.5H360.964V313.276L361.168 313.348C361.032 313.604 360.848 313.828 360.616 314.02C360.384 314.212 360.112 314.364 359.8 314.476C359.488 314.588 359.148 314.644 358.78 314.644ZM366.297 314.572C365.665 314.572 365.177 314.392 364.833 314.032C364.497 313.672 364.329 313.164 364.329 312.508V309.1H363.153V308.032H363.393C363.681 308.032 363.909 307.944 364.077 307.768C364.245 307.592 364.329 307.36 364.329 307.072V306.544H365.445V308.032H366.897V309.1H365.445V312.472C365.445 312.688 365.477 312.876 365.541 313.036C365.613 313.196 365.729 313.324 365.889 313.42C366.049 313.508 366.261 313.552 366.525 313.552C366.581 313.552 366.649 313.548 366.729 313.54C366.817 313.532 366.897 313.524 366.969 313.516V314.5C366.865 314.524 366.749 314.54 366.621 314.548C366.493 314.564 366.385 314.572 366.297 314.572Z" fill="#475569"/>
<path d="M19.78 156.644C19.18 156.644 18.648 156.524 18.184 156.284C17.728 156.044 17.368 155.72 17.104 155.312C16.848 154.896 16.72 154.432 16.72 153.92C16.72 153.344 16.88 152.84 17.2 152.408C17.52 151.976 17.96 151.668 18.52 151.484L18.496 151.784C18.072 151.616 17.74 151.348 17.5 150.98C17.268 150.604 17.152 150.2 17.152 149.768C17.152 149.312 17.264 148.908 17.488 148.556C17.72 148.204 18.032 147.928 18.424 147.728C18.824 147.52 19.276 147.416 19.78 147.416C20.284 147.416 20.732 147.516 21.124 147.716C21.516 147.916 21.824 148.196 22.048 148.556C22.28 148.908 22.396 149.312 22.396 149.768C22.396 150.224 22.272 150.632 22.024 150.992C21.784 151.352 21.464 151.62 21.064 151.796L21.028 151.484C21.596 151.668 22.04 151.98 22.36 152.42C22.68 152.852 22.84 153.352 22.84 153.92C22.84 154.432 22.708 154.896 22.444 155.312C22.188 155.72 21.828 156.044 21.364 156.284C20.908 156.524 20.38 156.644 19.78 156.644ZM19.78 155.624C20.156 155.624 20.484 155.552 20.764 155.408C21.044 155.264 21.26 155.064 21.412 154.808C21.572 154.544 21.652 154.244 21.652 153.908C21.652 153.564 21.572 153.264 21.412 153.008C21.26 152.744 21.044 152.544 20.764 152.408C20.484 152.264 20.156 152.192 19.78 152.192C19.404 152.192 19.072 152.264 18.784 152.408C18.504 152.544 18.288 152.744 18.136 153.008C17.984 153.264 17.908 153.564 17.908 153.908C17.908 154.244 17.984 154.544 18.136 154.808C18.288 155.064 18.504 155.264 18.784 155.408C19.072 155.552 19.404 155.624 19.78 155.624ZM19.78 151.172C20.052 151.172 20.292 151.112 20.5 150.992C20.716 150.872 20.888 150.712 21.016 150.512C21.144 150.304 21.208 150.064 21.208 149.792C21.208 149.52 21.144 149.284 21.016 149.084C20.888 148.884 20.716 148.728 20.5 148.616C20.292 148.496 20.052 148.436 19.78 148.436C19.5 148.436 19.252 148.496 19.036 148.616C18.82 148.728 18.648 148.884 18.52 149.084C18.392 149.284 18.328 149.52 18.328 149.792C18.328 150.064 18.392 150.304 18.52 150.512C18.648 150.712 18.82 150.872 19.036 150.992C19.252 151.112 19.5 151.172 19.78 151.172ZM27.9029 156.644C27.1909 156.644 26.5669 156.452 26.0309 156.068C25.5029 155.676 25.0909 155.136 24.7949 154.448C24.4989 153.752 24.3509 152.944 24.3509 152.024C24.3509 151.104 24.4989 150.3 24.7949 149.612C25.0909 148.916 25.5029 148.376 26.0309 147.992C26.5589 147.608 27.1789 147.416 27.8909 147.416C28.6029 147.416 29.2229 147.608 29.7509 147.992C30.2789 148.376 30.6909 148.916 30.9869 149.612C31.2909 150.3 31.4429 151.104 31.4429 152.024C31.4429 152.944 31.2949 153.752 30.9989 154.448C30.7029 155.144 30.2869 155.684 29.7509 156.068C29.2229 156.452 28.6069 156.644 27.9029 156.644ZM27.9029 155.552C28.3829 155.552 28.7989 155.408 29.1509 155.12C29.5029 154.824 29.7749 154.412 29.9669 153.884C30.1669 153.356 30.2669 152.736 30.2669 152.024C30.2669 151.312 30.1669 150.692 29.9669 150.164C29.7749 149.636 29.4989 149.228 29.1389 148.94C28.7869 148.652 28.3709 148.508 27.8909 148.508C27.4109 148.508 26.9949 148.652 26.6429 148.94C26.2909 149.228 26.0149 149.636 25.8149 150.164C25.6229 150.692 25.5269 151.312 25.5269 152.024C25.5269 152.728 25.6229 153.344 25.8149 153.872C26.0149 154.4 26.2909 154.812 26.6429 155.108C27.0029 155.404 27.4229 155.552 27.9029 155.552ZM33.0945 156.5V147.416H34.2105V153.644L33.7545 153.536L37.1865 150.032H38.6145L36.1305 152.636L38.7825 156.5H37.4625L35.0385 152.996L35.7345 152.96L33.8505 154.928L34.2105 154.112V156.5H33.0945Z" fill="#475569"/>
<path d="M19.6 190.644C19.136 190.644 18.7 190.564 18.292 190.404C17.884 190.236 17.528 190 17.224 189.696C16.928 189.384 16.712 189.02 16.576 188.604L17.536 188.196C17.704 188.636 17.976 188.98 18.352 189.228C18.736 189.468 19.152 189.588 19.6 189.588C19.968 189.588 20.292 189.508 20.572 189.348C20.86 189.18 21.084 188.952 21.244 188.664C21.404 188.368 21.484 188.04 21.484 187.68C21.484 187.304 21.4 186.972 21.232 186.684C21.072 186.396 20.852 186.172 20.572 186.012C20.292 185.844 19.972 185.76 19.612 185.76C19.244 185.76 18.908 185.844 18.604 186.012C18.3 186.18 18.08 186.392 17.944 186.648L16.996 186.444L17.68 181.56H22.312V182.58H18.124L18.58 182.124L18.052 185.916L17.644 185.676C17.908 185.34 18.216 185.1 18.568 184.956C18.928 184.804 19.316 184.728 19.732 184.728C20.316 184.728 20.828 184.86 21.268 185.124C21.708 185.388 22.052 185.74 22.3 186.18C22.548 186.62 22.672 187.12 22.672 187.68C22.672 188.24 22.536 188.744 22.264 189.192C22 189.64 21.636 189.996 21.172 190.26C20.716 190.516 20.192 190.644 19.6 190.644ZM27.7505 190.644C27.0385 190.644 26.4145 190.452 25.8785 190.068C25.3505 189.676 24.9385 189.136 24.6425 188.448C24.3465 187.752 24.1985 186.944 24.1985 186.024C24.1985 185.104 24.3465 184.3 24.6425 183.612C24.9385 182.916 25.3505 182.376 25.8785 181.992C26.4065 181.608 27.0265 181.416 27.7385 181.416C28.4505 181.416 29.0705 181.608 29.5985 181.992C30.1265 182.376 30.5385 182.916 30.8345 183.612C31.1385 184.3 31.2905 185.104 31.2905 186.024C31.2905 186.944 31.1425 187.752 30.8465 188.448C30.5505 189.144 30.1345 189.684 29.5985 190.068C29.0705 190.452 28.4545 190.644 27.7505 190.644ZM27.7505 189.552C28.2305 189.552 28.6465 189.408 28.9985 189.12C29.3505 188.824 29.6225 188.412 29.8145 187.884C30.0145 187.356 30.1145 186.736 30.1145 186.024C30.1145 185.312 30.0145 184.692 29.8145 184.164C29.6225 183.636 29.3465 183.228 28.9865 182.94C28.6345 182.652 28.2185 182.508 27.7385 182.508C27.2585 182.508 26.8425 182.652 26.4905 182.94C26.1385 183.228 25.8625 183.636 25.6625 184.164C25.4705 184.692 25.3745 185.312 25.3745 186.024C25.3745 186.728 25.4705 187.344 25.6625 187.872C25.8625 188.4 26.1385 188.812 26.4905 189.108C26.8505 189.404 27.2705 189.552 27.7505 189.552ZM32.9421 190.5V181.416H34.0581V187.644L33.6021 187.536L37.0341 184.032H38.4621L35.9781 186.636L38.6301 190.5H37.3101L34.8861 186.996L35.5821 186.96L33.6981 188.928L34.0581 188.112V190.5H32.9421Z" fill="#475569"/>
<path d="M19.528 224.644C19.056 224.644 18.616 224.56 18.208 224.392C17.8 224.224 17.448 223.988 17.152 223.684C16.856 223.372 16.636 223.004 16.492 222.58L17.488 222.172C17.656 222.62 17.92 222.968 18.28 223.216C18.64 223.464 19.056 223.588 19.528 223.588C19.896 223.588 20.224 223.516 20.512 223.372C20.8 223.228 21.024 223.02 21.184 222.748C21.352 222.476 21.436 222.148 21.436 221.764C21.436 221.372 21.352 221.044 21.184 220.78C21.024 220.508 20.8 220.3 20.512 220.156C20.224 220.012 19.892 219.94 19.516 219.94C19.396 219.94 19.264 219.948 19.12 219.964C18.984 219.98 18.868 220.004 18.772 220.036L18.52 219.496L20.908 216.58H16.948V215.56H22.24V216.544L19.96 219.352L19.888 219.04C20.424 219.056 20.896 219.18 21.304 219.412C21.712 219.644 22.032 219.96 22.264 220.36C22.496 220.752 22.612 221.212 22.612 221.74C22.612 222.284 22.48 222.776 22.216 223.216C21.952 223.656 21.588 224.004 21.124 224.26C20.66 224.516 20.128 224.644 19.528 224.644ZM27.6802 224.644C26.9682 224.644 26.3442 224.452 25.8082 224.068C25.2802 223.676 24.8682 223.136 24.5722 222.448C24.2762 221.752 24.1282 220.944 24.1282 220.024C24.1282 219.104 24.2762 218.3 24.5722 217.612C24.8682 216.916 25.2802 216.376 25.8082 215.992C26.3362 215.608 26.9562 215.416 27.6682 215.416C28.3802 215.416 29.0002 215.608 29.5282 215.992C30.0562 216.376 30.4682 216.916 30.7642 217.612C31.0682 218.3 31.2202 219.104 31.2202 220.024C31.2202 220.944 31.0722 221.752 30.7762 222.448C30.4802 223.144 30.0642 223.684 29.5282 224.068C29.0002 224.452 28.3842 224.644 27.6802 224.644ZM27.6802 223.552C28.1602 223.552 28.5762 223.408 28.9282 223.12C29.2802 222.824 29.5522 222.412 29.7442 221.884C29.9442 221.356 30.0442 220.736 30.0442 220.024C30.0442 219.312 29.9442 218.692 29.7442 218.164C29.5522 217.636 29.2762 217.228 28.9162 216.94C28.5642 216.652 28.1482 216.508 27.6682 216.508C27.1882 216.508 26.7722 216.652 26.4202 216.94C26.0682 217.228 25.7922 217.636 25.5922 218.164C25.4002 218.692 25.3042 219.312 25.3042 220.024C25.3042 220.728 25.4002 221.344 25.5922 221.872C25.7922 222.4 26.0682 222.812 26.4202 223.108C26.7802 223.404 27.2002 223.552 27.6802 223.552ZM32.8718 224.5V215.416H33.9878V221.644L33.5318 221.536L36.9638 218.032H38.3918L35.9078 220.636L38.5598 224.5H37.2398L34.8158 220.996L35.5118 220.96L33.6278 222.928L33.9878 222.112V224.5H32.8718Z" fill="#475569"/>
<path d="M18.136 258.5V250.58H16.444V249.56H19.324V258.5H18.136ZM24.182 258.644C23.718 258.644 23.282 258.564 22.874 258.404C22.466 258.236 22.11 258 21.806 257.696C21.51 257.384 21.294 257.02 21.158 256.604L22.118 256.196C22.286 256.636 22.558 256.98 22.934 257.228C23.318 257.468 23.734 257.588 24.182 257.588C24.55 257.588 24.874 257.508 25.154 257.348C25.442 257.18 25.666 256.952 25.826 256.664C25.986 256.368 26.066 256.04 26.066 255.68C26.066 255.304 25.982 254.972 25.814 254.684C25.654 254.396 25.434 254.172 25.154 254.012C24.874 253.844 24.554 253.76 24.194 253.76C23.826 253.76 23.49 253.844 23.186 254.012C22.882 254.18 22.662 254.392 22.526 254.648L21.578 254.444L22.262 249.56H26.894V250.58H22.706L23.162 250.124L22.634 253.916L22.226 253.676C22.49 253.34 22.798 253.1 23.15 252.956C23.51 252.804 23.898 252.728 24.314 252.728C24.898 252.728 25.41 252.86 25.85 253.124C26.29 253.388 26.634 253.74 26.882 254.18C27.13 254.62 27.254 255.12 27.254 255.68C27.254 256.24 27.118 256.744 26.846 257.192C26.582 257.64 26.218 257.996 25.754 258.26C25.298 258.516 24.774 258.644 24.182 258.644ZM28.8406 258.5V249.416H29.9566V255.644L29.5006 255.536L32.9326 252.032H34.3606L31.8766 254.636L34.5286 258.5H33.2086L30.7846 254.996L31.4806 254.96L29.5966 256.928L29.9566 256.112V258.5H28.8406Z" fill="#475569"/>
<path d="M20.356 292.644C19.644 292.644 19.02 292.452 18.484 292.068C17.956 291.676 17.544 291.136 17.248 290.448C16.952 289.752 16.804 288.944 16.804 288.024C16.804 287.104 16.952 286.3 17.248 285.612C17.544 284.916 17.956 284.376 18.484 283.992C19.012 283.608 19.632 283.416 20.344 283.416C21.056 283.416 21.676 283.608 22.204 283.992C22.732 284.376 23.144 284.916 23.44 285.612C23.744 286.3 23.896 287.104 23.896 288.024C23.896 288.944 23.748 289.752 23.452 290.448C23.156 291.144 22.74 291.684 22.204 292.068C21.676 292.452 21.06 292.644 20.356 292.644ZM20.356 291.552C20.836 291.552 21.252 291.408 21.604 291.12C21.956 290.824 22.228 290.412 22.42 289.884C22.62 289.356 22.72 288.736 22.72 288.024C22.72 287.312 22.62 286.692 22.42 286.164C22.228 285.636 21.952 285.228 21.592 284.94C21.24 284.652 20.824 284.508 20.344 284.508C19.864 284.508 19.448 284.652 19.096 284.94C18.744 285.228 18.468 285.636 18.268 286.164C18.076 286.692 17.98 287.312 17.98 288.024C17.98 288.728 18.076 289.344 18.268 289.872C18.468 290.4 18.744 290.812 19.096 291.108C19.456 291.404 19.876 291.552 20.356 291.552Z" fill="#475569"/>
</svg>
