<svg width="580" height="226" viewBox="0 0 580 226" fill="none" xmlns="http://www.w3.org/2000/svg">
<g clip-path="url(#clip0_2720_21461)">
<rect width="580" height="225" transform="translate(0 0.486816)" fill="#F9F9F9"/>
<rect y="0.486816" width="580" height="225" rx="8" fill="#F9F9F9"/>
<g clip-path="url(#clip1_2720_21461)">
<path d="M164 23.8022C164 18.9409 167.941 15 172.802 15H406.354C411.215 15 415.156 18.9409 415.156 23.8022V282H164V23.8022Z" fill="#FEFEFE"/>
<mask id="path-3-inside-1_2720_21461" fill="white">
<path d="M164 220.548H415.156V285.098H164V220.548Z"/>
</mask>
<path d="M164 220.548H415.156V285.098H164V220.548Z" fill="#FEFEFE"/>
<path d="M164 221.135H415.156V219.962H164V221.135Z" fill="#E2E8F0" mask="url(#path-3-inside-1_2720_21461)"/>
<mask id="path-5-inside-2_2720_21461" fill="white">
<path d="M164 15H415.156V64.7956H164V15Z"/>
</mask>
<path d="M164 15H415.156V64.7956H164V15Z" fill="#FEFEFE"/>
<path d="M415.156 64.2088H164V65.3824H415.156V64.2088Z" fill="#E2E8F0" mask="url(#path-5-inside-2_2720_21461)"/>
<rect x="275.494" y="24.389" width="28.167" height="2.93407" rx="1.46703" fill="#E2E8F0"/>
<path d="M217.335 53.4066L220.352 44.6631H222.417L225.433 53.4066H223.697L223.074 51.5288H219.694L219.061 53.4066H217.335ZM220.152 50.1204H222.617L221.161 45.7663H221.607L220.152 50.1204ZM229.018 53.5474C228.399 53.5474 227.848 53.4027 227.363 53.1132C226.878 52.8159 226.494 52.4129 226.213 51.9043C225.931 51.3958 225.79 50.8324 225.79 50.2143C225.79 49.5884 225.931 49.025 226.213 48.5243C226.494 48.0236 226.878 47.6245 227.363 47.3272C227.856 47.0299 228.403 46.8812 229.006 46.8812C229.491 46.8812 229.921 46.979 230.297 47.1746C230.68 47.3624 230.981 47.6284 231.2 47.9727L230.966 48.2896V44.5222H232.503V53.4066H231.048V52.1743L231.212 52.4794C230.993 52.8237 230.688 53.0897 230.297 53.2775C229.906 53.4574 229.479 53.5474 229.018 53.5474ZM229.182 52.1391C229.534 52.1391 229.843 52.0569 230.109 51.8926C230.375 51.7283 230.582 51.5014 230.731 51.2119C230.888 50.9224 230.966 50.5899 230.966 50.2143C230.966 49.8466 230.888 49.518 230.731 49.2285C230.582 48.9312 230.375 48.7003 230.109 48.536C229.843 48.3717 229.534 48.2896 229.182 48.2896C228.838 48.2896 228.529 48.3756 228.255 48.5478C227.981 48.7121 227.766 48.939 227.609 49.2285C227.461 49.5101 227.386 49.8388 227.386 50.2143C227.386 50.5899 227.461 50.9224 227.609 51.2119C227.766 51.5014 227.981 51.7283 228.255 51.8926C228.529 52.0569 228.838 52.1391 229.182 52.1391ZM236.903 53.5474C236.285 53.5474 235.733 53.4027 235.248 53.1132C234.763 52.8159 234.38 52.4129 234.098 51.9043C233.816 51.3958 233.675 50.8324 233.675 50.2143C233.675 49.5884 233.816 49.025 234.098 48.5243C234.38 48.0236 234.763 47.6245 235.248 47.3272C235.741 47.0299 236.289 46.8812 236.891 46.8812C237.376 46.8812 237.807 46.979 238.182 47.1746C238.565 47.3624 238.867 47.6284 239.086 47.9727L238.851 48.2896V44.5222H240.389V53.4066H238.933V52.1743L239.098 52.4794C238.878 52.8237 238.573 53.0897 238.182 53.2775C237.791 53.4574 237.364 53.5474 236.903 53.5474ZM237.067 52.1391C237.419 52.1391 237.728 52.0569 237.994 51.8926C238.26 51.7283 238.468 51.5014 238.616 51.2119C238.773 50.9224 238.851 50.5899 238.851 50.2143C238.851 49.8466 238.773 49.518 238.616 49.2285C238.468 48.9312 238.26 48.7003 237.994 48.536C237.728 48.3717 237.419 48.2896 237.067 48.2896C236.723 48.2896 236.414 48.3756 236.14 48.5478C235.866 48.7121 235.651 48.939 235.494 49.2285C235.346 49.5101 235.272 49.8388 235.272 50.2143C235.272 50.5899 235.346 50.9224 235.494 51.2119C235.651 51.5014 235.866 51.7283 236.14 51.8926C236.414 52.0569 236.723 52.1391 237.067 52.1391ZM248.142 53.5474C247.516 53.5474 246.937 53.434 246.405 53.2071C245.88 52.9802 245.419 52.6633 245.02 52.2564C244.629 51.8496 244.323 51.3723 244.104 50.8246C243.885 50.2769 243.776 49.6784 243.776 49.029C243.776 48.3796 243.881 47.781 244.093 47.2333C244.312 46.6778 244.617 46.2005 245.008 45.8015C245.407 45.3946 245.873 45.0817 246.405 44.8626C246.937 44.6357 247.516 44.5222 248.142 44.5222C248.768 44.5222 249.327 44.6279 249.82 44.8391C250.321 45.0504 250.743 45.332 251.087 45.6841C251.432 46.0284 251.678 46.4079 251.827 46.8225L250.395 47.4915C250.231 47.0534 249.953 46.6934 249.562 46.4118C249.17 46.1223 248.697 45.9775 248.142 45.9775C247.594 45.9775 247.109 46.1066 246.686 46.3648C246.272 46.623 245.947 46.979 245.712 47.4328C245.485 47.8866 245.372 48.4187 245.372 49.029C245.372 49.6392 245.485 50.1752 245.712 50.6368C245.947 51.0906 246.272 51.4466 246.686 51.7048C247.109 51.963 247.594 52.0921 248.142 52.0921C248.697 52.0921 249.17 51.9513 249.562 51.6696C249.953 51.3801 250.231 51.0163 250.395 50.5781L251.827 51.2471C251.678 51.6618 251.432 52.0452 251.087 52.3973C250.743 52.7415 250.321 53.0193 249.82 53.2305C249.327 53.4418 248.768 53.5474 248.142 53.5474ZM256.001 53.5474C255.375 53.5474 254.804 53.4027 254.287 53.1132C253.779 52.8237 253.372 52.4286 253.067 51.9278C252.769 51.4271 252.621 50.8559 252.621 50.2143C252.621 49.5727 252.769 49.0016 253.067 48.5008C253.372 48.0001 253.779 47.605 254.287 47.3155C254.796 47.026 255.367 46.8812 256.001 46.8812C256.627 46.8812 257.194 47.026 257.703 47.3155C258.211 47.605 258.614 48.0001 258.911 48.5008C259.217 48.9938 259.369 49.5649 259.369 50.2143C259.369 50.8559 259.217 51.4271 258.911 51.9278C258.606 52.4286 258.199 52.8237 257.691 53.1132C257.182 53.4027 256.619 53.5474 256.001 53.5474ZM256.001 52.1391C256.345 52.1391 256.646 52.0569 256.904 51.8926C257.17 51.7283 257.378 51.5014 257.526 51.2119C257.683 50.9146 257.761 50.5821 257.761 50.2143C257.761 49.8388 257.683 49.5101 257.526 49.2285C257.378 48.939 257.17 48.7121 256.904 48.5478C256.646 48.3756 256.345 48.2896 256.001 48.2896C255.649 48.2896 255.34 48.3756 255.074 48.5478C254.808 48.7121 254.596 48.939 254.44 49.2285C254.291 49.5101 254.217 49.8388 254.217 50.2143C254.217 50.5821 254.291 50.9146 254.44 51.2119C254.596 51.5014 254.808 51.7283 255.074 51.8926C255.34 52.0569 255.649 52.1391 256.001 52.1391ZM263.657 53.5474C263.031 53.5474 262.46 53.4027 261.943 53.1132C261.435 52.8237 261.028 52.4286 260.723 51.9278C260.425 51.4271 260.277 50.8559 260.277 50.2143C260.277 49.5727 260.425 49.0016 260.723 48.5008C261.028 48.0001 261.435 47.605 261.943 47.3155C262.452 47.026 263.023 46.8812 263.657 46.8812C264.283 46.8812 264.85 47.026 265.359 47.3155C265.867 47.605 266.27 48.0001 266.567 48.5008C266.873 48.9938 267.025 49.5649 267.025 50.2143C267.025 50.8559 266.873 51.4271 266.567 51.9278C266.262 52.4286 265.855 52.8237 265.347 53.1132C264.838 53.4027 264.275 53.5474 263.657 53.5474ZM263.657 52.1391C264.001 52.1391 264.302 52.0569 264.561 51.8926C264.827 51.7283 265.034 51.5014 265.183 51.2119C265.339 50.9146 265.417 50.5821 265.417 50.2143C265.417 49.8388 265.339 49.5101 265.183 49.2285C265.034 48.939 264.827 48.7121 264.561 48.5478C264.302 48.3756 264.001 48.2896 263.657 48.2896C263.305 48.2896 262.996 48.3756 262.73 48.5478C262.464 48.7121 262.252 48.939 262.096 49.2285C261.947 49.5101 261.873 49.8388 261.873 50.2143C261.873 50.5821 261.947 50.9146 262.096 51.2119C262.252 51.5014 262.464 51.7283 262.73 51.8926C262.996 52.0569 263.305 52.1391 263.657 52.1391ZM268.191 53.4066V44.5222H269.729V50.3434L269.142 50.1674L272.146 47.0221H274.059L271.7 49.5923L274.106 53.4066H272.346L270.257 50.097L271.172 49.9092L269.247 51.9748L269.729 51.0359V53.4066H268.191ZM274.965 53.4066V47.0221H276.502V53.4066H274.965ZM274.965 46.3061V44.6631H276.502V46.3061H274.965ZM277.922 53.4066V47.0221H279.365V48.2778L279.248 48.0548C279.396 47.6715 279.639 47.382 279.975 47.1864C280.32 46.9829 280.719 46.8812 281.173 46.8812C281.642 46.8812 282.057 46.9829 282.417 47.1864C282.784 47.3898 283.07 47.6754 283.273 48.0431C283.477 48.403 283.579 48.8216 283.579 49.2989V53.4066H282.041V49.6627C282.041 49.381 281.986 49.1385 281.877 48.9351C281.767 48.7316 281.615 48.5752 281.419 48.4656C281.231 48.3483 281.008 48.2896 280.75 48.2896C280.5 48.2896 280.277 48.3483 280.081 48.4656C279.886 48.5752 279.733 48.7316 279.623 48.9351C279.514 49.1385 279.459 49.381 279.459 49.6627V53.4066H277.922ZM287.977 55.9886C287.5 55.9886 287.058 55.9103 286.651 55.7538C286.244 55.5974 285.892 55.3783 285.594 55.0966C285.305 54.8228 285.094 54.4981 284.961 54.1225L286.393 53.5826C286.486 53.8799 286.67 54.1186 286.944 54.2985C287.226 54.4863 287.57 54.5802 287.977 54.5802C288.29 54.5802 288.564 54.5215 288.798 54.4042C289.041 54.2868 289.229 54.1147 289.362 53.8878C289.495 53.6687 289.561 53.4027 289.561 53.0897V51.6344L289.855 51.9865C289.636 52.3699 289.342 52.6594 288.975 52.855C288.607 53.0506 288.188 53.1484 287.719 53.1484C287.124 53.1484 286.592 53.0115 286.123 52.7376C285.653 52.4638 285.285 52.0882 285.019 51.6109C284.753 51.1337 284.62 50.5977 284.62 50.0031C284.62 49.4006 284.753 48.8647 285.019 48.3952C285.285 47.9258 285.649 47.558 286.111 47.292C286.573 47.0181 287.097 46.8812 287.684 46.8812C288.161 46.8812 288.579 46.9829 288.939 47.1864C289.307 47.382 289.612 47.6676 289.855 48.0431L289.644 48.4304V47.0221H291.099V53.0897C291.099 53.6452 290.962 54.1421 290.688 54.5802C290.422 55.0184 290.054 55.3626 289.585 55.613C289.123 55.8634 288.587 55.9886 287.977 55.9886ZM287.907 51.7283C288.235 51.7283 288.521 51.6579 288.763 51.517C289.014 51.3684 289.209 51.165 289.35 50.9068C289.491 50.6486 289.561 50.3512 289.561 50.0148C289.561 49.6862 289.487 49.3928 289.338 49.1346C289.198 48.8686 289.002 48.6612 288.752 48.5126C288.509 48.3639 288.227 48.2896 287.907 48.2896C287.586 48.2896 287.296 48.3639 287.038 48.5126C286.78 48.6612 286.576 48.8686 286.428 49.1346C286.287 49.3928 286.217 49.6862 286.217 50.0148C286.217 50.3434 286.287 50.6368 286.428 50.895C286.576 51.1532 286.776 51.3567 287.026 51.5053C287.285 51.654 287.578 51.7283 287.907 51.7283ZM294.75 53.4066V44.6631H296.346V53.4066H294.75ZM297.899 53.4066V47.0221H299.342V48.2778L299.225 48.0548C299.373 47.6715 299.616 47.382 299.952 47.1864C300.297 46.9829 300.696 46.8812 301.149 46.8812C301.619 46.8812 302.034 46.9829 302.393 47.1864C302.761 47.3898 303.047 47.6754 303.25 48.0431C303.454 48.403 303.555 48.8216 303.555 49.2989V53.4066H302.018V49.6627C302.018 49.381 301.963 49.1385 301.854 48.9351C301.744 48.7316 301.592 48.5752 301.396 48.4656C301.208 48.3483 300.985 48.2896 300.727 48.2896C300.477 48.2896 300.254 48.3483 300.058 48.4656C299.862 48.5752 299.71 48.7316 299.6 48.9351C299.491 49.1385 299.436 49.381 299.436 49.6627V53.4066H297.899ZM307.285 53.5474C306.604 53.5474 306.01 53.387 305.501 53.0662C305 52.7376 304.656 52.2956 304.468 51.74L305.618 51.1884C305.783 51.5483 306.01 51.83 306.299 52.0334C306.596 52.2369 306.925 52.3386 307.285 52.3386C307.567 52.3386 307.79 52.276 307.954 52.1508C308.118 52.0256 308.2 51.8613 308.2 51.6579C308.2 51.5327 308.165 51.431 308.095 51.3527C308.032 51.2667 307.942 51.1963 307.825 51.1415C307.715 51.0789 307.594 51.028 307.461 50.9889L306.416 50.6955C305.876 50.539 305.466 50.3004 305.184 49.9796C304.91 49.6588 304.773 49.2793 304.773 48.8412C304.773 48.45 304.871 48.1096 305.067 47.8201C305.27 47.5228 305.548 47.292 305.9 47.1277C306.26 46.9634 306.671 46.8812 307.132 46.8812C307.735 46.8812 308.267 47.026 308.728 47.3155C309.19 47.605 309.519 48.0118 309.714 48.536L308.541 49.0876C308.431 48.7981 308.247 48.5673 307.989 48.3952C307.731 48.2231 307.441 48.137 307.121 48.137C306.862 48.137 306.659 48.1957 306.51 48.313C306.362 48.4304 306.287 48.583 306.287 48.7708C306.287 48.8881 306.319 48.9898 306.381 49.0759C306.444 49.162 306.53 49.2324 306.639 49.2872C306.757 49.3419 306.89 49.3928 307.038 49.4397L308.059 49.7449C308.584 49.9014 308.987 50.1361 309.268 50.449C309.558 50.762 309.703 51.1454 309.703 51.5992C309.703 51.9826 309.601 52.3229 309.397 52.6203C309.194 52.9098 308.912 53.1367 308.552 53.301C308.192 53.4653 307.77 53.5474 307.285 53.5474ZM313.795 53.477C313.075 53.477 312.515 53.2814 312.116 52.8902C311.725 52.4912 311.53 51.9317 311.53 51.2119V48.3952H310.426V47.0221H310.544C310.857 47.0221 311.099 46.9399 311.271 46.7756C311.443 46.6113 311.53 46.3727 311.53 46.0597V45.5668H313.067V47.0221H314.534V48.3952H313.067V51.1298C313.067 51.341 313.102 51.521 313.173 51.6696C313.251 51.8183 313.368 51.9317 313.525 52.01C313.689 52.0882 313.896 52.1273 314.147 52.1273C314.201 52.1273 314.264 52.1234 314.334 52.1156C314.413 52.1078 314.487 52.0999 314.557 52.0921V53.4066C314.448 53.4222 314.323 53.4379 314.182 53.4535C314.041 53.4692 313.912 53.477 313.795 53.477ZM315.732 53.4066V47.0221H317.176V48.4421L317.058 48.2309C317.207 47.7536 317.438 47.4211 317.751 47.2333C318.072 47.0455 318.455 46.9516 318.901 46.9516H319.276V48.313H318.725C318.287 48.313 317.935 48.45 317.669 48.7238C317.403 48.9898 317.27 49.3654 317.27 49.8505V53.4066H315.732ZM322.399 53.5474C321.906 53.5474 321.475 53.4379 321.108 53.2188C320.748 52.9997 320.47 52.6946 320.274 52.3034C320.087 51.9122 319.993 51.4545 319.993 50.9302V47.0221H321.53V50.8011C321.53 51.0672 321.581 51.3019 321.683 51.5053C321.792 51.7009 321.945 51.8574 322.14 51.9748C322.344 52.0843 322.571 52.1391 322.821 52.1391C323.071 52.1391 323.294 52.0843 323.49 51.9748C323.686 51.8574 323.838 51.697 323.948 51.4936C324.057 51.2901 324.112 51.0476 324.112 50.7659V47.0221H325.65V53.4066H324.194V52.1508L324.323 52.3738C324.175 52.765 323.928 53.0584 323.584 53.254C323.248 53.4496 322.852 53.5474 322.399 53.5474ZM330.154 53.5474C329.52 53.5474 328.949 53.4027 328.44 53.1132C327.939 52.8159 327.544 52.4168 327.255 51.9161C326.965 51.4075 326.821 50.8363 326.821 50.2026C326.821 49.5688 326.965 49.0016 327.255 48.5008C327.544 48.0001 327.939 47.605 328.44 47.3155C328.949 47.026 329.52 46.8812 330.154 46.8812C330.607 46.8812 331.03 46.9634 331.421 47.1277C331.812 47.2842 332.149 47.5032 332.43 47.7849C332.72 48.0588 332.927 48.3874 333.052 48.7708L331.703 49.3576C331.585 49.0368 331.386 48.7786 331.104 48.583C330.83 48.3874 330.514 48.2896 330.154 48.2896C329.817 48.2896 329.516 48.3717 329.25 48.536C328.992 48.7003 328.788 48.9272 328.64 49.2167C328.491 49.5062 328.417 49.8388 328.417 50.2143C328.417 50.5899 328.491 50.9224 328.64 51.2119C328.788 51.5014 328.992 51.7283 329.25 51.8926C329.516 52.0569 329.817 52.1391 330.154 52.1391C330.521 52.1391 330.842 52.0413 331.116 51.8457C331.39 51.6501 331.585 51.3879 331.703 51.0593L333.052 51.6696C332.927 52.0295 332.724 52.3542 332.442 52.6437C332.161 52.9254 331.824 53.1484 331.433 53.3127C331.042 53.4692 330.615 53.5474 330.154 53.5474ZM337.13 53.477C336.41 53.477 335.85 53.2814 335.451 52.8902C335.06 52.4912 334.865 51.9317 334.865 51.2119V48.3952H333.761V47.0221H333.879C334.192 47.0221 334.434 46.9399 334.606 46.7756C334.778 46.6113 334.865 46.3727 334.865 46.0597V45.5668H336.402V47.0221H337.869V48.3952H336.402V51.1298C336.402 51.341 336.437 51.521 336.508 51.6696C336.586 51.8183 336.703 51.9317 336.86 52.01C337.024 52.0882 337.231 52.1273 337.482 52.1273C337.536 52.1273 337.599 52.1234 337.669 52.1156C337.748 52.1078 337.822 52.0999 337.892 52.0921V53.4066C337.783 53.4222 337.658 53.4379 337.517 53.4535C337.376 53.4692 337.247 53.477 337.13 53.477ZM339.067 53.4066V47.0221H340.605V53.4066H339.067ZM339.067 46.3061V44.6631H340.605V46.3061H339.067ZM345.146 53.5474C344.52 53.5474 343.949 53.4027 343.432 53.1132C342.924 52.8237 342.517 52.4286 342.212 51.9278C341.915 51.4271 341.766 50.8559 341.766 50.2143C341.766 49.5727 341.915 49.0016 342.212 48.5008C342.517 48.0001 342.924 47.605 343.432 47.3155C343.941 47.026 344.512 46.8812 345.146 46.8812C345.772 46.8812 346.339 47.026 346.848 47.3155C347.356 47.605 347.759 48.0001 348.057 48.5008C348.362 48.9938 348.514 49.5649 348.514 50.2143C348.514 50.8559 348.362 51.4271 348.057 51.9278C347.751 52.4286 347.345 52.8237 346.836 53.1132C346.327 53.4027 345.764 53.5474 345.146 53.5474ZM345.146 52.1391C345.49 52.1391 345.791 52.0569 346.05 51.8926C346.316 51.7283 346.523 51.5014 346.672 51.2119C346.828 50.9146 346.906 50.5821 346.906 50.2143C346.906 49.8388 346.828 49.5101 346.672 49.2285C346.523 48.939 346.316 48.7121 346.05 48.5478C345.791 48.3756 345.49 48.2896 345.146 48.2896C344.794 48.2896 344.485 48.3756 344.219 48.5478C343.953 48.7121 343.742 48.939 343.585 49.2285C343.436 49.5101 343.362 49.8388 343.362 50.2143C343.362 50.5821 343.436 50.9146 343.585 51.2119C343.742 51.5014 343.953 51.7283 344.219 51.8926C344.485 52.0569 344.794 52.1391 345.146 52.1391ZM349.68 53.4066V47.0221H351.124V48.2778L351.006 48.0548C351.155 47.6715 351.398 47.382 351.734 47.1864C352.078 46.9829 352.477 46.8812 352.931 46.8812C353.401 46.8812 353.815 46.9829 354.175 47.1864C354.543 47.3898 354.828 47.6754 355.032 48.0431C355.235 48.403 355.337 48.8216 355.337 49.2989V53.4066H353.8V49.6627C353.8 49.381 353.745 49.1385 353.635 48.9351C353.526 48.7316 353.373 48.5752 353.178 48.4656C352.99 48.3483 352.767 48.2896 352.509 48.2896C352.258 48.2896 352.035 48.3483 351.84 48.4656C351.644 48.5752 351.491 48.7316 351.382 48.9351C351.272 49.1385 351.218 49.381 351.218 49.6627V53.4066H349.68ZM359.067 53.5474C358.386 53.5474 357.791 53.387 357.283 53.0662C356.782 52.7376 356.438 52.2956 356.25 51.74L357.4 51.1884C357.564 51.5483 357.791 51.83 358.081 52.0334C358.378 52.2369 358.707 52.3386 359.067 52.3386C359.348 52.3386 359.571 52.276 359.736 52.1508C359.9 52.0256 359.982 51.8613 359.982 51.6579C359.982 51.5327 359.947 51.431 359.876 51.3527C359.814 51.2667 359.724 51.1963 359.606 51.1415C359.497 51.0789 359.376 51.028 359.243 50.9889L358.198 50.6955C357.658 50.539 357.247 50.3004 356.966 49.9796C356.692 49.6588 356.555 49.2793 356.555 48.8412C356.555 48.45 356.653 48.1096 356.848 47.8201C357.052 47.5228 357.33 47.292 357.682 47.1277C358.042 46.9634 358.452 46.8812 358.914 46.8812C359.516 46.8812 360.048 47.026 360.51 47.3155C360.972 47.605 361.3 48.0118 361.496 48.536L360.322 49.0876C360.213 48.7981 360.029 48.5673 359.771 48.3952C359.513 48.2231 359.223 48.137 358.902 48.137C358.644 48.137 358.441 48.1957 358.292 48.313C358.143 48.4304 358.069 48.583 358.069 48.7708C358.069 48.8881 358.1 48.9898 358.163 49.0759C358.225 49.162 358.312 49.2324 358.421 49.2872C358.538 49.3419 358.671 49.3928 358.82 49.4397L359.841 49.7449C360.365 49.9014 360.768 50.1361 361.05 50.449C361.339 50.762 361.484 51.1454 361.484 51.5992C361.484 51.9826 361.383 52.3229 361.179 52.6203C360.976 52.9098 360.694 53.1367 360.334 53.301C359.974 53.4653 359.552 53.5474 359.067 53.5474Z" fill="#0F172A"/>
<path fill-rule="evenodd" clip-rule="evenodd" d="M182.572 53.1713C182.297 53.4463 181.851 53.4463 181.576 53.1713L177.351 48.9463C177.076 48.6713 177.076 48.2254 177.351 47.9504L181.576 43.7254C181.851 43.4504 182.297 43.4504 182.572 43.7254C182.847 44.0004 182.847 44.4462 182.572 44.7212L179.549 47.7442H187.707C188.096 47.7442 188.412 48.0595 188.412 48.4484C188.412 48.8373 188.096 49.1525 187.707 49.1525L179.549 49.1525L182.572 52.1755C182.847 52.4505 182.847 52.8964 182.572 53.1713Z" fill="#111827"/>
<path d="M179.736 82.3808C179.242 82.3808 178.785 82.2932 178.365 82.1179C177.952 81.9364 177.589 81.6829 177.276 81.3574C176.97 81.0319 176.732 80.6501 176.563 80.212C176.394 79.7738 176.309 79.295 176.309 78.7754C176.309 78.2497 176.394 77.7677 176.563 77.3295C176.732 76.8914 176.97 76.5096 177.276 76.1841C177.583 75.8586 177.946 75.6082 178.365 75.433C178.785 75.2514 179.242 75.1607 179.736 75.1607C180.218 75.1607 180.65 75.2452 181.032 75.4142C181.42 75.5832 181.745 75.8023 182.008 76.0714C182.277 76.3406 182.468 76.6285 182.581 76.9352L181.736 77.3201C181.573 76.9321 181.32 76.6191 180.976 76.3812C180.631 76.1371 180.218 76.0151 179.736 76.0151C179.248 76.0151 178.813 76.1309 178.431 76.3625C178.056 76.5941 177.761 76.9164 177.549 77.3295C177.336 77.7427 177.229 78.2246 177.229 78.7754C177.229 79.32 177.336 79.7988 177.549 80.212C177.761 80.6251 178.056 80.9474 178.431 81.179C178.813 81.4106 179.248 81.5264 179.736 81.5264C180.218 81.5264 180.631 81.4075 180.976 81.1696C181.32 80.9255 181.573 80.6094 181.736 80.2214L182.581 80.6063C182.468 80.913 182.277 81.2009 182.008 81.4701C181.745 81.7392 181.42 81.9583 181.032 82.1273C180.65 82.2963 180.218 82.3808 179.736 82.3808ZM186.041 82.3808C185.553 82.3808 185.112 82.2682 184.717 82.0428C184.323 81.8112 184.01 81.4951 183.778 81.0945C183.547 80.6939 183.431 80.2401 183.431 79.7331C183.431 79.2261 183.544 78.7754 183.769 78.3811C184.001 77.9868 184.314 77.6738 184.708 77.4422C185.102 77.2106 185.547 77.0948 186.041 77.0948C186.529 77.0948 186.971 77.2106 187.365 77.4422C187.759 77.6675 188.069 77.9774 188.295 78.3717C188.526 78.7661 188.642 79.2199 188.642 79.7331C188.642 80.2464 188.523 80.7033 188.285 81.1039C188.047 81.4983 187.731 81.8112 187.337 82.0428C186.949 82.2682 186.517 82.3808 186.041 82.3808ZM186.041 81.5358C186.354 81.5358 186.636 81.4576 186.886 81.3011C187.143 81.1446 187.343 80.9287 187.487 80.6532C187.637 80.3778 187.712 80.0711 187.712 79.7331C187.712 79.3889 187.637 79.0853 187.487 78.8224C187.343 78.5532 187.143 78.3404 186.886 78.1839C186.636 78.0212 186.354 77.9398 186.041 77.9398C185.722 77.9398 185.434 78.0212 185.177 78.1839C184.927 78.3404 184.727 78.5532 184.576 78.8224C184.426 79.0853 184.351 79.3889 184.351 79.7331C184.351 80.0711 184.426 80.3778 184.576 80.6532C184.727 80.9287 184.927 81.1446 185.177 81.3011C185.434 81.4576 185.722 81.5358 186.041 81.5358ZM192.184 82.3808C191.696 82.3808 191.255 82.2682 190.861 82.0428C190.466 81.8112 190.153 81.4951 189.922 81.0945C189.69 80.6939 189.574 80.2401 189.574 79.7331C189.574 79.2261 189.687 78.7754 189.912 78.3811C190.144 77.9868 190.457 77.6738 190.851 77.4422C191.245 77.2106 191.69 77.0948 192.184 77.0948C192.673 77.0948 193.114 77.2106 193.508 77.4422C193.903 77.6675 194.212 77.9774 194.438 78.3717C194.669 78.7661 194.785 79.2199 194.785 79.7331C194.785 80.2464 194.666 80.7033 194.428 81.1039C194.191 81.4983 193.874 81.8112 193.48 82.0428C193.092 82.2682 192.66 82.3808 192.184 82.3808ZM192.184 81.5358C192.497 81.5358 192.779 81.4576 193.029 81.3011C193.286 81.1446 193.486 80.9287 193.63 80.6532C193.781 80.3778 193.856 80.0711 193.856 79.7331C193.856 79.3889 193.781 79.0853 193.63 78.8224C193.486 78.5532 193.286 78.3404 193.029 78.1839C192.779 78.0212 192.497 77.9398 192.184 77.9398C191.865 77.9398 191.577 78.0212 191.321 78.1839C191.07 78.3404 190.87 78.5532 190.72 78.8224C190.569 79.0853 190.494 79.3889 190.494 79.7331C190.494 80.0711 190.569 80.3778 190.72 80.6532C190.87 80.9287 191.07 81.1446 191.321 81.3011C191.577 81.4576 191.865 81.5358 192.184 81.5358ZM195.924 82.2682V75.1607H196.797V80.0336L196.44 79.9491L199.126 77.2075H200.243L198.299 79.2449L200.374 82.2682H199.342L197.445 79.5266L197.99 79.4984L196.516 81.0382L196.797 80.3997V82.2682H195.924ZM201.159 82.2682V77.2075H202.033V82.2682H201.159ZM201.159 76.4V75.2733H202.033V76.4H201.159ZM203.388 82.2682V77.2075H204.242V78.1933L204.101 78.1088C204.226 77.7896 204.427 77.5424 204.702 77.3671C204.984 77.1856 205.312 77.0948 205.688 77.0948C206.051 77.0948 206.373 77.1762 206.655 77.3389C206.943 77.5017 207.168 77.727 207.331 78.0149C207.5 78.3029 207.584 78.6284 207.584 78.9914V82.2682H206.702V79.2731C206.702 78.9914 206.652 78.7535 206.552 78.5595C206.451 78.3655 206.308 78.2152 206.12 78.1088C205.938 77.9962 205.729 77.9398 205.491 77.9398C205.253 77.9398 205.04 77.9962 204.852 78.1088C204.671 78.2152 204.527 78.3686 204.42 78.5689C204.314 78.7629 204.261 78.9977 204.261 79.2731V82.2682H203.388ZM211.247 84.3337C210.89 84.3337 210.558 84.2774 210.252 84.1647C209.951 84.0521 209.691 83.8956 209.472 83.6953C209.26 83.5012 209.097 83.2728 208.984 83.0099L209.801 82.6343C209.889 82.8722 210.054 83.0725 210.299 83.2352C210.549 83.4042 210.862 83.4887 211.237 83.4887C211.525 83.4887 211.785 83.4324 212.017 83.3197C212.255 83.2133 212.442 83.0506 212.58 82.8315C212.718 82.6187 212.787 82.3589 212.787 82.0522V80.9161L212.946 81.0851C212.771 81.4294 212.518 81.6923 212.186 81.8738C211.86 82.0553 211.5 82.1461 211.106 82.1461C210.63 82.1461 210.205 82.0366 209.829 81.8175C209.454 81.5921 209.159 81.2886 208.947 80.9068C208.734 80.5187 208.627 80.0899 208.627 79.6205C208.627 79.1447 208.734 78.716 208.947 78.3342C209.159 77.9523 209.45 77.6519 209.82 77.4328C210.195 77.2075 210.621 77.0948 211.097 77.0948C211.491 77.0948 211.848 77.1856 212.167 77.3671C212.492 77.5424 212.752 77.7865 212.946 78.0994L212.815 78.3342V77.2075H213.669V82.0522C213.669 82.4904 213.566 82.8816 213.359 83.2258C213.153 83.5701 212.865 83.8393 212.496 84.0333C212.133 84.2336 211.716 84.3337 211.247 84.3337ZM211.181 81.3011C211.482 81.3011 211.751 81.226 211.989 81.0758C212.233 80.9255 212.427 80.7252 212.571 80.4749C212.715 80.2182 212.787 79.9334 212.787 79.6205C212.787 79.3137 212.715 79.0321 212.571 78.7754C212.427 78.5188 212.233 78.3154 211.989 78.1652C211.751 78.0149 211.482 77.9398 211.181 77.9398C210.874 77.9398 210.596 78.0149 210.346 78.1652C210.095 78.3154 209.898 78.5188 209.754 78.7754C209.616 79.0258 209.547 79.3075 209.547 79.6205C209.547 79.9334 209.616 80.2182 209.754 80.4749C209.898 80.7252 210.092 80.9255 210.336 81.0758C210.587 81.226 210.868 81.3011 211.181 81.3011ZM216.749 82.2682V75.2733H217.669V82.2682H216.749ZM219.121 82.2682V77.2075H219.976V78.1933L219.835 78.1088C219.96 77.7896 220.161 77.5424 220.436 77.3671C220.718 77.1856 221.046 77.0948 221.422 77.0948C221.785 77.0948 222.107 77.1762 222.389 77.3389C222.677 77.5017 222.902 77.727 223.065 78.0149C223.234 78.3029 223.318 78.6284 223.318 78.9914V82.2682H222.436V79.2731C222.436 78.9914 222.386 78.7535 222.286 78.5595C222.185 78.3655 222.041 78.2152 221.854 78.1088C221.672 77.9962 221.462 77.9398 221.225 77.9398C220.987 77.9398 220.774 77.9962 220.586 78.1088C220.405 78.2152 220.261 78.3686 220.154 78.5689C220.048 78.7629 219.995 78.9977 219.995 79.2731V82.2682H219.121ZM226.38 82.3808C225.873 82.3808 225.432 82.2556 225.056 82.0053C224.68 81.7549 224.414 81.4169 224.258 80.9913L224.953 80.6532C225.097 80.9537 225.294 81.1916 225.544 81.3668C225.795 81.5421 226.073 81.6297 226.38 81.6297C226.655 81.6297 226.884 81.564 227.065 81.4325C227.247 81.3011 227.338 81.129 227.338 80.9161C227.338 80.7659 227.294 80.647 227.206 80.5594C227.125 80.4655 227.025 80.3935 226.906 80.3434C226.787 80.2871 226.677 80.2464 226.577 80.2214L225.817 80.0054C225.36 79.874 225.025 79.6862 224.812 79.4421C224.605 79.198 224.502 78.9132 224.502 78.5877C224.502 78.2872 224.577 78.0275 224.727 77.8084C224.884 77.583 225.094 77.4078 225.356 77.2826C225.626 77.1574 225.926 77.0948 226.258 77.0948C226.702 77.0948 227.1 77.2075 227.45 77.4328C227.807 77.6582 228.061 77.9742 228.211 78.3811L227.497 78.7097C227.385 78.4468 227.216 78.2403 226.99 78.09C226.765 77.9336 226.511 77.8553 226.23 77.8553C225.973 77.8553 225.77 77.921 225.619 78.0525C225.469 78.1777 225.394 78.3373 225.394 78.5313C225.394 78.6753 225.432 78.7942 225.507 78.8881C225.582 78.9757 225.673 79.0446 225.779 79.0947C225.885 79.1385 225.989 79.176 226.089 79.2073L226.915 79.4515C227.328 79.5704 227.647 79.755 227.873 80.0054C228.104 80.2558 228.22 80.5562 228.22 80.9068C228.22 81.1884 228.142 81.4419 227.985 81.6673C227.829 81.8926 227.613 82.0679 227.338 82.193C227.062 82.3182 226.743 82.3808 226.38 82.3808ZM231.419 82.3245C230.925 82.3245 230.543 82.1837 230.274 81.902C230.011 81.6203 229.88 81.2228 229.88 80.7096V78.0431H228.959V77.2075H229.147C229.373 77.2075 229.551 77.1386 229.682 77.0009C229.814 76.8632 229.88 76.6817 229.88 76.4564V76.0432H230.753V77.2075H231.889V78.0431H230.753V80.6814C230.753 80.8504 230.778 80.9975 230.828 81.1227C230.884 81.2479 230.975 81.348 231.1 81.4231C231.225 81.492 231.391 81.5264 231.598 81.5264C231.642 81.5264 231.695 81.5233 231.757 81.517C231.826 81.5108 231.889 81.5045 231.945 81.4983V82.2682C231.864 82.2869 231.773 82.2995 231.673 82.3057C231.573 82.3182 231.488 82.3245 231.419 82.3245ZM233.086 82.2682V77.2075H233.94V78.137L233.846 78.0055C233.965 77.7176 234.147 77.5048 234.391 77.3671C234.635 77.2231 234.932 77.1511 235.283 77.1511H235.593V77.9774H235.151C234.795 77.9774 234.507 78.09 234.288 78.3154C234.068 78.5345 233.959 78.8474 233.959 79.2543V82.2682H233.086ZM238.162 82.3808C237.799 82.3808 237.47 82.2963 237.176 82.1273C236.888 81.9583 236.662 81.7236 236.5 81.4231C236.343 81.1164 236.265 80.7659 236.265 80.3716V77.2075H237.138V80.2777C237.138 80.5281 237.188 80.7471 237.288 80.9349C237.395 81.1227 237.539 81.2698 237.72 81.3762C237.908 81.4826 238.121 81.5358 238.359 81.5358C238.597 81.5358 238.806 81.4826 238.988 81.3762C239.176 81.2698 239.32 81.1164 239.42 80.9161C239.526 80.7158 239.579 80.478 239.579 80.2026V77.2075H240.462V82.2682H239.607V81.2823L239.748 81.3668C239.629 81.686 239.426 81.9364 239.138 82.1179C238.856 82.2932 238.531 82.3808 238.162 82.3808ZM244.162 82.3808C243.667 82.3808 243.226 82.265 242.838 82.0334C242.456 81.8018 242.156 81.4857 241.937 81.0851C241.718 80.6845 241.608 80.2339 241.608 79.7331C241.608 79.2261 241.718 78.7754 241.937 78.3811C242.156 77.9868 242.456 77.6738 242.838 77.4422C243.226 77.2106 243.667 77.0948 244.162 77.0948C244.494 77.0948 244.803 77.1543 245.091 77.2732C245.379 77.3921 245.633 77.5517 245.852 77.752C246.071 77.9523 246.231 78.1871 246.331 78.4562L245.551 78.8318C245.433 78.5689 245.251 78.3561 245.007 78.1933C244.763 78.0243 244.481 77.9398 244.162 77.9398C243.855 77.9398 243.577 78.0181 243.326 78.1745C243.082 78.331 242.888 78.5438 242.744 78.813C242.6 79.0822 242.528 79.392 242.528 79.7425C242.528 80.0805 242.6 80.3872 242.744 80.6626C242.888 80.9318 243.082 81.1446 243.326 81.3011C243.577 81.4576 243.855 81.5358 244.162 81.5358C244.481 81.5358 244.763 81.4544 245.007 81.2917C245.251 81.1227 245.433 80.9005 245.551 80.6251L246.331 81.0194C246.231 81.2823 246.071 81.517 245.852 81.7236C245.633 81.9239 245.379 82.0835 245.091 82.2024C244.803 82.3214 244.494 82.3808 244.162 82.3808ZM249.528 82.3245C249.034 82.3245 248.652 82.1837 248.383 81.902C248.12 81.6203 247.988 81.2228 247.988 80.7096V78.0431H247.068V77.2075H247.256C247.481 77.2075 247.66 77.1386 247.791 77.0009C247.923 76.8632 247.988 76.6817 247.988 76.4564V76.0432H248.861V77.2075H249.998V78.0431H248.861V80.6814C248.861 80.8504 248.886 80.9975 248.937 81.1227C248.993 81.2479 249.084 81.348 249.209 81.4231C249.334 81.492 249.5 81.5264 249.706 81.5264C249.75 81.5264 249.803 81.5233 249.866 81.517C249.935 81.5108 249.998 81.5045 250.054 81.4983V82.2682C249.972 82.2869 249.882 82.2995 249.782 82.3057C249.681 82.3182 249.597 82.3245 249.528 82.3245ZM251.194 82.2682V77.2075H252.068V82.2682H251.194ZM251.194 76.4V75.2733H252.068V76.4H251.194ZM255.826 82.3808C255.338 82.3808 254.897 82.2682 254.502 82.0428C254.108 81.8112 253.795 81.4951 253.563 81.0945C253.332 80.6939 253.216 80.2401 253.216 79.7331C253.216 79.2261 253.329 78.7754 253.554 78.3811C253.786 77.9868 254.099 77.6738 254.493 77.4422C254.887 77.2106 255.332 77.0948 255.826 77.0948C256.314 77.0948 256.756 77.2106 257.15 77.4422C257.544 77.6675 257.854 77.9774 258.079 78.3717C258.311 78.7661 258.427 79.2199 258.427 79.7331C258.427 80.2464 258.308 80.7033 258.07 81.1039C257.832 81.4983 257.516 81.8112 257.122 82.0428C256.734 82.2682 256.302 82.3808 255.826 82.3808ZM255.826 81.5358C256.139 81.5358 256.421 81.4576 256.671 81.3011C256.928 81.1446 257.128 80.9287 257.272 80.6532C257.422 80.3778 257.497 80.0711 257.497 79.7331C257.497 79.3889 257.422 79.0853 257.272 78.8224C257.128 78.5532 256.928 78.3404 256.671 78.1839C256.421 78.0212 256.139 77.9398 255.826 77.9398C255.507 77.9398 255.219 78.0212 254.962 78.1839C254.712 78.3404 254.512 78.5532 254.361 78.8224C254.211 79.0853 254.136 79.3889 254.136 79.7331C254.136 80.0711 254.211 80.3778 254.361 80.6532C254.512 80.9287 254.712 81.1446 254.962 81.3011C255.219 81.4576 255.507 81.5358 255.826 81.5358ZM259.566 82.2682V77.2075H260.42V78.1933L260.279 78.1088C260.404 77.7896 260.605 77.5424 260.88 77.3671C261.162 77.1856 261.49 77.0948 261.866 77.0948C262.229 77.0948 262.551 77.1762 262.833 77.3389C263.121 77.5017 263.346 77.727 263.509 78.0149C263.678 78.3029 263.763 78.6284 263.763 78.9914V82.2682H262.88V79.2731C262.88 78.9914 262.83 78.7535 262.73 78.5595C262.63 78.3655 262.486 78.2152 262.298 78.1088C262.116 77.9962 261.907 77.9398 261.669 77.9398C261.431 77.9398 261.218 77.9962 261.03 78.1088C260.849 78.2152 260.705 78.3686 260.599 78.5689C260.492 78.7629 260.439 78.9977 260.439 79.2731V82.2682H259.566Z" fill="#475569"/>
<rect x="176.03" y="90.6033" width="227.097" height="105.429" rx="4.4011" fill="#F8FAFC"/>
<rect x="176.03" y="90.6033" width="227.097" height="105.429" rx="4.4011" stroke="#E2E8F0" stroke-width="0.586813"/>
<path d="M183.557 110.525V103.531H184.402L187.022 107.258H186.59L189.191 103.531H190.036V110.525H189.106V104.695L189.435 104.798L186.834 108.46H186.759L184.187 104.798L184.478 104.695V110.525H183.557ZM192.97 110.638C192.638 110.638 192.344 110.579 192.087 110.46C191.837 110.334 191.64 110.165 191.496 109.953C191.352 109.734 191.28 109.483 191.28 109.201C191.28 108.932 191.336 108.691 191.449 108.479C191.568 108.259 191.749 108.075 191.993 107.925C192.244 107.774 192.557 107.668 192.932 107.605L194.81 107.296V108.028L193.129 108.31C192.804 108.366 192.566 108.469 192.416 108.619C192.272 108.77 192.2 108.954 192.2 109.173C192.2 109.38 192.281 109.552 192.444 109.69C192.613 109.827 192.823 109.896 193.073 109.896C193.392 109.896 193.668 109.831 193.899 109.699C194.137 109.561 194.322 109.377 194.453 109.145C194.591 108.914 194.66 108.657 194.66 108.375V107.089C194.66 106.814 194.556 106.591 194.35 106.422C194.15 106.247 193.884 106.159 193.552 106.159C193.264 106.159 193.007 106.235 192.782 106.385C192.563 106.529 192.4 106.723 192.294 106.967L191.533 106.573C191.627 106.341 191.777 106.134 191.984 105.953C192.19 105.765 192.431 105.618 192.707 105.512C192.982 105.405 193.27 105.352 193.571 105.352C193.959 105.352 194.3 105.427 194.594 105.577C194.888 105.721 195.117 105.925 195.279 106.188C195.448 106.444 195.533 106.745 195.533 107.089V110.525H194.678V109.568L194.838 109.624C194.732 109.824 194.588 110 194.406 110.15C194.225 110.3 194.012 110.419 193.768 110.507C193.524 110.594 193.258 110.638 192.97 110.638ZM196.887 110.525V103.418H197.76V108.291L197.403 108.206L200.088 105.465H201.206L199.262 107.502L201.337 110.525H200.304L198.408 107.784L198.952 107.756L197.478 109.295L197.76 108.657V110.525H196.887ZM204.359 110.638C203.871 110.638 203.436 110.522 203.054 110.291C202.672 110.059 202.372 109.743 202.153 109.342C201.933 108.935 201.824 108.482 201.824 107.981C201.824 107.474 201.93 107.023 202.143 106.629C202.362 106.235 202.656 105.925 203.026 105.699C203.401 105.468 203.821 105.352 204.284 105.352C204.659 105.352 204.991 105.421 205.279 105.559C205.573 105.69 205.821 105.872 206.021 106.103C206.227 106.328 206.384 106.588 206.49 106.882C206.603 107.17 206.659 107.471 206.659 107.784C206.659 107.853 206.653 107.931 206.641 108.018C206.634 108.1 206.625 108.178 206.612 108.253H202.462V107.502H206.105L205.692 107.84C205.749 107.515 205.717 107.224 205.598 106.967C205.479 106.71 205.304 106.507 205.073 106.357C204.841 106.206 204.578 106.131 204.284 106.131C203.99 106.131 203.721 106.206 203.476 106.357C203.232 106.507 203.041 106.723 202.904 107.004C202.772 107.28 202.719 107.608 202.744 107.99C202.719 108.36 202.775 108.685 202.913 108.967C203.057 109.242 203.257 109.458 203.514 109.615C203.777 109.765 204.062 109.84 204.368 109.84C204.706 109.84 204.991 109.762 205.223 109.605C205.454 109.449 205.642 109.248 205.786 109.004L206.518 109.38C206.418 109.611 206.262 109.824 206.049 110.018C205.842 110.206 205.595 110.356 205.307 110.469C205.026 110.582 204.71 110.638 204.359 110.638ZM209.421 110.525V105.465H210.294V110.525H209.421ZM209.421 104.657V103.531H210.294V104.657H209.421ZM213.705 110.582C213.21 110.582 212.829 110.441 212.559 110.159C212.297 109.877 212.165 109.48 212.165 108.967V106.3H211.245V105.465H211.433C211.658 105.465 211.837 105.396 211.968 105.258C212.099 105.12 212.165 104.939 212.165 104.714V104.3H213.038V105.465H214.174V106.3H213.038V108.939C213.038 109.108 213.063 109.255 213.113 109.38C213.17 109.505 213.261 109.605 213.386 109.68C213.511 109.749 213.677 109.784 213.883 109.784C213.927 109.784 213.98 109.78 214.043 109.774C214.112 109.768 214.174 109.762 214.231 109.755V110.525C214.149 110.544 214.059 110.557 213.958 110.563C213.858 110.575 213.774 110.582 213.705 110.582ZM216.994 110.525V103.418H217.867V110.525H216.994ZM221.551 110.638C221.063 110.638 220.628 110.522 220.246 110.291C219.864 110.059 219.563 109.743 219.344 109.342C219.125 108.935 219.016 108.482 219.016 107.981C219.016 107.474 219.122 107.023 219.335 106.629C219.554 106.235 219.848 105.925 220.218 105.699C220.593 105.468 221.012 105.352 221.476 105.352C221.851 105.352 222.183 105.421 222.471 105.559C222.765 105.69 223.012 105.872 223.213 106.103C223.419 106.328 223.576 106.588 223.682 106.882C223.795 107.17 223.851 107.471 223.851 107.784C223.851 107.853 223.845 107.931 223.832 108.018C223.826 108.1 223.817 108.178 223.804 108.253H219.654V107.502H223.297L222.884 107.84C222.94 107.515 222.909 107.224 222.79 106.967C222.671 106.71 222.496 106.507 222.264 106.357C222.033 106.206 221.77 106.131 221.476 106.131C221.181 106.131 220.912 106.206 220.668 106.357C220.424 106.507 220.233 106.723 220.095 107.004C219.964 107.28 219.911 107.608 219.936 107.99C219.911 108.36 219.967 108.685 220.105 108.967C220.249 109.242 220.449 109.458 220.706 109.615C220.969 109.765 221.253 109.84 221.56 109.84C221.898 109.84 222.183 109.762 222.415 109.605C222.646 109.449 222.834 109.248 222.978 109.004L223.71 109.38C223.61 109.611 223.454 109.824 223.241 110.018C223.034 110.206 222.787 110.356 222.499 110.469C222.217 110.582 221.901 110.638 221.551 110.638ZM226.802 110.638C226.295 110.638 225.853 110.513 225.478 110.262C225.102 110.012 224.836 109.674 224.68 109.248L225.375 108.91C225.518 109.211 225.716 109.449 225.966 109.624C226.216 109.799 226.495 109.887 226.802 109.887C227.077 109.887 227.306 109.821 227.487 109.69C227.669 109.558 227.759 109.386 227.759 109.173C227.759 109.023 227.716 108.904 227.628 108.817C227.547 108.723 227.446 108.651 227.327 108.601C227.209 108.544 227.099 108.504 226.999 108.479L226.238 108.263C225.781 108.131 225.447 107.943 225.234 107.699C225.027 107.455 224.924 107.17 224.924 106.845C224.924 106.544 224.999 106.285 225.149 106.066C225.306 105.84 225.515 105.665 225.778 105.54C226.047 105.415 226.348 105.352 226.68 105.352C227.124 105.352 227.521 105.465 227.872 105.69C228.229 105.915 228.482 106.231 228.633 106.638L227.919 106.967C227.806 106.704 227.637 106.497 227.412 106.347C227.187 106.191 226.933 106.112 226.651 106.112C226.395 106.112 226.191 106.178 226.041 106.31C225.891 106.435 225.816 106.594 225.816 106.789C225.816 106.932 225.853 107.051 225.928 107.145C226.004 107.233 226.094 107.302 226.201 107.352C226.307 107.396 226.41 107.433 226.511 107.465L227.337 107.709C227.75 107.828 228.069 108.012 228.295 108.263C228.526 108.513 228.642 108.813 228.642 109.164C228.642 109.446 228.564 109.699 228.407 109.924C228.251 110.15 228.035 110.325 227.759 110.45C227.484 110.575 227.165 110.638 226.802 110.638ZM231.597 110.638C231.09 110.638 230.649 110.513 230.273 110.262C229.898 110.012 229.632 109.674 229.475 109.248L230.17 108.91C230.314 109.211 230.511 109.449 230.761 109.624C231.012 109.799 231.29 109.887 231.597 109.887C231.872 109.887 232.101 109.821 232.282 109.69C232.464 109.558 232.555 109.386 232.555 109.173C232.555 109.023 232.511 108.904 232.423 108.817C232.342 108.723 232.242 108.651 232.123 108.601C232.004 108.544 231.894 108.504 231.794 108.479L231.034 108.263C230.577 108.131 230.242 107.943 230.029 107.699C229.823 107.455 229.719 107.17 229.719 106.845C229.719 106.544 229.794 106.285 229.945 106.066C230.101 105.84 230.311 105.665 230.574 105.54C230.843 105.415 231.143 105.352 231.475 105.352C231.919 105.352 232.317 105.465 232.667 105.69C233.024 105.915 233.278 106.231 233.428 106.638L232.714 106.967C232.602 106.704 232.433 106.497 232.207 106.347C231.982 106.191 231.728 106.112 231.447 106.112C231.19 106.112 230.987 106.178 230.837 106.31C230.686 106.435 230.611 106.594 230.611 106.789C230.611 106.932 230.649 107.051 230.724 107.145C230.799 107.233 230.89 107.302 230.996 107.352C231.103 107.396 231.206 107.433 231.306 107.465L232.132 107.709C232.545 107.828 232.865 108.012 233.09 108.263C233.321 108.513 233.437 108.813 233.437 109.164C233.437 109.446 233.359 109.699 233.203 109.924C233.046 110.15 232.83 110.325 232.555 110.45C232.279 110.575 231.96 110.638 231.597 110.638ZM238.015 110.638C237.508 110.638 237.067 110.513 236.691 110.262C236.316 110.012 236.05 109.674 235.893 109.248L236.588 108.91C236.732 109.211 236.929 109.449 237.18 109.624C237.43 109.799 237.709 109.887 238.015 109.887C238.291 109.887 238.519 109.821 238.701 109.69C238.882 109.558 238.973 109.386 238.973 109.173C238.973 109.023 238.929 108.904 238.842 108.817C238.76 108.723 238.66 108.651 238.541 108.601C238.422 108.544 238.313 108.504 238.212 108.479L237.452 108.263C236.995 108.131 236.66 107.943 236.447 107.699C236.241 107.455 236.137 107.17 236.137 106.845C236.137 106.544 236.213 106.285 236.363 106.066C236.519 105.84 236.729 105.665 236.992 105.54C237.261 105.415 237.561 105.352 237.893 105.352C238.338 105.352 238.735 105.465 239.086 105.69C239.442 105.915 239.696 106.231 239.846 106.638L239.133 106.967C239.02 106.704 238.851 106.497 238.626 106.347C238.4 106.191 238.147 106.112 237.865 106.112C237.608 106.112 237.405 106.178 237.255 106.31C237.105 106.435 237.029 106.594 237.029 106.789C237.029 106.932 237.067 107.051 237.142 107.145C237.217 107.233 237.308 107.302 237.414 107.352C237.521 107.396 237.624 107.433 237.724 107.465L238.55 107.709C238.964 107.828 239.283 108.012 239.508 108.263C239.74 108.513 239.856 108.813 239.856 109.164C239.856 109.446 239.777 109.699 239.621 109.924C239.464 110.15 239.248 110.325 238.973 110.45C238.698 110.575 238.378 110.638 238.015 110.638ZM240.999 112.403V105.465H241.853V106.554L241.74 106.338C241.928 106.037 242.185 105.8 242.51 105.624C242.836 105.443 243.208 105.352 243.628 105.352C244.103 105.352 244.529 105.468 244.904 105.699C245.286 105.931 245.587 106.247 245.806 106.648C246.025 107.042 246.134 107.493 246.134 108C246.134 108.494 246.025 108.942 245.806 109.342C245.587 109.743 245.286 110.059 244.904 110.291C244.529 110.522 244.1 110.638 243.618 110.638C243.211 110.638 242.839 110.547 242.501 110.366C242.169 110.184 241.912 109.928 241.731 109.596L241.872 109.446V112.403H240.999ZM243.552 109.793C243.872 109.793 244.156 109.715 244.407 109.558C244.657 109.402 244.851 109.189 244.989 108.92C245.133 108.644 245.205 108.338 245.205 108C245.205 107.649 245.133 107.342 244.989 107.08C244.851 106.81 244.657 106.598 244.407 106.441C244.156 106.278 243.872 106.197 243.552 106.197C243.233 106.197 242.945 106.275 242.689 106.432C242.438 106.588 242.238 106.804 242.088 107.08C241.944 107.349 241.872 107.655 241.872 108C241.872 108.338 241.944 108.644 242.088 108.92C242.238 109.189 242.438 109.402 242.689 109.558C242.945 109.715 243.233 109.793 243.552 109.793ZM247.279 110.525V105.465H248.152V110.525H247.279ZM247.279 104.657V103.531H248.152V104.657H247.279ZM251.855 110.638C251.36 110.638 250.919 110.522 250.531 110.291C250.149 110.059 249.849 109.743 249.629 109.342C249.41 108.942 249.301 108.491 249.301 107.99C249.301 107.483 249.41 107.033 249.629 106.638C249.849 106.244 250.149 105.931 250.531 105.699C250.919 105.468 251.36 105.352 251.855 105.352C252.186 105.352 252.496 105.411 252.784 105.53C253.072 105.649 253.326 105.809 253.545 106.009C253.764 106.21 253.923 106.444 254.023 106.713L253.244 107.089C253.125 106.826 252.944 106.613 252.7 106.45C252.456 106.281 252.174 106.197 251.855 106.197C251.548 106.197 251.269 106.275 251.019 106.432C250.775 106.588 250.581 106.801 250.437 107.07C250.293 107.339 250.221 107.649 250.221 108C250.221 108.338 250.293 108.644 250.437 108.92C250.581 109.189 250.775 109.402 251.019 109.558C251.269 109.715 251.548 109.793 251.855 109.793C252.174 109.793 252.456 109.712 252.7 109.549C252.944 109.38 253.125 109.158 253.244 108.882L254.023 109.277C253.923 109.539 253.764 109.774 253.545 109.981C253.326 110.181 253.072 110.341 252.784 110.46C252.496 110.579 252.186 110.638 251.855 110.638ZM255.437 112.591C255.324 112.591 255.212 112.582 255.099 112.563C254.986 112.544 254.88 112.513 254.78 112.469V111.69C254.849 111.702 254.933 111.715 255.033 111.727C255.14 111.746 255.243 111.755 255.343 111.755C255.637 111.755 255.859 111.69 256.01 111.558C256.166 111.433 256.313 111.214 256.451 110.901L256.77 110.14L256.751 110.901L254.592 105.465H255.54L257.221 109.784H256.939L258.61 105.465H259.577L257.296 111.126C257.19 111.395 257.052 111.639 256.883 111.859C256.72 112.084 256.52 112.262 256.282 112.394C256.044 112.525 255.762 112.591 255.437 112.591ZM260.739 108.479L260.683 103.531H261.603L261.537 108.479H260.739ZM260.683 110.525V109.399H261.603V110.525H260.683Z" fill="#0F172A"/>
</g>
</g>
<defs>
<clipPath id="clip0_2720_21461">
<rect width="580" height="225" fill="white" transform="translate(0 0.486816)"/>
</clipPath>
<clipPath id="clip1_2720_21461">
<path d="M164 23.8022C164 18.9409 167.941 15 172.802 15H406.354C411.215 15 415.156 18.9409 415.156 23.8022V282H164V23.8022Z" fill="white"/>
</clipPath>
</defs>
</svg>
