<svg width="160" height="48" viewBox="0 0 160 48" fill="none" xmlns="http://www.w3.org/2000/svg">
<g clip-path="url(#clip0_2014_3792)">
<path d="M154.074 0.0268555H5.92593C2.65313 0.0268555 0 2.67998 0 5.95278V41.5083C0 44.7811 2.65313 47.4343 5.92593 47.4343H154.074C157.347 47.4343 160 44.7811 160 41.5083V5.95278C160 2.67998 157.347 0.0268555 154.074 0.0268555Z" fill="black"/>
<path d="M154.074 0.975004C155.394 0.975004 156.66 1.49945 157.594 2.43296C158.527 3.36648 159.052 4.63259 159.052 5.95278V41.5083C159.052 42.8285 158.527 44.0946 157.594 45.0282C156.66 45.9617 155.394 46.4861 154.074 46.4861H5.92593C4.60574 46.4861 3.33962 45.9617 2.40611 45.0282C1.47259 44.0946 0.948148 42.8285 0.948148 41.5083V5.95278C0.948148 4.63259 1.47259 3.36648 2.40611 2.43296C3.33962 1.49945 4.60574 0.975004 5.92593 0.975004H154.074ZM154.074 0.0268555H5.92593C4.35427 0.0268555 2.84699 0.651192 1.73566 1.76252C0.624337 2.87385 0 4.38113 0 5.95278V41.5083C0 43.08 0.624337 44.5873 1.73566 45.6986C2.84699 46.8099 4.35427 47.4343 5.92593 47.4343H154.074C155.646 47.4343 157.153 46.8099 158.264 45.6986C159.376 44.5873 160 43.08 160 41.5083V5.95278C160 4.38113 159.376 2.87385 158.264 1.76252C157.153 0.651192 155.646 0.0268555 154.074 0.0268555Z" fill="#A6A6A6"/>
<path opacity="0.2" d="M31.9997 28.6255L14.8264 38.4033C14.485 38.6609 14.0689 38.8003 13.6412 38.8003C13.2135 38.8003 12.7974 38.6609 12.456 38.4033L12.373 38.4862L12.456 38.581C12.7974 38.8387 13.2135 38.9781 13.6412 38.9781C14.0689 38.9781 14.485 38.8387 14.8264 38.581L32.1419 28.7322L31.9997 28.6255Z" fill="black"/>
<path opacity="0.12" d="M12.374 38.3318C11.9933 37.8617 11.8067 37.2638 11.8525 36.6606V36.8384C11.8122 37.4433 12.0124 38.0397 12.4095 38.4977L12.4925 38.4147L12.374 38.3318Z" fill="black"/>
</g>
<path d="M31.7946 22.8368C31.8093 21.6923 32.1142 20.5701 32.6808 19.5747C33.2473 18.5792 34.0572 17.7429 35.035 17.1434C34.4138 16.2587 33.5944 15.5307 32.6417 15.0171C31.689 14.5035 30.6293 14.2185 29.5469 14.1847C27.2378 13.9431 24.9993 15.5626 23.8226 15.5626C22.6232 15.5626 20.8115 14.2087 18.8607 14.2488C17.5988 14.2894 16.369 14.6553 15.2911 15.3109C14.2133 15.9664 13.324 16.8892 12.7101 17.9893C10.0507 22.5807 12.0344 29.3285 14.5819 33.0399C15.8564 34.8572 17.346 36.8872 19.2951 36.8152C21.2024 36.7363 21.9147 35.6024 24.217 35.6024C26.4979 35.6024 27.1662 36.8152 29.1549 36.7695C31.2015 36.7363 32.4909 34.944 33.7208 33.1095C34.6365 31.8146 35.3412 30.3834 35.8087 28.869C34.6197 28.3675 33.605 27.5281 32.8912 26.4554C32.1773 25.3827 31.7959 24.1242 31.7946 22.8368Z" fill="white"/>
<path d="M28.0384 11.7439C29.1544 10.4081 29.7041 8.69106 29.571 6.95752C27.8661 7.13608 26.2913 7.94861 25.1604 9.23321C24.6074 9.86076 24.1839 10.5909 23.914 11.3817C23.6442 12.1726 23.5333 13.0088 23.5877 13.8424C24.4404 13.8512 25.284 13.6668 26.055 13.3034C26.8259 12.9399 27.5041 12.4067 28.0384 11.7439Z" fill="white"/>
<path d="M55.9048 32.2149H49.3961L47.833 36.8173H45.0762L51.2411 19.7896H54.1054L60.2704 36.8173H57.4665L55.9048 32.2149ZM50.0702 30.0911H55.2294L52.6861 22.6217H52.6149L50.0702 30.0911Z" fill="white"/>
<path d="M73.5845 30.6107C73.5845 34.4686 71.5138 36.9472 68.389 36.9472C67.5975 36.9885 66.8102 36.8067 66.1175 36.4225C65.4247 36.0384 64.8545 35.4675 64.472 34.7752H64.4128V40.9242H61.8574V24.4027H64.331V26.4676H64.378C64.7781 25.7786 65.358 25.2106 66.056 24.8241C66.754 24.4377 67.544 24.2471 68.342 24.2728C71.5017 24.2728 73.5845 26.7635 73.5845 30.6107ZM70.9579 30.6107C70.9579 28.0972 69.6553 26.4448 67.6679 26.4448C65.7154 26.4448 64.4021 28.132 64.4021 30.6107C64.4021 33.1121 65.7154 34.7873 67.6679 34.7873C69.6553 34.7873 70.9579 33.1469 70.9579 30.6107Z" fill="white"/>
<path d="M87.2876 30.6107C87.2876 34.4686 85.2169 36.9472 82.0922 36.9472C81.3006 36.9885 80.5134 36.8066 79.8206 36.4225C79.1279 36.0384 78.5576 35.4675 78.1751 34.7752H78.116V40.9242H75.5605V24.4027H78.034V26.4675H78.081C78.4811 25.7786 79.061 25.2106 79.7591 24.8241C80.4571 24.4377 81.2471 24.2471 82.0451 24.2728C85.2049 24.2728 87.2876 26.7635 87.2876 30.6107ZM84.661 30.6107C84.661 28.0972 83.3584 26.4448 81.371 26.4448C79.4186 26.4448 78.1053 28.132 78.1053 30.6107C78.1053 33.1121 79.4186 34.7872 81.371 34.7872C83.3585 34.7872 84.661 33.1469 84.661 30.6107H84.661Z" fill="white"/>
<path d="M96.3444 32.0727C96.5338 33.7613 98.1787 34.87 100.427 34.87C102.581 34.87 104.13 33.7612 104.13 32.2387C104.13 30.917 103.196 30.1256 100.983 29.5833L98.7696 29.0517C95.6341 28.2964 94.1784 26.8342 94.1784 24.4613C94.1784 21.5234 96.7459 19.5054 100.392 19.5054C104 19.5054 106.473 21.5234 106.557 24.4613H103.977C103.823 22.762 102.414 21.7363 100.355 21.7363C98.2969 21.7363 96.8882 22.7741 96.8882 24.2846C96.8882 25.4884 97.7879 26.1968 99.9888 26.739L101.87 27.1997C105.374 28.0259 106.829 29.4293 106.829 31.9199C106.829 35.1056 104.285 37.1008 100.237 37.1008C96.4504 37.1008 93.8937 35.1525 93.7285 32.0726L96.3444 32.0727Z" fill="white"/>
<path d="M112.342 21.4648V24.4028H114.71V26.4208H112.342V33.2648C112.342 34.328 112.817 34.8235 113.857 34.8235C114.138 34.8186 114.419 34.7989 114.698 34.7645V36.7705C114.23 36.8577 113.754 36.8971 113.278 36.8883C110.758 36.8883 109.775 35.9443 109.775 33.5366V26.4208H107.965V24.4028H109.775V21.4648H112.342Z" fill="white"/>
<path d="M116.082 30.6106C116.082 26.7045 118.389 24.25 121.986 24.25C125.596 24.25 127.892 26.7045 127.892 30.6106C127.892 34.5274 125.608 36.9712 121.986 36.9712C118.366 36.9712 116.082 34.5274 116.082 30.6106ZM125.289 30.6106C125.289 27.9311 124.057 26.3497 121.986 26.3497C119.916 26.3497 118.686 27.9432 118.686 30.6106C118.686 33.3008 119.916 34.8702 121.986 34.8702C124.057 34.8702 125.288 33.3008 125.288 30.6106H125.289Z" fill="white"/>
<path d="M129.998 24.4026H132.435V26.5156H132.494C132.659 25.8557 133.047 25.2725 133.592 24.864C134.138 24.4555 134.807 24.2467 135.489 24.2727C135.783 24.2716 136.077 24.3035 136.365 24.3677V26.7513C135.993 26.638 135.605 26.586 135.216 26.5973C134.845 26.5823 134.475 26.6476 134.131 26.7887C133.788 26.9297 133.479 27.1433 133.226 27.4146C132.973 27.686 132.782 28.0087 132.666 28.3607C132.55 28.7126 132.511 29.0854 132.553 29.4536V36.8172H129.998L129.998 24.4026Z" fill="white"/>
<path d="M148.146 33.1709C147.802 35.4246 145.601 36.9713 142.786 36.9713C139.164 36.9713 136.916 34.5515 136.916 30.6695C136.916 26.7755 139.176 24.25 142.678 24.25C146.123 24.25 148.289 26.6095 148.289 30.3736V31.2467H139.496V31.4007C139.455 31.8576 139.512 32.3178 139.664 32.7509C139.815 33.184 140.058 33.58 140.374 33.9126C140.691 34.2452 141.075 34.5067 141.501 34.6799C141.927 34.8531 142.385 34.934 142.845 34.9171C143.449 34.9735 144.055 34.8341 144.573 34.5194C145.091 34.2048 145.493 33.7319 145.72 33.1709L148.146 33.1709ZM139.508 29.4657H145.732C145.755 29.0549 145.692 28.6438 145.548 28.2582C145.404 27.8726 145.182 27.5208 144.895 27.225C144.609 26.9291 144.264 26.6955 143.882 26.5389C143.501 26.3823 143.091 26.306 142.678 26.3149C142.262 26.3124 141.849 26.3921 141.464 26.5495C141.079 26.7068 140.729 26.9386 140.435 27.2316C140.14 27.5245 139.906 27.8727 139.747 28.2562C139.588 28.6397 139.507 29.0507 139.508 29.4657V29.4657Z" fill="white"/>
<path d="M49.7507 6.97266C50.2865 6.93433 50.8241 7.01503 51.3248 7.20897C51.8254 7.40291 52.2767 7.70523 52.6461 8.09414C53.0154 8.48305 53.2935 8.94886 53.4605 9.45795C53.6274 9.96704 53.679 10.5067 53.6114 11.0381C53.6114 13.652 52.1947 15.1545 49.7507 15.1545H46.7871V6.97266H49.7507ZM48.0615 13.9974H49.6084C49.9912 14.0202 50.3743 13.9576 50.7298 13.8142C51.0854 13.6707 51.4043 13.45 51.6635 13.1682C51.9227 12.8863 52.1156 12.5503 52.2282 12.1847C52.3407 11.8191 52.3701 11.4331 52.3142 11.0548C52.3661 10.6779 52.3337 10.2943 52.2194 9.93138C52.1051 9.56847 51.9117 9.23526 51.6531 8.95563C51.3945 8.67599 51.0771 8.45686 50.7236 8.31393C50.3701 8.171 49.9893 8.10781 49.6084 8.12889H48.0615V13.9974Z" fill="white"/>
<path d="M55.0509 12.0645C55.012 11.6588 55.0585 11.2494 55.1876 10.8626C55.3166 10.4758 55.5253 10.1202 55.8002 9.81854C56.0752 9.51689 56.4103 9.27588 56.7841 9.11096C57.1579 8.94603 57.5622 8.86084 57.9709 8.86084C58.3797 8.86084 58.784 8.94603 59.1578 9.11096C59.5316 9.27588 59.8667 9.51689 60.1416 9.81854C60.4166 10.1202 60.6252 10.4758 60.7543 10.8626C60.8833 11.2494 60.9299 11.6588 60.8909 12.0645C60.9306 12.4707 60.8846 12.8807 60.7559 13.2681C60.6272 13.6555 60.4187 14.0117 60.1437 14.314C59.8687 14.6162 59.5333 14.8577 59.1591 15.023C58.7849 15.1883 58.3802 15.2737 57.9709 15.2737C57.5617 15.2737 57.157 15.1883 56.7828 15.023C56.4086 14.8577 56.0732 14.6162 55.7982 14.314C55.5232 14.0117 55.3146 13.6555 55.1859 13.2681C55.0573 12.8807 55.0113 12.4707 55.0509 12.0645ZM59.634 12.0645C59.634 10.7261 59.0311 9.94343 57.9729 9.94343C56.9108 9.94343 56.3132 10.7261 56.3132 12.0645C56.3132 13.4137 56.9108 14.1903 57.9729 14.1903C59.0311 14.1903 59.634 13.4083 59.634 12.0645H59.634Z" fill="white"/>
<path d="M68.6541 15.1545H67.3865L66.1068 10.607H66.0101L64.7357 15.1545H63.4802L61.7734 8.97998H63.0129L64.1221 13.6915H64.2134L65.4864 8.97998H66.6587L67.9317 13.6915H68.0284L69.1322 8.97998H70.3542L68.6541 15.1545Z" fill="white"/>
<path d="M71.7891 8.97976H72.9654V9.96063H73.0567C73.2116 9.60834 73.4729 9.31301 73.8041 9.11582C74.1353 8.91864 74.52 8.8294 74.9045 8.86057C75.2057 8.83798 75.5082 8.88328 75.7896 8.99311C76.0709 9.10294 76.3239 9.27448 76.5297 9.49504C76.7355 9.71559 76.8889 9.97949 76.9786 10.2672C77.0682 10.5549 77.0918 10.859 77.0476 11.1571V15.1542H75.8256V11.4631C75.8256 10.4708 75.3933 9.97737 74.4895 9.97737C74.285 9.96787 74.0808 10.0026 73.8909 10.0791C73.7011 10.1557 73.5301 10.2723 73.3897 10.4209C73.2492 10.5695 73.1427 10.7467 73.0773 10.9402C73.012 11.1337 72.9894 11.339 73.011 11.5421V15.1543H71.7891L71.7891 8.97976Z" fill="white"/>
<path d="M78.9941 6.56934H80.2161V15.1542H78.9941V6.56934Z" fill="white"/>
<path d="M81.9142 12.0646C81.8753 11.6588 81.9219 11.2494 82.0509 10.8626C82.18 10.4758 82.3887 10.1202 82.6637 9.81855C82.9386 9.5169 83.2738 9.27589 83.6476 9.11096C84.0214 8.94603 84.4257 8.86084 84.8345 8.86084C85.2433 8.86084 85.6476 8.94603 86.0214 9.11096C86.3953 9.27589 86.7304 9.5169 87.0054 9.81855C87.2803 10.1202 87.489 10.4758 87.6181 10.8626C87.7472 11.2494 87.7937 11.6588 87.7548 12.0646C87.7945 12.4708 87.7484 12.8808 87.6197 13.2682C87.4909 13.6556 87.2824 14.0119 87.0073 14.3141C86.7323 14.6163 86.3969 14.8578 86.0227 15.0231C85.6485 15.1884 85.2438 15.2738 84.8345 15.2738C84.4252 15.2738 84.0205 15.1884 83.6463 15.0231C83.2721 14.8578 82.9367 14.6163 82.6617 14.3141C82.3866 14.0119 82.1781 13.6556 82.0493 13.2682C81.9206 12.8808 81.8746 12.4708 81.9142 12.0646ZM86.4973 12.0646C86.4973 10.7262 85.8943 9.94354 84.8362 9.94354C83.774 9.94354 83.1765 10.7262 83.1765 12.0647C83.1765 13.4138 83.774 14.1904 84.8362 14.1904C85.8943 14.1904 86.4973 13.4084 86.4973 12.0646H86.4973Z" fill="white"/>
<path d="M89.043 13.4083C89.043 12.2969 89.8728 11.6562 91.3459 11.5651L93.0231 11.4687V10.9357C93.0231 10.2836 92.5907 9.91536 91.7555 9.91536C91.0733 9.91536 90.6007 10.1651 90.465 10.6016H89.282C89.4069 9.54109 90.4073 8.86084 91.8119 8.86084C93.3642 8.86084 94.2398 9.63146 94.2398 10.9357V15.1545H93.0634V14.2868H92.9667C92.7705 14.598 92.4949 14.8518 92.1682 15.0221C91.8414 15.1924 91.4752 15.2732 91.1069 15.2562C90.847 15.2832 90.5843 15.2555 90.3357 15.1751C90.0871 15.0946 89.8583 14.963 89.6638 14.7889C89.4693 14.6148 89.3136 14.402 89.2067 14.1642C89.0998 13.9264 89.044 13.6689 89.043 13.4083ZM93.0231 12.8807V12.3645L91.5111 12.4609C90.6584 12.5178 90.2717 12.8071 90.2717 13.3514C90.2717 13.9071 90.7551 14.2305 91.4198 14.2305C91.6146 14.2502 91.8114 14.2306 91.9984 14.1729C92.1854 14.1151 92.3589 14.0205 92.5084 13.8946C92.658 13.7686 92.7807 13.614 92.8691 13.4398C92.9575 13.2656 93.0099 13.0755 93.0231 12.8807Z" fill="white"/>
<path d="M95.8457 12.0643C95.8457 10.1132 96.8515 8.87726 98.4159 8.87726C98.8029 8.85948 99.1869 8.9519 99.5231 9.14373C99.8594 9.33555 100.134 9.61886 100.315 9.96052H100.406V6.56934H101.628V15.1542H100.457V14.1786H100.36C100.166 14.518 99.8815 14.7978 99.5388 14.9877C99.196 15.1776 98.8077 15.2703 98.4159 15.2559C96.8408 15.256 95.8457 14.02 95.8457 12.0643ZM97.108 12.0643C97.108 13.3739 97.7271 14.1619 98.7624 14.1619C99.7923 14.1619 100.429 13.3625 100.429 12.0696C100.429 10.7828 99.7856 9.97196 98.7624 9.97196C97.7337 9.97196 97.108 10.7654 97.108 12.0643H97.108Z" fill="white"/>
<path d="M106.684 12.0645C106.645 11.6588 106.691 11.2494 106.82 10.8626C106.949 10.4758 107.158 10.1202 107.433 9.81854C107.708 9.51689 108.043 9.27588 108.417 9.11096C108.791 8.94603 109.195 8.86084 109.604 8.86084C110.012 8.86084 110.417 8.94603 110.791 9.11096C111.164 9.27588 111.499 9.51689 111.774 9.81854C112.049 10.1202 112.258 10.4758 112.387 10.8626C112.516 11.2494 112.563 11.6588 112.524 12.0645C112.563 12.4707 112.517 12.8807 112.389 13.2681C112.26 13.6555 112.051 14.0117 111.776 14.314C111.501 14.6162 111.166 14.8577 110.792 15.023C110.418 15.1883 110.013 15.2737 109.604 15.2737C109.194 15.2737 108.79 15.1883 108.416 15.023C108.041 14.8577 107.706 14.6162 107.431 14.314C107.156 14.0117 106.947 13.6555 106.819 13.2681C106.69 12.8807 106.644 12.4707 106.684 12.0645ZM111.267 12.0645C111.267 10.7261 110.664 9.94343 109.606 9.94343C108.544 9.94343 107.946 10.7261 107.946 12.0645C107.946 13.4137 108.544 14.1903 109.606 14.1903C110.664 14.1903 111.267 13.4083 111.267 12.0645Z" fill="white"/>
<path d="M114.162 8.97976H115.338V9.96063H115.43C115.585 9.60834 115.846 9.31301 116.177 9.11582C116.508 8.91864 116.893 8.8294 117.278 8.86057C117.579 8.83798 117.881 8.88328 118.163 8.99311C118.444 9.10294 118.697 9.27448 118.903 9.49504C119.109 9.71559 119.262 9.97949 119.352 10.2672C119.441 10.5549 119.465 10.859 119.421 11.1571V15.1542H118.199V11.4631C118.199 10.4708 117.766 9.97737 116.863 9.97737C116.658 9.96787 116.454 10.0026 116.264 10.0791C116.074 10.1557 115.903 10.2723 115.763 10.4209C115.622 10.5695 115.516 10.7467 115.45 10.9402C115.385 11.1337 115.362 11.339 115.384 11.5421V15.1543H114.162V8.97976Z" fill="white"/>
<path d="M126.327 7.44287V9.00825H127.669V10.0347H126.327V13.2096C126.327 13.8564 126.595 14.1396 127.203 14.1396C127.359 14.1391 127.514 14.1297 127.669 14.1115V15.1265C127.449 15.1656 127.227 15.1865 127.004 15.1888C125.645 15.1888 125.104 14.712 125.104 13.5216V10.0346H124.121V9.0082H125.104V7.44287H126.327Z" fill="white"/>
<path d="M129.338 6.56934H130.549V9.97194H130.646C130.808 9.61636 131.077 9.31936 131.415 9.12143C131.752 8.9235 132.143 8.83426 132.534 8.86586C132.833 8.8496 133.133 8.8995 133.411 9.012C133.689 9.12449 133.939 9.29682 134.143 9.51668C134.347 9.73653 134.499 9.99851 134.59 10.2839C134.68 10.5693 134.706 10.8711 134.666 11.1677V15.1542H133.443V11.4684C133.443 10.4821 132.982 9.98264 132.119 9.98264C131.909 9.96546 131.698 9.99425 131.5 10.067C131.302 10.1398 131.123 10.2547 130.974 10.4038C130.826 10.5529 130.712 10.7326 130.64 10.9302C130.569 11.1278 130.541 11.3387 130.56 11.548V15.1542H129.338L129.338 6.56934Z" fill="white"/>
<path d="M141.79 13.487C141.624 14.0513 141.265 14.5394 140.774 14.866C140.284 15.1925 139.694 15.3367 139.107 15.2733C138.699 15.284 138.294 15.2061 137.919 15.045C137.545 14.8838 137.21 14.6433 136.937 14.34C136.665 14.0368 136.463 13.6782 136.343 13.289C136.224 12.8998 136.191 12.4894 136.247 12.0863C136.193 11.6819 136.226 11.2707 136.345 10.8803C136.464 10.49 136.666 10.1297 136.936 9.82379C137.207 9.5179 137.541 9.27359 137.914 9.10739C138.288 8.94119 138.693 8.85698 139.102 8.86046C140.825 8.86046 141.864 10.0342 141.864 11.9731V12.3983H137.492V12.4666C137.473 12.6932 137.501 12.9213 137.576 13.1362C137.65 13.3511 137.769 13.5482 137.924 13.7147C138.079 13.8813 138.268 14.0136 138.477 14.1033C138.687 14.193 138.913 14.238 139.141 14.2355C139.433 14.2705 139.729 14.218 139.992 14.0847C140.254 13.9514 140.471 13.7433 140.614 13.4869L141.79 13.487ZM137.492 11.4971H140.619C140.635 11.2899 140.607 11.0817 140.536 10.886C140.466 10.6903 140.356 10.5114 140.212 10.3608C140.069 10.2101 139.895 10.0911 139.703 10.0113C139.511 9.93156 139.304 9.89281 139.095 9.89757C138.884 9.89493 138.674 9.9345 138.478 10.014C138.283 10.0934 138.105 10.2111 137.955 10.3602C137.806 10.5093 137.688 10.6867 137.608 10.8819C137.529 11.0772 137.489 11.2863 137.492 11.4971H137.492Z" fill="white"/>
<defs>
<clipPath id="clip0_2014_3792">
<rect width="160" height="47.4074" fill="white" transform="translate(0 0.0268555)"/>
</clipPath>
</defs>
</svg>
