<svg width="109" height="27" viewBox="0 0 109 27" fill="none" xmlns="http://www.w3.org/2000/svg">
<path d="M0.438761 2.10437C0.133923 2.46479 -0.0216192 2.92811 0.00397826 3.39946V23.8619C-0.0274981 24.3341 0.128765 24.7995 0.438761 25.157L0.503515 25.231L11.9651 13.7695V13.4919L0.503515 2.03961L0.438761 2.10437Z" fill="url(#paint0_linear_2238_4738)"/>
<path d="M15.7576 17.59L11.9648 13.7694V13.4919L15.7576 9.67139L15.8409 9.72689L20.383 12.2986C21.678 13.0294 21.678 14.232 20.383 14.972L15.8594 17.5437L15.7576 17.59Z" fill="url(#paint1_linear_2238_4738)"/>
<path d="M15.8696 17.5343L11.9658 13.6306L0.439453 25.1569C0.700853 25.3896 1.03544 25.5234 1.3852 25.5353C1.73495 25.5471 2.07782 25.4361 2.35434 25.2216L15.8696 17.5343Z" fill="url(#paint2_linear_2238_4738)"/>
<path d="M15.8696 9.72695L2.35434 2.04889C2.07962 1.83142 1.73702 1.71777 1.38679 1.72792C1.03656 1.73807 0.701118 1.87138 0.439453 2.10439L11.9658 13.6307L15.8696 9.72695Z" fill="url(#paint3_linear_2238_4738)"/>
<path d="M36.0322 4.12659C36.0473 4.46584 35.9937 4.80465 35.8745 5.12262C35.7552 5.44058 35.5729 5.73112 35.3384 5.97673C35.0756 6.24805 34.7584 6.46081 34.4077 6.6011C34.057 6.74138 33.6806 6.80602 33.3032 6.79079C32.9236 6.79925 32.5463 6.72973 32.1947 6.58652C31.843 6.44331 31.5245 6.22947 31.2588 5.95823C30.7198 5.40686 30.418 4.66641 30.418 3.89533C30.418 3.12425 30.7198 2.3838 31.2588 1.83243C31.6709 1.42973 32.1929 1.15781 32.759 1.05083C33.3252 0.943847 33.9104 1.00658 34.441 1.23114C34.7746 1.36826 35.0722 1.58033 35.3106 1.85093L34.8203 2.34121C34.6366 2.11991 34.4038 1.94449 34.1405 1.82887C33.8771 1.71325 33.5905 1.66062 33.3032 1.67517C32.9406 1.67768 32.5841 1.76896 32.2649 1.94104C31.9458 2.11313 31.6736 2.36077 31.4722 2.66233C31.2708 2.96389 31.1464 3.31018 31.1098 3.67094C31.0731 4.0317 31.1254 4.39594 31.262 4.73183C31.3987 5.06772 31.6155 5.36503 31.8936 5.59777C32.1716 5.83051 32.5025 5.9916 32.8572 6.06696C33.2119 6.14232 33.5796 6.12966 33.9283 6.03007C34.277 5.93049 34.5959 5.74702 34.8573 5.49569C35.1399 5.18589 35.3037 4.78611 35.3199 4.36711H33.3032V3.70106H35.9952C36.0162 3.84201 36.0286 3.98413 36.0322 4.12659Z" fill="white" stroke="white" stroke-width="0.0518586" stroke-miterlimit="10"/>
<path d="M40.2681 1.81407H37.7704V3.57169H40.046V4.23774H37.7704V5.99537H40.2681V6.67992H37.0488V1.12952H40.2681V1.81407Z" fill="white" stroke="white" stroke-width="0.0518586" stroke-miterlimit="10"/>
<path d="M43.3016 6.67992H42.5893V1.81407H41.0352V1.12952H44.8927V1.81407H43.3016V6.67992Z" fill="white" stroke="white" stroke-width="0.0518586" stroke-miterlimit="10"/>
<path d="M47.6152 6.67992V1.12952H48.3275V6.67992H47.6152Z" fill="white" stroke="white" stroke-width="0.0518586" stroke-miterlimit="10"/>
<path d="M51.4871 6.67992H50.7748V1.81407H49.2207V1.12952H53.032V1.81407H51.4871V6.67992Z" fill="white" stroke="white" stroke-width="0.0518586" stroke-miterlimit="10"/>
<path d="M60.2575 5.95815C59.9903 6.22555 59.673 6.43768 59.3238 6.58241C58.9746 6.72714 58.6003 6.80163 58.2223 6.80163C57.8443 6.80163 57.47 6.72714 57.1208 6.58241C56.7716 6.43768 56.4544 6.22555 56.1872 5.95815C55.6642 5.40223 55.373 4.66775 55.373 3.90451C55.373 3.14127 55.6642 2.40678 56.1872 1.85086C56.4486 1.57593 56.7648 1.35894 57.1154 1.21393C57.466 1.06892 57.8431 0.999119 58.2223 1.00905C58.6011 1.00305 58.977 1.07465 59.327 1.21943C59.677 1.3642 59.9937 1.57909 60.2575 1.85086C60.5235 2.12143 60.7326 2.44256 60.8724 2.79528C61.0122 3.14801 61.0799 3.52517 61.0715 3.90451C61.0837 4.28431 61.0177 4.66256 60.8777 5.01582C60.7376 5.36908 60.5265 5.68982 60.2575 5.95815ZM56.7145 5.49562C56.9115 5.69532 57.1463 5.85389 57.4052 5.96212C57.664 6.07034 57.9418 6.12607 58.2223 6.12607C58.5029 6.12607 58.7807 6.07034 59.0395 5.96212C59.2984 5.85389 59.5331 5.69532 59.7302 5.49562C60.1294 5.06188 60.3509 4.49396 60.3509 3.90451C60.3509 3.31505 60.1294 2.74713 59.7302 2.31339C59.5331 2.11369 59.2984 1.95512 59.0395 1.84689C58.7807 1.73867 58.5029 1.68294 58.2223 1.68294C57.9418 1.68294 57.664 1.73867 57.4052 1.84689C57.1463 1.95512 56.9115 2.11369 56.7145 2.31339C56.3153 2.74713 56.0938 3.31505 56.0938 3.90451C56.0938 4.49396 56.3153 5.06188 56.7145 5.49562Z" fill="white" stroke="white" stroke-width="0.0518586" stroke-miterlimit="10"/>
<path d="M62.0801 6.67992V1.12952H62.9404L65.6416 5.44958V4.3765V1.12952H66.3539V6.67992H65.6138L62.7924 2.15634V3.22017V6.67992H62.0801Z" fill="white" stroke="white" stroke-width="0.0518586" stroke-miterlimit="10"/>
<path d="M55.6418 14.9311C54.8624 14.9329 54.101 15.1659 53.454 15.6004C52.807 16.0349 52.3033 16.6516 52.0067 17.3724C51.7102 18.0932 51.634 18.8857 51.7878 19.6498C51.9417 20.4138 52.3187 21.1152 52.8711 21.665C53.4235 22.2148 54.1266 22.5885 54.8914 22.7387C55.6561 22.889 56.4483 22.8091 57.1677 22.5092C57.8871 22.2092 58.5014 21.7027 58.9329 21.0536C59.3644 20.4045 59.5937 19.6421 59.5919 18.8627C59.5994 18.3427 59.5023 17.8266 59.3062 17.3449C59.1101 16.8633 58.8191 16.4261 58.4506 16.0592C58.082 15.6924 57.6434 15.4035 57.1609 15.2097C56.6783 15.0159 56.1617 14.9211 55.6418 14.9311ZM55.6418 21.2493C55.1641 21.2827 54.6874 21.1717 54.2736 20.9305C53.8599 20.6894 53.5282 20.3294 53.3218 19.8973C53.1153 19.4652 53.0437 18.9809 53.1161 18.5076C53.1885 18.0342 53.4017 17.5935 53.7278 17.2429C54.054 16.8923 54.4781 16.6479 54.945 16.5415C55.412 16.435 55.9001 16.4716 56.346 16.6463C56.7919 16.821 57.1749 17.1258 57.4453 17.521C57.7156 17.9163 57.8608 18.3838 57.862 18.8627C57.8769 19.1661 57.8309 19.4694 57.7267 19.7548C57.6225 20.0402 57.4622 20.3018 57.2553 20.5242C57.0484 20.7467 56.799 20.9254 56.5219 21.05C56.2448 21.1745 55.9455 21.2423 55.6418 21.2493ZM47.0202 14.9311C46.2408 14.9329 45.4794 15.1659 44.8324 15.6004C44.1853 16.0349 43.6817 16.6516 43.3851 17.3724C43.0885 18.0932 43.0124 18.8857 43.1662 19.6498C43.3201 20.4138 43.697 21.1152 44.2495 21.665C44.8019 22.2148 45.5049 22.5885 46.2697 22.7387C47.0345 22.889 47.8267 22.8091 48.5461 22.5092C49.2655 22.2092 49.8797 21.7027 50.3112 21.0536C50.7427 20.4045 50.9721 19.6421 50.9702 18.8627C50.9778 18.3427 50.8806 17.8266 50.6846 17.3449C50.4885 16.8633 50.1975 16.4261 49.8289 16.0592C49.4604 15.6924 49.0218 15.4035 48.5392 15.2097C48.0567 15.0159 47.5401 14.9211 47.0202 14.9311ZM47.0202 21.2493C46.5425 21.2827 46.0658 21.1717 45.652 20.9305C45.2382 20.6894 44.9066 20.3294 44.7001 19.8973C44.4937 19.4652 44.4221 18.9809 44.4945 18.5076C44.5669 18.0342 44.78 17.5935 45.1062 17.2429C45.4324 16.8923 45.8565 16.6479 46.3234 16.5415C46.7903 16.435 47.2785 16.4716 47.7243 16.6463C48.1702 16.821 48.5533 17.1258 48.8236 17.521C49.094 17.9163 49.2392 18.3838 49.2404 18.8627C49.2553 19.1661 49.2093 19.4694 49.1051 19.7548C49.0009 20.0402 48.8406 20.3018 48.6336 20.5242C48.4267 20.7467 48.1774 20.9254 47.9003 21.05C47.6232 21.1745 47.3239 21.2423 47.0202 21.2493ZM36.7705 16.143V17.8081H40.7667C40.7041 18.5924 40.3781 19.3324 39.8417 19.908C39.4408 20.3164 38.9587 20.6361 38.4264 20.8465C37.8942 21.0568 37.3237 21.1531 36.752 21.1291C35.5743 21.1291 34.4449 20.6612 33.6122 19.8285C32.7794 18.9958 32.3116 17.8664 32.3116 16.6887C32.3116 15.5111 32.7794 14.3817 33.6122 13.549C34.4449 12.7162 35.5743 12.2484 36.752 12.2484C37.881 12.2316 38.9711 12.6604 39.7862 13.4418L40.961 12.2669C40.4097 11.7216 39.755 11.2918 39.0354 11.0027C38.3159 10.7136 37.5458 10.571 36.7705 10.5833C35.9481 10.5513 35.1277 10.6856 34.3585 10.9783C33.5892 11.2709 32.887 11.7158 32.2938 12.2864C31.7007 12.8569 31.2288 13.5413 30.9064 14.2986C30.5841 15.0558 30.418 15.8704 30.418 16.6934C30.418 17.5164 30.5841 18.3309 30.9064 19.0882C31.2288 19.8454 31.7007 20.5299 32.2938 21.1004C32.887 21.6709 33.5892 22.1158 34.3585 22.4085C35.1277 22.7011 35.9481 22.8354 36.7705 22.8034C37.5618 22.835 38.3508 22.6989 39.0858 22.404C39.8208 22.109 40.4851 21.6619 41.035 21.0921C42.0064 20.0249 42.5241 18.6214 42.4781 17.179C42.4814 16.8319 42.4536 16.4851 42.3949 16.143H36.7705ZM78.6853 17.438C78.444 16.7283 77.9929 16.1085 77.3916 15.6609C76.7903 15.2132 76.0672 14.9587 75.318 14.9311C74.812 14.9301 74.3112 15.0329 73.8465 15.2332C73.3817 15.4334 72.963 15.7269 72.6162 16.0953C72.2694 16.4638 72.0019 16.8995 71.8302 17.3755C71.6584 17.8515 71.5861 18.3576 71.6177 18.8627C71.6098 19.7071 71.8753 20.5314 72.3746 21.2126C72.8738 21.8937 73.58 22.395 74.3876 22.6417C75.1953 22.8884 76.0611 22.8671 76.8557 22.5812C77.6503 22.2952 78.331 21.7598 78.7963 21.0551L77.4549 20.13C77.255 20.4633 76.9713 20.7385 76.6322 20.9283C76.2931 21.1182 75.9102 21.2161 75.5215 21.2123C75.1206 21.2289 74.724 21.1238 74.3839 20.9108C74.0438 20.6978 73.7761 20.3869 73.6159 20.019L78.8795 17.8451L78.6853 17.438ZM73.3199 18.7516C73.3011 18.4643 73.3399 18.1761 73.4339 17.9039C73.5279 17.6318 73.6753 17.3811 73.8674 17.1666C74.0595 16.9521 74.2925 16.778 74.5527 16.6547C74.8129 16.5313 75.0951 16.4612 75.3828 16.4482C75.6808 16.43 75.9776 16.5002 76.236 16.65C76.4943 16.7997 76.7028 17.0224 76.8351 17.29L73.3199 18.7516ZM69.0461 22.5629H70.7759V10.9996H69.0461V22.5629ZM66.2153 15.8099H66.1506C65.8922 15.5156 65.5732 15.2806 65.2156 15.121C64.858 14.9613 64.4701 14.8808 64.0784 14.8849C63.0675 14.9339 62.1142 15.37 61.4161 16.1028C60.7179 16.8356 60.3285 17.8089 60.3285 18.821C60.3285 19.8331 60.7179 20.8065 61.4161 21.5393C62.1142 22.2721 63.0675 22.7082 64.0784 22.7572C64.4706 22.7651 64.8597 22.6862 65.2179 22.5263C65.5761 22.3664 65.8946 22.1294 66.1506 21.8321H66.2153V22.3964C66.2153 23.9043 65.4105 24.7091 64.1154 24.7091C63.6828 24.6996 63.2628 24.5617 62.9086 24.313C62.5545 24.0643 62.2823 23.716 62.1266 23.3122L60.6279 23.932C60.905 24.6279 61.3867 25.2233 62.0094 25.6396C62.6321 26.0558 63.3665 26.2733 64.1154 26.2632C66.1413 26.2632 67.8157 25.0699 67.8157 22.1651V15.1624H66.2153V15.8099ZM64.2265 21.2493C63.6204 21.2115 63.0515 20.9441 62.6356 20.5016C62.2198 20.059 61.9883 19.4746 61.9883 18.8673C61.9883 18.26 62.2198 17.6756 62.6356 17.233C63.0515 16.7904 63.6204 16.523 64.2265 16.4852C64.5227 16.498 64.8133 16.5703 65.0811 16.6977C65.3488 16.8251 65.5882 17.005 65.785 17.2268C65.9818 17.4486 66.1319 17.7078 66.2265 17.9888C66.3211 18.2698 66.3582 18.567 66.3356 18.8627C66.3608 19.1593 66.3256 19.458 66.2322 19.7407C66.1387 20.0234 65.9888 20.2841 65.7916 20.5072C65.5945 20.7303 65.3541 20.9111 65.0851 21.0387C64.8161 21.1662 64.524 21.2379 64.2265 21.2493ZM86.7888 10.9996H82.6446V22.5629H84.3744V18.1781H86.7888C87.2819 18.2135 87.7769 18.147 88.2431 17.9827C88.7092 17.8183 89.1366 17.5597 89.4984 17.223C89.8602 16.8862 90.1488 16.4785 90.3461 16.0253C90.5434 15.5721 90.6452 15.0831 90.6452 14.5888C90.6452 14.0946 90.5434 13.6056 90.3461 13.1524C90.1488 12.6992 89.8602 12.2915 89.4984 11.9547C89.1366 11.618 88.7092 11.3594 88.2431 11.195C87.7769 11.0307 87.2819 10.9642 86.7888 10.9996ZM86.7888 16.55H84.3744V12.6092H86.8259C87.0858 12.6092 87.3433 12.6604 87.5834 12.7599C87.8236 12.8594 88.0418 13.0052 88.2257 13.189C88.4095 13.3728 88.5553 13.5911 88.6548 13.8313C88.7543 14.0714 88.8055 14.3289 88.8055 14.5888C88.8055 14.8488 88.7543 15.1062 88.6548 15.3464C88.5553 15.5866 88.4095 15.8048 88.2257 15.9887C88.0418 16.1725 87.8236 16.3183 87.5834 16.4178C87.3433 16.5173 87.0858 16.5685 86.8259 16.5685L86.7888 16.55ZM97.4641 14.8941C96.8342 14.8553 96.2066 15.0019 95.6591 15.316C95.1116 15.63 94.6682 16.0976 94.3836 16.661L95.91 17.2993C96.0642 17.0212 96.2957 16.7937 96.5764 16.6444C96.8571 16.495 97.1751 16.4301 97.4919 16.4575C97.7115 16.4318 97.934 16.4502 98.1464 16.5114C98.3589 16.5727 98.557 16.6756 98.7292 16.8143C98.9014 16.9529 99.0443 17.1245 99.1495 17.3189C99.2547 17.5134 99.3202 17.7268 99.342 17.9468V18.0578C98.7857 17.7654 98.1666 17.613 97.5381 17.6138C95.8915 17.6138 94.2079 18.5389 94.2079 20.2225C94.2242 20.5804 94.3122 20.9313 94.4668 21.2545C94.6213 21.5776 94.8393 21.8664 95.1076 22.1037C95.376 22.341 95.6893 22.522 96.029 22.6358C96.3686 22.7497 96.7277 22.7941 97.0849 22.7664C97.5189 22.7904 97.9516 22.6986 98.3385 22.5003C98.7254 22.3019 99.0526 22.0043 99.2865 21.6379H99.342V22.5629H101.007V18.1133C101.007 16.0874 99.4715 14.9126 97.5011 14.9126L97.4641 14.8941ZM97.2514 21.2308C96.6871 21.2308 95.9008 20.9441 95.9008 20.2503C95.9008 19.3252 96.8813 19.0107 97.7509 19.0107C98.3004 18.9971 98.8435 19.1313 99.3235 19.3992C99.2654 19.9016 99.0272 20.3659 98.653 20.706C98.2788 21.0462 97.794 21.2392 97.2884 21.2493L97.2514 21.2308ZM107.076 15.1624L105.096 20.1762H105.04L102.987 15.1624H101.137L104.217 22.1744L102.459 26.0689H104.263L109 15.1624H107.076ZM91.5344 22.5629H93.2551V10.9996H91.5344V22.5629Z" fill="white"/>
<defs>
<linearGradient id="paint0_linear_2238_4738" x1="10.9475" y1="3.1867" x2="-4.5751" y2="18.7093" gradientUnits="userSpaceOnUse">
<stop stop-color="#00A0FF"/>
<stop offset="0.01" stop-color="#00A1FF"/>
<stop offset="0.26" stop-color="#00BEFF"/>
<stop offset="0.51" stop-color="#00D2FF"/>
<stop offset="0.76" stop-color="#00DFFF"/>
<stop offset="1" stop-color="#00E3FF"/>
</linearGradient>
<linearGradient id="paint1_linear_2238_4738" x1="22.0758" y1="13.6307" x2="-0.301545" y2="13.6307" gradientUnits="userSpaceOnUse">
<stop stop-color="#FFE000"/>
<stop offset="0.41" stop-color="#FFBD00"/>
<stop offset="0.78" stop-color="#FFA500"/>
<stop offset="1" stop-color="#FF9C00"/>
</linearGradient>
<linearGradient id="paint2_linear_2238_4738" x1="13.7512" y1="15.7582" x2="-7.30336" y2="36.8035" gradientUnits="userSpaceOnUse">
<stop stop-color="#FF3A44"/>
<stop offset="1" stop-color="#C31162"/>
</linearGradient>
<linearGradient id="paint3_linear_2238_4738" x1="-2.46526" y1="-4.7041" x2="6.93343" y2="4.69458" gradientUnits="userSpaceOnUse">
<stop stop-color="#32A071"/>
<stop offset="0.07" stop-color="#2DA771"/>
<stop offset="0.48" stop-color="#15CF74"/>
<stop offset="0.8" stop-color="#06E775"/>
<stop offset="1" stop-color="#00F076"/>
</linearGradient>
</defs>
</svg>
